<svg width="638" height="638" viewBox="0 0 638 638" fill="none" xmlns="http://www.w3.org/2000/svg">
<g opacity="0.3">
<path d="M312.607 611.995C471.203 611.995 599.771 537.768 599.771 446.204C599.771 354.641 471.203 280.414 312.607 280.414C154.011 280.414 25.4434 354.641 25.4434 446.204C25.4434 537.768 154.011 611.995 312.607 611.995Z" fill="#F5F5F5"/>
<path d="M361.759 537.362C390.92 537.362 414.56 523.714 414.56 506.878C414.56 490.043 390.92 476.395 361.759 476.395C332.598 476.395 308.958 490.043 308.958 506.878C308.958 523.714 332.598 537.362 361.759 537.362Z" fill="#E0E0E0"/>
<path d="M499.12 519.306C528.281 519.306 551.921 505.658 551.921 488.823C551.921 471.987 528.281 458.339 499.12 458.339C469.959 458.339 446.319 471.987 446.319 488.823C446.319 505.658 469.959 519.306 499.12 519.306Z" fill="#E0E0E0"/>
<path d="M210.31 583.068C239.472 583.068 263.111 569.42 263.111 552.584C263.111 535.749 239.472 522.101 210.31 522.101C181.149 522.101 157.51 535.749 157.51 552.584C157.51 569.42 181.149 583.068 210.31 583.068Z" fill="#E0E0E0"/>
<path d="M123.772 452.342C123.772 452.342 122.394 420.11 108.881 402.17C95.3683 384.229 78.8058 381.652 70.6011 386.704C64.6039 390.379 65.4078 401.302 75.7817 408.396C86.1555 415.491 106.15 433.674 109.277 445.528L123.772 452.342Z" fill="#37474F"/>
<path d="M114.84 447.646C114.621 447.63 114.417 447.529 114.272 447.364C114.126 447.2 114.051 446.985 114.062 446.766C115.452 417.52 89.8176 399.286 82.8379 396.007C82.6376 395.912 82.4824 395.743 82.406 395.535C82.3296 395.328 82.3381 395.098 82.4296 394.896C82.5263 394.695 82.698 394.54 82.9078 394.464C83.1177 394.387 83.349 394.396 83.5524 394.488C90.7108 397.882 117.162 416.678 115.733 446.804C115.72 447.025 115.62 447.232 115.455 447.38C115.291 447.529 115.074 447.606 114.853 447.595L114.84 447.646Z" fill="white"/>
<path d="M117.392 442.159C115.55 442.134 113.778 441.446 112.403 440.22C110.833 438.497 110.961 435.856 110.234 433.636C109.047 429.986 105.449 427.511 101.697 426.733C97.8935 426.139 94.0053 426.401 90.3153 427.498C82.7869 429.348 75.552 424.717 68.0108 425.265C65.2898 425.353 62.6437 426.177 60.3548 427.651C59.2259 428.398 58.301 429.415 57.6638 430.609C57.0266 431.803 56.6972 433.137 56.7055 434.491C56.9641 436.731 58.0799 438.784 59.8189 440.22C61.5627 441.652 63.4841 442.853 65.5354 443.793L72.1578 447.174C73.3027 447.683 74.3582 448.372 75.284 449.216C76.159 450.153 76.8189 451.27 77.2177 452.489C77.6166 453.708 77.7449 454.999 77.5936 456.272C77.0832 458.824 75.0416 460.764 74.3908 463.264C73.587 466.544 75.5903 470.053 78.474 471.826C81.4693 473.448 84.8884 474.116 88.2737 473.74C91.6551 473.549 94.9982 472.873 98.3796 472.809C100.667 472.645 102.954 473.146 104.964 474.251C107.234 475.894 108.869 478.269 109.596 480.975C110.034 482.711 110.731 484.372 111.663 485.901C112.812 487.353 114.359 488.44 116.116 489.027C119.514 490.278 123.245 490.278 126.643 489.027C129.437 487.955 130.803 484.803 131.849 482.073C132.895 479.214 133.392 476.184 133.317 473.141C133.156 465.319 131.388 457.614 128.123 450.504C126.554 447.238 124.295 443.971 120.824 442.848C119.7 442.528 118.553 442.298 117.392 442.159Z" fill="#455A64"/>
<path d="M124.64 477.224C124.485 477.224 124.335 477.177 124.209 477.088C124.083 476.998 123.988 476.872 123.938 476.726C116.065 454.154 78.8185 434.516 65.2418 432.258C65.1455 432.242 65.0532 432.207 64.9703 432.155C64.8873 432.104 64.8154 432.036 64.7585 431.957C64.7016 431.878 64.661 431.788 64.6388 431.693C64.6166 431.598 64.6134 431.499 64.6293 431.403C64.6453 431.306 64.68 431.214 64.7316 431.131C64.7831 431.048 64.8506 430.976 64.9299 430.919C65.0093 430.863 65.0991 430.822 65.1942 430.8C65.2894 430.778 65.3879 430.774 65.4842 430.79C79.3671 433.087 117.354 453.159 125.456 476.229C125.49 476.322 125.506 476.42 125.501 476.519C125.496 476.618 125.472 476.715 125.429 476.804C125.386 476.893 125.326 476.973 125.251 477.039C125.177 477.104 125.091 477.154 124.997 477.186C124.882 477.225 124.76 477.238 124.64 477.224Z" fill="white"/>
<path d="M91.1575 464.847C91.0149 464.835 90.8789 464.782 90.7658 464.695C90.6527 464.607 90.5673 464.489 90.5201 464.354C90.4728 464.219 90.4657 464.073 90.4996 463.934C90.5334 463.795 90.6068 463.669 90.7109 463.571C96.8011 459.358 104.003 457.045 111.408 456.923C111.589 456.947 111.755 457.035 111.876 457.173C111.996 457.31 112.063 457.487 112.063 457.669C112.063 457.852 111.996 458.029 111.876 458.166C111.755 458.303 111.589 458.392 111.408 458.416C104.325 458.587 97.4434 460.803 91.5913 464.796C91.4547 464.855 91.304 464.872 91.1575 464.847Z" fill="white"/>
<path d="M125.048 494.68C124.245 494.134 123.583 493.408 123.113 492.559C122.643 491.71 122.379 490.762 122.343 489.793V223.887C122.398 222.887 122.688 221.915 123.189 221.048C123.69 220.182 124.388 219.445 125.227 218.898L438.051 38.28C438.882 37.7569 439.84 37.4705 440.822 37.4517C441.804 37.4329 442.773 37.6824 443.624 38.1734C444.474 38.6644 445.175 39.3782 445.65 40.238C446.125 41.0977 446.356 42.0707 446.319 43.0523V308.971C446.264 309.97 445.974 310.943 445.473 311.809C444.972 312.676 444.274 313.413 443.435 313.96L130.611 494.578C129.756 495.028 128.808 495.271 127.842 495.289C126.876 495.307 125.919 495.098 125.048 494.68Z" fill="#455A64"/>
<path d="M130.063 494.82H129.948C129.861 494.872 129.766 494.911 129.667 494.935H129.45C129.322 494.98 129.19 495.01 129.055 495.024C128.969 495.059 128.879 495.08 128.787 495.088L128.353 495.152C127.214 495.306 126.056 495.106 125.035 494.578C124.234 494.035 123.573 493.311 123.105 492.463C122.637 491.616 122.376 490.671 122.343 489.703V257.969L127.753 261.095V492.906C127.753 494.182 128.404 494.973 129.348 494.973C129.475 494.992 129.604 494.992 129.731 494.973C129.849 494.939 129.961 494.888 130.063 494.82Z" fill="#269D89"/>
<path opacity="0.81" d="M130.063 494.82H129.948C129.861 494.872 129.766 494.911 129.667 494.935H129.45C129.322 494.98 129.19 495.01 129.055 495.024C128.969 495.059 128.879 495.08 128.787 495.088L128.353 495.152C127.214 495.306 126.056 495.106 125.035 494.578C124.234 494.035 123.573 493.311 123.105 492.463C122.637 491.616 122.376 490.671 122.343 489.703V257.969L127.753 261.095V492.906C127.753 494.182 128.404 494.973 129.348 494.973C129.475 494.992 129.604 494.992 129.731 494.973C129.849 494.939 129.961 494.888 130.063 494.82Z" fill="#E0E0E0"/>
<path d="M127.741 261.095L122.33 257.969V309.456L127.741 312.607V261.095Z" fill="#269D89"/>
<path opacity="0.15" d="M127.741 261.095L122.33 257.969V309.456L127.741 312.607V261.095Z" fill="black"/>
<path d="M128.57 224.168C128.059 225.027 127.774 226.001 127.74 227V261.095L122.33 257.969V223.887C122.324 223.772 122.324 223.657 122.33 223.542C122.355 223.302 122.393 223.064 122.445 222.828C122.604 222.204 122.844 221.603 123.16 221.042L128.57 224.168Z" fill="#263238"/>
<path d="M446.319 43.065V58.4536L217.009 190.839C215.427 191.757 214.138 191.004 214.138 189.18V183.348C214.138 181.524 212.862 180.796 211.255 181.69L141.419 222.024C140.581 222.571 139.883 223.308 139.382 224.174C138.881 225.041 138.591 226.014 138.535 227.013V232.832C138.481 233.83 138.193 234.802 137.695 235.668C137.196 236.535 136.5 237.272 135.664 237.821L127.74 242.44V227.128C127.795 226.13 128.083 225.158 128.581 224.291C129.08 223.425 129.775 222.687 130.611 222.139L443.448 41.4062C445.031 40.4875 446.319 41.2275 446.319 43.065Z" fill="#37474F"/>
<path d="M446.332 308.983C446.275 309.981 445.984 310.951 445.483 311.815C444.982 312.679 444.285 313.414 443.448 313.96L130.611 494.578C129.029 495.484 127.74 494.743 127.74 492.906V242.44L135.664 237.872C137.247 236.953 139.824 222.994 141.419 222.075L210.081 182.43C211.676 181.511 215.427 191.821 217.009 190.902L446.319 58.4536V308.983H446.332Z" fill="#269D89"/>
<path opacity="0.9" d="M446.332 308.983C446.275 309.981 445.984 310.951 445.483 311.815C444.982 312.679 444.285 313.414 443.448 313.96L130.611 494.578C129.029 495.484 127.74 494.743 127.74 492.906V242.44L135.664 237.872C137.247 236.953 139.824 222.994 141.419 222.075L210.081 182.43C211.676 181.511 215.427 191.821 217.009 190.902L446.319 58.4536V308.983H446.332Z" fill="white"/>
<g opacity="0.4">
<path d="M445.043 60.6611V308.983C444.981 309.749 444.747 310.492 444.358 311.154C443.969 311.817 443.436 312.384 442.798 312.811L129.973 493.468C129.78 493.598 129.555 493.673 129.323 493.685C129.029 493.685 129.016 493.047 129.016 492.906V243.116L136.302 238.906C137.425 238.255 138.14 236.022 139.748 230.28C140.331 227.806 141.134 225.389 142.147 223.058L210.247 183.744C211.062 184.855 211.795 186.023 212.441 187.24C214.292 190.481 215.312 192.166 216.793 192.166C217.091 192.165 217.385 192.09 217.647 191.949L445.043 60.6611ZM446.319 58.4536L217.009 190.839C216.938 190.856 216.864 190.856 216.793 190.839C215.185 190.839 211.918 182.251 210.298 182.251C210.227 182.233 210.152 182.233 210.081 182.251L141.419 222.024C139.824 222.943 137.247 236.902 135.664 237.821L127.74 242.44V492.906C127.74 494.182 128.391 494.961 129.323 494.961C129.773 494.942 130.212 494.81 130.599 494.578L443.448 313.96C444.285 313.414 444.982 312.679 445.483 311.815C445.984 310.951 446.275 309.981 446.332 308.983V58.4536H446.319Z" fill="#269D89"/>
</g>
<path d="M127.74 261.095V312.607L446.319 128.697V77.1726L127.74 261.095Z" fill="#269D89"/>
<path d="M446.319 58.4536V77.1725L127.74 261.095V242.44L133.648 239.02C135.231 238.102 135.767 236.698 136.519 234.031L138.535 227.064C139.161 224.64 139.811 222.994 141.419 222.075L210.081 182.43C211.676 181.511 212.926 181.409 214.138 183.412L216.601 187.878C217.494 189.448 217.954 190.367 219.536 189.448L446.319 58.4536Z" fill="#F0F0F0"/>
<path d="M432.819 52.7117C434.823 51.5633 436.443 52.4948 436.443 54.8043C436.375 56.0619 436.011 57.2857 435.382 58.3765C434.752 59.4672 433.874 60.3942 432.819 61.0822C430.829 62.2306 429.208 61.2992 429.208 58.9896C429.277 57.7336 429.64 56.5113 430.267 55.4209C430.894 54.3306 431.768 53.4026 432.819 52.7117Z" fill="#269D89"/>
<path d="M419.804 60.2273C421.795 59.0789 423.415 60.0104 423.415 62.32C423.346 63.5759 422.984 64.7983 422.357 65.8886C421.729 66.979 420.855 67.9069 419.804 68.5979C417.801 69.7463 416.18 68.8148 416.18 66.5052C416.248 65.2476 416.612 64.0238 417.242 62.9331C417.871 61.8423 418.749 60.9153 419.804 60.2273Z" fill="#269D89"/>
<path d="M406.751 67.7429C408.741 66.5945 410.374 67.526 410.374 69.8356C410.303 71.0925 409.938 72.3151 409.309 73.4054C408.68 74.4957 407.803 75.4232 406.751 76.1135C404.747 77.2747 403.127 76.3304 403.127 74.0209C403.195 72.7633 403.559 71.5395 404.188 70.4487C404.818 69.358 405.696 68.431 406.751 67.7429Z" fill="#269D89"/>
<path opacity="0.5" d="M140.934 243.716L136.417 246.268L138.14 242.963C138.208 242.838 138.244 242.698 138.244 242.555C138.244 242.412 138.208 242.272 138.14 242.147C138.012 241.993 137.782 242.147 137.629 242.389L135.179 247.11C135.174 247.17 135.174 247.229 135.179 247.289C135.174 247.37 135.174 247.451 135.179 247.531C135.172 247.603 135.172 247.676 135.179 247.748C135.173 247.782 135.173 247.817 135.179 247.85L137.629 249.739C137.666 249.761 137.708 249.773 137.751 249.773C137.793 249.773 137.835 249.761 137.872 249.739C137.989 249.643 138.081 249.521 138.14 249.381C138.267 249.075 138.255 248.731 138.14 248.616L136.417 247.34L140.934 244.788C141.052 244.696 141.148 244.578 141.212 244.443C141.276 244.308 141.308 244.159 141.304 244.01C141.304 243.716 141.138 243.614 140.934 243.716Z" fill="#455A64"/>
<path opacity="0.5" d="M144.711 241.547L149.228 238.995L147.506 237.719C147.352 237.604 147.34 237.259 147.506 236.953C147.671 236.647 147.863 236.481 148.016 236.596L150.466 238.484C150.498 238.508 150.524 238.538 150.542 238.574C150.556 238.641 150.556 238.71 150.542 238.778C150.556 238.858 150.556 238.94 150.542 239.02C150.542 239.02 150.542 239.02 150.542 239.084C150.522 239.146 150.497 239.206 150.466 239.263L148.016 243.933C147.963 244.047 147.879 244.144 147.774 244.214C147.738 244.249 147.69 244.268 147.64 244.268C147.589 244.268 147.541 244.249 147.506 244.214C147.434 244.089 147.396 243.949 147.396 243.805C147.396 243.662 147.434 243.521 147.506 243.397L149.228 240.079L144.711 242.695C144.507 242.81 144.354 242.695 144.354 242.338C144.346 242.187 144.374 242.036 144.436 241.899C144.498 241.761 144.593 241.64 144.711 241.547Z" fill="#455A64"/>
<path opacity="0.5" d="M159.5 228.532C159.5 228.264 159.232 228.302 159.117 228.595L158.492 230.114C157.433 229.999 156.157 231.02 155.289 232.857C154.179 235.218 154.179 237.961 155.289 239.097C155.562 239.352 155.915 239.504 156.287 239.527C156.66 239.551 157.029 239.444 157.331 239.225C158.233 238.619 158.939 237.763 159.36 236.762C159.431 236.642 159.468 236.505 159.468 236.366C159.468 236.227 159.431 236.091 159.36 235.971C159.207 235.83 158.977 235.971 158.837 236.264C158.007 238.025 156.642 238.816 155.813 238.012C154.983 237.208 154.97 235.116 155.813 233.342C156.4 232.066 157.254 231.339 158.007 231.301L157.535 232.436C157.42 232.73 157.535 233.01 157.714 232.883L159.564 231.683C159.635 231.62 159.69 231.54 159.725 231.452C159.761 231.363 159.775 231.268 159.768 231.173L159.5 228.532Z" fill="#455A64"/>
<path opacity="0.5" d="M208.103 190.915L209.749 187.419C209.846 187.254 209.896 187.067 209.896 186.877C209.896 186.686 209.846 186.499 209.749 186.334C209.558 186.156 209.239 186.334 209.047 186.743L207.401 190.226L205.742 188.644C205.551 188.452 205.232 188.644 205.041 189.052C204.944 189.217 204.893 189.404 204.893 189.594C204.893 189.785 204.944 189.972 205.041 190.137L206.687 191.719L205.041 195.228C204.944 195.392 204.893 195.58 204.893 195.77C204.893 195.961 204.944 196.148 205.041 196.313C205.091 196.354 205.154 196.377 205.219 196.377C205.284 196.377 205.348 196.354 205.398 196.313C205.556 196.214 205.677 196.066 205.742 195.892L207.401 192.395L209.047 193.99C209.096 194.031 209.157 194.053 209.22 194.053C209.283 194.053 209.344 194.031 209.392 193.99C209.551 193.889 209.675 193.742 209.749 193.569C209.846 193.405 209.896 193.218 209.896 193.027C209.896 192.836 209.846 192.649 209.749 192.485L208.103 190.915Z" fill="#455A64"/>
<path d="M165.536 232.819V227.001C165.595 226.002 165.887 225.031 166.391 224.167C166.894 223.303 167.593 222.568 168.432 222.024L427.269 72.7321C428.864 71.8134 430.153 72.5535 430.153 74.3909V80.1329C430.097 81.1325 429.807 82.1049 429.306 82.9716C428.805 83.8384 428.107 84.575 427.269 85.1221L168.432 234.491C166.824 235.409 165.536 234.657 165.536 232.819Z" fill="white"/>
<path d="M423.326 85.4921C423.258 85.5055 423.189 85.5055 423.122 85.4921C422.987 85.4246 422.878 85.3137 422.813 85.1773C422.749 85.0408 422.731 84.8867 422.764 84.7393L423.045 82.3276L421.871 81.4855C421.788 81.4243 421.72 81.3433 421.676 81.2497C421.631 81.1562 421.611 81.053 421.616 80.9496C421.617 80.774 421.656 80.6007 421.731 80.442C421.806 80.2833 421.915 80.1429 422.05 80.0308L423.734 78.7548C423.791 78.7039 423.831 78.6372 423.849 78.5634L424.602 76.088C424.645 75.9075 424.738 75.743 424.872 75.614C425.005 75.4851 425.173 75.3972 425.355 75.3607C425.468 75.3568 425.581 75.3861 425.678 75.445C425.776 75.5039 425.854 75.5899 425.903 75.6924L426.58 77.1471L428.111 76.5601C428.219 76.514 428.338 76.5028 428.452 76.528C428.567 76.5531 428.67 76.6135 428.749 76.7005C428.849 76.8541 428.903 77.0337 428.903 77.2173C428.903 77.4008 428.849 77.5804 428.749 77.734L427.473 80.0308C427.459 80.0982 427.459 80.1676 427.473 80.235L427.766 82.3149C427.784 82.4851 427.763 82.657 427.706 82.8182C427.648 82.9793 427.556 83.1256 427.435 83.2464C427.367 83.3274 427.28 83.3906 427.182 83.4306C427.084 83.4706 426.978 83.4862 426.873 83.476L425.355 83.2846L423.887 85.2497C423.816 85.3278 423.73 85.3898 423.633 85.4316C423.536 85.4734 423.431 85.4941 423.326 85.4921ZM422.356 80.8092L423.53 81.6514C423.629 81.7338 423.703 81.8413 423.746 81.9626C423.789 82.0838 423.798 82.2144 423.772 82.3404L423.632 84.331L424.908 82.7232C424.981 82.6196 425.079 82.536 425.193 82.4803C425.306 82.4245 425.432 82.3983 425.559 82.4042L427.077 82.5956C427.077 82.5956 427.141 82.3914 427.077 82.2894L426.784 80.2095C426.764 79.9793 426.812 79.7482 426.924 79.546L428.2 77.2492L426.797 77.7851C426.73 77.8144 426.658 77.83 426.585 77.8311C426.511 77.8322 426.439 77.8186 426.371 77.7913C426.303 77.764 426.242 77.7234 426.19 77.6719C426.138 77.6204 426.097 77.5591 426.069 77.4916L425.444 76.2156L424.691 78.691C424.629 78.9186 424.494 79.12 424.308 79.2652L422.624 80.5412C422.505 80.595 422.41 80.6902 422.356 80.8092Z" fill="#E0E0E0"/>
<g opacity="0.5">
<path d="M433.521 71.941C433.3 71.9433 433.085 71.8719 432.909 71.7382C432.733 71.6045 432.606 71.4161 432.549 71.2026C432.492 70.9891 432.508 70.7628 432.594 70.5591C432.68 70.3555 432.831 70.1863 433.023 70.078L441.113 65.4079C441.226 65.3417 441.351 65.2984 441.481 65.2806C441.611 65.2627 441.743 65.2706 441.87 65.3037C441.997 65.3369 442.116 65.3947 442.22 65.4739C442.325 65.5531 442.412 65.652 442.479 65.7652C442.545 65.8783 442.588 66.0033 442.606 66.1331C442.624 66.263 442.616 66.395 442.583 66.5218C442.55 66.6486 442.492 66.7676 442.413 66.872C442.333 66.9765 442.234 67.0643 442.121 67.1305L434.019 71.8134C433.867 71.8987 433.695 71.9427 433.521 71.941Z" fill="#455A64"/>
<path d="M433.521 76.6238C433.346 76.6235 433.173 76.5775 433.021 76.4902C432.869 76.4029 432.742 76.2774 432.653 76.1262C432.587 76.0124 432.545 75.8866 432.528 75.7562C432.51 75.6258 432.519 75.4933 432.554 75.3663C432.588 75.2394 432.647 75.1205 432.728 75.0165C432.809 74.9126 432.909 74.8257 433.023 74.7608L441.113 70.0779C441.341 69.9732 441.6 69.9572 441.839 70.0329C442.078 70.1087 442.28 70.2708 442.406 70.4876C442.532 70.7043 442.572 70.9603 442.52 71.2054C442.467 71.4505 442.325 71.6673 442.121 71.8133L434.019 76.4834C433.868 76.5727 433.696 76.6211 433.521 76.6238Z" fill="#455A64"/>
<path d="M433.521 81.294C433.346 81.2937 433.173 81.2477 433.021 81.1604C432.869 81.0731 432.742 80.9477 432.653 80.7964C432.588 80.6836 432.545 80.5588 432.528 80.4294C432.511 80.2999 432.52 80.1684 432.555 80.0425C432.589 79.9165 432.648 79.7987 432.729 79.696C432.809 79.5932 432.909 79.5075 433.023 79.4438L441.113 74.7609C441.226 74.6947 441.351 74.6515 441.481 74.6336C441.611 74.6157 441.743 74.6236 441.87 74.6568C441.997 74.69 442.116 74.7478 442.22 74.8269C442.325 74.9061 442.412 75.0051 442.479 75.1182C442.545 75.2313 442.588 75.3563 442.606 75.4862C442.624 75.616 442.616 75.7481 442.583 75.8748C442.55 76.0016 442.492 76.1206 442.413 76.2251C442.333 76.3295 442.234 76.4173 442.121 76.4835L434.019 81.1664C433.867 81.2518 433.695 81.2958 433.521 81.294Z" fill="#455A64"/>
</g>
<path d="M127.741 242.376V261.095L122.33 257.969V239.263L127.741 242.376Z" fill="#E0E0E0"/>
<path d="M347.738 161.858L346.057 162.84L350.918 144.666L352.572 143.699L357.432 156.19L355.752 157.172L351.797 146.578L351.693 146.638L347.738 161.858ZM348.358 155.506L355.132 151.546V153.193L348.358 157.153V155.506ZM359.494 154.985V139.652L361.02 138.76V144.42L361.149 144.345C361.261 144.079 361.416 143.734 361.614 143.309C361.817 142.876 362.105 142.428 362.48 141.964C362.859 141.493 363.372 141.068 364.019 140.69C364.854 140.202 365.591 140.013 366.229 140.124C366.867 140.236 367.364 140.631 367.722 141.31C368.08 141.99 368.258 142.933 368.258 144.141C368.258 145.359 368.08 146.519 367.722 147.622C367.364 148.719 366.869 149.698 366.235 150.557C365.602 151.412 364.872 152.081 364.044 152.564C363.407 152.937 362.896 153.113 362.513 153.093C362.129 153.068 361.834 152.958 361.627 152.765C361.42 152.566 361.261 152.395 361.149 152.251L360.968 152.356V154.123L359.494 154.985ZM360.994 148.358C360.994 149.227 361.104 149.929 361.323 150.464C361.543 150.994 361.864 151.323 362.286 151.451C362.709 151.573 363.226 151.456 363.838 151.098C364.475 150.725 365.007 150.219 365.434 149.581C365.865 148.934 366.188 148.217 366.403 147.427C366.623 146.629 366.733 145.822 366.733 145.003C366.733 144.194 366.625 143.529 366.41 143.006C366.199 142.475 365.878 142.146 365.447 142.019C365.02 141.884 364.484 142.006 363.838 142.383C363.217 142.746 362.696 143.233 362.273 143.844C361.851 144.451 361.532 145.141 361.317 145.916C361.101 146.686 360.994 147.5 360.994 148.358ZM374.625 146.379C373.728 146.903 372.942 147.115 372.266 147.017C371.593 146.916 371.068 146.532 370.689 145.865C370.314 145.196 370.126 144.267 370.126 143.079C370.126 141.881 370.314 140.726 370.689 139.613C371.068 138.498 371.593 137.497 372.266 136.61C372.942 135.721 373.728 135.014 374.625 134.49C375.521 133.966 376.305 133.755 376.977 133.856C377.654 133.954 378.18 134.341 378.554 135.015C378.934 135.687 379.123 136.622 379.123 137.819C379.123 139.007 378.934 140.156 378.554 141.266C378.18 142.374 377.654 143.373 376.977 144.262C376.305 145.149 375.521 145.855 374.625 146.379ZM374.625 144.792C375.306 144.394 375.866 143.864 376.305 143.203C376.745 142.542 377.07 141.82 377.281 141.038C377.492 140.255 377.598 139.48 377.598 138.711C377.598 137.943 377.492 137.288 377.281 136.748C377.07 136.207 376.745 135.861 376.305 135.709C375.866 135.556 375.306 135.679 374.625 136.077C373.944 136.475 373.384 137.007 372.944 137.673C372.505 138.34 372.179 139.066 371.968 139.854C371.757 140.641 371.652 141.419 371.652 142.187C371.652 142.956 371.757 143.608 371.968 144.143C372.179 144.679 372.505 145.02 372.944 145.168C373.384 145.315 373.944 145.19 374.625 144.792ZM387.708 133.789V126.991L389.233 126.099V137.599L387.708 138.491V136.544L387.605 136.604C387.372 137.324 387.01 138.033 386.519 138.729C386.028 139.421 385.407 139.985 384.657 140.424C384.037 140.786 383.485 140.952 383.003 140.919C382.52 140.882 382.141 140.625 381.865 140.147C381.589 139.664 381.452 138.934 381.452 137.956V130.649L382.977 129.757V136.944C382.977 137.783 383.179 138.333 383.584 138.595C383.994 138.855 384.515 138.8 385.149 138.43C385.528 138.208 385.913 137.87 386.305 137.416C386.702 136.96 387.034 136.422 387.301 135.801C387.572 135.178 387.708 134.508 387.708 133.789ZM396.344 121.942V123.439L391.2 126.447V124.95L396.344 121.942ZM392.699 121.318L394.225 120.426V131.387C394.225 131.886 394.287 132.224 394.412 132.4C394.541 132.569 394.705 132.638 394.903 132.607C395.106 132.569 395.319 132.484 395.543 132.353C395.711 132.255 395.849 132.164 395.957 132.081C396.064 131.993 396.151 131.923 396.215 131.87L396.525 133.276C396.422 133.381 396.278 133.51 396.092 133.664C395.907 133.822 395.672 133.984 395.388 134.15C394.957 134.402 394.535 134.542 394.121 134.569C393.712 134.594 393.371 134.466 393.1 134.185C392.833 133.902 392.699 133.426 392.699 132.758V121.318ZM410.014 120.748V113.95L411.54 113.059V124.558L410.014 125.45V123.503L409.911 123.564C409.678 124.284 409.316 124.992 408.825 125.689C408.334 126.38 407.713 126.945 406.964 127.383C406.343 127.746 405.792 127.911 405.309 127.879C404.826 127.841 404.447 127.584 404.171 127.106C403.896 126.624 403.758 125.893 403.758 124.915V117.608L405.283 116.716V123.903C405.283 124.742 405.486 125.292 405.891 125.555C406.3 125.815 406.821 125.759 407.455 125.389C407.834 125.167 408.22 124.83 408.612 124.376C409.008 123.919 409.34 123.381 409.607 122.761C409.879 122.138 410.014 121.467 410.014 120.748ZM421.365 109.89L419.995 111.14C419.909 110.926 419.782 110.743 419.614 110.592C419.45 110.433 419.226 110.354 418.942 110.356C418.657 110.357 418.293 110.488 417.849 110.747C417.242 111.103 416.735 111.561 416.33 112.122C415.93 112.676 415.729 113.2 415.729 113.694C415.729 114.133 415.867 114.399 416.143 114.493C416.419 114.586 416.85 114.546 417.436 114.373L418.909 113.931C419.797 113.662 420.458 113.657 420.894 113.916C421.329 114.171 421.546 114.7 421.546 115.504C421.546 116.163 421.383 116.847 421.055 117.558C420.732 118.266 420.28 118.94 419.698 119.579C419.116 120.219 418.44 120.764 417.668 121.215C416.656 121.807 415.818 122.042 415.154 121.921C414.491 121.8 414.07 121.302 413.894 120.427L415.342 119.161C415.479 119.699 415.74 120.011 416.124 120.096C416.511 120.179 417.018 120.038 417.643 119.673C418.353 119.257 418.918 118.752 419.336 118.159C419.758 117.557 419.969 117.01 419.969 116.516C419.969 116.116 419.849 115.852 419.607 115.724C419.366 115.591 418.995 115.603 418.496 115.76L416.841 116.278C415.932 116.56 415.264 116.564 414.837 116.289C414.415 116.007 414.204 115.469 414.204 114.675C414.204 114.026 414.361 113.361 414.676 112.678C414.995 111.992 415.428 111.347 415.975 110.743C416.527 110.136 417.151 109.628 417.849 109.22C418.832 108.646 419.603 108.444 420.163 108.616C420.728 108.785 421.128 109.21 421.365 109.89Z" fill="#455A64"/>
<path opacity="0.1" d="M141.559 324.755L229.667 273.881V417.52L141.304 468.254L141.559 324.755Z" fill="#269D89"/>
<path opacity="0.15" d="M249.088 265.319L355.379 203.956C357.523 202.68 359.207 203.65 359.207 206.036C359.127 207.356 358.739 208.639 358.074 209.782C357.41 210.925 356.487 211.897 355.379 212.62L249.075 274.672C246.944 275.948 245.247 274.927 245.247 272.464V272.018C245.319 270.678 245.704 269.375 246.371 268.211C247.038 267.048 247.969 266.057 249.088 265.319Z" fill="#269D89"/>
<path opacity="0.1" d="M247.978 283.91L423.862 182.366C425.393 181.486 426.631 182.111 426.631 183.757C426.563 184.686 426.277 185.587 425.796 186.385C425.315 187.183 424.652 187.857 423.862 188.35L247.978 289.895C246.459 290.775 245.222 290.15 245.222 288.504C245.289 287.576 245.573 286.676 246.052 285.878C246.531 285.08 247.19 284.406 247.978 283.91Z" fill="#269D89"/>
<path opacity="0.1" d="M247.978 295.93L423.862 194.386C425.393 193.505 426.631 194.131 426.631 195.777C426.563 196.706 426.277 197.607 425.796 198.405C425.315 199.203 424.652 199.877 423.862 200.37L247.978 301.914C246.459 302.795 245.222 302.169 245.222 300.511C245.291 299.585 245.576 298.688 246.055 297.892C246.533 297.097 247.192 296.424 247.978 295.93Z" fill="#269D89"/>
<path opacity="0.1" d="M247.978 307.937L423.862 206.393C425.393 205.513 426.631 206.138 426.631 207.797C426.561 208.724 426.274 209.622 425.793 210.418C425.312 211.214 424.651 211.885 423.862 212.377L247.978 313.896C246.459 314.776 245.222 314.151 245.222 312.492C245.296 311.571 245.584 310.68 246.063 309.89C246.541 309.099 247.197 308.431 247.978 307.937Z" fill="#269D89"/>
<path opacity="0.1" d="M247.978 319.957L423.862 218.413C425.393 217.532 426.631 218.158 426.631 219.804C426.563 220.733 426.277 221.634 425.796 222.432C425.315 223.23 424.652 223.904 423.862 224.397L247.978 325.941C246.459 326.822 245.222 326.197 245.222 324.551C245.289 323.622 245.573 322.723 246.052 321.925C246.531 321.127 247.19 320.453 247.978 319.957Z" fill="#269D89"/>
<path opacity="0.1" d="M247.978 331.977L370.704 260.521C372.222 259.64 373.46 260.266 373.46 261.924C373.391 262.85 373.105 263.747 372.627 264.543C372.148 265.339 371.489 266.011 370.704 266.505L247.978 337.961C246.459 338.842 245.222 338.217 245.222 336.558C245.291 335.632 245.576 334.735 246.055 333.939C246.533 333.144 247.192 332.472 247.978 331.977Z" fill="#269D89"/>
<path opacity="0.1" d="M247.978 356.004L423.862 254.46C425.393 253.58 426.631 254.205 426.631 255.851C426.563 256.78 426.277 257.681 425.796 258.479C425.315 259.277 424.652 259.951 423.862 260.444L247.978 361.989C246.459 362.869 245.222 362.244 245.222 360.598C245.289 359.669 245.573 358.77 246.052 357.972C246.531 357.174 247.19 356.5 247.978 356.004Z" fill="#269D89"/>
<path opacity="0.1" d="M247.978 368.024L423.862 266.48C425.393 265.599 426.631 266.225 426.631 267.871C426.563 268.8 426.277 269.701 425.796 270.499C425.315 271.297 424.652 271.971 423.862 272.464L247.978 374.008C246.459 374.889 245.222 374.263 245.222 372.605C245.291 371.679 245.576 370.782 246.055 369.986C246.533 369.191 247.192 368.519 247.978 368.024Z" fill="#269D89"/>
<path opacity="0.1" d="M247.978 380.031L423.862 278.487C425.393 277.607 426.631 278.232 426.631 279.891C426.561 280.818 426.274 281.716 425.793 282.512C425.312 283.308 424.651 283.979 423.862 284.471L247.978 386.028C246.459 386.909 245.222 386.283 245.222 384.625C245.291 383.697 245.576 382.798 246.054 382.001C246.533 381.203 247.192 380.528 247.978 380.031Z" fill="#269D89"/>
<path opacity="0.1" d="M247.978 392.051L312.62 354.332C314.139 353.452 315.376 354.077 315.376 355.736C315.307 356.662 315.022 357.559 314.543 358.354C314.065 359.15 313.406 359.822 312.62 360.317L247.991 398.035C246.472 398.916 245.235 398.291 245.235 396.645C245.3 395.718 245.583 394.819 246.059 394.021C246.536 393.223 247.193 392.548 247.978 392.051Z" fill="#269D89"/>
<path d="M483.017 323.083C492.37 292.74 501.468 272.745 492.192 266.556C483.566 268.164 479.7 272.439 477.862 283.821C475.935 295.751 471.929 312.39 469.594 321.986C467.575 330.005 464.687 337.779 460.981 345.171C460.422 346.194 459.517 346.986 458.429 347.404C455.545 348.539 454.167 349.956 451.819 351.691C449.969 352.967 448.616 353.146 448.705 353.694C448.857 354.31 449.244 354.842 449.783 355.176C450.322 355.51 450.97 355.619 451.589 355.481C452.976 355.219 454.325 354.79 455.609 354.205C454.505 357.001 452.787 359.513 450.581 361.555C446.051 365.383 446.753 369.121 454.014 369.555C456.566 369.708 462.652 367.335 468.254 357.803C470.148 354.25 471.814 350.581 473.243 346.817C477.148 337.043 481.141 329.208 483.017 323.083Z" fill="#FFA8A7"/>
<path d="M493.812 266.199C493.812 266.199 486.615 265.829 482.251 270.639C477.888 275.45 472.809 304.185 472.809 304.185C472.809 304.185 477.581 310.744 490.163 308.013L493.812 266.199Z" fill="#269D89"/>
<path opacity="0.3" d="M493.812 266.199C493.812 266.199 486.615 265.829 482.251 270.639C477.888 275.45 472.809 304.185 472.809 304.185C472.809 304.185 477.581 310.744 490.163 308.013L493.812 266.199Z" fill="black"/>
<path d="M527.511 470.053H517.852V487.279H527.511V470.053Z" fill="#FFA8A7"/>
<path d="M494.016 469.134L484.357 469.491L483.872 451.257L494.016 450.913V469.134Z" fill="#FFA8A7"/>
<path d="M528.877 320.914C528.877 330.522 527.46 407.848 527.46 407.848C527.677 410.617 530.165 415.721 529.63 426.337C528.902 440.756 527.92 478.653 527.92 478.653C526.262 479.507 524.432 479.971 522.568 480.011C520.704 480.05 518.855 479.665 517.163 478.883C517.163 478.883 508.027 426.375 506.304 412.071C504.786 399.605 502.221 357.599 502.221 357.599L496.989 406.431C498.104 411.687 498.508 417.069 498.189 422.432C497.73 429.042 494.629 463.481 494.629 463.481C492.959 464.466 491.087 465.056 489.154 465.209C487.222 465.361 485.28 465.072 483.477 464.362C483.477 464.362 477.977 412.505 477.862 406.431C477.735 399.515 481.078 320.799 481.078 320.799L528.877 320.914Z" fill="#37474F"/>
<path d="M517.852 482.328V480.886C516.92 481.307 514.777 489.818 510.949 493.493C507.899 496.377 503.739 499.72 502.68 502.948C501.621 506.176 508.473 508.167 511.319 507.644C514.624 507.031 520.366 504.607 521.795 502.348C523.224 500.09 523.913 496.785 525.087 495.139C526.261 493.493 528.915 491.656 529.578 489.742C529.936 488.695 529.578 486.398 529.03 484.459C528.481 482.519 528.098 480.72 527.511 480.886V481.984C526.157 483.107 524.448 483.713 522.688 483.693C521.272 483.732 517.839 483.438 517.852 482.328Z" fill="#263238"/>
<path d="M484.255 466.378C483.757 466.378 483.349 467.131 482.239 468.381C480.599 470.111 478.679 471.552 476.561 472.643C472.937 474.532 465.906 477.428 462.716 478.921C460.738 479.852 460.828 482.353 462.882 483.783C464.936 485.212 469.9 486.232 475.859 484.842C479.1 484.089 483.336 481.014 486.003 481.128C488.67 481.243 493.659 481.269 495.662 479.852C497.666 478.436 496.849 475.412 496.288 472.809C495.675 469.976 494.922 465.548 494.016 465.74V466.722C492.855 468.547 486.858 469.274 484.306 467.998L484.255 466.378Z" fill="#263238"/>
<path d="M502.221 357.612C497.194 355.97 492.598 353.223 488.772 349.573C488.772 349.573 491.324 354.677 499.082 359.347L497.436 402.961L502.221 357.612Z" fill="#263238"/>
<path d="M523.849 268.496C523.849 268.496 531.403 269.198 530.867 283.591L529.196 306.559V341.011C522.088 349.062 490.597 348.463 479.814 340.36C479.814 340.36 481.027 299.617 481.754 283.935C482.277 272.796 484.842 267.182 495.79 265.957L509.252 266.544L523.849 268.496Z" fill="#269D89"/>
<path opacity="0.3" d="M502.374 276.05L500.639 288.146L496.606 288.07L501.162 288.797L502.374 276.05Z" fill="black"/>
<path d="M512.454 236.06C512.533 239.954 511.063 243.721 508.367 246.532C505.67 249.343 501.968 250.969 498.074 251.053C490.124 251.053 484.038 244.328 483.681 236.073C483.055 221.437 490.124 221.08 498.074 221.08C501.966 221.163 505.666 222.788 508.362 225.596C511.058 228.404 512.53 232.168 512.454 236.06Z" fill="#263238"/>
<path d="M520.608 243.473C520.608 243.473 518.401 254.268 517.52 256.042C516.951 257.124 515.979 257.94 514.815 258.313L514.968 250.721L520.608 243.473Z" fill="#263238"/>
<path d="M517.878 228.008C517.878 228.008 519.46 227.613 521.144 230.241C522.586 232.487 522.918 237.54 520.647 243.474L516.5 243.971L517.878 228.008Z" fill="#263238"/>
<path d="M515.249 243.971C516.078 244.494 517.265 242.823 518.299 241.7C519.332 240.577 522.675 239.058 524.36 242.721C526.044 246.383 522.879 251.41 520.238 252.278C515.683 253.771 515.006 250.721 515.006 250.721L514.649 267.819C508.614 277.173 494.922 276.828 499.848 267.373V262.167C497.82 262.504 495.762 262.615 493.71 262.499C490.367 261.95 488.261 259.206 487.241 255.429C485.607 249.368 484.995 244.481 486.373 232.551C487.904 219.472 502.502 219.357 510.4 224.576C518.299 229.795 515.249 243.971 515.249 243.971Z" fill="#FFA8A7"/>
<path d="M514.726 263.992C513.322 266.865 511.305 269.395 508.818 271.405C506.704 272.967 504.251 274.008 501.659 274.442C503.798 275.891 505.55 277.84 506.763 280.12C508.282 283.438 518.911 274.289 518.809 267.794C518.809 267.794 517.15 261.274 514.853 260.865L514.726 263.992Z" fill="#263238"/>
<path d="M501.66 274.442C501.66 274.442 498.38 272.822 499.848 267.373V262.167L498.406 262.358C496.726 263.996 495.533 266.068 494.961 268.343C494.629 269.836 493.812 277.39 495.254 278.883C496.696 280.376 498.712 274.85 501.66 274.442Z" fill="#263238"/>
<path d="M509.66 229.68C510.033 229.598 510.422 229.62 510.783 229.744C512.059 230.305 512.289 234.159 512.506 235.269C513.233 239.007 513.845 245.349 515.249 245.375C515.67 245.375 517.265 242.631 518.299 241.649C519.741 240.283 517.878 227.957 517.878 227.957C518.258 226.893 518.33 225.743 518.087 224.639C517.843 223.535 517.293 222.523 516.5 221.718C513.948 218.757 509.839 218.094 506.126 217.89C501.749 217.647 497.308 217.979 492.996 217.022C491.641 216.646 490.264 216.351 488.874 216.142C488.816 216.117 488.753 216.104 488.689 216.104C488.625 216.104 488.563 216.117 488.504 216.142C488.364 216.256 488.389 216.473 488.428 216.652C488.698 217.944 489.153 219.19 489.78 220.352C487.213 220.15 484.678 219.649 482.226 218.859C482.085 218.815 481.934 218.815 481.792 218.859C481.499 218.949 481.448 219.332 481.473 219.638C481.639 222.726 483.107 227.396 485.62 229.208C487.849 230.667 490.436 231.483 493.098 231.568C499.86 231.824 504.02 230.394 509.66 229.68Z" fill="#263238"/>
<path d="M517.877 228.659L522.918 225.839C522.764 225.492 522.539 225.181 522.258 224.926C521.977 224.67 521.646 224.477 521.285 224.356C520.925 224.236 520.544 224.193 520.166 224.228C519.788 224.264 519.421 224.378 519.09 224.563C518.419 224.977 517.925 225.624 517.701 226.38C517.477 227.135 517.54 227.947 517.877 228.659Z" fill="#263238"/>
<path d="M499.86 262.167C499.86 262.167 507.325 260.598 509.941 259.156C511.49 258.303 512.748 257.005 513.552 255.43C513.163 257.014 512.465 258.505 511.497 259.819C509.596 262.371 499.86 264.234 499.86 264.234V262.167Z" fill="#F28F8F"/>
<path d="M501.66 242.032C501.687 242.319 501.797 242.593 501.977 242.819C502.156 243.046 502.398 243.215 502.672 243.307C502.946 243.399 503.241 243.409 503.52 243.337C503.8 243.264 504.053 243.112 504.248 242.899C504.443 242.685 504.572 242.42 504.619 242.135C504.666 241.85 504.629 241.557 504.513 241.292C504.397 241.028 504.207 240.802 503.966 240.644C503.724 240.485 503.442 240.4 503.153 240.398C502.946 240.405 502.744 240.453 502.556 240.539C502.369 240.625 502.2 240.748 502.061 240.9C501.922 241.052 501.815 241.231 501.746 241.425C501.677 241.62 501.648 241.826 501.66 242.032Z" fill="#263238"/>
<path d="M504.02 235.575L507.223 237.412C507.454 236.97 507.516 236.459 507.396 235.975C507.276 235.49 506.983 235.067 506.572 234.784C506.358 234.647 506.116 234.558 505.864 234.524C505.612 234.49 505.355 234.511 505.112 234.587C504.869 234.662 504.646 234.789 504.457 234.96C504.268 235.131 504.119 235.341 504.02 235.575Z" fill="#263238"/>
<path d="M500.537 252.801L497.117 254.077C497.185 254.312 497.3 254.531 497.455 254.719C497.611 254.908 497.803 255.063 498.021 255.174C498.239 255.285 498.477 255.35 498.721 255.366C498.965 255.381 499.209 255.347 499.439 255.264C499.894 255.061 500.258 254.697 500.46 254.243C500.663 253.788 500.69 253.275 500.537 252.801Z" fill="#F28F8F"/>
<path d="M487.917 236.94L490.839 234.592C490.707 234.387 490.533 234.212 490.329 234.078C490.124 233.945 489.894 233.857 489.652 233.819C489.411 233.782 489.164 233.796 488.929 233.861C488.694 233.926 488.475 234.041 488.287 234.197C487.897 234.527 487.643 234.991 487.575 235.498C487.507 236.004 487.628 236.518 487.917 236.94Z" fill="#263238"/>
<path d="M489.206 241.585C489.197 241.789 489.229 241.992 489.3 242.184C489.37 242.375 489.478 242.551 489.617 242.7C489.756 242.85 489.923 242.97 490.108 243.055C490.294 243.139 490.495 243.186 490.699 243.193C491.128 243.193 491.541 243.022 491.844 242.718C492.148 242.414 492.319 242.002 492.319 241.572C492.319 241.142 492.148 240.73 491.844 240.426C491.541 240.122 491.128 239.952 490.699 239.952C490.286 239.975 489.898 240.159 489.619 240.464C489.34 240.769 489.192 241.172 489.206 241.585Z" fill="#263238"/>
<path d="M497.219 240.334L497.04 249.79L491.668 248.552L497.219 240.334Z" fill="#F28F8F"/>
<path d="M538.549 249.841C540.705 246.982 545.069 253.324 547.085 257.701C549.101 262.078 549.14 264.553 547.481 266.288C545.822 268.024 542.696 266.977 539.569 262.83C536.443 258.683 537.311 251.946 538.549 249.841Z" fill="#269D89"/>
<path opacity="0.5" d="M538.549 249.841C540.705 246.982 545.069 253.324 547.085 257.701C549.101 262.078 549.14 264.553 547.481 266.288C545.822 268.024 542.696 266.977 539.569 262.83C536.443 258.683 537.311 251.946 538.549 249.841Z" fill="black"/>
<path d="M553.784 250.683C546.128 268.547 535.473 278.615 530.688 290.111C524.423 289.69 519.536 274.544 524.206 268.075C524.206 268.075 542.555 248.207 544.214 240.398C545.694 233.47 547.672 222.037 547.506 216.154C547.44 215.196 547.038 214.292 546.37 213.602C544.444 211.522 544.444 209.864 543.206 207.58C542.249 205.793 541.19 205.13 541.496 204.721C541.893 204.297 542.435 204.038 543.014 203.995C543.594 203.952 544.168 204.13 544.622 204.492C545.508 205.139 546.302 205.903 546.983 206.763C547.219 204.469 546.845 202.154 545.898 200.051C543.767 195.228 544.291 192.778 550.785 194.488C554.869 195.572 557.421 198.967 558.033 208.754C558.317 212.827 558.342 216.914 558.11 220.99C557.395 228.532 556.949 236.392 556.017 242.682C555.615 245.433 554.865 248.122 553.784 250.683Z" fill="#FFA8A7"/>
<path d="M522.292 268.292L538.472 249.79C538.472 249.79 536.545 254.294 540.756 260.865C544.967 267.437 547.468 266.288 547.468 266.288C547.468 266.288 537.911 280.235 535.359 284.905C532.807 289.575 530.14 293.518 530.14 293.518C529.857 294.063 529.419 294.511 528.88 294.804C528.341 295.097 527.726 295.223 527.116 295.164C524.742 295.164 518.452 284.624 522.292 268.292Z" fill="#269D89"/>
<path opacity="0.3" d="M522.292 268.292L538.472 249.79C538.472 249.79 536.545 254.294 540.756 260.865C544.967 267.437 547.468 266.288 547.468 266.288C547.468 266.288 537.911 280.235 535.359 284.905C532.807 289.575 530.14 293.518 530.14 293.518C529.857 294.063 529.419 294.511 528.88 294.804C528.341 295.097 527.726 295.223 527.116 295.164C524.742 295.164 518.452 284.624 522.292 268.292Z" fill="black"/>
<path d="M390.992 309.876L398.61 320.021L390.418 329.399L379.865 317.06L390.992 309.876Z" fill="#F28F8F"/>
<path d="M366.046 286.806C372.694 287.113 375.859 288.082 379.342 292.242C382.826 296.402 400.23 321.552 400.23 321.552C400.23 321.552 397.155 330.178 390.418 329.438L378.181 316.818L366.046 286.806Z" fill="#455A64"/>
<path d="M333.431 497.5C332.959 500.145 332.703 502.825 332.666 505.513C332.577 510.362 331.683 512.097 331.569 516.078C331.428 520.633 332.219 522.343 334.121 524.895C336.022 527.447 340.82 529.782 342.874 525.457C344.928 521.131 344.66 518.298 343.997 513.82C343.333 509.341 343.231 506.648 342.848 503.127C342.491 500.013 342.083 497.653 342.083 497.653L333.431 497.5Z" fill="#263238"/>
<path d="M347.225 459.36L331.211 459.066C331.454 469.759 333.151 487.547 333.432 497.563C333.432 499.452 333.432 512.225 334.095 516.116C335.167 521.948 342.083 521.157 342.453 517.673C342.823 514.19 342.006 499.26 342.032 497.716C341.968 491.336 344.979 474.519 346.562 462.971C346.638 462.346 347.149 459.845 347.225 459.36Z" fill="#FFBDA7"/>
<path d="M370.742 489.193C370.742 489.193 369.925 489.193 369.785 489.907C369.644 490.622 369.593 491.975 369.262 493.302C368.717 495.382 368.528 497.538 368.7 499.682C368.968 501.175 372.375 503.395 374.71 503.79C377.045 504.186 380.324 506.483 382.149 508.205C385.079 510.624 388.704 512.045 392.498 512.263C396.326 512.263 399.094 510.987 400.37 508.894C401.646 506.802 399.209 506.559 394.769 503.675L391.311 501.43C384.28 496.836 381.703 494.373 379.712 489.78L370.742 489.193Z" fill="#263238"/>
<path d="M379.763 486.692C379.648 483.374 381.333 459.003 381.333 459.003L367.564 460.559C370.831 479.98 371.086 486.603 370.716 489.435C370.647 489.697 370.617 489.968 370.627 490.239C370.627 494.067 374.901 496.058 378.283 498.571C379.559 499.567 382.966 502.629 386.921 503.969C389.473 504.849 394.207 505.245 394.807 503.624C390.775 500.536 385.263 496.504 382.047 492.97C380.465 491.26 379.878 489.984 379.763 486.692Z" fill="#FFBDA7"/>
<path d="M334.925 348.807C327.422 365.217 335.205 422.994 335.205 422.994C334.976 425.661 331.926 430.892 330.803 442.619C329.463 456.451 333.266 493.518 333.266 493.518C334.607 494.332 336.138 494.778 337.706 494.811C339.274 494.845 340.823 494.465 342.198 493.71C342.198 493.71 351.883 439.25 353.682 425.495C355.2 413.475 358.109 387.062 358.109 387.062L366.378 425.418C365.165 429.292 364.286 433.262 363.749 437.285C362.971 445.375 370.857 486.016 370.857 486.016C372.278 486.602 373.804 486.889 375.341 486.859C376.878 486.828 378.392 486.48 379.789 485.837C379.789 485.837 383.272 433.342 384.012 423.594C385.288 407.21 380.886 356.106 377.887 346.408L334.925 348.807Z" fill="#269D89"/>
<path opacity="0.5" d="M334.925 348.807C327.422 365.217 335.205 422.994 335.205 422.994C334.976 425.661 331.926 430.892 330.803 442.619C329.463 456.451 333.266 493.518 333.266 493.518C334.607 494.332 336.138 494.778 337.706 494.811C339.274 494.845 340.823 494.465 342.198 493.71C342.198 493.71 351.883 439.25 353.682 425.495C355.2 413.475 358.109 387.062 358.109 387.062L366.378 425.418C365.165 429.292 364.286 433.262 363.749 437.285C362.971 445.375 370.857 486.016 370.857 486.016C372.278 486.602 373.804 486.889 375.341 486.859C376.878 486.828 378.392 486.48 379.789 485.837C379.789 485.837 383.272 433.342 384.012 423.594C385.288 407.21 380.886 356.106 377.887 346.408L334.925 348.807Z" fill="black"/>
<path opacity="0.2" d="M358.084 387.062L360.521 371.826C360.521 371.826 370.831 369.695 375.514 365.293C372.285 369.08 368.059 371.887 363.316 373.396L360.572 385.135L365.37 420.646L358.084 387.062Z" fill="black"/>
<path d="M338.778 297.857L348.986 300.511V278.908C343.346 277.441 338.778 280.694 338.778 286.181V297.857Z" fill="#269D89"/>
<path opacity="0.6" d="M338.778 297.857L348.986 300.511V278.908C343.346 277.441 338.778 280.694 338.778 286.181V297.857Z" fill="black"/>
<path d="M358.99 281.996L355.328 281.919C344.15 281.651 335.294 272.018 335.537 260.38C335.537 247.697 345.362 237.412 357.535 237.298C369.708 237.234 379.635 247.506 379.699 260.138V261.414C379.393 273.064 370.142 282.238 358.99 281.996Z" fill="#269D89"/>
<path opacity="0.6" d="M358.99 281.996L355.328 281.919C344.15 281.651 335.294 272.018 335.537 260.38C335.537 247.697 345.362 237.412 357.535 237.298C369.708 237.234 379.635 247.506 379.699 260.138V261.414C379.393 273.064 370.142 282.238 358.99 281.996Z" fill="black"/>
<path d="M341.879 242.593C341.79 242.223 341.625 241.875 341.396 241.571C341.166 241.267 340.877 241.014 340.545 240.827C340.213 240.641 339.847 240.524 339.468 240.486C339.089 240.447 338.707 240.487 338.344 240.602L339.327 244.43C339.123 244.172 338.872 243.955 338.587 243.792C338.256 243.605 337.889 243.489 337.51 243.453C337.132 243.416 336.75 243.459 336.389 243.58C336.028 243.7 335.697 243.895 335.416 244.151C335.135 244.407 334.911 244.72 334.759 245.068L339.735 247.99C339.994 247.492 340.109 246.93 340.067 246.37C340.779 246.072 341.357 245.522 341.691 244.826C342.025 244.13 342.092 243.335 341.879 242.593Z" fill="#269D89"/>
<path opacity="0.6" d="M341.879 242.593C341.79 242.223 341.625 241.875 341.396 241.571C341.166 241.267 340.877 241.014 340.545 240.827C340.213 240.641 339.847 240.524 339.468 240.486C339.089 240.447 338.707 240.487 338.344 240.602L339.327 244.43C339.123 244.172 338.872 243.955 338.587 243.792C338.256 243.605 337.889 243.489 337.51 243.453C337.132 243.416 336.75 243.459 336.389 243.58C336.028 243.7 335.697 243.895 335.416 244.151C335.135 244.407 334.911 244.72 334.759 245.068L339.735 247.99C339.994 247.492 340.109 246.93 340.067 246.37C340.779 246.072 341.357 245.522 341.691 244.826C342.025 244.13 342.092 243.335 341.879 242.593Z" fill="black"/>
<path d="M347.914 287.687C344.478 288.153 341.07 288.809 337.706 289.652C341.662 299.35 335.46 314.33 335.46 314.33L341.317 332.36C337.272 340.641 333.942 344.75 332.564 351.5C336.29 358.773 362.588 365.714 379.712 352.457C379.712 352.457 379.163 334.044 376.982 323.313C382.583 312.377 381.677 309.162 380.529 305.347C377.862 296.479 372.477 293.072 366.059 286.819L362.231 286.411L347.914 287.687Z" fill="#37474F"/>
<path d="M341.968 339.582C345.145 336.328 351.882 335.397 351.882 335.397L345.694 331.875L338.778 315.172C341.68 309.487 343.114 303.166 342.95 296.785L338.969 295.828C339.454 304.671 335.448 314.343 335.448 314.343L341.304 332.373C337.259 340.654 333.929 344.763 332.551 351.513C335.103 356.489 348.233 361.312 361.759 359.602C343.639 358.377 338.918 342.734 341.968 339.582Z" fill="#263238"/>
<path d="M360.279 359.743L361.019 359.666C360.77 359.671 360.523 359.696 360.279 359.743Z" fill="#E6E6E6"/>
<path d="M371.482 248.603C373.677 250.619 376.42 254.983 376.203 267.743C376.012 278.589 372.656 281.281 370.959 282.06C369.262 282.838 366.008 282.392 362.831 281.856V286.347C362.831 286.347 367.016 290.992 366.761 294.003C366.505 297.014 360.789 298.227 356.667 295.279C353.764 293.08 351.186 290.481 349.011 287.559V273.919C349.011 273.919 347.148 275.82 343.907 272.962C341.355 270.589 340.386 266.582 342.415 264.413C342.935 263.899 343.574 263.521 344.275 263.312C344.976 263.104 345.718 263.07 346.435 263.215C347.152 263.36 347.822 263.679 348.387 264.143C348.952 264.608 349.394 265.204 349.675 265.88C354.538 265.371 359.273 264.006 363.66 261.848C366.127 260.661 368.187 258.769 369.58 256.412C370.972 254.054 371.634 251.337 371.482 248.603Z" fill="#FFBDA7"/>
<path d="M362.818 265.306C362.817 265.554 362.744 265.796 362.608 266.003C362.472 266.21 362.278 266.373 362.051 266.472C361.824 266.571 361.572 266.601 361.328 266.56C361.084 266.518 360.857 266.406 360.675 266.238C360.493 266.07 360.364 265.852 360.304 265.611C360.244 265.371 360.255 265.118 360.336 264.884C360.417 264.65 360.565 264.444 360.761 264.293C360.957 264.141 361.193 264.05 361.44 264.03C361.79 264.023 362.129 264.152 362.386 264.39C362.643 264.628 362.798 264.956 362.818 265.306Z" fill="#263238"/>
<path d="M363.316 274.34L366.722 275.45C366.668 275.683 366.567 275.902 366.424 276.094C366.282 276.286 366.102 276.446 365.895 276.566C365.688 276.685 365.459 276.761 365.222 276.789C364.984 276.816 364.744 276.795 364.515 276.726C364.051 276.553 363.67 276.21 363.448 275.768C363.225 275.326 363.178 274.816 363.316 274.34Z" fill="#F79776"/>
<path d="M375.144 260.419L372.043 259.36C372.092 259.153 372.184 258.958 372.313 258.789C372.442 258.62 372.604 258.48 372.791 258.377C372.977 258.275 373.183 258.213 373.395 258.196C373.607 258.178 373.82 258.205 374.021 258.275C374.439 258.431 374.786 258.736 374.993 259.132C375.2 259.528 375.254 259.986 375.144 260.419Z" fill="#263238"/>
<path d="M349.688 264.668V269.249C349.982 269.261 350.275 269.213 350.549 269.107C350.824 269.002 351.074 268.842 351.285 268.636C351.495 268.431 351.661 268.184 351.773 267.912C351.884 267.64 351.939 267.348 351.934 267.054C351.938 266.444 351.707 265.855 351.289 265.411C350.87 264.967 350.297 264.701 349.688 264.668Z" fill="#269D89"/>
<path opacity="0.6" d="M349.688 264.668V269.249C349.982 269.261 350.275 269.213 350.549 269.107C350.824 269.002 351.074 268.842 351.285 268.636C351.495 268.431 351.661 268.184 351.773 267.912C351.884 267.64 351.939 267.348 351.934 267.054C351.938 266.444 351.707 265.855 351.289 265.411C350.87 264.967 350.297 264.701 349.688 264.668Z" fill="black"/>
<path d="M374.021 264.859C374.049 265.226 373.931 265.59 373.692 265.869C373.453 266.149 373.112 266.323 372.745 266.352C372.464 266.38 372.181 266.322 371.933 266.188C371.684 266.053 371.482 265.848 371.351 265.597C371.221 265.347 371.168 265.063 371.2 264.782C371.232 264.502 371.347 264.237 371.531 264.022C371.714 263.808 371.958 263.653 372.23 263.577C372.502 263.502 372.791 263.51 373.058 263.6C373.326 263.69 373.561 263.858 373.732 264.082C373.904 264.307 374.005 264.577 374.021 264.859Z" fill="#263238"/>
<path d="M366.748 263.009L366.722 271.89L370.857 270.525L366.748 263.009Z" fill="#F79776"/>
<path d="M362.831 281.906C359.475 281.473 352.623 279.444 351.487 276.611C351.919 278.032 352.768 279.29 353.924 280.222C355.991 282.047 362.856 284.05 362.856 284.05L362.831 281.906Z" fill="#F79776"/>
<path d="M321.999 333.036C321.999 333.036 330.191 344.673 331.594 346.191C332.998 347.71 333.968 347.199 335.486 346.523C337.338 345.775 339.239 345.157 341.177 344.673C343.729 344.048 344.214 346.357 341.738 348.003C339.952 349.203 337.91 349.713 338.753 350.696C340.499 352.276 342.524 353.518 344.724 354.358C350.772 356.744 350.3 357.943 349.19 359.896C348.22 361.606 345.362 365.28 334.593 360.942C330.127 359.143 323.849 354.052 320.889 350.734C316.614 346 309.94 337.515 309.94 337.515L321.999 333.036Z" fill="#FFBDA7"/>
<path d="M339.276 289.231C336.315 289.422 330.739 290.137 323.747 301.749C317.609 311.957 308.103 325.75 306.342 330.688C305.628 332.692 308.409 336.839 311.995 341.088C316.882 340.871 321.335 337.489 323.645 334.784C323.039 333.345 322.286 331.973 321.399 330.688L335.741 314.33C335.741 314.33 341.19 309.341 342.325 302.846C343.55 295.802 343.167 290.265 339.276 289.231Z" fill="#455A64"/>
<path d="M419.574 311.255L384.216 320.569L374.48 360.572L408.103 350.811L419.574 311.255Z" fill="#269D89"/>
<path opacity="0.25" d="M419.574 311.255L384.216 320.569L374.48 360.572L408.103 350.811L419.574 311.255Z" fill="black"/>
<g opacity="0.1">
<path d="M403.599 339.582C404.191 340.817 405.133 341.851 406.309 342.554C407.484 343.257 408.84 343.599 410.209 343.537L410.464 342.657L403.599 339.582Z" fill="black"/>
</g>
<g opacity="0.1">
<path d="M408.92 317.609L409.213 316.257C409.379 315.516 407.299 315.478 404.581 316.257L399.363 317.533C396.645 318.247 394.259 319.421 394.144 320.161L393.863 321.514L408.92 317.609Z" fill="black"/>
</g>
<path d="M411.638 312.543C411.74 312.071 410.897 311.944 409.762 312.263L407.695 312.837C407.695 312.837 408.307 309.915 403.739 310.936C402.513 311.116 401.354 311.611 400.375 312.371C399.396 313.131 398.629 314.131 398.15 315.274L395.955 315.899C394.679 316.244 393.633 316.895 393.493 317.354L393.225 318.196L411.446 313.398L411.638 312.543Z" fill="#37474F"/>
<path d="M409.124 313.973C407.465 314.381 406.763 314.598 406.572 315.746C406.381 316.895 406.164 318.017 406.164 318.017L398.112 320.148C398.112 320.148 398.508 318.49 398.635 317.852C398.763 317.214 398.482 316.805 397.193 317.15L397.091 316.639L409.724 313.411L409.124 313.973Z" fill="#37474F"/>
<path d="M409.405 317.724L409.698 316.371C409.864 315.631 407.784 315.593 405.066 316.371L399.847 317.647C397.13 318.362 394.743 319.536 394.629 320.276L394.348 321.628L409.405 317.724Z" fill="#37474F"/>
<path d="M415.848 324.104C415.848 324.104 414.572 328.634 414.228 329.706C413.883 330.777 409.953 332.73 407.363 333.444C404.773 334.159 401.915 335.001 403.152 338.638C404.275 341.993 408.562 342.759 410.732 342.657C412.901 342.555 415.899 340.488 417.112 337.132C418.605 332.844 417.801 328.276 418.388 325.775C418.975 323.274 417.15 322.611 415.848 324.104Z" fill="#FFBDA7"/>
<path d="M281.907 325.163C277.058 320.276 275.322 322.177 274.71 327.537C274.483 329.784 273.937 331.988 273.089 334.083C272.939 332.97 272.634 331.883 272.183 330.854C271.97 330.298 271.555 329.842 271.02 329.58C270.485 329.317 269.87 329.266 269.3 329.438C268.828 329.629 269.415 330.714 269.3 332.845C269.21 335.499 268.343 336.966 268.968 339.786C269.186 340.847 269.018 341.951 268.496 342.9C265.944 347.748 257.535 356.706 251.64 363.163L229.246 342.938C221.59 336.048 219.115 332.947 211.727 333.445C214.038 334.321 216.167 335.619 218.004 337.273C221.437 340.169 220.62 356.744 220.62 356.744C220.62 356.744 246.038 374.966 248.692 376.701C249.075 376.956 249.471 377.186 249.853 377.403C251.108 378.057 252.547 378.268 253.937 378.001C255.326 377.735 256.585 377.007 257.509 375.935C262.932 369.734 270.844 357.523 275.373 351.181C277.445 348.111 279.291 344.896 280.899 341.56C285.441 332.539 284.943 328.226 281.907 325.163Z" fill="#914F4E"/>
<path d="M212.518 333.036C214.303 332.711 216.137 332.771 217.897 333.211C219.657 333.651 221.304 334.461 222.726 335.588C227.09 338.906 245.694 356.004 245.694 356.004C245.694 356.004 246.204 365.051 236.762 370.436L213.96 354.358L212.518 333.036Z" fill="#269D89"/>
<path opacity="0.3" d="M212.518 333.036C214.303 332.711 216.137 332.771 217.897 333.211C219.657 333.651 221.304 334.461 222.726 335.588C227.09 338.906 245.694 356.004 245.694 356.004C245.694 356.004 246.204 365.051 236.762 370.436L213.96 354.358L212.518 333.036Z" fill="black"/>
<path d="M190.507 537.145H180.847V554.371H190.507V537.145Z" fill="#914F4E"/>
<path d="M214.343 536.226L224.002 536.571L224.487 518.337L214.343 517.992V536.226Z" fill="#914F4E"/>
<path d="M179.482 387.993C179.482 397.602 180.898 474.94 180.898 474.94C180.682 477.696 178.193 482.8 178.729 493.416C179.457 507.848 180.439 545.732 180.439 545.732C182.098 546.582 183.929 547.043 185.792 547.081C187.656 547.118 189.504 546.731 191.196 545.949C191.196 545.949 200.332 493.442 202.067 479.151C203.573 466.671 206.138 424.666 206.138 424.666L211.369 473.511C210.254 478.762 209.851 484.14 210.17 489.499C210.629 496.109 213.73 530.548 213.73 530.548C215.4 531.536 217.274 532.13 219.209 532.285C221.144 532.44 223.089 532.151 224.895 531.441C224.895 531.441 230.382 479.572 230.497 473.511C230.624 466.595 227.281 387.866 227.281 387.866L179.482 387.993Z" fill="#37474F"/>
<path d="M190.507 549.395V547.965C191.438 548.387 193.582 556.897 197.41 560.56C200.46 563.456 204.619 566.799 205.678 570.028C206.737 573.256 199.885 575.234 197.04 574.71C193.735 574.098 187.993 571.674 186.564 569.428C185.135 567.182 184.446 563.852 183.272 562.206C182.098 560.56 179.444 558.722 178.78 556.808C178.591 555.028 178.778 553.228 179.329 551.526C179.776 549.752 180.26 547.8 180.847 547.965V549.063C182.21 550.179 183.922 550.779 185.683 550.76C187.087 550.811 190.52 550.517 190.507 549.395Z" fill="#263238"/>
<path d="M224.104 533.47C224.602 533.47 225.01 534.223 226.12 535.474C227.76 537.199 229.68 538.635 231.798 539.723C235.422 541.611 242.453 544.52 245.643 546.013C247.633 546.945 247.531 549.446 245.477 550.862C243.423 552.278 238.459 553.312 232.5 551.934C229.259 551.168 225.023 548.106 222.292 548.221C219.561 548.336 214.636 548.348 212.633 546.945C210.629 545.541 211.446 542.492 212.007 539.901C212.62 537.056 213.385 532.628 214.279 532.819V533.802C215.44 535.639 221.437 536.354 223.989 535.078L224.104 533.47Z" fill="#263238"/>
<path d="M206.138 424.691C211.165 423.049 215.76 420.303 219.587 416.652C219.587 416.652 217.035 421.756 209.277 426.427L210.923 470.053L206.138 424.691Z" fill="#263238"/>
<path d="M184.51 335.588C184.51 335.588 176.956 336.277 177.492 350.683L179.163 373.651L179.01 408.103C186.105 416.155 217.609 415.568 228.391 407.452C228.391 407.452 227.281 366.71 226.554 351.028C226.031 339.888 223.466 334.274 212.518 333.049L199.043 333.636L184.51 335.588Z" fill="#269D89"/>
<path opacity="0.3" d="M205.985 343.142L207.72 355.239L211.765 355.162L207.197 355.877L205.985 343.142Z" fill="black"/>
<path d="M160.534 385.046C164.451 353.529 173.472 337.834 184.459 336.022L183.68 356.183C179.106 366.935 175.601 378.111 173.217 389.55C171.775 397.308 170.103 410.796 170.537 417.418C170.624 418.585 171.121 419.683 171.941 420.519C174.11 422.726 174.761 424.64 176.216 427.128C177.364 429.081 178.538 429.77 178.232 430.242C177.837 430.738 177.264 431.061 176.635 431.142C176.006 431.223 175.371 431.056 174.863 430.676C173.711 429.86 172.658 428.914 171.724 427.856C171.584 430.86 172.125 433.856 173.306 436.622C175.858 441.93 175.45 444.724 168.33 443.155C163.864 442.185 160.674 437.477 159.398 426.49C159.062 422.391 158.99 418.273 159.181 414.164C159.666 403.663 159.755 391.349 160.534 385.046Z" fill="#914F4E"/>
<path d="M185.084 335.499C179.38 335.499 174.174 336.481 170.027 344.431C166.059 352.087 163.009 368.279 161.465 373.575C161.465 373.575 169.797 378.5 177.466 378.372L182.864 359.641C182.864 359.641 186.513 350.9 185.084 335.499Z" fill="#269D89"/>
<path opacity="0.3" d="M185.084 335.499C179.38 335.499 174.174 336.481 170.027 344.431C166.059 352.087 163.009 368.279 161.465 373.575C161.465 373.575 169.797 378.5 177.466 378.372L182.864 359.641C182.864 359.641 186.513 350.9 185.084 335.499Z" fill="black"/>
<path d="M196.861 303.063C196.976 305.882 197.917 308.606 199.568 310.895C201.218 313.183 203.505 314.936 206.144 315.936C208.783 316.936 211.657 317.137 214.41 316.517C217.162 315.896 219.672 314.479 221.626 312.444C223.58 310.408 224.893 307.843 225.401 305.067C225.909 302.292 225.589 299.428 224.483 296.832C223.377 294.236 221.531 292.023 219.177 290.467C216.823 288.912 214.063 288.083 211.242 288.083C207.35 288.167 203.65 289.791 200.954 292.599C198.258 295.408 196.786 299.171 196.861 303.063Z" fill="#263238"/>
<path d="M187.712 310.553C187.712 310.553 189.92 321.348 190.8 323.122C191.375 324.208 192.35 325.027 193.518 325.406L193.352 317.75L187.712 310.553Z" fill="#263238"/>
<path d="M190.481 295.088C190.481 295.088 188.848 294.756 187.215 297.308C185.773 299.554 185.454 304.607 187.712 310.54L191.859 311.038L190.481 295.088Z" fill="#263238"/>
<path d="M193.11 311.051C192.28 311.574 191.094 309.902 190.06 308.792C189.027 307.682 185.683 306.138 184.012 309.813C182.34 313.488 185.479 318.503 188.121 319.358C192.676 320.85 193.352 317.801 193.352 317.801L193.71 334.912C199.745 344.252 213.436 343.92 208.511 334.453V329.208C210.538 329.545 212.597 329.657 214.649 329.54C217.992 329.004 220.097 326.248 221.118 322.471C222.751 316.41 223.364 311.523 221.986 299.605C220.467 286.539 205.883 286.398 197.997 291.566C190.111 296.734 193.11 311.051 193.11 311.051Z" fill="#914F4E"/>
<path d="M193.633 331.071C195.037 333.944 197.054 336.475 199.541 338.485C201.657 340.045 204.108 341.089 206.699 341.534C204.564 342.981 202.812 344.925 201.595 347.2C200.09 350.53 189.448 341.381 189.55 334.886C189.55 334.886 191.221 328.366 193.505 327.945L193.633 331.071Z" fill="#263238"/>
<path d="M206.712 341.534C206.712 341.534 209.991 339.901 208.524 334.452V329.208L209.966 329.399C211.646 331.037 212.839 333.109 213.411 335.384C213.743 336.877 214.559 344.431 213.117 345.924C211.676 347.417 209.647 341.968 206.712 341.534Z" fill="#263238"/>
<path d="M193.11 312.518C192.689 312.518 191.094 309.775 190.06 308.792C188.618 307.427 190.481 295.088 190.481 295.088C190.105 294.023 190.035 292.874 190.279 291.771C190.522 290.668 191.07 289.656 191.859 288.848C193.837 286.59 197.129 286.296 202.743 285.429C204.985 285.153 207.209 284.748 209.404 284.216C211.722 283.349 213.952 282.264 216.065 280.975C216.729 280.545 217.525 280.364 218.311 280.465C218.673 280.587 218.997 280.802 219.25 281.089C219.503 281.375 219.676 281.723 219.753 282.098C219.88 282.846 219.88 283.609 219.753 284.357C220.462 283.697 221.405 283.345 222.373 283.378C223.342 283.412 224.258 283.828 224.92 284.535C225.547 285.282 225.955 286.187 226.099 287.151C226.243 288.115 226.118 289.1 225.737 289.997C224.922 291.782 223.588 293.28 221.909 294.297C214.853 299.069 206.52 297.742 198.609 296.849C198.235 296.765 197.845 296.792 197.486 296.925C196.21 297.487 195.981 301.328 195.764 302.438C195.126 306.138 194.513 312.493 193.11 312.518Z" fill="#263238"/>
<path d="M190.481 295.739L185.454 292.919C185.606 292.57 185.83 292.258 186.111 292.001C186.392 291.745 186.723 291.55 187.084 291.43C187.445 291.31 187.827 291.267 188.206 291.303C188.584 291.34 188.951 291.456 189.282 291.643C189.95 292.059 190.442 292.706 190.663 293.462C190.884 294.217 190.82 295.028 190.481 295.739Z" fill="#263238"/>
<path d="M208.498 329.208C208.498 329.208 201.034 327.639 198.418 326.197C196.865 325.348 195.606 324.049 194.807 322.471C195.196 324.055 195.894 325.547 196.861 326.86C198.762 329.412 208.498 331.288 208.498 331.288V329.208Z" fill="#783736"/>
<path d="M205.793 308.665C205.802 308.869 205.77 309.073 205.699 309.265C205.629 309.458 205.521 309.634 205.383 309.784C205.244 309.935 205.077 310.057 204.891 310.143C204.706 310.228 204.505 310.277 204.3 310.285C203.887 310.262 203.5 310.078 203.221 309.773C202.942 309.468 202.793 309.065 202.807 308.652C202.807 308.256 202.965 307.876 203.245 307.596C203.525 307.316 203.904 307.159 204.3 307.159C204.696 307.159 205.076 307.316 205.356 307.596C205.636 307.876 205.793 308.256 205.793 308.652V308.665Z" fill="#263238"/>
<path d="M203.228 302.182L200.026 304.02C199.795 303.565 199.743 303.04 199.88 302.549C200.017 302.058 200.333 301.636 200.766 301.366C200.979 301.247 201.214 301.174 201.457 301.151C201.7 301.128 201.945 301.156 202.177 301.233C202.408 301.31 202.621 301.434 202.802 301.597C202.983 301.761 203.128 301.96 203.228 302.182Z" fill="#263238"/>
<path d="M207.822 319.881L211.242 321.22C211.174 321.455 211.059 321.674 210.904 321.862C210.748 322.05 210.555 322.204 210.337 322.315C210.119 322.425 209.88 322.489 209.636 322.502C209.393 322.516 209.148 322.479 208.919 322.394C208.453 322.191 208.081 321.819 207.877 321.353C207.674 320.887 207.654 320.361 207.822 319.881Z" fill="#783736"/>
<path d="M220.748 303.969L217.379 302.336C217.462 302.107 217.592 301.899 217.76 301.724C217.929 301.55 218.133 301.413 218.358 301.323C218.583 301.232 218.825 301.19 219.068 301.2C219.31 301.21 219.548 301.271 219.766 301.379C220.221 301.612 220.573 302.006 220.755 302.485C220.936 302.963 220.934 303.492 220.748 303.969Z" fill="#263238"/>
<path d="M218.54 308.664C218.56 308.873 218.535 309.083 218.469 309.282C218.402 309.48 218.295 309.663 218.154 309.817C218.013 309.972 217.841 310.096 217.649 310.18C217.458 310.265 217.25 310.309 217.041 310.309C216.832 310.309 216.625 310.265 216.433 310.18C216.241 310.096 216.07 309.972 215.929 309.817C215.787 309.663 215.68 309.48 215.614 309.282C215.547 309.083 215.523 308.873 215.542 308.664C215.533 308.461 215.565 308.257 215.636 308.066C215.706 307.874 215.814 307.699 215.953 307.549C216.092 307.4 216.259 307.279 216.445 307.195C216.63 307.11 216.831 307.063 217.035 307.057C217.446 307.073 217.835 307.251 218.117 307.552C218.399 307.853 218.551 308.252 218.54 308.664Z" fill="#263238"/>
<path d="M210.055 307.503L210.221 316.959L215.593 315.734L210.055 307.503Z" fill="#783736"/>
<path d="M203.484 304.76C202.492 304.76 201.541 305.154 200.84 305.855C200.139 306.556 199.745 307.507 199.745 308.499C199.745 309.49 200.139 310.441 200.84 311.142C201.541 311.843 202.492 312.237 203.484 312.237H204.16C205.151 312.237 206.102 311.843 206.803 311.142C207.505 310.441 207.899 309.49 207.899 308.499C207.899 307.507 207.505 306.556 206.803 305.855C206.102 305.154 205.151 304.76 204.16 304.76H203.484ZM199.056 308.499C199.046 307.316 199.505 306.178 200.332 305.334C201.16 304.49 202.289 304.008 203.471 303.994H204.16C205.244 304.137 206.239 304.668 206.96 305.49C207.681 306.311 208.078 307.367 208.078 308.46C208.078 309.553 207.681 310.609 206.96 311.431C206.239 312.253 205.244 312.784 204.16 312.926H203.484C202.311 312.92 201.189 312.451 200.36 311.622C199.531 310.793 199.063 309.671 199.056 308.499Z" fill="#263238"/>
<path d="M216.92 304.76C215.928 304.76 214.978 305.154 214.276 305.855C213.575 306.556 213.181 307.507 213.181 308.499C213.181 309.49 213.575 310.441 214.276 311.142C214.978 311.843 215.928 312.237 216.92 312.237H217.596C218.588 312.237 219.539 311.843 220.24 311.142C220.941 310.441 221.335 309.49 221.335 308.499C221.335 307.507 220.941 306.556 220.24 305.855C219.539 305.154 218.588 304.76 217.596 304.76H216.92ZM212.505 308.499C212.495 307.316 212.954 306.178 213.781 305.334C214.609 304.49 215.738 304.008 216.92 303.994H217.596C218.68 304.137 219.675 304.668 220.396 305.49C221.117 306.311 221.515 307.367 221.515 308.46C221.515 309.553 221.117 310.609 220.396 311.431C219.675 312.253 218.68 312.784 217.596 312.926H216.92C215.754 312.91 214.642 312.437 213.821 311.609C213.001 310.781 212.537 309.664 212.531 308.499H212.505Z" fill="#263238"/>
<path d="M208.524 307.606C208.791 307.235 209.142 306.932 209.547 306.722C209.953 306.511 210.402 306.399 210.859 306.393C211.236 306.353 211.617 306.403 211.97 306.541C212.323 306.679 212.638 306.899 212.888 307.184L213.487 306.725C213.169 306.336 212.758 306.033 212.292 305.843C211.826 305.654 211.32 305.584 210.821 305.64C210.241 305.646 209.672 305.792 209.161 306.066C208.65 306.339 208.212 306.731 207.886 307.21L208.524 307.606Z" fill="#263238"/>
<path d="M199.464 307.567H191.859V308.32H199.464V307.567Z" fill="#263238"/>
</g>
</svg>
