<svg width="500" height="500" viewBox="0 0 500 500" fill="none" xmlns="http://www.w3.org/2000/svg">
<path d="M500 382.4H0V382.65H500V382.4Z" fill="#EBEBEB"/>
<path d="M449.9 398.49H416.78V398.74H449.9V398.49Z" fill="#EBEBEB"/>
<path d="M331.22 401.21H322.53V401.46H331.22V401.21Z" fill="#EBEBEB"/>
<path d="M415.78 389.21H396.59V389.46H415.78V389.21Z" fill="#EBEBEB"/>
<path d="M95.65 390.89H52.46V391.14H95.65V390.89Z" fill="#EBEBEB"/>
<path d="M110.89 390.89H104.56V391.14H110.89V390.89Z" fill="#EBEBEB"/>
<path d="M225.15 395.11H131.47V395.36H225.15V395.11Z" fill="#EBEBEB"/>
<path d="M237 337.8H43.91C42.3973 337.797 40.9475 337.195 39.8788 336.124C38.8102 335.053 38.21 333.603 38.21 332.09V60.66C38.2231 59.156 38.8292 57.718 39.8964 56.6582C40.9637 55.5985 42.4059 55.0026 43.91 55H237C238.514 55 239.967 55.6016 241.038 56.6724C242.108 57.7433 242.71 59.1956 242.71 60.71V332.09C242.71 333.604 242.108 335.057 241.038 336.128C239.967 337.198 238.514 337.8 237 337.8ZM43.91 55.2C42.4636 55.2026 41.0774 55.7791 40.0556 56.8027C39.0338 57.8264 38.46 59.2136 38.46 60.66V332.09C38.46 333.536 39.0338 334.924 40.0556 335.947C41.0774 336.971 42.4636 337.547 43.91 337.55H237C238.447 337.547 239.834 336.971 240.858 335.948C241.881 334.924 242.457 333.537 242.46 332.09V60.66C242.457 59.2127 241.881 57.8255 240.858 56.8021C239.834 55.7787 238.447 55.2026 237 55.2H43.91Z" fill="#EBEBEB"/>
<path d="M453.31 337.8H260.21C258.696 337.797 257.246 337.195 256.175 336.125C255.105 335.054 254.503 333.604 254.5 332.09V60.66C254.516 59.1551 255.124 57.7171 256.193 56.6576C257.262 55.5981 258.705 55.0025 260.21 55H453.31C454.812 55.0052 456.252 55.6022 457.317 56.6617C458.382 57.7212 458.987 59.1578 459 60.66V332.09C459 333.601 458.401 335.05 457.335 336.121C456.268 337.191 454.821 337.795 453.31 337.8ZM260.21 55.2C258.763 55.2026 257.375 55.7787 256.352 56.8021C255.329 57.8255 254.753 59.2127 254.75 60.66V332.09C254.753 333.537 255.329 334.924 256.352 335.948C257.375 336.971 258.763 337.547 260.21 337.55H453.31C454.757 337.547 456.145 336.971 457.168 335.948C458.191 334.924 458.767 333.537 458.77 332.09V60.66C458.767 59.2127 458.191 57.8255 457.168 56.8021C456.145 55.7787 454.757 55.2026 453.31 55.2H260.21Z" fill="#EBEBEB"/>
<path d="M219.1 382.4H237.72L237.72 254.53H219.1V382.4Z" fill="#E6E6E6"/>
<path d="M225.66 382.4H219.1V358.1H232.53L225.66 382.4Z" fill="#F0F0F0"/>
<path d="M416.03 382.4H434.65V254.53H416.03V382.4Z" fill="#E6E6E6"/>
<path d="M219.11 375.76H421.75V254.52L219.11 254.52L219.11 375.76Z" fill="#F0F0F0"/>
<path d="M415.19 382.4H421.75V358.1H408.32L415.19 382.4Z" fill="#F0F0F0"/>
<path d="M354.94 264.56V364.85H415.01V264.56H354.94Z" fill="#E6E6E6"/>
<path d="M379 268.09H390.88C395.916 268.163 400.796 266.347 404.56 263H365.38C369.129 266.331 373.985 268.146 379 268.09Z" fill="#F0F0F0"/>
<path d="M290.39 264.56V364.85H350.46V264.56H290.39Z" fill="#E6E6E6"/>
<path d="M313.87 268.09H325.76C330.785 268.153 335.653 266.338 339.41 263H300.23C303.983 266.338 308.848 268.154 313.87 268.09Z" fill="#F0F0F0"/>
<path d="M225.84 264.57V364.86H285.91V264.57H225.84Z" fill="#E6E6E6"/>
<path d="M249.33 268.09H261.21C266.235 268.153 271.103 266.338 274.86 263H235.68C239.436 266.34 244.305 268.155 249.33 268.09Z" fill="#F0F0F0"/>
<path d="M74.5999 382.4H201.66L201.66 96.78H74.5999L74.5999 382.4Z" fill="#F0F0F0"/>
<path d="M74.6 382.4H198.98L198.98 96.78H74.6L74.6 382.4Z" fill="#F5F5F5"/>
<path d="M191.4 375.92L191.4 103.26H82.1799L82.1799 375.92H191.4Z" fill="#F0F0F0"/>
<path d="M180.67 154C180.671 150.09 179.902 146.217 178.407 142.604C176.911 138.991 174.719 135.708 171.954 132.943C169.189 130.177 165.907 127.984 162.295 126.487C158.682 124.99 154.81 124.22 150.9 124.22H122.7C114.802 124.22 107.227 127.358 101.642 132.942C96.0574 138.527 92.9199 146.102 92.9199 154H180.67Z" fill="#FAFAFA"/>
<path d="M180.68 358.97V293.83H92.9299V358.97H180.68Z" fill="#F5F5F5"/>
<path d="M180.68 172.33H141.97V285.42H180.68V172.33Z" fill="#F5F5F5"/>
<path d="M131.63 172.33H92.9199V285.42H131.63V172.33Z" fill="#F5F5F5"/>
<path d="M107 228.37H91.0999C90.4475 228.37 89.8218 228.111 89.3604 227.649C88.8991 227.188 88.6399 226.562 88.6399 225.91C88.6425 225.258 88.9025 224.634 89.3633 224.173C89.8241 223.713 90.4483 223.453 91.0999 223.45H107C107.652 223.453 108.276 223.713 108.736 224.173C109.197 224.634 109.457 225.258 109.46 225.91C109.46 226.562 109.201 227.188 108.739 227.649C108.278 228.111 107.652 228.37 107 228.37Z" fill="#E0E0E0"/>
<path d="M84.1499 375.92L84.1499 103.26H82.1799L82.1799 375.92H84.1499Z" fill="#F0F0F0"/>
<path d="M282.04 223.18L416.78 223.18V82.3299L282.04 82.3299V223.18Z" fill="#E6E6E6"/>
<path d="M278.64 223.18L413.38 223.18V82.3299L278.64 82.3299V223.18Z" fill="#F5F5F5"/>
<path d="M270.77 230.5L416.78 230.5V223.18L270.77 223.18V230.5Z" fill="#E6E6E6"/>
<path d="M266.94 230.5L405.43 230.5V223.18L266.94 223.18V230.5Z" fill="#F5F5F5"/>
<path d="M407.29 216.61V88.91L284.74 88.91V216.61H407.29Z" fill="white"/>
<path d="M349.41 216.61V88.91H342.62V216.61H349.41Z" fill="#F5F5F5"/>
<path d="M287.3 216.61V88.91H284.73V216.61H287.3Z" fill="#E6E6E6"/>
<path d="M351.98 216.61V88.91H349.41V216.61H351.98Z" fill="#E6E6E6"/>
<path d="M300.15 226.53C297.67 200.85 295.94 159.19 297.28 145.25C297.307 145.013 297.384 144.783 297.504 144.577C297.625 144.37 297.787 144.191 297.98 144.05C298.238 143.861 298.544 143.748 298.864 143.724C299.183 143.7 299.503 143.767 299.786 143.916C300.07 144.065 300.306 144.29 300.467 144.567C300.629 144.844 300.709 145.16 300.7 145.48C300.47 152.39 300.2 169.65 301.7 199.42C302.43 214.24 303.48 224.42 302.76 226.53H300.15Z" fill="#E6E6E6"/>
<path d="M290.91 167.35C283.85 159.51 269.44 153.94 254.76 153.97C248.99 153.97 272.3 163.08 281.99 173.13C289.52 180.93 297.99 194.06 300.9 201.35C299 186 298 175.18 290.91 167.35Z" fill="#E6E6E6"/>
<path d="M304.9 169.74C310.76 161.58 324.28 155.3 338.9 154.59C344.64 154.31 322.78 164.59 314.62 175.05C308.29 183.2 301.79 196.71 300 204.11C299.59 188.74 299 177.9 304.9 169.74Z" fill="#E6E6E6"/>
<path d="M290.6 138.74C284.6 132.1 272.42 127.38 259.98 127.41C255.1 127.41 274.83 135.13 283.04 143.63C289.42 150.24 296.61 161.36 299.04 167.53C297.47 154.55 296.57 145.37 290.6 138.74Z" fill="#E6E6E6"/>
<path d="M302.44 148.55C307.44 141.64 318.85 136.32 331.25 135.72C336.11 135.49 317.6 144.16 310.69 153.05C305.33 159.95 299.82 171.39 298.31 177.66C298 164.64 297.48 155.46 302.44 148.55Z" fill="#E6E6E6"/>
<path d="M301.14 254.53C297.416 254.531 293.833 253.107 291.126 250.55C288.418 247.993 286.792 244.498 286.58 240.78L285.29 218.46H317L315.71 240.78C315.498 244.499 313.87 247.997 311.161 250.554C308.451 253.111 304.866 254.533 301.14 254.53Z" fill="#E6E6E6"/>
<path d="M319.05 223.53H283.24L282.21 214.24H320.07L319.05 223.53Z" fill="#E6E6E6"/>
<path d="M250 427.56C357.083 427.56 443.89 422.492 443.89 416.24C443.89 409.988 357.083 404.92 250 404.92C142.918 404.92 56.1101 409.988 56.1101 416.24C56.1101 422.492 142.918 427.56 250 427.56Z" fill="#F5F5F5"/>
<path d="M52.3 113.53C52.3053 111.866 52.9687 110.272 54.1452 109.095C55.3218 107.919 56.9161 107.255 58.5801 107.25H338.8C340.464 107.255 342.058 107.919 343.235 109.095C344.411 110.272 345.075 111.866 345.08 113.53V133.74H52.3V113.53Z" fill="#263238"/>
<path d="M103.07 125.79C102.022 125.79 100.997 125.479 100.125 124.897C99.2539 124.314 98.5746 123.487 98.1735 122.518C97.7723 121.55 97.6674 120.484 97.8719 119.456C98.0764 118.428 98.5811 117.483 99.3224 116.742C100.064 116.001 101.008 115.496 102.036 115.292C103.064 115.087 104.13 115.192 105.098 115.593C106.067 115.995 106.894 116.674 107.477 117.545C108.059 118.417 108.37 119.442 108.37 120.49C108.37 121.896 107.812 123.244 106.818 124.238C105.824 125.232 104.476 125.79 103.07 125.79ZM103.07 116.3C102.241 116.3 101.431 116.546 100.742 117.006C100.053 117.466 99.5161 118.121 99.199 118.887C98.8818 119.652 98.7989 120.495 98.9605 121.307C99.1222 122.12 99.5213 122.867 100.107 123.453C100.693 124.039 101.44 124.438 102.253 124.599C103.065 124.761 103.908 124.678 104.673 124.361C105.439 124.044 106.093 123.507 106.554 122.818C107.014 122.129 107.26 121.319 107.26 120.49C107.257 119.379 106.815 118.315 106.03 117.53C105.245 116.745 104.18 116.303 103.07 116.3Z" fill="#F0F0F0"/>
<path d="M86.24 125.79C85.1921 125.788 84.1684 125.475 83.2982 124.892C82.4279 124.308 81.7501 123.48 81.3505 122.511C80.9509 121.543 80.8474 120.477 81.053 119.45C81.2586 118.422 81.7642 117.479 82.5058 116.739C83.2474 115.999 84.1918 115.495 85.2196 115.291C86.2475 115.087 87.3126 115.193 88.2805 115.594C89.2483 115.996 90.0755 116.675 90.6574 117.546C91.2394 118.418 91.55 119.442 91.55 120.49C91.55 121.187 91.4125 121.877 91.1456 122.52C90.8786 123.164 90.4873 123.749 89.9941 124.241C89.5009 124.733 88.9154 125.124 88.2712 125.389C87.6271 125.655 86.9368 125.791 86.24 125.79ZM86.24 116.3C85.4117 116.302 84.6026 116.549 83.9148 117.011C83.2271 117.473 82.6916 118.128 82.376 118.893C82.0604 119.659 81.9789 120.501 82.1417 121.313C82.3045 122.126 82.7043 122.871 83.2907 123.456C83.8771 124.041 84.6237 124.439 85.4362 124.6C86.2487 124.761 87.0907 124.677 87.8557 124.36C88.6207 124.043 89.2745 123.506 89.7345 122.817C90.1945 122.128 90.44 121.318 90.44 120.49C90.4373 119.378 89.9936 118.312 89.2063 117.527C88.4189 116.741 87.3521 116.3 86.24 116.3Z" fill="#F0F0F0"/>
<path d="M69.4201 125.79C68.3723 125.788 67.3486 125.475 66.4783 124.892C65.6081 124.308 64.9303 123.48 64.5307 122.511C64.1311 121.543 64.0276 120.477 64.2332 119.45C64.4388 118.422 64.9444 117.479 65.686 116.739C66.4276 115.999 67.372 115.495 68.3998 115.291C69.4276 115.087 70.4928 115.193 71.4607 115.594C72.4285 115.996 73.2557 116.675 73.8376 117.546C74.4195 118.418 74.7301 119.442 74.7301 120.49C74.7301 121.187 74.5927 121.877 74.3257 122.52C74.0588 123.164 73.6675 123.749 73.1743 124.241C72.6811 124.733 72.0956 125.124 71.4514 125.389C70.8072 125.655 70.117 125.791 69.4201 125.79ZM69.4201 116.3C68.5914 116.3 67.7813 116.546 67.0923 117.006C66.4032 117.466 65.8662 118.121 65.5491 118.886C65.2319 119.652 65.149 120.495 65.3106 121.307C65.4723 122.12 65.8714 122.867 66.4574 123.453C67.0433 124.039 67.7899 124.438 68.6027 124.599C69.4155 124.761 70.258 124.678 71.0236 124.361C71.7892 124.044 72.4436 123.507 72.904 122.818C73.3644 122.129 73.6101 121.319 73.6101 120.49C73.6075 119.379 73.1652 118.315 72.38 117.53C71.5948 116.745 70.5306 116.303 69.4201 116.3Z" fill="#F0F0F0"/>
<path d="M338.8 326.57H58.5801C56.9161 326.565 55.3218 325.901 54.1452 324.725C52.9687 323.548 52.3053 321.954 52.3 320.29V133.74H345.08V320.29C345.075 321.954 344.411 323.548 343.235 324.725C342.058 325.901 340.464 326.565 338.8 326.57Z" fill="#269D89"/>
<path d="M343.3 139.11H54.0801V304.44H343.3V139.11Z" fill="white"/>
<path d="M182.23 153.28H72.06C69.9558 153.28 68.25 154.986 68.25 157.09V171.8C68.25 173.904 69.9558 175.61 72.06 175.61H182.23C184.334 175.61 186.04 173.904 186.04 171.8V157.09C186.04 154.986 184.334 153.28 182.23 153.28Z" fill="#269D89"/>
<path d="M325.32 154.28C326.065 154.28 326.78 154.576 327.307 155.103C327.834 155.63 328.13 156.345 328.13 157.09V171.8C328.13 172.545 327.834 173.26 327.307 173.787C326.78 174.314 326.065 174.61 325.32 174.61H215.15C214.405 174.61 213.69 174.314 213.163 173.787C212.636 173.26 212.34 172.545 212.34 171.8V157.09C212.34 156.345 212.636 155.63 213.163 155.103C213.69 154.576 214.405 154.28 215.15 154.28H325.32ZM325.32 153.28H215.15C214.14 153.283 213.173 153.685 212.459 154.399C211.745 155.113 211.343 156.08 211.34 157.09V171.8C211.34 172.811 211.741 173.78 212.456 174.494C213.171 175.209 214.14 175.61 215.15 175.61H325.32C326.331 175.61 327.3 175.209 328.014 174.494C328.729 173.78 329.13 172.811 329.13 171.8V157.09C329.127 156.08 328.725 155.113 328.011 154.399C327.297 153.685 326.33 153.283 325.32 153.28Z" fill="#269D89"/>
<path d="M87.83 185.61C91.5048 185.61 95.097 186.7 98.1525 188.741C101.208 190.783 103.589 193.685 104.996 197.08C106.402 200.475 106.77 204.211 106.053 207.815C105.336 211.419 103.567 214.73 100.968 217.328C98.3696 219.926 95.059 221.696 91.4548 222.413C87.8506 223.13 84.1148 222.762 80.7198 221.356C77.3247 219.949 74.4229 217.568 72.3813 214.512C70.3397 211.457 69.25 207.865 69.25 204.19C69.2553 199.264 71.2145 194.541 74.6978 191.058C78.1811 187.575 82.9039 185.615 87.83 185.61ZM87.83 184.61C83.9575 184.61 80.1719 185.758 76.9519 187.91C73.732 190.061 71.2224 193.119 69.7405 196.697C68.2585 200.275 67.8707 204.212 68.6262 208.01C69.3817 211.808 71.2465 215.297 73.9849 218.035C76.7232 220.773 80.212 222.638 84.0101 223.394C87.8083 224.149 91.7452 223.762 95.323 222.28C98.9007 220.798 101.959 218.288 104.11 215.068C106.262 211.848 107.41 208.063 107.41 204.19C107.41 198.997 105.347 194.017 101.675 190.345C98.0032 186.673 93.023 184.61 87.83 184.61Z" fill="#269D89"/>
<path opacity="0.4" d="M102 211.89C100.613 214.448 98.5608 216.583 96.0606 218.071C93.5604 219.56 90.7047 220.345 87.7951 220.345C84.8855 220.345 82.0298 219.56 79.5296 218.071C77.0294 216.583 74.9773 214.448 73.5901 211.89C77.7944 209.079 82.7379 207.579 87.7951 207.579C92.8523 207.579 97.7958 209.079 102 211.89Z" fill="#269D89"/>
<path opacity="0.4" d="M87.8301 205.86C91.8066 205.86 95.0301 202.636 95.0301 198.66C95.0301 194.684 91.8066 191.46 87.8301 191.46C83.8537 191.46 80.6301 194.684 80.6301 198.66C80.6301 202.636 83.8537 205.86 87.8301 205.86Z" fill="#269D89"/>
<path opacity="0.4" d="M319.06 214.26H128.48C125.809 214.26 123.248 213.199 121.36 211.311C119.471 209.422 118.41 206.861 118.41 204.19C118.41 202.868 118.671 201.559 119.177 200.338C119.683 199.117 120.425 198.007 121.36 197.073C122.295 196.139 123.406 195.398 124.627 194.893C125.849 194.388 127.158 194.129 128.48 194.13H319.06C320.382 194.129 321.691 194.388 322.913 194.893C324.135 195.398 325.245 196.139 326.18 197.073C327.115 198.007 327.857 199.117 328.363 200.338C328.87 201.559 329.13 202.868 329.13 204.19C329.13 206.861 328.069 209.422 326.181 211.311C324.292 213.199 321.731 214.26 319.06 214.26Z" fill="#269D89"/>
<path d="M87.83 239C91.5048 239 95.097 240.09 98.1525 242.131C101.208 244.173 103.589 247.075 104.996 250.47C106.402 253.865 106.77 257.601 106.053 261.205C105.336 264.809 103.567 268.12 100.968 270.718C98.3696 273.317 95.059 275.086 91.4548 275.803C87.8506 276.52 84.1148 276.152 80.7198 274.746C77.3247 273.339 74.4229 270.958 72.3813 267.902C70.3397 264.847 69.25 261.255 69.25 257.58C69.2527 252.653 71.211 247.929 74.6949 244.445C78.1787 240.961 82.9031 239.003 87.83 239ZM87.83 238C83.9575 238 80.1719 239.148 76.9519 241.3C73.732 243.451 71.2224 246.509 69.7405 250.087C68.2585 253.665 67.8707 257.602 68.6262 261.4C69.3817 265.198 71.2465 268.687 73.9849 271.425C76.7232 274.163 80.212 276.028 84.0101 276.784C87.8083 277.539 91.7452 277.152 95.323 275.67C98.9007 274.188 101.959 271.678 104.11 268.458C106.262 265.238 107.41 261.453 107.41 257.58C107.41 252.387 105.347 247.407 101.675 243.735C98.0032 240.063 93.023 238 87.83 238Z" fill="#269D89"/>
<path opacity="0.4" d="M102 265.22C100.613 267.778 98.5608 269.913 96.0606 271.401C93.5604 272.89 90.7047 273.675 87.7951 273.675C84.8855 273.675 82.0298 272.89 79.5296 271.401C77.0294 269.913 74.9773 267.778 73.5901 265.22C77.7968 262.416 82.7394 260.919 87.7951 260.919C92.8508 260.919 97.7934 262.416 102 265.22Z" fill="#269D89"/>
<path opacity="0.4" d="M87.8301 259.2C91.8066 259.2 95.0301 255.976 95.0301 252C95.0301 248.024 91.8066 244.8 87.8301 244.8C83.8537 244.8 80.6301 248.024 80.6301 252C80.6301 255.976 83.8537 259.2 87.8301 259.2Z" fill="#269D89"/>
<path opacity="0.4" d="M128.48 247.46H319.06C321.731 247.46 324.292 248.521 326.181 250.409C328.069 252.298 329.13 254.859 329.13 257.53C329.13 260.201 328.069 262.762 326.181 264.651C324.292 266.539 321.731 267.6 319.06 267.6H128.48C125.809 267.6 123.248 266.539 121.36 264.651C119.471 262.762 118.41 260.201 118.41 257.53C118.41 254.862 119.47 252.303 121.357 250.416C123.243 248.53 125.802 247.47 128.47 247.47L128.48 247.46Z" fill="#269D89"/>
<path opacity="0.1" d="M272.12 267.3C272.119 273.417 272.719 279.52 273.91 285.52C268.317 288.841 263.683 293.558 260.459 299.207C257.236 304.856 255.534 311.246 255.52 317.75C255.5 320.719 255.835 323.681 256.52 326.57H338.8C340.464 326.565 342.058 325.901 343.235 324.725C344.411 323.548 345.075 321.954 345.08 320.29V176.29C324.39 180.917 305.892 192.451 292.631 208.993C279.37 225.535 272.136 246.099 272.12 267.3Z" fill="black"/>
<path d="M424.133 330.057C456.62 297.569 456.62 244.896 424.133 212.408C391.645 179.921 338.972 179.921 306.484 212.408C273.997 244.896 273.997 297.569 306.484 330.057C338.972 362.544 391.645 362.544 424.133 330.057Z" fill="#269D89"/>
<path d="M419.323 324.756C448.941 295.139 448.941 247.119 419.323 217.502C389.706 187.885 341.687 187.885 312.069 217.502C282.452 247.119 282.452 295.139 312.069 324.756C341.687 354.373 389.706 354.373 419.323 324.756Z" fill="white"/>
<path d="M340.11 220.25L335.27 226.45C335.27 226.45 331.02 229.67 329.41 232.45C327.53 234.31 325.81 236.22 324.11 238.23C322.161 240.528 320.345 242.936 318.67 245.44C316.835 248.118 315.318 251.001 314.15 254.03C313.41 255.947 313.001 257.976 312.94 260.03C312.913 261.483 313.172 262.927 313.7 264.28C314.363 265.938 315.457 267.388 316.87 268.48L317.93 269.28L319.52 269.58C322.659 270.176 325.845 270.491 329.04 270.52L330.3 270.41L329 257.73C327.93 257.73 325.63 257.94 324.58 257.92C324.58 257.72 324.66 257.52 324.71 257.32C325.343 254.907 326.214 252.562 327.31 250.32C328.43 247.89 329.72 245.46 331.06 243.04C332.24 240.9 333.51 238.75 334.74 236.65L340.74 232.87L344.25 226.64L340.11 220.25ZM324.5 259.75C324.491 259.654 324.491 259.556 324.5 259.46C324.542 259.531 324.573 259.609 324.59 259.69C324.62 259.93 324.55 259.94 324.5 259.75Z" fill="#7F3E3B"/>
<path d="M374.19 233.65C374.34 232.88 369.08 230.24 365.46 232.39C362.33 234.25 361.93 236.79 363.07 239.82C363.07 240.03 363.15 240.24 363.18 240.45C363.25 240.94 363.31 241.45 363.34 241.91C363.57 245.1 362.73 248.07 359.14 249.76C359.14 249.96 358.65 250.17 358.49 250.31C357.161 251.48 356.312 253.101 356.11 254.86C356.11 256.16 357.34 257.19 358.77 258.43L360.77 259.78L363.51 259.52C371.92 257.05 375.85 249.37 375.67 248.8C373.51 245.24 373.54 239 374.19 233.65Z" fill="#7F3E3B"/>
<path d="M392.37 251.87L390.85 251.61C388.85 251.29 379.93 249.27 375.62 248.89C374.62 251.02 371.34 256.22 362.93 258.69L360.85 259.18L358.85 258.18C358.232 257.734 357.717 257.161 357.341 256.498C356.965 255.835 356.736 255.099 356.67 254.34C356.738 253.559 356.967 252.801 357.342 252.112C357.717 251.424 358.231 250.821 358.85 250.34C358.923 250.277 358.981 250.198 359.02 250.11C359.02 249.87 359.02 249.71 359.02 249.69C358.39 249.77 350.41 250.98 349.74 251.09C342.217 252.48 334.832 254.531 327.67 257.22L327.75 257.94L329.2 270.53L329.74 275.3C329.74 275.3 333.74 274.85 338.99 273.93C337.56 286.67 337.28 305.13 341.65 328.86L358.72 328.54L388.38 327.99C388.5 325.99 388.28 321.85 388.07 316.19L387.8 307.45C387.64 299.73 387.67 290.45 388.36 280.53C388.47 278.96 388.6 277.38 388.74 275.78C394.8 282.33 400.87 288.59 400.87 288.59L403.74 285.83C407.41 284.06 410.3 280.89 412.82 277.08L416.19 273.83C416.19 273.83 400.57 253.25 392.37 251.87Z" fill="#269D89"/>
<path opacity="0.3" d="M384.16 270.64C384.388 272.722 385.053 274.732 386.11 276.54L388.41 280.48C388.52 278.91 388.65 277.33 388.79 275.73C387.21 274 385.63 272.29 384.16 270.64Z" fill="black"/>
<path opacity="0.3" d="M388.8 275.74C388.66 277.34 388.53 278.92 388.42 280.49C388.52 278.92 388.66 277.33 388.8 275.74Z" fill="black"/>
<path d="M363.07 239.82C363.07 240.03 363.14 240.24 363.18 240.45C363.18 240.24 363.11 240.03 363.07 239.82Z" fill="#7F3E3B"/>
<path opacity="0.2" d="M363.34 241.91C363.34 241.43 363.25 240.91 363.18 240.45C363.25 240.94 363.31 241.43 363.34 241.91Z" fill="black"/>
<path d="M369.56 237.45C369.36 237.59 369.17 237.74 368.96 237.88C367.21 239.052 365.173 239.723 363.07 239.82C363.07 240.03 363.14 240.24 363.18 240.45C363.25 240.94 363.31 241.45 363.34 241.91C363.34 241.91 363.34 241.97 363.34 242C365.934 241.367 368.171 239.731 369.56 237.45Z" fill="#7F3E3B"/>
<path d="M380.79 250.41C380.702 249.999 380.499 249.621 380.205 249.321C379.911 249.02 379.539 248.808 379.13 248.71L377.05 248.21C376.79 248.149 376.517 248.173 376.272 248.279C376.027 248.386 375.823 248.568 375.69 248.8L375.62 248.89C374.62 251.02 371.34 256.22 362.93 258.69L362.28 258.84L360.85 259.18L358.85 258.18C358.232 257.734 357.717 257.161 357.341 256.498C356.965 255.835 356.736 255.099 356.67 254.34C356.738 253.559 356.967 252.801 357.342 252.112C357.717 251.424 358.231 250.821 358.85 250.34C358.96 250.228 359.057 250.104 359.14 249.97C359.23 249.74 359.21 249.63 359.05 249.53C356.84 247.94 351.9 250.39 351.7 250.81C351.49 251.02 351.28 251.24 351.07 251.49C350.453 252.216 349.993 253.061 349.718 253.973C349.442 254.885 349.358 255.844 349.47 256.79C349.678 258.381 350.242 259.905 351.12 261.248C351.998 262.592 353.167 263.72 354.54 264.55C354.585 264.565 354.634 264.565 354.68 264.55C354.732 264.565 354.788 264.565 354.84 264.55C354.883 264.52 354.918 264.479 354.943 264.432C354.967 264.385 354.98 264.333 354.98 264.28C354.984 263.098 355.338 261.943 355.996 260.961C356.654 259.979 357.588 259.213 358.68 258.76L360.43 259.7C352.91 290.56 358.01 327.55 358.15 328.55H358.73C358.73 328.17 353.43 290.86 361.01 259.83L362.84 259.39C364.97 261.99 363.96 265.85 363.95 265.89C363.936 265.944 363.937 266 363.953 266.053C363.968 266.106 363.999 266.153 364.04 266.19C364.096 266.236 364.167 266.261 364.24 266.26C364.276 266.27 364.314 266.27 364.35 266.26C364.75 266.08 374.21 261.94 377.52 257.99C379.083 256.102 380.185 253.877 380.74 251.49C380.85 251.14 380.867 250.768 380.79 250.41Z" fill="white"/>
<path opacity="0.2" d="M369.56 237.45C369.36 237.59 369.17 237.74 368.96 237.88C367.21 239.052 365.173 239.723 363.07 239.82C363.07 240.03 363.14 240.24 363.18 240.45C363.25 240.94 363.31 241.45 363.34 241.91C363.34 241.91 363.34 241.97 363.34 242C365.934 241.367 368.171 239.731 369.56 237.45Z" fill="black"/>
<path d="M357.21 215.37C361.12 210.37 358.64 207.37 356.98 207.65C355.41 208.39 353.92 210.48 353.15 215.16C352.965 216.264 352.938 217.389 353.07 218.5C354.68 218.42 357.21 215.37 357.21 215.37Z" fill="#263238"/>
<path d="M373.6 226.4C384.43 207.35 363.04 205.13 358.68 209.4C357.209 210.765 355.97 212.359 355.01 214.12L354.1 215.91C353.723 216.756 353.389 217.62 353.1 218.5C352 221.662 351.425 224.982 351.4 228.33C351.392 229.859 351.692 231.373 352.28 232.784C352.868 234.195 353.733 235.474 354.824 236.545C355.914 237.616 357.209 238.458 358.63 239.02C360.052 239.583 361.571 239.855 363.1 239.82C365.203 239.723 367.24 239.052 368.99 237.88C369.2 237.74 369.39 237.59 369.59 237.45C371.018 236.432 372.237 235.149 373.18 233.67C375.4 230.08 374.82 228.27 373.6 226.4Z" fill="#7F3E3B"/>
<path d="M353.55 215.32C353.484 215.407 353.454 215.516 353.467 215.624C353.48 215.732 353.535 215.831 353.62 215.9C353.694 215.958 353.786 215.989 353.88 215.99C353.96 215.988 354.037 215.96 354.1 215.91C354.139 215.893 354.174 215.865 354.2 215.83C354.52 215.408 354.932 215.065 355.405 214.828C355.879 214.59 356.4 214.464 356.93 214.46C357.04 214.466 357.147 214.428 357.229 214.355C357.312 214.282 357.362 214.18 357.37 214.07C357.374 214.016 357.367 213.962 357.35 213.911C357.333 213.859 357.307 213.812 357.271 213.771C357.236 213.73 357.193 213.697 357.145 213.672C357.096 213.648 357.044 213.634 356.99 213.63C356.293 213.626 355.606 213.794 354.99 214.12C354.432 214.417 353.942 214.825 353.55 215.32Z" fill="#263238"/>
<path d="M364.37 227.3C364.331 227.263 364.279 227.242 364.225 227.242C364.171 227.242 364.119 227.263 364.08 227.3C363.395 227.873 362.589 228.283 361.723 228.498C360.857 228.713 359.952 228.727 359.08 228.54C359.027 228.531 358.972 228.543 358.928 228.572C358.883 228.602 358.852 228.648 358.84 228.7C358.83 228.754 358.842 228.81 358.871 228.856C358.901 228.902 358.947 228.936 359 228.95C359.477 229.045 359.963 229.088 360.45 229.08C361.881 229.067 363.261 228.542 364.34 227.6C364.362 227.583 364.38 227.561 364.393 227.536C364.407 227.512 364.415 227.484 364.418 227.456C364.421 227.428 364.418 227.4 364.41 227.373C364.401 227.346 364.388 227.322 364.37 227.3Z" fill="#263238"/>
<path d="M359 220.16C357.676 222.098 356.098 223.85 354.31 225.37C355.31 226.75 357.47 226.65 357.47 226.65L359 220.16Z" fill="#630F0F"/>
<path d="M355.46 220.4C355.91 220.49 356.46 220.01 356.57 219.32C356.68 218.63 356.5 218.01 356.05 217.92C355.6 217.83 355.1 218.31 354.94 219C354.78 219.69 355 220.31 355.46 220.4Z" fill="#263238"/>
<path d="M363.28 222C363.73 222.09 364.22 221.61 364.39 220.92C364.56 220.23 364.31 219.61 363.86 219.52C363.41 219.43 362.91 219.91 362.75 220.6C362.59 221.29 362.82 221.87 363.28 222Z" fill="#263238"/>
<path d="M380.45 211.1C384.68 207.48 375.04 200.1 375.04 200.1C375.04 200.1 376.12 202.74 373.88 203.47C371.64 204.2 355.88 198.32 356.11 204.99C356.153 205.93 356.454 206.84 356.98 207.62C357.449 208.291 358.023 208.882 358.68 209.37C362.34 212.15 369 213 372.6 213C372.029 214.393 371.629 215.85 371.41 217.34C371.134 218.91 371.186 220.52 371.563 222.069C371.94 223.618 372.634 225.072 373.6 226.34C375.6 229.82 378.27 229.72 380.55 227.07C384.21 223.61 387.74 216.6 380.45 211.1Z" fill="#263238"/>
<path d="M378.61 225.07C376.95 224.39 375.08 225.19 373.61 226.4C372.803 227.042 372.105 227.808 371.54 228.67C370.13 230.88 370.63 233.45 373.16 233.67H373.6H374.2C376.192 233.467 378.053 232.584 379.47 231.17C379.995 230.663 380.374 230.024 380.566 229.32C380.757 228.616 380.755 227.873 380.56 227.17C380.417 226.694 380.167 226.258 379.829 225.894C379.491 225.529 379.074 225.248 378.61 225.07Z" fill="#7F3E3B"/>
<path d="M341.7 328.81C341.7 328.81 341.43 331.15 341.01 335.08C356.324 340.259 372.892 340.413 388.3 335.52C388.4 330.77 388.47 327.93 388.47 327.93L358.77 328.49H358.19L341.7 328.81Z" fill="#263238"/>
<path d="M419 288.54C418.915 287.688 418.72 286.851 418.42 286.05C418.277 285.652 418.106 285.265 417.91 284.89L417.62 284.35L417.46 284.07C416.03 281.61 414.46 279.28 412.86 277.07L403.78 285.82C404.98 287.32 406.15 288.82 407.23 290.36C407.03 290.871 406.771 291.358 406.46 291.81C405.006 293.829 403.329 295.678 401.46 297.32C397.544 300.847 393.441 304.162 389.17 307.25L387.78 307.43L382.2 308.19L376.71 311.9L380.32 319.24L384.86 316.92C385.944 316.771 387.013 316.52 388.05 316.17C389.654 315.752 391.051 314.764 391.98 313.39C394.636 312.338 397.236 311.15 399.77 309.83C402.494 308.425 405.132 306.859 407.67 305.14C408.957 304.26 410.23 303.297 411.49 302.25C412.828 301.152 414.066 299.937 415.19 298.62C416.629 296.993 417.736 295.101 418.45 293.05C418.953 291.603 419.141 290.065 419 288.54ZM407.31 290.12C407.31 290.07 407.31 290.01 407.31 289.97C407.31 289.73 407.4 289.64 407.4 289.78C407.395 289.896 407.372 290.011 407.33 290.12H407.31Z" fill="#7F3E3B"/>
<path d="M320.084 318.104C322.513 303.14 312.351 289.04 297.386 286.611C282.422 284.182 268.322 294.344 265.893 309.308C263.464 324.272 273.626 338.373 288.59 340.802C303.554 343.231 317.655 333.069 320.084 318.104Z" fill="#263238"/>
<path d="M308.06 311.12H295.54V298.6C295.54 297.918 295.269 297.265 294.787 296.783C294.305 296.301 293.651 296.03 292.97 296.03C292.288 296.03 291.634 296.301 291.152 296.783C290.67 297.265 290.4 297.918 290.4 298.6V311.12H277.88C277.198 311.12 276.544 311.391 276.062 311.873C275.58 312.355 275.31 313.008 275.31 313.69C275.31 314.372 275.58 315.025 276.062 315.507C276.544 315.989 277.198 316.26 277.88 316.26H290.4V328.78C290.4 329.118 290.466 329.452 290.595 329.764C290.724 330.075 290.914 330.359 291.152 330.597C291.391 330.836 291.674 331.025 291.986 331.154C292.298 331.284 292.632 331.35 292.97 331.35C293.307 331.35 293.641 331.284 293.953 331.154C294.265 331.025 294.548 330.836 294.787 330.597C295.025 330.359 295.215 330.075 295.344 329.764C295.473 329.452 295.54 329.118 295.54 328.78V316.26H308.06C308.741 316.26 309.395 315.989 309.877 315.507C310.359 315.025 310.63 314.372 310.63 313.69C310.63 313.008 310.359 312.355 309.877 311.873C309.395 311.391 308.741 311.12 308.06 311.12Z" fill="white"/>
<path d="M364.77 216.76C365.272 216.862 365.742 217.084 366.14 217.408C366.537 217.732 366.849 218.148 367.05 218.62C367.084 218.692 367.138 218.753 367.205 218.795C367.272 218.838 367.35 218.86 367.43 218.86C367.486 218.874 367.544 218.874 367.6 218.86C367.649 218.837 367.694 218.805 367.731 218.765C367.768 218.725 367.797 218.678 367.815 218.627C367.834 218.576 367.842 218.521 367.839 218.467C367.837 218.413 367.823 218.359 367.8 218.31C367.539 217.713 367.137 217.189 366.629 216.783C366.12 216.377 365.519 216.101 364.88 215.98C364.771 215.965 364.661 215.995 364.574 216.061C364.487 216.128 364.429 216.226 364.415 216.335C364.4 216.444 364.429 216.554 364.496 216.641C364.563 216.728 364.661 216.785 364.77 216.8V216.76Z" fill="#263238"/>
</svg>
