<svg width="411" height="379" viewBox="0 0 411 379" fill="none" xmlns="http://www.w3.org/2000/svg">
<g opacity="0.5">
<path d="M188 427.286C305.322 427.286 400.43 372.378 400.43 304.645C400.43 236.912 305.322 182.004 188 182.004C70.6784 182.004 -24.4297 236.912 -24.4297 304.645C-24.4297 372.378 70.6784 427.286 188 427.286Z" fill="#F0F0F0"/>
<path d="M59.6858 329.71C96.4662 329.71 126.283 313.2 126.283 292.835C126.283 272.469 96.4662 255.959 59.6858 255.959C22.9055 255.959 -6.91089 272.469 -6.91089 292.835C-6.91089 313.2 22.9055 329.71 59.6858 329.71Z" fill="#E0E0E0"/>
<path d="M18.9661 353.678L123.33 413.915C123.864 414.183 124.454 414.323 125.052 414.323C125.649 414.323 126.239 414.183 126.773 413.915L311.328 307.356C311.535 307.285 311.714 307.151 311.841 306.972C311.968 306.794 312.036 306.581 312.036 306.362C312.036 306.143 311.968 305.93 311.841 305.751C311.714 305.573 311.535 305.439 311.328 305.367L206.964 245.131C206.431 244.862 205.843 244.723 205.247 244.723C204.651 244.723 204.062 244.862 203.53 245.131L18.9661 351.689C18.7593 351.76 18.58 351.895 18.4531 352.073C18.3262 352.251 18.2581 352.465 18.2581 352.683C18.2581 352.902 18.3262 353.116 18.4531 353.294C18.58 353.472 18.7593 353.606 18.9661 353.678Z" fill="#E0E0E0"/>
<path d="M308.179 383.783C339.624 383.783 365.115 369.067 365.115 350.913C365.115 332.759 339.624 318.043 308.179 318.043C276.734 318.043 251.243 332.759 251.243 350.913C251.243 369.067 276.734 383.783 308.179 383.783Z" fill="#E0E0E0"/>
<path d="M66.0547 323.029C65.8595 323.029 65.6662 322.99 65.486 322.915C65.3058 322.84 65.1421 322.731 65.0045 322.592C64.8669 322.454 64.758 322.289 64.6841 322.109C64.6103 321.928 64.5728 321.734 64.574 321.539V226.3C64.574 225.908 64.73 225.531 65.0077 225.253C65.2854 224.976 65.662 224.82 66.0547 224.82C66.4474 224.82 66.8241 224.976 67.1018 225.253C67.3794 225.531 67.5354 225.908 67.5354 226.3V321.539C67.5354 321.933 67.3797 322.31 67.1023 322.589C66.8249 322.869 66.4483 323.027 66.0547 323.029Z" fill="#455A64"/>
<path d="M124.98 288.357C124.688 288.359 124.401 288.276 124.156 288.118C123.91 287.959 123.716 287.732 123.598 287.465L94.3936 213.545C94.2493 213.179 94.2561 212.771 94.4125 212.411C94.5689 212.05 94.8621 211.767 95.2276 211.623C95.5931 211.478 96.001 211.485 96.3614 211.641C96.7219 211.798 97.0055 212.091 97.1498 212.457L126.354 286.332C126.443 286.556 126.475 286.799 126.449 287.039C126.422 287.278 126.338 287.508 126.202 287.707C126.067 287.907 125.885 288.07 125.672 288.184C125.459 288.297 125.221 288.356 124.98 288.357Z" fill="#455A64"/>
<path d="M121.466 279.481C121.265 279.481 121.067 279.44 120.883 279.36C120.699 279.28 120.533 279.164 120.395 279.018L66.0457 221.51L11.8032 278.768C11.6719 278.918 11.5118 279.039 11.3323 279.126C11.1529 279.212 10.9578 279.262 10.7588 279.271C10.5599 279.28 10.3611 279.249 10.1743 279.18C9.98761 279.111 9.81679 279.004 9.67209 278.867C9.5274 278.731 9.41181 278.566 9.33225 278.383C9.25268 278.201 9.21078 278.004 9.20904 277.805C9.2073 277.606 9.24577 277.408 9.32214 277.224C9.39851 277.04 9.51121 276.873 9.6535 276.734L64.9575 218.335C65.0962 218.188 65.2636 218.071 65.4492 217.991C65.6348 217.912 65.8348 217.871 66.0368 217.871C66.2373 217.872 66.4356 217.913 66.6196 217.993C66.8036 218.073 66.9695 218.189 67.1072 218.335L122.527 276.984C122.661 277.125 122.765 277.291 122.834 277.472C122.903 277.653 122.936 277.847 122.93 278.041C122.924 278.235 122.88 278.425 122.8 278.602C122.721 278.779 122.606 278.939 122.465 279.071C122.197 279.331 121.839 279.478 121.466 279.481Z" fill="#455A64"/>
<path d="M7.12905 288.357C6.94247 288.357 6.75769 288.32 6.58493 288.25C6.40327 288.18 6.23729 288.075 6.09661 287.94C5.95592 287.805 5.84333 287.644 5.76535 287.466C5.68736 287.288 5.64554 287.096 5.64229 286.901C5.63905 286.706 5.67445 286.513 5.74645 286.332L34.9505 212.412C35.0948 212.046 35.3784 211.753 35.7389 211.597C36.0994 211.44 36.5073 211.434 36.8728 211.578C37.2383 211.722 37.5315 212.006 37.6879 212.366C37.8443 212.727 37.8511 213.135 37.7068 213.5L8.50273 287.42C8.39381 287.696 8.20466 287.933 7.95975 288.1C7.71485 288.267 7.42546 288.356 7.12905 288.357Z" fill="#455A64"/>
<path d="M122.964 277.198L126.826 287.385C126.835 287.471 126.835 287.557 126.826 287.643V287.831C126.715 288.106 126.51 288.334 126.247 288.473C125.882 288.658 125.478 288.754 125.069 288.754C124.66 288.754 124.257 288.658 123.892 288.473C123.688 288.37 123.527 288.2 123.437 287.991V287.857L119.869 278.304L122.964 277.198Z" fill="#269D89"/>
<path d="M9.13613 277.198L5.27377 287.385C5.26541 287.471 5.26541 287.557 5.27377 287.643C5.26486 287.705 5.26486 287.768 5.27377 287.831C5.37852 288.11 5.5858 288.34 5.85357 288.473C6.21694 288.658 6.61886 288.754 7.02655 288.754C7.43424 288.754 7.83616 288.658 8.19953 288.473C8.40738 288.377 8.57027 288.204 8.65445 287.991V287.857L12.276 278.304L9.13613 277.198Z" fill="#269D89"/>
<path d="M67.7584 314.171V322.601C67.7402 322.749 67.6849 322.891 67.5976 323.012C67.5103 323.134 67.3938 323.232 67.2589 323.296C66.8842 323.486 66.4702 323.585 66.0502 323.585C65.6303 323.585 65.2162 323.486 64.8416 323.296C64.7066 323.232 64.5901 323.134 64.5028 323.012C64.4155 322.891 64.3602 322.749 64.342 322.601V314.171C64.8675 313.89 65.4543 313.743 66.0502 313.743C66.6462 313.743 67.2329 313.89 67.7584 314.171Z" fill="#269D89"/>
<path d="M121.814 216.97C121.814 214.731 119.851 212.358 115.712 209.674C108.068 204.714 90.9951 194.759 80.3 188.828C80.2961 188.806 80.2852 188.787 80.2691 188.772C80.2529 188.758 80.2325 188.749 80.2108 188.747C71.9776 183.752 64.2975 159.962 58.6066 141.89C56.662 135.727 54.2893 132.239 51.4706 130.598C50.8016 130.214 48.3307 128.858 47.7777 128.528C42.1938 125.174 34.8526 129.197 25.7185 134.201C17.298 138.804 10.724 144.7 9.40383 160.355C8.59211 169.881 9.35924 188.087 11.2949 201.886C14.0958 224.945 17.5389 224.98 22.5252 228.834C31.124 235.488 50.4804 244.8 58.6601 247.976C73.4494 253.792 85.545 244.818 94.5542 240.367C102.814 236.196 110.788 231.482 118.424 226.256C120.681 224.623 121.849 222.964 121.823 221.216C121.796 220.529 121.814 217.693 121.814 216.97Z" fill="#269D89"/>
<path opacity="0.25" d="M121.814 216.97C121.814 214.731 119.851 212.358 115.712 209.674C108.068 204.714 90.9951 194.759 80.3 188.828C80.2961 188.806 80.2852 188.787 80.2691 188.772C80.2529 188.758 80.2325 188.749 80.2108 188.747C71.9776 183.752 64.2975 159.962 58.6066 141.89C56.662 135.727 54.2893 132.239 51.4706 130.598C50.8016 130.214 48.3307 128.858 47.7777 128.528C42.1938 125.174 34.8526 129.197 25.7185 134.201C17.298 138.804 10.724 144.7 9.40383 160.355C8.59211 169.881 9.35924 188.087 11.2949 201.886C14.0958 224.945 17.5389 224.98 22.5252 228.834C31.124 235.488 50.4804 244.8 58.6601 247.976C73.4494 253.792 85.545 244.818 94.5542 240.367C102.814 236.196 110.788 231.482 118.424 226.256C120.681 224.623 121.849 222.964 121.823 221.216C121.796 220.529 121.814 217.693 121.814 216.97Z" fill="black"/>
<path d="M51.1403 130.41C45.601 127.503 38.4026 131.454 29.5004 136.333C23.8005 139.464 18.9391 143.166 15.9866 150.097L12.2759 147.92C15.2284 141.016 20.0809 137.314 25.7629 134.201C34.9059 129.197 42.2382 125.174 47.831 128.528L51.1403 130.41Z" fill="#269D89"/>
<path d="M115.748 209.674C110.789 206.453 110.682 205.633 80.0681 188.676C80.1189 188.688 80.1673 188.709 80.2108 188.738C71.9866 183.725 64.3154 159.953 58.6244 141.89C52.8353 123.533 43.1928 128.849 29.5184 136.342C21.0801 140.936 14.5061 146.841 13.1681 162.496C11.8301 178.15 14.7291 216.908 20.0722 221.635C25.8969 228.076 49.2762 240.046 58.6155 243.721C73.4048 249.537 85.5004 240.564 94.5096 236.112C102.785 231.934 110.774 227.211 118.424 221.974C123.535 218.246 123.062 214.437 115.748 209.674Z" fill="#269D89"/>
<g opacity="0.1">
<path d="M29.5006 136.342C43.1749 128.849 52.8174 123.533 58.6065 141.89C64.2975 159.962 71.9865 183.752 80.2108 188.747C80.2108 188.747 66.0904 188.747 45.6368 199.781C24.3716 211.261 21.1247 222.492 20.1524 221.689C14.8004 217.229 11.8568 178.141 13.1859 162.496C14.515 146.85 21.0801 140.936 29.5006 136.342Z" fill="black"/>
</g>
<path d="M125.15 292.665L31.4719 238.583L187.938 148.295L281.607 202.377L125.15 292.665Z" fill="#455A64"/>
<path d="M31.4719 238.583V346.747L36.4047 349.593V275.583L120.217 323.974V397.984L125.15 400.829V292.665L31.4719 238.583Z" fill="#263238"/>
<path d="M36.4048 349.593L41.3375 346.747V278.429L36.4048 275.583V349.593Z" fill="black"/>
<path d="M125.15 400.829L130.082 397.984V323.974L276.683 239.386V313.395L281.606 310.55V202.377L125.15 292.665V400.829Z" fill="#37474F"/>
<path d="M276.683 313.395L271.75 310.55V242.232L276.683 239.386V313.395Z" fill="#263238"/>
<g opacity="0.2">
<path d="M116.64 271.329C111.85 274.085 111.85 278.563 116.64 281.328C121.43 284.093 129.128 284.084 133.954 281.328C138.78 278.572 138.735 274.085 133.954 271.329C129.173 268.572 121.439 268.563 116.64 271.329Z" fill="black"/>
</g>
<g opacity="0.2">
<path d="M47.4745 238.521L81.8521 258.386C82.1515 258.54 82.4833 258.62 82.82 258.62C83.1566 258.62 83.4884 258.54 83.7878 258.386L109.112 243.766C109.228 243.726 109.329 243.651 109.401 243.551C109.473 243.451 109.511 243.331 109.511 243.208C109.511 243.085 109.473 242.965 109.401 242.865C109.329 242.765 109.228 242.69 109.112 242.651L74.7161 222.777C74.4154 222.628 74.0841 222.55 73.7483 222.55C73.4125 222.55 73.0813 222.628 72.7805 222.777L47.4566 237.406C46.9393 237.709 46.9393 238.209 47.4745 238.521Z" fill="black"/>
</g>
<g opacity="0.2">
<path d="M47.4743 242.071L81.852 261.936C82.1513 262.09 82.4831 262.17 82.8198 262.17C83.1565 262.17 83.4883 262.09 83.7876 261.936L109.112 247.316C109.647 247.004 109.647 246.504 109.112 246.201L74.716 226.327C74.4152 226.178 74.084 226.1 73.7482 226.1C73.4124 226.1 73.0811 226.178 72.7804 226.327L47.4743 240.947C47.3588 240.989 47.259 241.065 47.1885 241.166C47.1179 241.266 47.0801 241.386 47.0801 241.509C47.0801 241.632 47.1179 241.752 47.1885 241.852C47.259 241.953 47.3588 242.029 47.4743 242.071Z" fill="black"/>
</g>
<path d="M47.4743 240.911L81.852 260.776C82.1513 260.93 82.4831 261.011 82.8198 261.011C83.1565 261.011 83.4883 260.93 83.7876 260.776L109.147 246.192C109.682 245.88 109.682 245.38 109.147 245.077L74.716 225.168C74.4152 225.018 74.084 224.941 73.7482 224.941C73.4124 224.941 73.0811 225.018 72.7804 225.168L47.4743 239.787C47.3588 239.829 47.259 239.906 47.1885 240.006C47.1179 240.107 47.0801 240.227 47.0801 240.349C47.0801 240.472 47.1179 240.592 47.1885 240.693C47.259 240.793 47.3588 240.87 47.4743 240.911Z" fill="#EBEBEB"/>
<path d="M72.7983 225.168L48.75 239.056L81.8521 258.189C82.1529 258.339 82.4841 258.416 82.8199 258.416C83.1557 258.416 83.487 258.339 83.7878 258.189L107.872 244.301L74.7161 225.168C74.4177 225.021 74.0897 224.945 73.7572 224.945C73.4248 224.945 73.0968 225.021 72.7983 225.168Z" fill="#E0E0E0"/>
<path d="M47.4743 237.415L81.852 257.28C82.1513 257.434 82.4831 257.514 82.8198 257.514C83.1565 257.514 83.4883 257.434 83.7876 257.28L109.147 242.624C109.263 242.582 109.363 242.506 109.433 242.405C109.504 242.305 109.541 242.185 109.541 242.062C109.541 241.939 109.504 241.819 109.433 241.719C109.363 241.618 109.263 241.542 109.147 241.5L74.716 221.671C74.4167 221.517 74.0849 221.436 73.7482 221.436C73.4115 221.436 73.0797 221.517 72.7804 221.671L47.4743 236.291C47.3588 236.333 47.259 236.409 47.1885 236.509C47.1179 236.61 47.0801 236.73 47.0801 236.853C47.0801 236.976 47.1179 237.095 47.1885 237.196C47.259 237.297 47.3588 237.373 47.4743 237.415Z" fill="#FAFAFA"/>
<g opacity="0.2">
<path d="M86.312 220.859L104.91 231.626C105.264 231.806 105.655 231.9 106.052 231.9C106.449 231.9 106.84 231.806 107.194 231.626L167.216 196.954C167.355 196.907 167.475 196.819 167.561 196.7C167.646 196.582 167.692 196.44 167.692 196.294C167.692 196.147 167.646 196.005 167.561 195.887C167.475 195.768 167.355 195.68 167.216 195.633L148.627 184.867C148.272 184.687 147.879 184.593 147.481 184.593C147.083 184.593 146.69 184.687 146.335 184.867L86.312 219.539C86.1734 219.585 86.0529 219.674 85.9675 219.792C85.8821 219.911 85.8362 220.053 85.8362 220.199C85.8362 220.345 85.8821 220.487 85.9675 220.606C86.0529 220.724 86.1734 220.813 86.312 220.859Z" fill="black"/>
</g>
<path d="M86.9543 218.335V217.916C86.9782 217.557 87.0858 217.208 87.2686 216.899C87.4514 216.589 87.7042 216.326 88.0069 216.132L143.115 184.287C143.44 184.12 143.801 184.034 144.167 184.034C144.533 184.034 144.894 184.12 145.22 184.287L162.293 194.171C162.593 194.367 162.845 194.63 163.027 194.94C163.21 195.249 163.319 195.596 163.345 195.955V196.374C163.32 196.732 163.212 197.08 163.029 197.39C162.847 197.699 162.594 197.962 162.293 198.158L107.185 230.002C106.859 230.169 106.498 230.256 106.132 230.256C105.766 230.256 105.406 230.169 105.08 230.002L88.0069 220.155C87.7015 219.954 87.4473 219.686 87.2645 219.37C87.0817 219.054 86.9755 218.699 86.9543 218.335Z" fill="#E0E0E0"/>
<path d="M88.007 217.309L105.044 227.192C105.371 227.355 105.731 227.44 106.097 227.44C106.462 227.44 106.822 227.355 107.149 227.192L162.293 195.348C162.419 195.304 162.528 195.222 162.605 195.114C162.682 195.005 162.724 194.875 162.724 194.741C162.724 194.608 162.682 194.478 162.605 194.369C162.528 194.261 162.419 194.179 162.293 194.135L145.184 184.252C144.858 184.085 144.498 183.998 144.132 183.998C143.766 183.998 143.405 184.085 143.079 184.252L87.9713 216.096C87.8465 216.143 87.7396 216.228 87.6654 216.339C87.5912 216.45 87.5535 216.582 87.5574 216.715C87.5613 216.849 87.6067 216.977 87.6873 217.084C87.7679 217.19 87.8796 217.269 88.007 217.309Z" fill="#FAFAFA"/>
<path d="M133.213 277.037C137.433 272.729 139.912 261.963 135.791 258.546H114.856C110.735 261.963 113.215 272.72 117.434 277.028L117.55 277.153L117.693 277.296L118.076 277.635L118.174 277.715L118.495 277.956C118.674 278.081 118.861 278.197 119.04 278.304C120.99 279.294 123.146 279.809 125.333 279.809C127.519 279.809 129.675 279.294 131.626 278.304C131.814 278.197 131.996 278.077 132.17 277.947L132.473 277.724L132.598 277.626C132.723 277.519 132.848 277.412 132.964 277.296L133.133 277.135L133.213 277.037Z" fill="#EBEBEB"/>
<path d="M116.64 257.172C111.85 259.929 111.85 264.407 116.64 267.172C121.43 269.937 129.128 269.928 133.954 267.172C138.78 264.416 138.735 259.929 133.954 257.172C129.173 254.416 121.439 254.407 116.64 257.172Z" fill="#FAFAFA"/>
<path d="M120.048 259.126C117.14 260.812 117.14 263.532 120.048 265.209C121.679 266.041 123.484 266.475 125.315 266.475C127.146 266.475 128.951 266.041 130.582 265.209C133.49 263.532 133.49 260.812 130.582 259.126C128.949 258.299 127.145 257.868 125.315 257.868C123.485 257.868 121.68 258.299 120.048 259.126Z" fill="#EBEBEB"/>
<path d="M130.582 262.016C128.949 261.189 127.145 260.758 125.315 260.758C123.485 260.758 121.68 261.189 120.047 262.016C119.329 262.392 118.716 262.941 118.263 263.613C118.716 264.285 119.329 264.834 120.047 265.209C121.679 266.041 123.484 266.475 125.315 266.475C127.146 266.475 128.951 266.041 130.582 265.209C131.303 264.837 131.917 264.288 132.366 263.613C131.917 262.938 131.303 262.388 130.582 262.016Z" fill="#E0E0E0"/>
<path d="M120.69 263.613C119.2 262.101 117.919 260.397 116.881 258.546C115.097 255.433 114.794 251.267 115.704 250.75C116.613 250.233 120.315 254.398 120.315 254.398C119.974 252.636 119.842 250.84 119.923 249.046C120.083 246.272 120.752 243.757 121.546 243.248C122.34 242.74 124.124 246.237 124.882 248.77C125.64 251.303 126.095 253.39 126.095 253.39C126.405 251.415 126.861 249.465 127.46 247.557C128.352 244.925 129.244 244.328 129.877 244.595C130.511 244.863 130.957 246.076 131.144 249.582C131.213 251.254 131.159 252.93 130.984 254.595C130.984 254.595 132.295 253.158 133.74 251.767C135.336 250.242 136.014 249.983 136.469 250.322C136.924 250.661 137.049 252.998 134.587 257.458C133.361 259.729 131.79 261.796 129.931 263.586C129.931 263.586 126.515 265.816 120.69 263.613Z" fill="#269D89"/>
<path d="M212.084 212.653L216.544 158.919C216.589 158.047 216.409 157.178 216.02 156.397C215.63 155.615 215.046 154.948 214.323 154.459C213.528 154.073 212.653 153.88 211.77 153.895C210.887 153.911 210.019 154.134 209.238 154.548L150.366 188.524C149.591 189.031 148.933 189.699 148.437 190.482C147.942 191.266 147.62 192.146 147.494 193.064L143.034 246.79C142.991 247.66 143.171 248.527 143.558 249.308C143.946 250.089 144.527 250.758 145.246 251.25C146.044 251.634 146.92 251.826 147.805 251.809C148.69 251.792 149.558 251.566 150.34 251.151L209.212 217.184C209.986 216.677 210.642 216.01 211.138 215.229C211.633 214.447 211.956 213.569 212.084 212.653Z" fill="#269D89"/>
<path opacity="0.5" d="M212.084 212.653L216.544 158.919C216.589 158.047 216.409 157.178 216.02 156.397C215.63 155.615 215.046 154.948 214.323 154.459C213.528 154.073 212.653 153.88 211.77 153.895C210.887 153.911 210.019 154.134 209.238 154.548L150.366 188.524C149.591 189.031 148.933 189.699 148.437 190.482C147.942 191.266 147.62 192.146 147.494 193.064L143.034 246.79C142.991 247.66 143.171 248.527 143.558 249.308C143.946 250.089 144.527 250.758 145.246 251.25C146.044 251.634 146.92 251.826 147.805 251.809C148.69 251.792 149.558 251.566 150.34 251.151L209.212 217.184C209.986 216.677 210.642 216.01 211.138 215.229C211.633 214.447 211.956 213.569 212.084 212.653Z" fill="white"/>
<path d="M212.084 212.653L216.544 158.919C216.589 158.047 216.409 157.178 216.02 156.397C215.631 155.615 215.046 154.948 214.323 154.459C213.528 154.073 212.654 153.88 211.77 153.895C210.887 153.911 210.019 154.134 209.239 154.548L150.367 188.524C149.589 189.009 148.935 189.669 148.458 190.451L157.601 195.732V246.968L209.212 217.175C209.985 216.669 210.641 216.004 211.136 215.224C211.631 214.444 211.955 213.568 212.084 212.653Z" fill="#269D89"/>
<path opacity="0.8" d="M212.084 212.653L216.544 158.919C216.589 158.047 216.409 157.178 216.02 156.397C215.631 155.615 215.046 154.948 214.323 154.459C213.528 154.073 212.654 153.88 211.77 153.895C210.887 153.911 210.019 154.134 209.239 154.548L150.367 188.524C149.589 189.009 148.935 189.669 148.458 190.451L157.601 195.732V246.968L209.212 217.175C209.985 216.669 210.641 216.004 211.136 215.224C211.631 214.444 211.955 213.568 212.084 212.653Z" fill="white"/>
<path d="M147.967 249.653L152.427 195.928C152.552 195.009 152.874 194.129 153.369 193.345C153.865 192.562 154.523 191.894 155.299 191.388L214.171 157.411C215.625 156.573 216.687 157.251 216.553 158.919L212.093 212.653C211.966 213.571 211.644 214.451 211.148 215.234C210.653 216.017 209.996 216.685 209.221 217.193L150.349 251.16C148.895 251.999 147.86 251.321 147.967 249.653Z" fill="#269D89"/>
<path opacity="0.65" d="M147.967 249.653L152.427 195.928C152.552 195.009 152.874 194.129 153.369 193.345C153.865 192.562 154.523 191.894 155.299 191.388L214.171 157.411C215.625 156.573 216.687 157.251 216.553 158.919L212.093 212.653C211.966 213.571 211.644 214.451 211.148 215.234C210.653 216.017 209.996 216.685 209.221 217.193L150.349 251.16C148.895 251.999 147.86 251.321 147.967 249.653Z" fill="white"/>
<path d="M178.331 206.543C178.563 203.795 180.489 200.557 182.639 199.308C184.789 198.06 186.35 199.308 186.118 202.029C185.886 204.75 183.968 208.023 181.819 209.272C179.669 210.521 178.108 209.299 178.331 206.543Z" fill="#269D89"/>
<path d="M179.713 222.786L194.182 214.383L191.72 212.965L177.26 221.368L179.713 222.786Z" fill="#269D89"/>
<g opacity="0.85">
<path d="M179.713 222.786L194.182 214.383L191.72 212.965L177.26 221.368L179.713 222.786Z" fill="white"/>
</g>
<path d="M200.889 239.056L183.281 249.225C182.934 249.412 182.543 249.501 182.148 249.483C181.816 249.476 181.49 249.393 181.194 249.243L173.443 244.783H173.398C173.106 244.582 172.864 244.317 172.69 244.007C172.517 243.698 172.417 243.353 172.399 242.999V242.588C172.399 241.919 172.854 241.643 173.443 241.982L178.126 244.658L179.169 245.264L178.937 244.078L177.296 221.368L179.749 222.795L194.217 214.392L201.719 237.272C201.764 237.617 201.71 237.969 201.563 238.284C201.416 238.6 201.183 238.868 200.889 239.056Z" fill="#269D89"/>
<g opacity="0.5">
<path d="M200.889 239.056L183.281 249.225C182.934 249.412 182.543 249.501 182.148 249.483C181.816 249.476 181.49 249.393 181.194 249.243L173.443 244.783H173.398C173.106 244.582 172.864 244.317 172.69 244.007C172.517 243.698 172.417 243.353 172.399 242.999V242.588C172.399 241.919 172.854 241.643 173.443 241.982L178.126 244.658L179.169 245.264L178.937 244.078L177.296 221.368L179.749 222.795L194.217 214.392L201.719 237.272C201.764 237.617 201.71 237.969 201.563 238.284C201.416 238.6 201.183 238.868 200.889 239.056Z" fill="white"/>
</g>
<path d="M172.693 241.812L178.697 238.342L179.919 246.433L172.693 241.812Z" fill="#269D89"/>
<g opacity="0.25">
<path d="M172.693 241.812L178.697 238.342L179.919 246.433L172.693 241.812Z" fill="black"/>
</g>
<path d="M179.713 222.795L177.26 221.368L178.911 244.015C179.044 244.667 178.67 244.907 178.099 244.595L173.416 241.919C172.827 241.58 172.372 241.857 172.372 242.526V242.936C172.391 243.29 172.49 243.635 172.664 243.945C172.837 244.254 173.079 244.519 173.371 244.72H173.416L181.167 249.18C181.464 249.331 181.79 249.413 182.122 249.421L179.713 222.795Z" fill="#269D89"/>
<g opacity="0.25">
<path d="M179.713 222.795L177.26 221.368L178.911 244.015C179.044 244.667 178.67 244.907 178.099 244.595L173.416 241.919C172.827 241.58 172.372 241.857 172.372 242.526V242.936C172.391 243.29 172.49 243.635 172.664 243.945C172.837 244.254 173.079 244.519 173.371 244.72H173.416L181.167 249.18C181.464 249.331 181.79 249.413 182.122 249.421L179.713 222.795Z" fill="white"/>
</g>
<path opacity="0.2" d="M113.83 237.647L116.542 239.208L137.932 226.684L140.296 223.901L135.372 225.203L113.83 237.647Z" fill="black"/>
<path d="M135.568 223.303L140.126 222.411C140.155 222.406 140.185 222.41 140.211 222.423C140.238 222.435 140.26 222.455 140.274 222.481C140.289 222.506 140.295 222.535 140.293 222.564C140.29 222.593 140.279 222.621 140.26 222.643L137.156 226.14L135.568 223.303Z" fill="#FFA8A7"/>
<path d="M140.26 222.643C140.279 222.621 140.29 222.593 140.293 222.564C140.295 222.535 140.289 222.506 140.274 222.481C140.259 222.455 140.238 222.435 140.211 222.423C140.185 222.41 140.155 222.406 140.126 222.411L139.234 222.581C139.357 222.657 139.457 222.765 139.521 222.894C139.586 223.024 139.613 223.168 139.6 223.312V223.392L140.26 222.643Z" fill="#263238"/>
<path d="M120.208 235.88L120.583 235.666L121.038 235.417L137.156 226.14C137.307 225.64 137.263 225.101 137.031 224.632C136.911 224.309 136.715 224.019 136.459 223.787C136.202 223.556 135.894 223.39 135.56 223.303L119.405 232.571L118.513 233.062C119.129 232.812 120.743 235.586 120.208 235.88Z" fill="#269D89"/>
<path d="M121.6 235.078L122.429 234.596C122.67 234.462 122.536 233.865 122.242 233.24C121.867 232.411 121.118 231.608 120.788 231.777L120.181 232.134L119.958 232.259C120.288 232.089 121.038 232.892 121.412 233.722C121.689 234.319 121.831 234.899 121.617 235.06L121.6 235.078Z" fill="#EBEBEB"/>
<path d="M121.805 234.953C122.376 234.649 120.743 231.831 120.164 232.134L119.334 232.616C119.905 232.312 121.537 235.131 120.966 235.434L121.805 234.953Z" fill="#269D89"/>
<path d="M120.208 235.88L121.038 235.417C121.6 235.122 120.039 232.393 119.45 232.571L118.62 233.053C119.129 232.812 120.743 235.586 120.208 235.88Z" fill="#EBEBEB"/>
<path opacity="0.15" d="M140.278 222.483L140.127 222.411L136.817 224.195L119.718 234.007C119.718 233.954 119.664 233.954 119.646 234.007C120.128 234.765 120.494 235.72 120.173 235.88L120.547 235.666L121.002 235.417L137.156 226.14L140.251 222.643C140.271 222.622 140.283 222.595 140.288 222.567C140.293 222.538 140.289 222.509 140.278 222.483Z" fill="black"/>
<path d="M116.685 237.888L120.173 235.881C120.422 235.756 120.288 235.158 120.003 234.543C119.628 233.704 118.879 232.901 118.549 233.062L115.044 235.069C114.348 235.47 114.99 236.987 115.766 237.656C115.877 237.783 116.025 237.874 116.189 237.916C116.353 237.957 116.526 237.947 116.685 237.888Z" fill="#F28F8F"/>
<path opacity="0.1" d="M116.89 236.799C116.802 236.421 116.628 236.069 116.38 235.77C116.132 235.471 115.818 235.234 115.463 235.078C115.378 235.044 115.285 235.033 115.195 235.046C115.104 235.058 115.018 235.094 114.945 235.149C114.419 235.631 115.026 237.022 115.766 237.656C115.875 237.778 116.018 237.866 116.177 237.907C116.336 237.948 116.503 237.941 116.658 237.887C116.926 237.736 117.024 237.334 116.89 236.799Z" fill="black"/>
<path d="M240.682 71.1816C240.51 71.0864 240.316 71.0373 240.12 71.0389H229.924L225.714 73.4651V88.0315L229.924 85.632L233.555 81.4396V91.6976L237.765 89.2713L248.79 77.4077C248.896 77.2829 248.973 77.1365 249.017 76.9786C249.06 76.8208 249.068 76.6554 249.041 76.494C249.014 76.3326 248.952 76.179 248.859 76.0441C248.766 75.9092 248.645 75.7962 248.504 75.7129L240.682 71.1816Z" fill="#455A64"/>
<path d="M233.572 91.6976L237.783 89.2713L248.808 77.4077C248.948 77.2459 249.039 77.047 249.07 76.8348C249.1 76.6226 249.069 76.4061 248.979 76.2112C248.89 76.0164 248.746 75.8514 248.566 75.7361C248.385 75.6209 248.175 75.5602 247.96 75.5613H237.783L233.572 77.9965V91.6976Z" fill="#37474F"/>
<path d="M237.809 63.5372C237.734 62.1366 237.33 60.7734 236.63 59.5583C235.929 58.3432 234.952 57.3105 233.777 56.5439C232.525 55.9077 231.141 55.5761 229.737 55.5761C228.332 55.5761 226.948 55.9077 225.696 56.5439L195.002 74.1163C193.825 74.8828 192.845 75.9165 192.143 77.1333C191.441 78.3501 191.036 79.7156 190.961 81.1185V114.256C191.037 115.658 191.443 117.021 192.145 118.236C192.847 119.452 193.826 120.484 195.002 121.25C196.254 121.886 197.639 122.217 199.043 122.217C200.447 122.217 201.832 121.886 203.084 121.25L234.161 103.41C237.791 101.34 237.827 99.2617 237.827 96.6839L237.809 63.5372Z" fill="#37474F"/>
<path d="M190.961 114.256C191.037 115.658 191.443 117.021 192.145 118.236C192.847 119.452 193.826 120.484 195.002 121.25C196.142 121.823 197.389 122.149 198.663 122.208C199.938 122.266 201.21 122.055 202.397 121.588C200.497 122.302 199.043 121.214 199.043 118.912V85.7747C199.093 84.3692 199.502 82.9999 200.229 81.7964L192.148 77.1401C191.422 78.3441 191.017 79.7136 190.97 81.1185L190.961 114.256Z" fill="#263238"/>
<path d="M237.685 62.44C237.212 60.7184 235.642 60.1743 233.778 61.2536L203.075 78.7814C201.879 79.5199 200.898 80.5596 200.229 81.7964L192.201 77.1491C192.871 75.9112 193.852 74.8691 195.047 74.1252L225.732 56.5528C226.986 55.9193 228.372 55.5893 229.777 55.5893C231.182 55.5893 232.568 55.9193 233.822 56.5528C234.832 57.2207 235.695 58.087 236.359 59.0992C237.023 60.1113 237.474 61.2479 237.685 62.44Z" fill="#455A64"/>
<path d="M222.449 103.526L215.206 107.709V78.719L222.449 74.5355V103.526Z" fill="#269D89"/>
<path d="M229.701 80.0124V89.6728L207.963 102.223V92.5628L229.701 80.0124Z" fill="#269D89"/>
<path d="M303.38 104.087C310.516 104.284 312.541 107.138 316.841 113.284C321.14 119.43 335.769 142.72 335.769 142.72L356.49 150.677L353.761 162.763C353.761 162.763 326.064 158.071 324.253 157.01C322.442 155.948 308.955 133.729 308.955 133.729L303.38 104.087Z" fill="#E6E6E6"/>
<path d="M297.921 104.284C304.665 102.598 307.644 106.362 309.892 110.528C320.105 129.26 324.253 241.652 324.253 241.652C324.253 241.652 301.471 250.741 284.568 240.073L297.921 104.284Z" fill="#F0F0F0"/>
<path d="M319.641 297.464L315.377 313.69C315.377 313.69 310.463 316.589 306.226 313.734C302.863 311.469 303.068 308.784 303.068 308.784L303.264 306.34L303.746 287.474L319.641 297.464Z" fill="#B16668"/>
<path d="M299.125 317.552C297.957 320.148 297.288 327.73 297.288 327.73C297.288 327.73 298.001 330.522 301.881 332.993L305.655 322.966L299.125 317.552Z" fill="#263238"/>
<path d="M301.882 333.028L311.685 331.681L315.413 323.876L304.058 327.248L301.882 333.028Z" fill="black"/>
<path d="M316.118 310.88L316.644 308.9C318.134 308.98 318 311.923 318.107 312.78C318.437 315.233 318.687 317.686 319.062 320.13C319.45 322.836 320.08 325.502 320.944 328.095C321.836 330.566 322.353 333.198 323.861 335.383C325.368 337.568 328.017 338.862 330.158 340.334C330.725 340.658 331.193 341.13 331.514 341.698C332.005 342.787 331.318 344.044 330.47 344.874C328.967 346.277 327.072 347.192 325.038 347.496C323.012 347.795 320.954 347.795 318.928 347.496C315.33 347.11 311.885 345.835 308.902 343.786C306.03 341.734 305.405 337.675 304.941 334.393C304.567 331.717 304.799 328.604 303.693 326.097C302.586 323.591 299.429 320.299 299.125 317.588C298.996 315.289 299.482 312.998 300.535 310.951C301.686 308.748 302.515 305.938 303.264 306.34L303.131 307.945C303.131 307.829 303.871 311.031 308.483 312.173C310.65 312.717 314.744 312.699 316.118 310.88Z" fill="#263238"/>
<path d="M309.134 328.452C309.259 331.449 309.134 332.689 309.134 334.045C309.259 336.525 309.919 338.246 310.481 340.655C310.722 341.644 311.063 342.606 311.498 343.527C311.961 344.597 312.827 346.042 312.318 347.095C312.067 347.578 311.721 348.006 311.301 348.353C309.446 349.941 307.051 350.756 304.611 350.627C303.326 350.613 302.069 350.253 300.972 349.584C298.822 348.174 297.975 345.605 296.824 343.438C295.566 341.092 296.298 339.87 296.093 337.292C295.842 333.883 295.398 330.491 294.764 327.132C299.411 321.816 303.318 326.971 309.134 328.452Z" fill="#B16668"/>
<path d="M316.252 180.184C323.218 204.464 334.984 245.728 331.683 258.573C329.186 268.198 318.303 303.342 318.303 303.342C314.102 303.931 305.512 304.868 302.167 297.509C301.32 285.565 298.376 204.464 298.376 204.464L316.252 180.184Z" fill="#269D89"/>
<path opacity="0.4" d="M316.252 180.184C323.218 204.464 334.984 245.728 331.683 258.573C329.186 268.198 318.303 303.342 318.303 303.342C314.102 303.931 305.512 304.868 302.167 297.509C301.32 285.565 298.376 204.464 298.376 204.464L316.252 180.184Z" fill="white"/>
<path opacity="0.25" d="M298.412 204.42C302.834 200.241 306.945 195.745 310.712 190.968C310.712 190.968 309.82 196.722 301.89 204.652C301.89 204.652 315.181 255.843 315.101 264.014C315.021 272.185 310.641 301.478 310.641 301.478L298.412 204.42Z" fill="black"/>
<path d="M316.252 180.184C310.57 191.967 308.34 196.677 298.412 204.464C298.412 204.464 310.552 254.916 311.087 264.71C311.979 280.989 309.883 317.427 309.134 328.497C307.251 330.959 298.082 331.378 295.192 329.282C293.871 324.162 289.438 306.143 287.36 289.98C285.826 278.036 287.788 267.35 288.038 264.219C281.606 247.815 267.165 223.874 261.884 206.721C261.018 203.752 260.471 200.699 260.252 197.614C259.074 186.74 263.526 178.436 266.139 172.638L316.252 180.184Z" fill="#269D89"/>
<g opacity="0.5">
<path d="M316.252 180.184C310.57 191.967 308.34 196.677 298.412 204.464C298.412 204.464 310.552 254.916 311.087 264.71C311.979 280.989 309.883 317.427 309.134 328.497C307.251 330.959 298.082 331.378 295.192 329.282C293.871 324.162 289.438 306.143 287.36 289.98C285.826 278.036 287.788 267.35 288.038 264.219C281.606 247.815 267.165 223.874 261.884 206.721C261.018 203.752 260.471 200.699 260.252 197.614C259.074 186.74 263.526 178.436 266.139 172.638L316.252 180.184Z" fill="white"/>
</g>
<path d="M293.782 345.516C293.078 348.264 293.72 355.837 293.72 355.837C293.72 355.837 294.888 358.459 299.125 360.234L301.132 349.726L293.782 345.516Z" fill="#263238"/>
<path d="M299.125 360.234L308.545 357.228L310.873 348.924L300.285 354.169L299.125 360.234Z" fill="black"/>
<path d="M309.098 336.016L309.169 334.045C310.436 334.678 313.156 344.963 316.885 352.046C320.292 358.504 327.125 362.143 329.328 364.962C332.272 368.735 326.438 373.507 317.152 371.438C312.55 370.403 305.556 367.388 303.719 364.257C301.881 361.126 301.257 355.4 299.732 353.098C298.206 350.797 294.54 348.13 293.782 345.516C293.19 343.15 293.218 340.671 293.862 338.318C294.612 335.954 294.576 333.528 295.762 333.331L295.941 335.187C296.556 336.462 298.965 337.925 303.657 338.228C305.895 338.362 308.063 338.068 309.098 336.016Z" fill="#37474F"/>
<path d="M292.667 83.9729L287.984 99.8059C274.961 99.8059 266.915 87.1216 266.915 74.0984C266.915 61.0217 275.246 50.0947 288.323 50.0947H292.569C305.646 50.0947 316.252 58.7739 316.252 71.8595C316.252 80.3781 305.69 83.9729 292.667 83.9729Z" fill="#263238"/>
<path d="M318.696 59.764C319.695 58.1314 320.178 56.2345 320.079 54.3228C320.016 53.3663 319.737 52.4364 319.263 51.6035C318.789 50.7706 318.131 50.0564 317.34 49.5149C314.905 47.9628 311.533 48.6943 309.312 50.4872C309.131 48.7839 308.295 47.2177 306.98 46.1205C305.664 45.0233 303.973 44.4812 302.265 44.6089C300.098 44.7784 298.171 45.9826 296.298 47.0708C293.109 48.6875 289.666 49.7464 286.12 50.2018L290.107 51.736C289.565 52.5705 289.221 53.5177 289.1 54.5055C288.98 55.4932 289.086 56.4955 289.412 57.4359C289.583 57.8215 289.792 58.189 290.036 58.533C292.683 62.4923 296.339 65.6734 300.626 67.7479C304.913 69.8225 309.676 70.7153 314.423 70.3342C315.755 70.3055 317.056 69.937 318.205 69.2638C318.875 68.7871 319.443 68.1804 319.873 67.4798C320.706 66.2622 321.117 64.8052 321.042 63.332C320.99 62.5861 320.746 61.8661 320.335 61.2413C319.925 60.6165 319.36 60.1078 318.696 59.764Z" fill="#263238"/>
<path d="M282.499 106.148L273.962 107.04C268.298 108.423 265.738 110.92 265.158 115.96C264.891 118.297 263.472 124.523 265.453 132.328C267.237 139.393 272.036 156.689 272.036 156.689C272.036 156.689 265.836 172.236 262.928 180.184C283.07 193.323 307.93 188.132 316.279 180.184C315.574 172.673 312.916 165.671 312.318 158.972C312.318 158.972 312.746 148.5 313.576 143.96C319.954 137.011 319.133 130.357 316.252 124.996C310.971 115.086 303.006 106.389 300.437 106.398L282.499 106.148Z" fill="#455A64"/>
<path d="M297.805 100.519C300.356 101.144 302.345 102.179 303.38 104.087C304.415 105.996 312.487 118.707 312.487 118.707C312.487 118.707 305.976 110.135 301.07 107.54C300.069 106.955 298.957 106.584 297.805 106.451V100.519Z" fill="#E0E0E0"/>
<path d="M282.498 106.148C282.498 106.148 291.418 124.746 293.006 137.297C294.594 149.847 291.222 192.663 291.222 206.248C291.222 222.625 291.276 249.653 291.276 249.653C291.276 249.653 281.098 249.653 274.105 247.655C268.993 246.201 262.937 243.587 259.271 239.208C259.271 239.208 258.272 205.686 260.377 189.72C262.366 174.556 270.438 155.877 270.438 155.877L260.091 116.433C260.091 116.433 260.573 109.654 266.951 107.754C272.99 105.934 282.498 106.148 282.498 106.148Z" fill="#FAFAFA"/>
<path d="M274.105 114.265L263.543 129.724L270.403 155.859C270.403 155.859 264.034 169.302 261.688 182.316C268.048 164.324 273.792 158.928 273.792 158.928L270.064 143.71C270.064 143.71 271.375 138.92 273.204 130.749C275.032 122.579 274.729 117.842 274.105 114.265Z" fill="#EBEBEB"/>
<path d="M279.876 128.84C279.876 128.064 279.805 126.387 279.671 124.265C279.011 113.908 278.707 104.542 282.204 103.749L282.516 105.176C279.956 105.729 280.804 119.1 281.125 124.131C281.267 126.298 281.374 128.002 281.339 128.858L279.876 128.84Z" fill="#269D89"/>
<path d="M282.498 100.519C281.848 100.523 281.21 100.704 280.655 101.044C280.1 101.384 279.649 101.868 279.35 102.446C278.511 103.873 276.745 106.273 276.745 106.273C276.745 106.273 276.683 115.782 277.637 118.252C278.458 120.393 288.537 128.323 288.537 128.323C288.537 128.323 287.556 136.717 287.476 139.652C287.395 142.586 292.569 153.228 293.202 158.928C293.202 158.928 294.273 145.084 293.434 138.652C291.963 127.458 284.978 110.715 282.498 106.13V100.519Z" fill="#EBEBEB"/>
<path d="M277.762 163.477H277.637V162.46C278.848 162.359 280.009 161.927 280.991 161.211C279.943 160.513 279.005 159.662 278.208 158.687C276.558 156.555 272.954 141.346 274.069 137.805C274.961 134.835 277.914 128.279 280.518 128.172H280.581C283.176 128.172 286.584 134.362 287.761 137.216C289.171 140.66 286.869 156.118 285.406 158.375C284.698 159.418 283.835 160.347 282.846 161.131C283.881 161.77 285.074 162.104 286.29 162.094L286.414 163.102C284.832 163.129 283.277 162.678 281.954 161.809C280.742 162.749 279.289 163.327 277.762 163.477ZM280.625 129.179C279.1 129.242 276.362 134.103 275.113 138.099C274.087 141.355 277.557 156.073 279.082 158.054C279.893 159.034 280.853 159.88 281.928 160.56C282.962 159.791 283.865 158.86 284.604 157.804C285.96 155.708 288.172 140.749 286.86 137.591C285.273 133.8 282.16 129.179 280.625 129.179Z" fill="#455A64"/>
<path d="M287.904 162.522C287.916 162.818 287.84 163.111 287.686 163.364C287.531 163.617 287.306 163.819 287.037 163.943C286.768 164.068 286.468 164.11 286.176 164.064C285.883 164.018 285.61 163.887 285.392 163.686C285.174 163.486 285.02 163.225 284.951 162.937C284.881 162.649 284.898 162.347 284.999 162.069C285.101 161.791 285.283 161.549 285.522 161.374C285.761 161.199 286.047 161.099 286.343 161.086C286.74 161.072 287.127 161.214 287.419 161.483C287.711 161.752 287.886 162.126 287.904 162.522Z" fill="#263238"/>
<path d="M279.154 162.897C279.166 163.193 279.09 163.486 278.935 163.739C278.781 163.992 278.555 164.193 278.286 164.318C278.017 164.442 277.718 164.484 277.425 164.439C277.132 164.393 276.86 164.262 276.642 164.061C276.424 163.86 276.27 163.6 276.2 163.312C276.13 163.024 276.147 162.722 276.249 162.443C276.351 162.165 276.533 161.923 276.772 161.748C277.011 161.574 277.297 161.474 277.593 161.461C277.789 161.453 277.986 161.483 278.171 161.551C278.356 161.618 278.526 161.722 278.671 161.855C278.816 161.989 278.933 162.149 279.016 162.328C279.099 162.507 279.146 162.7 279.154 162.897Z" fill="#263238"/>
<path d="M288.047 143.915L287.155 143.853C287.111 143.851 287.068 143.84 287.029 143.82C286.989 143.801 286.954 143.774 286.926 143.74C286.897 143.707 286.876 143.668 286.863 143.626C286.851 143.584 286.847 143.54 286.851 143.496C287.021 140.642 286.932 138.537 286.584 137.698C285.067 134.005 281.945 129.385 280.581 129.438C279.216 129.492 276.486 134.371 275.291 138.18C275.024 139.072 275.104 141.15 275.523 143.978C275.536 144.065 275.514 144.154 275.463 144.226C275.411 144.297 275.333 144.346 275.247 144.361L274.355 144.495C274.31 144.501 274.265 144.499 274.221 144.487C274.178 144.476 274.137 144.456 274.101 144.428C274.065 144.401 274.035 144.367 274.013 144.328C273.991 144.289 273.976 144.245 273.971 144.201C273.498 141.025 273.445 138.849 273.793 137.716C274.435 135.682 277.441 128.038 280.474 127.904C283.506 127.77 287.155 135.138 287.966 137.118C288.412 138.207 288.546 140.383 288.341 143.594C288.338 143.674 288.306 143.75 288.252 143.808C288.199 143.867 288.126 143.905 288.047 143.915Z" fill="#269D89"/>
<path d="M252.884 221.662C254.436 223.116 255.283 225.069 256.88 227.96C258.477 230.85 266.353 231.126 266.978 223C267.45 216.881 265.309 214.811 261.019 210.048C256.514 205.035 254.775 204.214 254.98 199.567C255.096 197.275 258.548 164.092 258.548 164.092L269.903 132.81C269.903 132.81 274.006 118.19 271.946 108.003C271.946 108.003 264.587 107.406 259.387 112.597C253.312 118.663 246.435 148.652 244.918 154.708C242.734 162.383 241.779 170.355 242.091 178.329C242.448 188.06 242.483 208.398 243.777 212.885C245.07 217.371 248.7 217.746 252.884 221.662Z" fill="#B16668"/>
<path d="M272.455 106.656C272.455 106.656 264.632 106.166 260.056 109.912C255.48 113.659 252.634 124.131 249.271 134.594C245.909 145.057 242.912 155.253 241.805 162.585C240.913 168.722 242.697 201.119 242.697 201.119C242.697 201.119 247.907 203.01 254.98 199.567L259.36 164.128L272.472 128.555C274.889 121.455 274.883 113.753 272.455 106.656Z" fill="#F0F0F0"/>
<path d="M302.934 62.0475C308.893 62.663 313.87 68.9962 313.54 83.3663C313.255 95.551 309.303 98.5303 307.296 99.4223C305.289 100.314 301.489 100.43 297.778 99.8059V106.451C297.778 106.451 302.06 115.889 300.24 119.26C290.08 115.068 282.498 106.148 282.498 106.148V91.091C282.498 91.091 279.992 94.0614 275.889 91.3408C271.786 88.6202 271.625 81.8678 274.015 79.4415C276.406 77.0153 281.544 77.7913 282.498 81.1363C282.498 81.1363 286.066 81.0471 292.64 76.3641C297.642 72.9447 301.286 67.878 302.934 62.0475Z" fill="#B16668"/>
<path d="M296.994 78.6922C297.013 78.9107 296.988 79.1309 296.921 79.3398C296.854 79.5486 296.746 79.7419 296.603 79.9082C296.46 80.0745 296.285 80.2105 296.089 80.3081C295.892 80.4056 295.678 80.4628 295.459 80.4762C295.125 80.5058 294.79 80.435 294.496 80.273C294.203 80.111 293.964 79.8652 293.811 79.5669C293.658 79.2686 293.597 78.9314 293.637 78.5985C293.676 78.2655 293.814 77.9519 294.033 77.6976C294.251 77.4434 294.541 77.2602 294.864 77.1713C295.187 77.0824 295.53 77.092 295.848 77.1988C296.166 77.3056 296.444 77.5047 296.648 77.7707C296.853 78.0367 296.973 78.3576 296.994 78.6922Z" fill="#263238"/>
<path d="M298.706 90.092L303.541 91.6351C303.454 91.9583 303.303 92.2607 303.096 92.5241C302.89 92.7875 302.632 93.0065 302.339 93.168C302.046 93.3296 301.723 93.4304 301.39 93.4643C301.057 93.4983 300.721 93.4647 300.401 93.3656C299.753 93.1412 299.216 92.6764 298.9 92.0672C298.585 91.458 298.515 90.7509 298.706 90.092Z" fill="#9A4A4D"/>
<path d="M311.364 74.928L308.081 72.6534C308.219 72.4323 308.401 72.2417 308.615 72.0932C308.829 71.9447 309.071 71.8414 309.327 71.7897C309.582 71.7379 309.846 71.7388 310.101 71.7922C310.356 71.8456 310.597 71.9505 310.811 72.1004C311.25 72.4089 311.553 72.8756 311.657 73.4028C311.76 73.9299 311.655 74.4766 311.364 74.928Z" fill="#263238"/>
<path d="M310.204 78.38C310.207 78.6984 310.116 79.0106 309.943 79.2778C309.771 79.5451 309.523 79.7556 309.231 79.8832C308.94 80.0108 308.617 80.0499 308.303 79.9955C307.989 79.9411 307.699 79.7957 307.467 79.5774C307.235 79.359 307.073 79.0774 307 78.7675C306.927 78.4576 306.947 78.1332 307.057 77.8345C307.167 77.5358 307.363 77.276 307.619 77.0876C307.876 76.8991 308.182 76.7902 308.5 76.7744C308.718 76.7673 308.934 76.8033 309.138 76.8802C309.341 76.9572 309.528 77.0736 309.686 77.2228C309.844 77.372 309.972 77.5511 310.06 77.7497C310.149 77.9483 310.198 78.1625 310.204 78.38Z" fill="#263238"/>
<path d="M301.971 77.4524L302.229 87.2109L307.367 85.6231L301.971 77.4524Z" fill="#9A4A4D"/>
<path d="M297.805 99.8059C293.88 99.2975 285.826 96.3182 284.568 93.1248C285.071 94.7385 286.058 96.1585 287.395 97.1923C289.804 99.2618 297.805 101.581 297.805 101.581V99.8059Z" fill="#9A4A4D"/>
<path d="M363.323 138.688L324.538 157.144L313.87 203.296L314.735 204.214L351.602 185.67L364.188 139.607L363.323 138.688Z" fill="#269D89"/>
<path opacity="0.35" d="M325.413 158.071L314.735 204.214L313.87 203.296L324.538 157.144L325.413 158.071Z" fill="black"/>
<path opacity="0.25" d="M364.188 139.607L325.413 158.071L314.735 204.215L351.602 185.67L364.188 139.607Z" fill="black"/>
<g opacity="0.2">
<path d="M345.884 176.286C346.241 177.178 349.211 179.194 353.519 178.837L354.242 176.161L345.884 176.286Z" fill="black"/>
</g>
<g opacity="0.1">
<path d="M352.503 149.062L352.824 147.519C353.002 146.627 350.728 147.109 347.739 148.518L342.031 151.194C339.042 152.603 336.482 154.441 336.304 155.297L335.983 156.84L352.503 149.062Z" fill="black"/>
</g>
<path d="M354.857 141.828C354.973 141.293 354.046 141.355 352.797 141.971L350.54 143.077C350.54 143.077 351.209 139.732 346.187 141.917C341.165 144.103 340.077 147.965 340.077 147.965L337.66 149.169C336.322 149.829 335.117 150.81 334.984 151.346L334.698 152.327L354.67 142.827C354.67 142.827 354.75 142.363 354.857 141.828Z" fill="#37474F"/>
<path d="M352.734 145.03C350.906 145.86 350.139 146.27 349.871 147.59C349.559 149.089 349.434 150.177 349.434 150.177L340.585 154.387C340.585 154.387 341.014 152.478 341.147 151.711C341.281 150.944 340.987 150.605 339.577 151.283L339.024 149.731L353.296 143.077L352.734 145.03Z" fill="#37474F"/>
<path d="M353.02 149.089C353.02 149.089 353.163 148.393 353.341 147.546C353.519 146.698 351.245 147.135 348.257 148.545L342.539 151.221C339.56 152.63 337 154.468 336.821 155.324L336.5 156.867L353.02 149.089Z" fill="#37474F"/>
<path d="M359.871 155.395C359.871 155.395 358.497 160.462 358.14 161.737C357.783 163.013 351.432 165.948 348.248 166.349C342.164 167.107 341.478 168.427 342.941 172.745C344.287 176.723 348.248 178.231 353.743 177.579C356.312 177.276 359.871 174.993 361.271 171.005C363.055 165.921 362.092 160.48 362.796 157.509C363.501 154.539 361.423 153.629 359.871 155.395Z" fill="#B16668"/>
<path d="M10.4563 103.195L12.2671 104.239L57.5361 78.1035L55.7253 77.0599L10.4563 103.195Z" fill="#455A64"/>
<path d="M55.7253 77.0599L12.2671 102.152V64.4827L55.7253 39.3907V77.0599Z" fill="#269D89"/>
<g opacity="0.8">
<path d="M55.7253 77.0599L12.2671 102.152V64.4827L55.7253 39.3907V77.0599Z" fill="white"/>
</g>
<path d="M59.3468 35.2072L10.4919 63.4301V107.379L59.3825 79.1472L59.3468 35.2072ZM57.5628 78.1035L12.2759 104.239V64.4827L57.536 38.356L57.5628 78.1035Z" fill="#37474F"/>
<path d="M57.5361 78.1035L55.7253 77.0599V39.3907L57.5361 38.3382V78.1035Z" fill="#263238"/>
<path d="M59.3468 35.2072L57.536 34.1636L8.64551 62.3865L10.4563 63.4301L59.3468 35.2072Z" fill="#455A64"/>
<path d="M8.64551 62.3865L10.4563 63.4301V107.379L8.64551 106.335V62.3865Z" fill="#263238"/>
<path d="M47.1979 70.7267C48.8927 69.7455 50.2574 70.5394 50.2574 72.5107C50.2006 73.5712 49.8938 74.6032 49.3621 75.5225C48.8304 76.4418 48.0888 77.2223 47.1979 77.8003C45.512 78.7725 44.1472 77.9876 44.1472 76.0163C44.2044 74.9569 44.5105 73.926 45.0405 73.007C45.5705 72.088 46.3096 71.3068 47.1979 70.7267Z" fill="#269D89"/>
<path opacity="0.2" d="M22.4982 62.7611L45.5118 49.4703C46.1541 49.0957 46.6714 49.399 46.6714 50.1304V50.2018C46.6503 50.6041 46.5343 50.9957 46.3327 51.3446C46.1312 51.6934 45.8499 51.9896 45.5118 52.2088L22.4982 65.5174C21.8649 65.892 21.3386 65.5888 21.3386 64.8484V64.7681C21.3632 64.3666 21.4807 63.9763 21.682 63.628C21.8832 63.2797 22.1626 62.9829 22.4982 62.7611Z" fill="black"/>
<g opacity="0.2">
<path d="M18.8589 73.2332L49.1869 55.75C49.8292 55.3754 50.3465 55.5449 50.3465 56.1247C50.3003 56.4808 50.1713 56.8212 49.97 57.1186C49.7686 57.416 49.5004 57.6621 49.1869 57.8373L18.8589 75.3383C18.2256 75.713 17.7082 75.5435 17.7172 74.9548C17.7635 74.5997 17.8904 74.26 18.0883 73.9616C18.2863 73.6632 18.5498 73.414 18.8589 73.2332Z" fill="black"/>
<path d="M18.8589 77.4167L49.1869 59.9246C49.8292 59.5589 50.3465 59.7283 50.3465 60.2992C50.2996 60.6563 50.1704 60.9977 49.9692 61.2964C49.768 61.5951 49.5002 61.8431 49.1869 62.0208L18.8589 79.5218C18.2256 79.8875 17.7082 79.7181 17.7172 79.1383C17.7622 78.7828 17.8886 78.4425 18.0866 78.1439C18.2847 77.8453 18.549 77.5965 18.8589 77.4167Z" fill="black"/>
<path d="M18.8589 81.5913L49.1869 64.0991C49.8292 63.7334 50.3465 63.9029 50.3465 64.4827C50.3003 64.8389 50.1713 65.1792 49.97 65.4766C49.7686 65.774 49.5004 66.0201 49.1869 66.1953L18.8589 83.6964C18.2256 84.071 17.7082 83.8926 17.7172 83.3128C17.7635 82.9578 17.8904 82.618 18.0883 82.3196C18.2863 82.0212 18.5498 81.7721 18.8589 81.5913Z" fill="black"/>
</g>
<path opacity="0.3" d="M41.7656 79.6645C41.5312 79.7884 41.2722 79.8585 41.0074 79.8697C40.3562 79.8697 40.4187 79.2096 40.4365 78.7547C40.4365 78.5495 40.16 78.2284 40.0173 78.5049C39.6248 79.2096 39.1253 79.8697 38.6971 80.5565C38.4384 80.9757 37.9478 81.9302 37.3234 81.7964C37.0737 81.7429 36.9845 81.4663 36.9845 81.1185C37.2995 80.5406 37.439 79.8834 37.3859 79.2274C37.3859 79.0312 37.0291 78.7903 36.9309 79.0579C36.7051 79.6276 36.5725 80.23 36.5385 80.8419C36.2489 81.3509 35.9208 81.8369 35.5573 82.2959C35.3432 82.5724 35.1648 82.8846 34.9329 83.1879C34.8704 83.2503 34.7634 83.4109 34.6742 83.4198C34.585 83.4287 34.4869 83.3306 34.4601 83.1879C34.4491 82.9781 34.4825 82.7684 34.5582 82.5724C34.5582 82.5724 34.5582 82.5724 34.5582 82.5189C34.5582 82.3137 34.2906 82.0105 34.1836 82.2691C33.7837 83.3612 33.1781 84.3665 32.3996 85.2306L32.2836 85.3287C32.2836 85.2038 32.2836 85.0879 32.2836 84.963C32.2724 84.6843 32.2244 84.4084 32.1409 84.1423C32.0874 84.0085 31.8555 83.8034 31.7306 83.9818C31.1767 84.9895 30.4995 85.9244 29.7147 86.7648C29.5825 86.8734 29.4424 86.9718 29.2954 87.0592C29.1527 86.9878 29.3668 86.2475 29.4025 86.1672C29.4827 85.8371 29.5898 85.516 29.6968 85.1949C29.8079 84.9375 29.8887 84.6681 29.9377 84.3921C29.9377 84.1423 29.5541 83.7588 29.4738 84.0977C29.4738 84.2315 29.3222 84.5616 29.1973 84.9897C28.6796 85.9473 28.0923 86.8656 27.4401 87.7371C26.8546 88.6809 26.0419 89.463 25.0763 90.0117C24.8087 90.1544 24.3002 90.3685 24.0059 90.1544C23.7115 89.9403 23.7383 89.5746 23.7293 89.2624C23.7176 88.5533 23.8139 87.8464 24.0148 87.1662C24.9652 86.6633 25.8466 86.0396 26.6373 85.3109C27.4132 84.6903 28.0848 83.9495 28.6264 83.1165C28.894 82.6259 29.0546 81.8321 28.4034 81.5555C27.9485 81.3593 27.3687 81.6804 26.9851 81.8945C26.4585 82.2065 25.9807 82.5942 25.5669 83.0452C24.7281 83.9981 24.1179 85.13 23.7829 86.3545C23.7293 86.5418 23.6491 86.7916 23.5777 87.0681C22.5502 87.5948 21.385 87.791 20.2416 87.6301C20.1792 87.6301 20.1524 87.7639 20.2416 87.7728C21.336 88.0076 22.4763 87.8985 23.5063 87.4606C23.212 88.7272 23.0514 90.4042 24.2289 90.7342C25.4063 91.0643 26.8335 89.5835 27.4668 88.7272C27.952 88.0874 28.376 87.4035 28.7335 86.6845C28.7661 86.6319 28.8019 86.5813 28.8405 86.5329C28.8405 87.1216 28.9565 87.5498 29.5363 87.4249C30.1161 87.3 30.6423 86.5329 30.9635 86.0601C31.2846 85.5874 31.5433 85.1681 31.8555 84.7489C31.909 85.2841 31.9982 85.8817 32.5066 85.7836C33.0151 85.6855 33.3986 84.8024 33.6662 84.4456C33.9338 84.0888 34.0676 83.8212 34.2371 83.5001C34.2727 83.5586 34.3114 83.6152 34.3531 83.6696C34.7723 84.1156 35.2451 83.6696 35.5483 83.2771C35.9319 82.7776 36.3601 82.2424 36.7258 81.6715C36.8128 81.9167 36.992 82.1183 37.2253 82.2335C37.8765 82.5367 38.483 82.0015 38.8577 81.5288C39.3129 80.9075 39.7185 80.2513 40.0708 79.5664C40.0974 79.6959 40.1508 79.8183 40.2276 79.9259C40.3044 80.0334 40.4029 80.1237 40.5168 80.1908C40.7567 80.3119 41.0246 80.3666 41.2928 80.3494C41.561 80.3321 41.8197 80.2435 42.0421 80.0927C42.167 79.9945 41.9797 79.5575 41.7656 79.6645ZM27.5917 82.1978C27.8861 82.0461 28.4837 81.7875 28.5461 82.2959C28.5053 82.6286 28.3619 82.9404 28.1358 83.1879C27.6199 83.8828 27.0208 84.5119 26.3518 85.0611C25.6705 85.6892 24.933 86.2535 24.1486 86.747C24.3787 85.7927 24.8033 84.8961 25.3957 84.1133C25.9882 83.3306 26.7357 82.6785 27.5917 82.1978Z" fill="black"/>
<path d="M81.8164 103.195L83.6272 104.239L128.896 78.1035L127.085 77.0599L81.8164 103.195Z" fill="#455A64"/>
<path d="M127.085 77.0599L83.6272 102.152V64.4827L127.085 39.3907V77.0599Z" fill="#269D89"/>
<g opacity="0.8">
<path d="M127.085 77.0599L83.6272 102.152V64.4827L127.085 39.3907V77.0599Z" fill="white"/>
</g>
<path d="M130.707 35.2072L81.8521 63.4301V107.379L130.743 79.1472L130.707 35.2072ZM128.923 78.1035L83.6361 104.239V64.4827L128.896 38.356L128.923 78.1035Z" fill="#37474F"/>
<path d="M128.896 78.1035L127.085 77.0599V39.3907L128.896 38.3382V78.1035Z" fill="#263238"/>
<path d="M130.707 35.2072L128.896 34.1636L80.0056 62.3865L81.8164 63.4301L130.707 35.2072Z" fill="#455A64"/>
<path d="M80.0056 62.3865L81.8164 63.4301V107.379L80.0056 106.335V62.3865Z" fill="#263238"/>
<path d="M118.567 70.7267C120.253 69.7455 121.618 70.5394 121.618 72.5107C121.56 73.57 121.254 74.601 120.724 75.52C120.194 76.439 119.455 77.2202 118.567 77.8002C116.872 78.7725 115.507 77.9876 115.507 76.0162C115.564 74.9558 115.871 73.9238 116.403 73.0045C116.934 72.0852 117.676 71.3047 118.567 70.7267Z" fill="#269D89"/>
<path opacity="0.2" d="M93.8585 62.7611L116.881 49.4703C117.514 49.0957 118.032 49.399 118.032 50.1304V50.2018C118.011 50.6031 117.896 50.994 117.696 51.3427C117.496 51.6913 117.217 51.988 116.881 52.2088L93.8585 65.5174C93.2251 65.892 92.7078 65.5888 92.7078 64.8484V64.7681C92.7306 64.3672 92.8465 63.9772 93.0462 63.6288C93.246 63.2805 93.524 62.9834 93.8585 62.7611Z" fill="black"/>
<g opacity="0.2">
<path d="M90.219 73.2332L120.547 55.75C121.189 55.3754 121.707 55.5449 121.707 56.1247C121.66 56.4808 121.531 56.8212 121.33 57.1186C121.129 57.416 120.861 57.6621 120.547 57.8373L90.219 75.3383C89.5857 75.713 89.0683 75.5435 89.0773 74.9548C89.1236 74.5997 89.2505 74.26 89.4484 73.9616C89.6464 73.6632 89.9099 73.414 90.219 73.2332Z" fill="black"/>
<path d="M90.219 77.4167L120.547 59.9246C121.189 59.5589 121.707 59.7283 121.707 60.2992C121.66 60.6563 121.531 60.9977 121.329 61.2964C121.128 61.5951 120.86 61.8431 120.547 62.0208L90.219 79.5218C89.5857 79.8875 89.0683 79.7181 89.0773 79.1383C89.1223 78.7828 89.2487 78.4425 89.4467 78.1439C89.6448 77.8453 89.9091 77.5965 90.219 77.4167Z" fill="black"/>
<path d="M90.219 81.5913L120.547 64.0991C121.189 63.7334 121.707 63.9029 121.707 64.4827C121.66 64.8389 121.531 65.1792 121.33 65.4766C121.129 65.774 120.861 66.0201 120.547 66.1953L90.219 83.6964C89.5857 84.071 89.0683 83.8926 89.0773 83.3128C89.1236 82.9578 89.2505 82.618 89.4484 82.3196C89.6464 82.0212 89.9099 81.7721 90.219 81.5913Z" fill="black"/>
</g>
<path opacity="0.3" d="M113.126 79.6645C112.892 79.7904 112.633 79.8606 112.367 79.8697C111.725 79.8697 111.779 79.2096 111.797 78.7547C111.797 78.5495 111.52 78.2284 111.377 78.5049C110.985 79.2096 110.485 79.8697 110.057 80.5565C109.807 80.9757 109.308 81.9302 108.692 81.7964C108.434 81.7429 108.344 81.4663 108.344 81.1185C108.659 80.5406 108.799 79.8834 108.746 79.2274C108.746 79.0312 108.398 78.7903 108.291 79.0579C108.065 79.6276 107.933 80.23 107.898 80.8419C107.609 81.3509 107.281 81.8369 106.917 82.2959C106.712 82.5724 106.525 82.8846 106.293 83.1879C106.239 83.2503 106.123 83.4109 106.034 83.4198C105.945 83.4287 105.847 83.3306 105.82 83.1879C105.809 82.9781 105.843 82.7684 105.918 82.5724C105.922 82.5548 105.922 82.5365 105.918 82.5189C105.918 82.3137 105.651 82.0105 105.544 82.2691C105.144 83.3612 104.538 84.3665 103.76 85.2306L103.644 85.3287C103.644 85.2038 103.644 85.0879 103.644 84.963C103.632 84.6843 103.584 84.4084 103.501 84.1423C103.447 84.0085 103.215 83.8034 103.091 83.9818C102.54 84.9915 101.862 85.9267 101.075 86.7648C100.944 86.8754 100.804 86.9739 100.655 87.0592C100.522 86.9878 100.736 86.2475 100.762 86.1672C100.843 85.8371 100.95 85.516 101.057 85.1949C101.168 84.9375 101.249 84.6681 101.298 84.3921C101.298 84.1423 100.914 83.7588 100.834 84.0977C100.834 84.2315 100.682 84.5616 100.557 84.9897C100.043 85.9492 99.4553 86.8677 98.8001 87.7371C98.2146 88.6809 97.4019 89.463 96.4363 90.0117C96.1687 90.1544 95.6602 90.3685 95.3659 90.1544C95.0715 89.9403 95.1072 89.5746 95.0894 89.2624C95.0865 88.5538 95.1826 87.8483 95.3748 87.1662C96.3252 86.6633 97.2067 86.0396 97.9973 85.3109C98.7755 84.6927 99.4474 83.9515 99.9864 83.1165C100.254 82.6259 100.415 81.8321 99.7634 81.5555C99.3085 81.3593 98.7287 81.6804 98.3452 81.8945C97.8115 82.1934 97.3246 82.5691 96.9001 83.0095C96.0613 83.9625 95.4512 85.0943 95.1161 86.3188C95.0626 86.5061 94.9823 86.7559 94.911 87.0324C93.8834 87.5591 92.7182 87.7554 91.5749 87.5944C91.5124 87.5944 91.4857 87.7282 91.5749 87.7371C92.6693 87.9719 93.8095 87.8628 94.8396 87.4249C94.5452 88.6915 94.3847 90.3685 95.5621 90.6985C96.7396 91.0286 98.1668 89.5479 98.8001 88.6915C99.2852 88.0517 99.7093 87.3679 100.067 86.6489C100.099 86.5963 100.135 86.5456 100.174 86.4972C100.174 87.0859 100.29 87.5141 100.87 87.3892C101.449 87.2643 101.976 86.4972 102.306 86.0245C102.636 85.5517 102.877 85.1325 103.198 84.7132C103.251 85.2484 103.349 85.8461 103.849 85.7479C104.348 85.6498 104.741 84.7667 105.008 84.4099C105.276 84.0531 105.41 83.7855 105.579 83.4644C105.615 83.523 105.654 83.5795 105.695 83.6339C106.114 84.0799 106.587 83.6339 106.891 83.2414C107.274 82.7419 107.702 82.2067 108.068 81.6358C108.155 81.881 108.334 82.0827 108.567 82.1978C109.219 82.5011 109.825 81.9659 110.2 81.4931C110.655 80.8718 111.061 80.2156 111.413 79.5307C111.44 79.6602 111.493 79.7826 111.57 79.8902C111.647 79.9977 111.745 80.088 111.859 80.1551C112.099 80.2762 112.367 80.331 112.635 80.3137C112.903 80.2964 113.162 80.2078 113.384 80.057C113.536 79.9945 113.34 79.5575 113.126 79.6645ZM98.9517 82.1978C99.255 82.0461 99.8437 81.7875 99.9062 82.2959C99.8645 82.6267 99.7247 82.9374 99.5048 83.1879C98.9859 83.8804 98.3871 84.5091 97.7208 85.0611C97.0394 85.6892 96.3019 86.2535 95.5175 86.747C95.7466 85.7934 96.1698 84.8973 96.7607 84.1146C97.3516 83.3319 98.0974 82.6794 98.9517 82.1978Z" fill="black"/>
</g>
</svg>
