<svg width="418" height="418" viewBox="0 0 418 418" fill="none" xmlns="http://www.w3.org/2000/svg">
<path d="M343.362 90.7478C336.089 78.3582 325.906 68.2259 313.032 59.9579C270.153 32.4284 211.876 22.5218 161.799 29.9956C126.019 35.346 102.167 59.6653 86.9105 91.358C68.8779 128.811 52.5091 166.063 31.9769 202.437C8.41841 244.179 -2.14863 287.584 49.0397 323.582C93.3477 354.757 148.891 346.664 199.67 345.669C216.499 345.335 233.453 345.895 250.014 349.147C282.919 355.626 314.879 378.624 347.241 357.148C371.844 340.82 386.332 309.964 393.355 282.016C397.535 265.363 400.828 246.988 399.273 229.348C397.602 209.978 388.648 195.398 379.46 178.904C367.88 158.113 358.869 135.992 352.625 113.027C350.549 105.219 347.434 97.7257 343.362 90.7478Z" fill="#269D89"/>
<path opacity="0.7" d="M343.362 90.7478C336.089 78.3582 325.906 68.2259 313.032 59.9579C270.153 32.4284 211.876 22.5218 161.799 29.9956C126.019 35.346 102.167 59.6653 86.9105 91.358C68.8779 128.811 52.5091 166.063 31.9769 202.437C8.41841 244.179 -2.14863 287.584 49.0397 323.582C93.3477 354.757 148.891 346.664 199.67 345.669C216.499 345.335 233.453 345.895 250.014 349.147C282.919 355.626 314.879 378.624 347.241 357.148C371.844 340.82 386.332 309.964 393.355 282.016C397.535 265.363 400.828 246.988 399.273 229.348C397.602 209.978 388.648 195.398 379.46 178.904C367.88 158.113 358.869 135.992 352.625 113.027C350.549 105.219 347.434 97.7257 343.362 90.7478Z" fill="white"/>
<path d="M392.084 378.976H397.936" stroke="#263238" stroke-miterlimit="10" stroke-linecap="round"/>
<path d="M19.228 378.976H385.396" stroke="#263238" stroke-miterlimit="10" stroke-linecap="round"/>
<path d="M119.623 50.7034H38.5813V159.35H119.623V50.7034Z" stroke="#263238" stroke-width="0.979159" stroke-miterlimit="10" stroke-linecap="round"/>
<path d="M116.346 55.0924H41.8584V154.961H116.346V55.0924Z" stroke="#263238" stroke-width="0.979159" stroke-miterlimit="10" stroke-linecap="round"/>
<path d="M99.2498 78.0071H58.9546V132.029H99.2498V78.0071Z" stroke="#263238" stroke-width="0.979159" stroke-miterlimit="10" stroke-linecap="round"/>
<path d="M360.341 130.399H330.813V169.984H360.341V130.399Z" stroke="#263238" stroke-width="0.979159" stroke-miterlimit="10" stroke-linecap="round"/>
<path d="M359.154 131.996H332.009V168.387H359.154V131.996Z" stroke="#263238" stroke-width="0.979159" stroke-miterlimit="10" stroke-linecap="round"/>
<path d="M352.917 140.348H338.237V160.035H352.917V140.348Z" stroke="#263238" stroke-width="0.979159" stroke-miterlimit="10" stroke-linecap="round"/>
<path d="M393.488 104.241H363.961V143.825H393.488V104.241Z" stroke="#263238" stroke-width="0.979159" stroke-miterlimit="10" stroke-linecap="round"/>
<path d="M392.301 105.838H365.156V142.229H392.301V105.838Z" stroke="#263238" stroke-width="0.979159" stroke-miterlimit="10" stroke-linecap="round"/>
<path d="M386.065 114.189H371.385V133.877H386.065V114.189Z" stroke="#263238" stroke-width="0.979159" stroke-miterlimit="10" stroke-linecap="round"/>
<path d="M307.681 50.1766H130.048V379.243H307.681V50.1766Z" fill="white"/>
<path d="M144.578 105.838H296.42C297.017 105.838 297.589 106.074 298.011 106.496C298.432 106.918 298.669 107.49 298.669 108.086V310.691C298.669 311.287 298.432 311.859 298.011 312.281C297.589 312.703 297.017 312.94 296.42 312.94H144.578C143.979 312.94 143.405 312.702 142.982 312.279C142.558 311.855 142.321 311.281 142.321 310.683V108.095C142.321 107.798 142.379 107.505 142.492 107.231C142.606 106.957 142.772 106.708 142.982 106.499C143.191 106.289 143.44 106.123 143.714 106.009C143.988 105.896 144.281 105.838 144.578 105.838Z" fill="#269D89" stroke="#263238" stroke-width="0.979159" stroke-miterlimit="10" stroke-linecap="round"/>
<path d="M287.55 176.12H151.157C150.695 176.12 150.321 176.494 150.321 176.956V192.205C150.321 192.666 150.695 193.041 151.157 193.041H287.55C288.012 193.041 288.386 192.666 288.386 192.205V176.956C288.386 176.494 288.012 176.12 287.55 176.12Z" fill="white" stroke="#263238" stroke-width="0.979159" stroke-miterlimit="10" stroke-linecap="round"/>
<path d="M287.55 148.883H151.157C150.695 148.883 150.321 149.257 150.321 149.719V164.968C150.321 165.43 150.695 165.804 151.157 165.804H287.55C288.012 165.804 288.386 165.43 288.386 164.968V149.719C288.386 149.257 288.012 148.883 287.55 148.883Z" fill="white" stroke="#263238" stroke-width="0.979159" stroke-miterlimit="10" stroke-linecap="round"/>
<path opacity="0.3" d="M289.716 167.25H168.028V190.048H289.716V167.25Z" fill="black"/>
<path d="M288.261 165.595H166.372V188.393H288.261V165.595Z" fill="white" stroke="#263238" stroke-width="0.979159" stroke-miterlimit="10" stroke-linecap="round"/>
<path d="M169.775 175.083C169.903 175.092 170.031 175.092 170.159 175.083C170.661 175.083 170.995 174.816 170.995 174.122V168.897H171.756V174.072C171.756 175.351 171.112 175.744 170.293 175.744C170.132 175.752 169.97 175.752 169.808 175.744L169.775 175.083Z" fill="#263238"/>
<path d="M172.417 170.544C172.417 169.499 172.935 168.822 173.988 168.822C175.042 168.822 175.568 169.499 175.568 170.544V174.097C175.568 175.142 175.05 175.827 173.988 175.827C172.926 175.827 172.417 175.142 172.417 174.097V170.544ZM173.177 174.139C173.177 174.766 173.436 175.134 174.013 175.134C174.59 175.134 174.849 174.766 174.849 174.139V170.544C174.849 169.925 174.59 169.549 174.013 169.549C173.436 169.549 173.177 169.925 173.177 170.544V174.139Z" fill="#263238"/>
<path d="M177.065 172.692V175.786H176.296V168.914H177.065V172.007H178.737V168.914H179.506V175.786H178.737V172.692H177.065Z" fill="#263238"/>
<path d="M180.986 175.786H180.3V168.914H181.27L182.858 173.88V168.914H183.535V175.786H182.741L180.986 170.226V175.786Z" fill="#263238"/>
<path d="M188.819 170.544V170.728H188.1V170.544C188.1 169.925 187.866 169.566 187.314 169.566C186.762 169.566 186.528 169.925 186.528 170.536C186.528 172.082 188.836 172.208 188.836 174.164C188.836 175.2 188.342 175.836 187.289 175.836C186.236 175.836 185.742 175.159 185.742 174.164V173.771H186.428V174.197C186.428 174.816 186.687 175.184 187.264 175.184C187.841 175.184 188.1 174.816 188.1 174.197C188.1 172.667 185.801 172.525 185.801 170.586C185.801 169.524 186.294 168.872 187.322 168.872C188.351 168.872 188.819 169.524 188.819 170.544Z" fill="#263238"/>
<path d="M192.029 175.777H191.294L190.157 170.31V175.786H189.488V168.914H190.558L191.686 174.398L192.782 168.914H193.852V175.786H193.116V170.26L192.029 175.777Z" fill="#263238"/>
<path d="M195.407 168.914V175.786H194.637V168.914H195.407Z" fill="#263238"/>
<path d="M197.179 175.786V169.608H195.917V168.914H199.202V169.608H197.94V175.786H197.179Z" fill="#263238"/>
<path d="M200.49 172.692V175.786H199.729V168.914H200.49V172.007H202.162V168.914H202.931V175.786H202.162V172.692H200.49Z" fill="#263238"/>
<path d="M287.55 202.32H151.157C150.695 202.32 150.321 202.695 150.321 203.156V218.405C150.321 218.867 150.695 219.241 151.157 219.241H287.55C288.012 219.241 288.386 218.867 288.386 218.405V203.156C288.386 202.695 288.012 202.32 287.55 202.32Z" fill="white" stroke="#263238" stroke-width="0.979159" stroke-miterlimit="10" stroke-linecap="round"/>
<path d="M170.485 213.857H169.8V206.985H170.77L172.366 211.951V206.985H173.052V213.857H172.216L170.452 208.298L170.485 213.857Z" fill="#E5E5E5"/>
<path d="M176.271 210.028V210.714H174.599V213.18H176.664V213.882H173.838V207.01H176.664V207.704H174.599V210.053L176.271 210.028Z" fill="#E5E5E5"/>
<path d="M179.188 213.857H178.143L177.232 206.985H177.976L178.812 212.837L179.581 206.985H180.342L181.094 212.837L181.872 206.985H182.541L181.604 213.857H180.593L179.932 209.192L179.188 213.857Z" fill="#E5E5E5"/>
<path d="M186.119 206.985C187.197 206.985 187.657 207.621 187.657 208.657V209.493C187.657 210.58 187.147 211.165 186.06 211.165H185.383V213.882H184.614V207.01L186.119 206.985ZM186.06 210.455C186.629 210.455 186.896 210.195 186.896 209.535V208.624C186.896 207.997 186.67 207.679 186.11 207.679H185.375V210.455H186.06Z" fill="#E5E5E5"/>
<path d="M188.936 212.469L188.677 213.857H187.966L189.287 206.985H190.39L191.711 213.857H190.942L190.675 212.469H188.936ZM189.036 211.809H190.566L189.797 207.846L189.036 211.809Z" fill="#E5E5E5"/>
<path d="M195.248 208.632V208.816H194.52V208.59C194.52 207.972 194.286 207.612 193.734 207.612C193.183 207.612 192.957 207.972 192.957 208.582C192.957 210.12 195.264 210.254 195.264 212.202C195.264 213.247 194.763 213.924 193.709 213.924C192.656 213.924 192.171 213.247 192.171 212.202V211.809H192.882V212.244C192.882 212.862 193.141 213.222 193.718 213.222C194.295 213.222 194.554 212.862 194.554 212.244C194.554 210.714 192.255 210.572 192.255 208.632C192.255 207.57 192.748 206.91 193.776 206.91C194.805 206.91 195.248 207.587 195.248 208.632Z" fill="#E5E5E5"/>
<path d="M198.901 208.632V208.816H198.182V208.59C198.182 207.972 197.94 207.612 197.396 207.612C196.853 207.612 196.611 207.972 196.611 208.582C196.611 210.12 198.918 210.254 198.918 212.202C198.918 213.247 198.416 213.924 197.363 213.924C196.31 213.924 195.825 213.247 195.825 212.202V211.809H196.535V212.244C196.535 212.862 196.794 213.222 197.371 213.222C197.948 213.222 198.207 212.862 198.207 212.244C198.207 210.714 195.908 210.572 195.908 208.632C195.908 207.57 196.402 206.91 197.43 206.91C198.458 206.91 198.901 207.587 198.901 208.632Z" fill="#E5E5E5"/>
<path d="M201.409 213.857H200.356L199.419 206.985H200.163L200.999 212.837L201.769 206.985H202.521L203.282 212.837L204.051 206.985H204.72L203.792 213.857H202.78L202.12 209.192L201.409 213.857Z" fill="#E5E5E5"/>
<path d="M205.255 208.64C205.255 207.587 205.773 206.91 206.826 206.91C207.88 206.91 208.406 207.587 208.406 208.64V212.193C208.406 213.238 207.88 213.924 206.826 213.924C205.773 213.924 205.255 213.238 205.255 212.193V208.64ZM206.007 212.235C206.007 212.862 206.275 213.222 206.843 213.222C207.412 213.222 207.679 212.862 207.679 212.235V208.599C207.679 207.98 207.428 207.612 206.843 207.612C206.258 207.612 206.007 207.98 206.007 208.599V212.235Z" fill="#E5E5E5"/>
<path d="M210.672 206.985C211.75 206.985 212.202 207.529 212.202 208.549V209.109C212.202 209.869 211.934 210.338 211.366 210.522C211.993 210.714 212.202 211.224 212.202 211.959V213.03C212.181 213.316 212.23 213.602 212.344 213.866H211.567C211.458 213.601 211.415 213.314 211.441 213.03V211.951C211.441 211.174 211.073 210.923 210.438 210.923H209.895V213.866H209.134V206.994L210.672 206.985ZM210.471 210.221C211.082 210.221 211.449 210.028 211.449 209.276V208.624C211.449 208.005 211.224 207.679 210.655 207.679H209.903V210.187L210.471 210.221Z" fill="#E5E5E5"/>
<path d="M214.61 206.985C215.68 206.985 216.173 207.629 216.173 208.657V212.118C216.173 213.172 215.68 213.79 214.61 213.79H213.004V206.918L214.61 206.985ZM214.61 213.155C215.161 213.155 215.446 212.812 215.446 212.185V208.649C215.446 208.022 215.178 207.679 214.61 207.679H213.774V213.18L214.61 213.155Z" fill="#E5E5E5"/>
<path d="M171.163 160.42H170.477V153.548H171.447L173.035 158.514V153.548H173.712V160.42H172.918L171.163 154.861V160.42Z" fill="#E5E5E5"/>
<path d="M175.276 159.032L175.008 160.42H174.306L175.618 153.548H176.73L178.043 160.42H177.282L177.015 159.032H175.276ZM175.376 158.372H176.906L176.128 154.409L175.376 158.372Z" fill="#E5E5E5"/>
<path d="M181.178 160.403H180.442L179.305 154.936V160.42H178.636V153.548H179.74L180.869 159.032L181.955 153.548H183.025V160.42H182.248V154.886L181.178 160.403Z" fill="#E5E5E5"/>
<path d="M186.227 156.591V157.277H184.555V159.718H186.62V160.42H183.794V153.548H186.62V154.242H184.555V156.591H186.227Z" fill="#E5E5E5"/>
<path d="M190.257 127.206V127.824H189.529V127.164C189.529 126.545 189.279 126.169 188.693 126.169C188.108 126.169 187.857 126.545 187.857 127.164V130.792C187.857 131.411 188.117 131.787 188.693 131.787C189.27 131.787 189.529 131.411 189.529 130.792V129.906H190.257V130.742C190.257 131.779 189.764 132.464 188.702 132.464C187.64 132.464 187.164 131.779 187.164 130.742V127.189C187.164 126.144 187.648 125.458 188.702 125.458C189.755 125.458 190.257 126.161 190.257 127.206Z" fill="#263238"/>
<path d="M192.481 125.542C193.567 125.542 194.019 126.094 194.019 127.114V127.674C194.066 127.97 194.008 128.273 193.855 128.531C193.703 128.789 193.465 128.985 193.183 129.087C193.81 129.271 194.019 129.781 194.019 130.516V131.595C193.994 131.88 194.04 132.167 194.153 132.431H193.375C193.269 132.166 193.226 131.879 193.25 131.595V130.5C193.25 129.722 192.89 129.48 192.247 129.48H191.712V132.414H190.942V125.542H192.481ZM192.288 128.786C192.899 128.786 193.258 128.585 193.258 127.841V127.181C193.258 126.562 193.032 126.236 192.464 126.236H191.72V128.786H192.288Z" fill="#263238"/>
<path d="M197.296 128.585V129.271H195.624V131.72H197.68V132.414H194.788V125.542H197.614V126.236H195.624V128.585H197.296Z" fill="#263238"/>
<path d="M199.135 131.035L198.868 132.414H198.132L199.444 125.542H200.556L201.869 132.414H201.108L200.84 131.035H199.135ZM199.235 130.374H200.765L199.988 126.403L199.235 130.374Z" fill="#263238"/>
<path d="M203.148 132.414V126.236H201.885V125.542H205.171V126.236H203.9V132.414H203.148Z" fill="#263238"/>
<path d="M208.114 128.585V129.271H206.442V131.72H208.507V132.414H205.656V125.542H208.49V126.236H206.425V128.585H208.114Z" fill="#263238"/>
<path d="M211.943 129.948L210.488 125.542H211.282L212.352 128.886L213.439 125.542H214.158L212.703 129.948V132.414H211.943V129.948Z" fill="#263238"/>
<path d="M214.509 127.206C214.509 126.152 215.028 125.475 216.081 125.475C217.134 125.475 217.661 126.152 217.661 127.206V130.759C217.694 130.98 217.677 131.206 217.611 131.42C217.545 131.634 217.433 131.831 217.281 131.996C217.13 132.161 216.944 132.29 216.736 132.374C216.528 132.458 216.304 132.495 216.081 132.481C215.028 132.481 214.509 131.795 214.509 130.759V127.206ZM215.262 130.792C215.262 131.428 215.529 131.787 216.098 131.787C216.666 131.787 216.934 131.428 216.934 130.792V127.164C216.934 126.545 216.683 126.169 216.098 126.169C215.512 126.169 215.262 126.545 215.262 127.164V130.792Z" fill="#263238"/>
<path d="M219.115 130.792C219.115 131.411 219.358 131.787 219.951 131.787C220.545 131.787 220.746 131.411 220.746 130.792V125.542H221.465V130.759C221.465 131.795 220.98 132.498 219.926 132.498C218.873 132.498 218.388 131.795 218.388 130.759V125.542H219.149L219.115 130.792Z" fill="#263238"/>
<path d="M223.722 125.542C224.8 125.542 225.252 126.094 225.252 127.114V127.674C225.299 127.97 225.241 128.273 225.088 128.531C224.936 128.789 224.698 128.985 224.416 129.087C225.043 129.271 225.252 129.781 225.252 130.516V131.595C225.226 131.881 225.275 132.169 225.394 132.431H224.616C224.506 132.167 224.463 131.879 224.491 131.595V130.5C224.491 129.722 224.123 129.48 223.488 129.48H222.944V132.414H222.184V125.542H223.722ZM223.521 128.786C224.131 128.786 224.499 128.585 224.499 127.841V127.181C224.499 126.562 224.274 126.236 223.663 126.236H222.919V128.786H223.521Z" fill="#263238"/>
<path d="M228.362 131.035L228.094 132.414H227.392L228.713 125.542H229.816L231.137 132.414H230.368L230.1 131.035H228.362ZM228.454 130.374H229.983L229.214 126.403L228.454 130.374Z" fill="#263238"/>
<path d="M234.749 127.206V127.824H234.021V127.164C234.021 126.545 233.779 126.169 233.185 126.169C232.592 126.169 232.349 126.545 232.349 127.164V130.792C232.349 131.411 232.6 131.787 233.185 131.787C233.771 131.787 234.021 131.411 234.021 130.792V129.906H234.749V130.742C234.749 131.779 234.264 132.464 233.202 132.464C232.14 132.464 231.656 131.779 231.656 130.742V127.189C231.656 126.144 232.149 125.458 233.202 125.458C234.255 125.458 234.749 126.161 234.749 127.206Z" fill="#263238"/>
<path d="M238.486 127.206V127.824H237.758V127.164C237.758 126.545 237.508 126.169 236.922 126.169C236.337 126.169 236.086 126.545 236.086 127.164V130.792C236.086 131.411 236.346 131.787 236.922 131.787C237.499 131.787 237.758 131.411 237.758 130.792V129.906H238.486V130.742C238.486 131.779 237.993 132.464 236.931 132.464C235.869 132.464 235.393 131.779 235.393 130.742V127.189C235.393 126.144 235.886 125.458 236.931 125.458C237.976 125.458 238.486 126.161 238.486 127.206Z" fill="#263238"/>
<path d="M239.096 127.206C239.096 126.152 239.623 125.475 240.668 125.475C241.713 125.475 242.248 126.152 242.248 127.206V130.759C242.263 130.975 242.234 131.193 242.162 131.398C242.09 131.603 241.977 131.79 241.829 131.949C241.681 132.109 241.502 132.235 241.303 132.322C241.104 132.409 240.889 132.454 240.672 132.454C240.455 132.454 240.24 132.409 240.041 132.322C239.842 132.235 239.663 132.109 239.515 131.949C239.367 131.79 239.253 131.603 239.181 131.398C239.109 131.193 239.08 130.975 239.096 130.759V127.206ZM239.857 130.792C239.857 131.428 240.116 131.787 240.693 131.787C241.27 131.787 241.529 131.428 241.529 130.792V127.164C241.529 126.545 241.27 126.169 240.693 126.169C240.116 126.169 239.857 126.545 239.857 127.164V130.792Z" fill="#263238"/>
<path d="M243.727 130.792C243.727 131.411 243.978 131.787 244.563 131.787C245.149 131.787 245.358 131.411 245.358 130.792V125.542H246.068V130.759C246.068 131.795 245.592 132.498 244.53 132.498C243.468 132.498 243 131.795 243 130.759V125.542H243.752L243.727 130.792Z" fill="#263238"/>
<path d="M247.456 132.414H246.771V125.542H247.74L249.329 130.508V125.542H250.006V132.414H249.212L247.456 126.855V132.414Z" fill="#263238"/>
<path d="M251.811 132.414V126.236H250.549V125.542H253.835V126.236H252.572V132.414H251.811Z" fill="#263238"/>
<path d="M238.126 255.975H202.88C201.781 255.975 200.891 256.866 200.891 257.964V270.521C200.891 271.62 201.781 272.511 202.88 272.511H238.126C239.225 272.511 240.116 271.62 240.116 270.521V257.964C240.116 256.866 239.225 255.975 238.126 255.975Z" fill="#263238" stroke="#263238" stroke-width="0.979159" stroke-miterlimit="10" stroke-linecap="round"/>
<path d="M216.574 262.746V262.93H215.847V262.705C215.847 262.086 215.613 261.718 215.061 261.718C214.509 261.718 214.275 262.086 214.275 262.696C214.275 264.234 216.582 264.368 216.582 266.316C216.582 267.361 216.081 268.038 215.027 268.038C213.974 268.038 213.489 267.361 213.489 266.316V265.923H214.208V266.358C214.208 266.976 214.459 267.336 215.044 267.336C215.629 267.336 215.88 266.976 215.88 266.358C215.88 264.828 213.59 264.686 213.59 262.746C213.59 261.685 214.074 261.024 215.111 261.024C216.148 261.024 216.574 261.668 216.574 262.746Z" fill="white"/>
<path d="M218.029 266.584L217.761 267.963H217.059L218.372 261.091H219.483L220.796 267.963H220.027L219.768 266.584H218.029ZM218.129 265.923H219.659L218.882 261.961L218.129 265.923Z" fill="white"/>
<path d="M221.732 261.091L222.853 267.068L223.956 261.091H224.667L223.379 267.963H222.251L220.955 261.091H221.732Z" fill="white"/>
<path d="M227.701 264.176V264.87H226.029V267.311H228.094V268.005H225.269V261.133H228.094V261.835H226.029V264.176H227.701Z" fill="white"/>
<path d="M222.552 117.717C222.552 117.239 222.41 116.772 222.144 116.375C221.879 115.977 221.502 115.668 221.06 115.485C220.619 115.302 220.133 115.254 219.664 115.347C219.196 115.441 218.765 115.671 218.427 116.009C218.089 116.347 217.859 116.777 217.766 117.246C217.673 117.714 217.721 118.2 217.903 118.642C218.086 119.083 218.396 119.46 218.793 119.726C219.191 119.991 219.658 120.133 220.136 120.133C220.453 120.134 220.768 120.072 221.061 119.951C221.355 119.83 221.622 119.653 221.846 119.428C222.071 119.203 222.249 118.937 222.37 118.643C222.491 118.349 222.553 118.035 222.552 117.717Z" fill="#263238"/>
<path d="M166.372 148.95V165.595" stroke="#263238" stroke-width="0.979159" stroke-miterlimit="10" stroke-linecap="round"/>
<path d="M166.372 175.97V192.614" stroke="#263238" stroke-width="0.979159" stroke-miterlimit="10" stroke-linecap="round"/>
<path d="M166.372 202.437V219.074" stroke="#263238" stroke-width="0.979159" stroke-miterlimit="10" stroke-linecap="round"/>
<path d="M153.657 160.687H162.134L159.626 158.297C159.362 158.043 159.049 157.847 158.706 157.72C159.214 157.505 159.632 157.121 159.889 156.633C160.146 156.145 160.227 155.583 160.117 155.042C160.008 154.502 159.714 154.016 159.287 153.667C158.86 153.318 158.326 153.127 157.774 153.127C157.222 153.127 156.688 153.318 156.261 153.667C155.834 154.016 155.541 154.502 155.431 155.042C155.321 155.583 155.402 156.145 155.659 156.633C155.916 157.121 156.334 157.505 156.842 157.72C156.404 157.868 156.01 158.124 155.697 158.464L153.657 160.687Z" fill="white" stroke="#E5E5E5" stroke-width="0.979159" stroke-miterlimit="10"/>
<path d="M161.314 210.521H154.902V215.897H161.314V210.521Z" fill="white" stroke="#E5E5E5" stroke-width="0.979159" stroke-miterlimit="10"/>
<path d="M154.902 210.521V209.176C154.902 208.755 154.985 208.339 155.146 207.95C155.307 207.562 155.543 207.209 155.84 206.911C156.137 206.614 156.49 206.378 156.879 206.217C157.267 206.056 157.684 205.974 158.104 205.974C158.525 205.974 158.941 206.056 159.33 206.217C159.718 206.378 160.071 206.614 160.368 206.911C160.666 207.209 160.901 207.562 161.062 207.95C161.223 208.339 161.306 208.755 161.306 209.176V210.521" stroke="#E5E5E5" stroke-width="0.979159" stroke-miterlimit="10"/>
<path d="M162.543 182.198H154.275V187.782H162.543V182.198Z" fill="white" stroke="#E5E5E5" stroke-width="0.979159" stroke-miterlimit="10"/>
<path d="M154.275 182.198L158.414 184.99L162.552 182.198" stroke="#E5E5E5" stroke-width="0.979159" stroke-miterlimit="10"/>
<path d="M161.875 234.247H155.17V240.952H161.875V234.247Z" stroke="#263238" stroke-width="0.979159" stroke-miterlimit="10" stroke-linecap="round"/>
<path d="M167.141 234.966H287.099" stroke="#263238" stroke-width="0.979159" stroke-miterlimit="10" stroke-linecap="round"/>
<path d="M167.141 240.233H255.013" stroke="#263238" stroke-width="0.979159" stroke-miterlimit="10" stroke-linecap="round"/>
<path opacity="0.15" d="M308.634 380.255V220.955L169.064 380.255H308.634Z" fill="#080808"/>
<path d="M178.871 76.377H140.415V87.2951H178.871V76.377Z" fill="#263238"/>
<path d="M219.358 76.377H180.902V87.2951H219.358V76.377Z" fill="#263238"/>
<path d="M259.837 76.377H221.381V87.2951H259.837V76.377Z" fill="#263238"/>
<path d="M300.316 76.377H261.86V87.2951H300.316V76.377Z" fill="#263238"/>
<path d="M148.691 82.254H169.424" stroke="white" stroke-width="0.979159" stroke-miterlimit="10" stroke-linecap="round"/>
<path d="M189.245 82.254H209.978" stroke="white" stroke-width="0.979159" stroke-miterlimit="10" stroke-linecap="round"/>
<path d="M229.574 82.254H250.315" stroke="white" stroke-width="0.979159" stroke-miterlimit="10" stroke-linecap="round"/>
<path d="M270.722 82.254H291.463" stroke="white" stroke-width="0.979159" stroke-miterlimit="10" stroke-linecap="round"/>
<path d="M298.452 33.4399H142.538C140.68 33.4399 138.841 33.8058 137.125 34.5167C135.409 35.2275 133.849 36.2695 132.536 37.583C131.222 38.8964 130.18 40.4558 129.47 42.172C128.759 43.8881 128.393 45.7275 128.393 47.5851V378.775C128.393 380.632 128.759 382.472 129.47 384.188C130.18 385.904 131.222 387.463 132.536 388.777C133.849 390.09 135.409 391.132 137.125 391.843C138.841 392.554 140.68 392.92 142.538 392.92H298.452C300.31 392.921 302.15 392.556 303.868 391.846C305.585 391.135 307.145 390.094 308.459 388.78C309.774 387.466 310.816 385.907 311.528 384.19C312.239 382.473 312.605 380.633 312.605 378.775V47.5934C312.607 45.7345 312.241 43.8935 311.53 42.1758C310.819 40.4581 309.777 38.8974 308.462 37.583C307.148 36.2685 305.587 35.226 303.87 34.5151C302.152 33.8042 300.311 33.4388 298.452 33.4399ZM304.413 371.577H136.586V57.8595H304.413V371.577Z" fill="#263238"/>
<path d="M298.694 61.1116H284.783V68.7443H298.694V61.1116Z" stroke="#263238" stroke-width="0.803955" stroke-linecap="round" stroke-linejoin="round"/>
<path d="M295.635 61.1116H284.783V68.7443H295.635V61.1116Z" fill="#263238" stroke="#263238" stroke-width="0.709962" stroke-linecap="round" stroke-linejoin="round"/>
<path d="M300.626 63.2433H298.669V66.604H300.626V63.2433Z" fill="#263238" stroke="#263238" stroke-width="0.709962" stroke-linecap="round" stroke-linejoin="round"/>
<path d="M142.914 63.4774H140.364V67.8497H142.914V63.4774Z" fill="#263238" stroke="#263238" stroke-width="0.864681" stroke-linecap="round" stroke-linejoin="round"/>
<path d="M146.927 61.9392H144.377V67.8497H146.927V61.9392Z" fill="#263238" stroke="#263238" stroke-width="0.864681" stroke-linecap="round" stroke-linejoin="round"/>
<path d="M150.931 60.125H148.382V67.8496H150.931V60.125Z" fill="#263238" stroke="#263238" stroke-width="0.864681" stroke-linecap="round" stroke-linejoin="round"/>
<path d="M365.65 236.864C365.65 236.864 354.13 230.468 353.277 244.973C352.424 259.478 350.284 353.82 350.284 353.82" stroke="#263238" stroke-width="1.95832" stroke-miterlimit="10" stroke-linecap="round"/>
<path d="M347.291 246.252C347.291 246.252 356.688 267.152 352.424 352.541" stroke="#263238" stroke-width="1.95832" stroke-miterlimit="10" stroke-linecap="round"/>
<path d="M356.521 239.79C356.521 239.79 352.115 242.616 349.607 239.38C347.099 236.145 351.279 230.226 347.6 227.676C343.922 225.126 337.493 229.064 337.493 229.064C337.493 229.064 342.417 230.519 342.258 233.202C342.1 235.886 339.75 236.914 339.416 235.71C339.082 234.506 336.749 228.613 332.728 231.079C331.575 231.76 330.572 232.668 329.779 233.746C328.986 234.825 328.42 236.054 328.113 237.357C328.113 237.357 337.426 236.362 337.995 239.865C338.563 243.368 334.174 239.246 330.329 239.029C326.483 238.812 322.989 239.372 323.231 241.696C323.321 243.754 323.201 245.816 322.872 247.849C324.97 246.102 327.624 245.165 330.354 245.207C334.584 245.45 334.425 248.141 330.58 247.916C326.734 247.69 323.44 251.352 323.44 251.352C323.44 251.352 326.935 257.337 331.39 260.305C335.846 263.273 337.451 262.203 337.97 259.921C338.488 257.638 337.293 251.778 339.985 251.937C342.676 252.096 335.529 262.086 338.965 262.68C342.401 263.273 345.159 262.27 346.062 260.013L346.965 257.747C346.965 257.747 345.77 251.895 346.288 249.613C346.806 247.331 347.442 249.68 348.052 252.413C348.662 255.147 349.047 261.727 350.217 261.417C351.388 261.108 355.15 256.309 356.027 254.428C356.905 252.547 351.078 246.812 351.145 245.659C351.212 244.505 355.718 246.695 356.412 247.899C356.92 248.799 357.381 249.726 357.791 250.675C357.791 250.675 360.6 248.919 360.533 243.51C360.467 238.101 356.521 239.79 356.521 239.79Z" fill="#269D89"/>
<path opacity="0.3" d="M356.521 239.79C356.521 239.79 352.115 242.616 349.607 239.38C347.099 236.145 351.279 230.226 347.6 227.676C343.922 225.126 337.493 229.064 337.493 229.064C337.493 229.064 342.417 230.519 342.258 233.202C342.1 235.886 339.75 236.914 339.416 235.71C339.082 234.506 336.749 228.613 332.728 231.079C331.575 231.76 330.572 232.668 329.779 233.746C328.986 234.825 328.42 236.054 328.113 237.357C328.113 237.357 337.426 236.362 337.995 239.865C338.563 243.368 334.174 239.246 330.329 239.029C326.483 238.812 322.989 239.372 323.231 241.696C323.321 243.754 323.201 245.816 322.872 247.849C324.97 246.102 327.624 245.165 330.354 245.207C334.584 245.45 334.425 248.141 330.58 247.916C326.734 247.69 323.44 251.352 323.44 251.352C323.44 251.352 326.935 257.337 331.39 260.305C335.846 263.273 337.451 262.203 337.97 259.921C338.488 257.638 337.293 251.778 339.985 251.937C342.676 252.096 335.529 262.086 338.965 262.68C342.401 263.273 345.159 262.27 346.062 260.013L346.965 257.747C346.965 257.747 345.77 251.895 346.288 249.613C346.806 247.331 347.442 249.68 348.052 252.413C348.662 255.147 349.047 261.727 350.217 261.417C351.388 261.108 355.15 256.309 356.027 254.428C356.905 252.547 351.078 246.812 351.145 245.659C351.212 244.505 355.718 246.695 356.412 247.899C356.92 248.799 357.381 249.726 357.791 250.675C357.791 250.675 360.6 248.919 360.533 243.51C360.467 238.101 356.521 239.79 356.521 239.79Z" fill="#263238"/>
<path d="M334.174 252.472C337.05 248.919 341.289 244.112 344.842 241.813" stroke="#263238" stroke-width="0.979159" stroke-miterlimit="10" stroke-linecap="round"/>
<path d="M330.847 256.786C330.847 256.786 331.583 255.757 332.778 254.219" stroke="#263238" stroke-width="0.979159" stroke-miterlimit="10" stroke-linecap="round"/>
<path d="M346.714 242.682C346.714 242.682 350.986 248.718 351.73 254.93" stroke="#263238" stroke-width="0.979159" stroke-miterlimit="10" stroke-linecap="round"/>
<path d="M341.874 246.252C341.874 246.252 343.078 245.55 342.618 253.233" stroke="#263238" stroke-width="0.979159" stroke-miterlimit="10" stroke-linecap="round"/>
<path d="M344.992 239.096C344.992 239.096 347.441 236.931 346.154 232.617" stroke="#263238" stroke-width="0.979159" stroke-miterlimit="10" stroke-linecap="round"/>
<path d="M341.698 242.766L339.959 239.581" stroke="#263238" stroke-width="0.979159" stroke-miterlimit="10" stroke-linecap="round"/>
<path d="M338.037 246.026C338.037 246.026 332.494 241.846 329.041 241.637" stroke="#263238" stroke-width="0.979159" stroke-miterlimit="10" stroke-linecap="round"/>
<path d="M372.237 228.404C372.237 228.404 372.062 234.74 367.113 235.092C362.163 235.443 359.104 227.15 354.046 229.131C348.988 231.112 348.487 240.158 348.487 240.158C348.487 240.158 353.294 236.212 355.885 238.201C358.477 240.191 357.866 243.268 356.47 242.783C355.074 242.298 347.55 240.609 347.274 246.294C347.171 247.913 347.396 249.537 347.936 251.067C348.476 252.597 349.32 254.002 350.418 255.197C350.418 255.197 355.776 245.165 359.664 247.021C363.551 248.877 356.454 250.432 353.603 254.119C350.752 257.806 348.938 261.71 351.438 263.047C353.554 264.359 355.532 265.883 357.34 267.595C357.34 267.595 356.663 262.37 359.798 258.307C362.933 254.244 365.516 256.234 362.665 259.929C359.814 263.624 361.236 269.418 361.236 269.418C361.236 269.418 369.595 269.995 375.623 267.562C381.651 265.129 381.651 262.788 379.719 260.715C377.788 258.642 371.117 255.841 373.107 253.258C375.096 250.675 380.229 264.636 383.139 261.618C386.048 258.6 386.951 255.139 385.304 252.689L383.632 250.24C383.632 250.24 376.944 247.448 375.021 245.374C373.098 243.301 375.857 244.271 379.034 245.516C382.211 246.762 389.066 250.875 389.517 249.479C389.969 248.083 387.762 241.069 386.483 238.904C385.204 236.738 375.489 238.67 374.377 237.809C373.266 236.947 378.557 233.955 380.229 234.063C381.48 234.172 382.725 234.345 383.958 234.582C383.958 234.582 384.1 230.577 378.649 226.957C373.199 223.337 372.237 228.404 372.237 228.404Z" fill="#269D89"/>
<path opacity="0.2" d="M372.237 228.404C372.237 228.404 372.062 234.74 367.113 235.092C362.163 235.443 359.104 227.15 354.046 229.131C348.988 231.112 348.487 240.158 348.487 240.158C348.487 240.158 353.294 236.212 355.885 238.201C358.477 240.191 357.866 243.268 356.47 242.783C355.074 242.298 347.55 240.609 347.274 246.294C347.171 247.913 347.396 249.537 347.936 251.067C348.476 252.597 349.32 254.002 350.418 255.197C350.418 255.197 355.776 245.165 359.664 247.021C363.551 248.877 356.454 250.432 353.603 254.119C350.752 257.806 348.938 261.71 351.438 263.047C353.554 264.359 355.532 265.883 357.34 267.595C357.34 267.595 356.663 262.37 359.798 258.307C362.933 254.244 365.516 256.234 362.665 259.929C359.814 263.624 361.236 269.418 361.236 269.418C361.236 269.418 369.595 269.995 375.623 267.562C381.651 265.129 381.651 262.788 379.719 260.715C377.788 258.642 371.117 255.841 373.107 253.258C375.096 250.675 380.229 264.636 383.139 261.618C386.048 258.6 386.951 255.139 385.304 252.689L383.632 250.24C383.632 250.24 376.944 247.448 375.021 245.374C373.098 243.301 375.857 244.271 379.034 245.516C382.211 246.762 389.066 250.875 389.517 249.479C389.969 248.083 387.762 241.069 386.483 238.904C385.204 236.738 375.489 238.67 374.377 237.809C373.266 236.947 378.557 233.955 380.229 234.063C381.48 234.172 382.725 234.345 383.958 234.582C383.958 234.582 384.1 230.577 378.649 226.957C373.199 223.337 372.237 228.404 372.237 228.404Z" fill="#263238"/>
<path d="M369.687 259.411C368.091 254.144 366.168 246.62 366.285 241.47" stroke="#263238" stroke-width="0.979159" stroke-miterlimit="10" stroke-linecap="round"/>
<path d="M371.744 265.698C371.744 265.698 371.217 264.26 370.498 262.011" stroke="#263238" stroke-width="0.979159" stroke-miterlimit="10" stroke-linecap="round"/>
<path d="M368.442 240.191C368.442 240.191 377.395 240.032 384.159 243.477" stroke="#263238" stroke-width="0.979159" stroke-miterlimit="10" stroke-linecap="round"/>
<path d="M368.718 247.456C368.718 247.456 368.835 245.784 376.242 251.469" stroke="#263238" stroke-width="0.979159" stroke-miterlimit="10" stroke-linecap="round"/>
<path d="M363.702 239.481C363.702 239.481 363.192 235.551 357.992 233.904" stroke="#263238" stroke-width="0.979159" stroke-miterlimit="10" stroke-linecap="round"/>
<path d="M365.115 245.274L360.734 244.848" stroke="#263238" stroke-width="0.979159" stroke-miterlimit="10" stroke-linecap="round"/>
<path d="M365.875 251.159C365.875 251.159 357.917 253.86 355.35 257.179" stroke="#263238" stroke-width="0.979159" stroke-miterlimit="10" stroke-linecap="round"/>
<path d="M319.126 270.588C319.126 270.588 344.315 287.233 343.88 351.68" stroke="#263238" stroke-width="1.95832" stroke-miterlimit="10" stroke-linecap="round"/>
<path d="M350.175 266.191C350.175 266.191 349.339 273.489 343.638 273.372C337.936 273.255 335.144 263.457 329.116 265.271C323.089 267.085 321.668 277.468 321.668 277.468C321.668 277.468 327.587 273.372 330.387 275.914C333.188 278.455 332.201 281.941 330.638 281.247C329.075 280.553 320.547 277.903 319.703 284.441C319.43 286.299 319.537 288.194 320.017 290.01C320.497 291.826 321.34 293.526 322.495 295.008C322.495 295.008 329.618 283.973 333.94 286.447C338.262 288.922 329.902 290.075 326.274 294.063C322.646 298.051 320.171 302.373 322.93 304.154C325.689 305.934 329.317 310.006 329.317 310.006C329.317 310.006 329.024 303.903 333.021 299.514C337.017 295.125 339.817 297.666 336.181 301.654C332.544 305.642 333.673 312.472 333.673 312.472C333.673 312.472 343.295 313.935 350.443 311.686C357.591 309.437 357.858 306.745 355.818 304.162C353.778 301.579 346.346 297.733 348.888 294.966C351.429 292.199 356.036 308.768 359.706 305.541C363.376 302.314 364.722 298.427 363.05 295.451L361.378 292.466C361.378 292.466 353.929 288.612 351.897 286.037C349.866 283.463 352.993 284.842 356.512 286.581C360.032 288.32 367.547 293.704 368.216 292.149C368.885 290.594 366.979 282.267 365.708 279.65C364.437 277.034 353.043 278.338 351.839 277.251C350.635 276.164 356.997 273.188 358.928 273.481C360.36 273.718 361.778 274.034 363.175 274.425C363.175 274.425 363.719 269.811 357.766 265.129C351.814 260.448 350.175 266.191 350.175 266.191Z" fill="#269D89"/>
<path opacity="0.3" d="M350.175 266.191C350.175 266.191 349.339 273.489 343.638 273.372C337.936 273.255 335.144 263.457 329.116 265.271C323.089 267.085 321.668 277.468 321.668 277.468C321.668 277.468 327.587 273.372 330.387 275.914C333.188 278.455 332.201 281.941 330.638 281.247C329.075 280.553 320.547 277.903 319.703 284.441C319.43 286.299 319.537 288.194 320.017 290.01C320.497 291.826 321.34 293.526 322.495 295.008C322.495 295.008 329.618 283.973 333.94 286.447C338.262 288.922 329.902 290.075 326.274 294.063C322.646 298.051 320.171 302.373 322.93 304.154C325.689 305.934 329.317 310.006 329.317 310.006C329.317 310.006 329.024 303.903 333.021 299.514C337.017 295.125 339.817 297.666 336.181 301.654C332.544 305.642 333.673 312.472 333.673 312.472C333.673 312.472 343.295 313.935 350.443 311.686C357.591 309.437 357.858 306.745 355.818 304.162C353.778 301.579 346.346 297.733 348.888 294.966C351.429 292.199 356.036 308.768 359.706 305.541C363.376 302.314 364.722 298.427 363.05 295.451L361.378 292.466C361.378 292.466 353.929 288.612 351.897 286.037C349.866 283.463 352.993 284.842 356.512 286.581C360.032 288.32 367.547 293.704 368.216 292.149C368.885 290.594 366.979 282.267 365.708 279.65C364.437 277.034 353.043 278.338 351.839 277.251C350.635 276.164 356.997 273.188 358.928 273.481C360.36 273.718 361.778 274.034 363.175 274.425C363.175 274.425 363.719 269.811 357.766 265.129C351.814 260.448 350.175 266.191 350.175 266.191Z" fill="#263238"/>
<path d="M344.307 301.729C342.961 295.467 341.448 286.606 342.075 280.712" stroke="#263238" stroke-width="0.979159" stroke-miterlimit="10" stroke-linecap="round"/>
<path d="M346.104 309.178C346.104 309.178 345.627 307.506 345.009 304.806" stroke="#263238" stroke-width="0.979159" stroke-miterlimit="10" stroke-linecap="round"/>
<path d="M344.691 279.441C344.691 279.441 355.041 280.102 362.515 284.717" stroke="#263238" stroke-width="0.979159" stroke-miterlimit="10" stroke-linecap="round"/>
<path d="M344.323 287.86C344.323 287.86 344.616 285.937 352.6 293.202" stroke="#263238" stroke-width="0.979159" stroke-miterlimit="10" stroke-linecap="round"/>
<path d="M339.282 278.171C339.282 278.171 339.065 273.589 333.221 271.19" stroke="#263238" stroke-width="0.979159" stroke-miterlimit="10" stroke-linecap="round"/>
<path d="M340.369 284.992L335.353 284.081" stroke="#263238" stroke-width="0.979159" stroke-miterlimit="10" stroke-linecap="round"/>
<path d="M340.687 291.856C340.687 291.856 331.248 294.213 327.979 297.808" stroke="#263238" stroke-width="0.979159" stroke-miterlimit="10" stroke-linecap="round"/>
<path d="M328.949 321.384C328.949 321.384 345.168 333.756 346.873 352.115L343.454 290.644" stroke="#263238" stroke-width="1.95832" stroke-miterlimit="10" stroke-linecap="round"/>
<path d="M368.216 312.413C346.873 308.576 346.873 352.115 346.873 352.115" stroke="#263238" stroke-width="1.95832" stroke-miterlimit="10" stroke-linecap="round"/>
<path d="M349.448 351.68C349.448 351.68 337.058 261.668 372.906 261.668" stroke="#263238" stroke-width="1.95832" stroke-miterlimit="10" stroke-linecap="round"/>
<path d="M360.082 309.83C357.164 306.544 350.969 306.544 347.324 314.93C343.679 323.315 346.94 321.86 346.94 321.86C346.94 321.86 353.862 319.678 358.234 318.215C362.607 316.752 368.433 313.115 368.801 315.297C369.169 317.479 365.884 319.678 361.879 320.405C357.875 321.133 347.299 324.05 348.395 326.257C349.49 328.464 352.04 335.002 352.04 335.002C355.163 332.357 358.459 329.922 361.904 327.712C366.644 324.803 369.554 325.898 367.004 329.175C364.454 332.452 357.164 336.097 358.644 340.469C360.124 344.842 368.826 350.284 368.826 350.284C368.826 350.284 369.922 341.172 372.471 338.262C375.021 335.353 374.979 338.622 374.294 343.721C373.93 345.894 373.688 348.085 373.567 350.284L383.766 353.929C383.766 353.929 387.411 348.462 389.233 346.639L391.056 344.817C391.056 344.817 383.038 337.894 382.696 333.522C382.353 329.15 388.163 333.522 389.986 334.25C391.808 334.977 394.726 340.101 394.726 340.101C394.726 340.101 396.548 331.741 396.908 328.807L397.275 325.898C397.275 325.898 389.626 322.98 386.708 322.98C383.791 322.98 382.336 325.162 382.336 322.253C382.336 319.344 385.245 317.513 388.531 317.881C391.499 318.374 394.423 319.104 397.275 320.063C397.275 320.063 399.457 318.24 398.73 312.773C398.003 307.305 396.18 307.314 391.808 308.768C387.436 310.223 384.493 313.5 381.216 313.5C377.939 313.5 379.761 309.487 381.943 308.392C384.125 307.297 389.601 305.115 390.688 304.747C391.775 304.379 384.836 299.288 381.216 298.552C377.596 297.817 372.856 300.391 373.199 304.02C373.926 311.652 362.999 313.107 360.082 309.83Z" fill="#269D89"/>
<path d="M383.54 347.35C383.652 348.464 383.727 349.559 383.766 350.635" stroke="#263238" stroke-width="0.979159" stroke-miterlimit="10" stroke-linecap="round"/>
<path d="M376.2 321.191C379.4 328.407 381.705 335.987 383.064 343.763" stroke="#263238" stroke-width="0.979159" stroke-miterlimit="10" stroke-linecap="round"/>
<path d="M374.904 318.265C373.098 314.378 371.744 312.012 371.744 312.012C373.732 311.073 375.383 309.547 376.476 307.64C377.328 305.914 378.577 304.416 380.121 303.267" stroke="#263238" stroke-width="0.979159" stroke-miterlimit="10" stroke-linecap="round"/>
<path d="M358.987 324.368C358.987 324.368 372.103 318.901 372.103 319.996" stroke="#263238" stroke-width="0.979159" stroke-miterlimit="10" stroke-linecap="round"/>
<path d="M379.394 317.479C379.394 317.479 385.246 314.562 390.328 314.562" stroke="#263238" stroke-width="0.979159" stroke-miterlimit="10" stroke-linecap="round"/>
<path d="M377.211 326.224C374.681 328.3 372.36 330.619 370.281 333.146C368.157 335.65 366.436 338.471 365.181 341.506" stroke="#263238" stroke-width="0.979159" stroke-miterlimit="10" stroke-linecap="round"/>
<path d="M381.216 327.712C381.216 327.712 388.865 325.53 392.878 329.175" stroke="#263238" stroke-width="0.979159" stroke-miterlimit="10" stroke-linecap="round"/>
<path d="M395.077 278.447C391.114 276.097 386.717 276.047 384.577 273.573C382.436 271.098 386.641 269.844 388.899 270.78C391.156 271.717 396.423 274.409 397.384 274.96C398.345 275.512 397.693 266.977 395.854 263.741C394.015 260.506 388.982 258.633 386.474 261.275C381.174 266.843 372.906 259.536 373.466 255.189C374.026 250.842 369.972 246.16 361.252 248.902C352.533 251.644 355.785 253.166 355.785 253.166C355.785 253.166 361.979 256.961 365.942 259.31C369.905 261.66 376.484 263.666 375.071 265.38C373.658 267.094 369.863 266.04 366.711 263.49C363.56 260.941 354.405 254.871 353.469 257.137C352.533 259.402 349.289 265.622 349.289 265.622C353.299 266.252 357.262 267.149 361.152 268.306C366.46 269.978 367.547 272.887 363.401 273.113C359.254 273.339 351.697 270.22 349.373 274.191C347.049 278.162 348.637 288.345 348.637 288.345C348.637 288.345 356.228 283.195 360.107 283.212C363.986 283.228 361.503 285.377 357.172 288.169C355.292 289.317 353.478 290.57 351.738 291.923L355.676 302.013C355.676 302.013 362.188 301.177 364.763 301.361L367.33 301.545C367.33 301.545 367.33 290.953 370.365 287.81C373.399 284.666 373.951 291.94 374.595 293.787C375.238 295.635 373.299 301.194 373.299 301.194C373.299 301.194 380.823 297.073 383.264 295.434L385.705 293.804C385.705 293.804 382.888 286.113 380.973 283.906C379.059 281.699 376.459 282.041 378.658 280.127C380.856 278.212 384.15 279.224 386.023 281.941C387.592 284.507 388.956 287.194 390.103 289.975C390.103 289.975 392.911 290.435 396.565 286.305C400.218 282.175 399.048 280.796 395.077 278.447ZM360.592 290.092C357.674 288.637 364.605 285.72 364.605 285.72C367.154 285.369 363.509 291.563 360.592 290.092ZM365.499 276.49C364.262 275.863 368.007 274.626 368.007 274.626C373.374 275.679 366.745 277.126 365.499 276.507V276.49Z" fill="#269D89"/>
<path d="M360.517 297.532C359.756 298.368 358.978 299.112 358.176 299.865" stroke="#263238" stroke-width="0.979159" stroke-miterlimit="10" stroke-linecap="round"/>
<path d="M375.473 274.852C372.124 282.001 367.912 288.714 362.933 294.84" stroke="#263238" stroke-width="0.979159" stroke-miterlimit="10" stroke-linecap="round"/>
<path d="M376.819 271.943C378.566 268.038 379.46 265.464 379.46 265.464C381.475 266.349 383.713 266.597 385.872 266.174C387.731 265.685 389.68 265.645 391.557 266.057" stroke="#263238" stroke-width="0.979159" stroke-miterlimit="10" stroke-linecap="round"/>
<path d="M361.745 263.95C361.745 263.95 374.469 270.279 373.65 270.989" stroke="#263238" stroke-width="0.979159" stroke-miterlimit="10" stroke-linecap="round"/>
<path d="M380.38 274.827C380.38 274.827 386.399 277.335 389.743 281.164" stroke="#263238" stroke-width="0.979159" stroke-miterlimit="10" stroke-linecap="round"/>
<path d="M372.312 278.906C369.088 278.361 365.818 278.129 362.548 278.212C359.256 278.258 355.992 278.823 352.875 279.884" stroke="#263238" stroke-width="0.979159" stroke-miterlimit="10" stroke-linecap="round"/>
<path d="M373.842 282.886C373.842 282.886 380.53 287.233 380.388 292.65" stroke="#263238" stroke-width="0.979159" stroke-miterlimit="10" stroke-linecap="round"/>
<path d="M338.454 328.941C335.261 327.052 331.766 327.01 330.002 325.012C328.239 323.014 331.674 322.01 333.489 322.763C335.303 323.515 339.516 325.689 340.31 326.157C341.105 326.625 340.561 319.728 339.081 317.128C337.602 314.528 333.547 313.023 331.557 315.147C327.285 319.628 320.631 313.751 321.091 310.248C321.551 306.745 318.273 302.983 311.259 305.19C304.245 307.397 306.862 308.618 306.862 308.618C306.862 308.618 311.878 311.677 315.038 313.558C318.198 315.439 323.515 317.07 322.378 318.449C321.241 319.829 318.198 318.984 315.632 316.928C313.065 314.871 305.725 309.997 304.973 311.811C304.22 313.625 301.578 318.641 301.578 318.641C304.829 319.141 308.044 319.853 311.201 320.773C315.473 322.119 316.342 324.468 313.007 324.644C309.671 324.819 303.61 322.32 301.721 325.48C299.831 328.64 301.127 336.866 301.127 336.866C301.127 336.866 307.238 332.728 310.323 332.736C313.408 332.745 311.443 334.484 307.957 336.732C306.448 337.657 304.991 338.665 303.593 339.75L306.762 347.868C309.184 347.541 311.624 347.368 314.068 347.35L316.142 347.492C316.142 347.492 316.142 338.965 318.583 336.44C321.024 333.915 321.467 339.784 321.985 341.255C322.504 342.727 320.94 347.207 320.94 347.207C320.94 347.207 326.993 343.863 328.957 342.576L330.922 341.264C330.922 341.264 328.657 335.069 327.118 333.305C325.58 331.541 323.482 331.8 325.254 330.262C327.026 328.724 329.668 329.534 331.181 331.716C332.445 333.783 333.544 335.947 334.467 338.187C334.467 338.187 336.724 338.555 339.667 335.228C342.609 331.9 341.648 330.822 338.454 328.941ZM310.699 338.321C308.358 337.15 313.926 334.801 313.926 334.801C316.008 334.509 313.048 339.5 310.699 338.321ZM314.654 327.378C313.65 326.876 316.652 325.873 316.652 325.873C321.024 326.709 315.657 327.879 314.654 327.378Z" fill="#269D89"/>
<path d="M310.641 344.298C310.03 344.942 309.403 345.569 308.76 346.171" stroke="#263238" stroke-width="0.979159" stroke-miterlimit="10" stroke-linecap="round"/>
<path d="M322.696 326.04C320.001 331.793 316.61 337.192 312.597 342.116" stroke="#263238" stroke-width="0.979159" stroke-miterlimit="10" stroke-linecap="round"/>
<path d="M323.758 323.708C325.17 320.564 325.889 318.491 325.889 318.491C327.511 319.201 329.31 319.399 331.047 319.059C332.543 318.666 334.11 318.634 335.62 318.967" stroke="#263238" stroke-width="0.979159" stroke-miterlimit="10" stroke-linecap="round"/>
<path d="M311.627 317.27C311.627 317.27 321.877 322.362 321.208 322.938" stroke="#263238" stroke-width="0.979159" stroke-miterlimit="10" stroke-linecap="round"/>
<path d="M326.6 326.04C326.6 326.04 331.449 328.046 334.124 331.14" stroke="#263238" stroke-width="0.979159" stroke-miterlimit="10" stroke-linecap="round"/>
<path d="M320.138 329.309C317.543 328.867 314.911 328.679 312.279 328.749C309.629 328.778 307 329.224 304.488 330.07" stroke="#263238" stroke-width="0.979159" stroke-miterlimit="10" stroke-linecap="round"/>
<path d="M321.367 332.511C321.367 332.511 326.734 336.005 326.633 340.369" stroke="#263238" stroke-width="0.979159" stroke-miterlimit="10" stroke-linecap="round"/>
<path d="M325.438 268.766C325.438 268.766 321.425 271.675 318.875 268.766C316.326 265.856 319.971 260.021 316.326 257.831C312.681 255.64 306.854 259.653 306.854 259.653C306.854 259.653 311.585 260.748 311.585 263.298C311.585 265.848 309.403 266.943 309.077 265.848C308.751 264.753 306.168 259.285 302.523 261.843C301.471 262.551 300.572 263.465 299.883 264.53C299.193 265.595 298.726 266.788 298.51 268.038C298.51 268.038 307.255 266.575 307.991 269.861C308.726 273.146 304.346 269.493 300.701 269.493C297.056 269.493 293.779 270.22 294.138 272.411C294.339 274.356 294.339 276.317 294.138 278.263C296.025 276.498 298.479 275.464 301.06 275.345C305.073 275.345 305.073 277.895 301.428 277.895C297.783 277.895 294.865 281.54 294.865 281.54C294.865 281.54 298.51 287.007 302.883 289.557C307.255 292.107 308.735 291.02 309.077 288.83C309.42 286.639 307.991 281.18 310.54 281.18C313.09 281.18 306.895 291.02 310.173 291.379C313.45 291.739 316.025 290.652 316.735 288.47L317.463 286.28C317.463 286.28 316 280.812 316.367 278.63C316.735 276.448 317.463 278.63 318.19 281.18C318.917 283.73 319.645 289.925 320.74 289.54C321.835 289.156 325.112 284.441 325.839 282.618C326.567 280.796 320.74 275.696 320.74 274.601C320.74 273.506 325.112 275.328 325.839 276.423C326.372 277.247 326.86 278.098 327.302 278.973C327.302 278.973 329.852 277.151 329.484 272.051C329.116 266.951 325.438 268.766 325.438 268.766Z" fill="#269D89"/>
<path d="M305.023 281.983C307.531 278.463 311.276 273.681 314.503 271.315" stroke="#263238" stroke-width="0.979159" stroke-miterlimit="10" stroke-linecap="round"/>
<path d="M302.114 286.255C302.114 286.255 302.757 285.243 303.786 283.747" stroke="#263238" stroke-width="0.979159" stroke-miterlimit="10" stroke-linecap="round"/>
<path d="M316.326 272.043C316.326 272.043 320.698 277.51 321.793 283.337" stroke="#263238" stroke-width="0.979159" stroke-miterlimit="10" stroke-linecap="round"/>
<path d="M311.953 275.688C311.953 275.688 313.049 274.96 313.049 282.25" stroke="#263238" stroke-width="0.979159" stroke-miterlimit="10" stroke-linecap="round"/>
<path d="M314.503 268.766C314.503 268.766 316.693 266.575 315.23 262.571" stroke="#263238" stroke-width="0.979159" stroke-miterlimit="10" stroke-linecap="round"/>
<path d="M311.585 272.411L309.763 269.493" stroke="#263238" stroke-width="0.979159" stroke-miterlimit="10" stroke-linecap="round"/>
<path d="M308.308 275.688C308.308 275.688 302.841 272.043 299.564 272.043" stroke="#263238" stroke-width="0.979159" stroke-miterlimit="10" stroke-linecap="round"/>
<path d="M362.239 350.401H334.065V390.947H362.239V350.401Z" fill="#263238" stroke="#263238" stroke-width="1.95832" stroke-miterlimit="10" stroke-linecap="round"/>
<path d="M109.867 376.576H66.228V380.472H109.867V376.576Z" fill="white" stroke="#263238" stroke-width="0.979159" stroke-miterlimit="10" stroke-linecap="round"/>
<path d="M109.867 357.265H66.228V361.16H109.867V357.265Z" fill="white" stroke="#263238" stroke-width="0.979159" stroke-miterlimit="10" stroke-linecap="round"/>
<path d="M65.8601 393.33C65.2082 393.33 64.5831 393.071 64.1221 392.61C63.6612 392.149 63.4022 391.524 63.4022 390.872V356.713C63.3525 350.061 65.4366 343.567 69.3487 338.187C73.2608 332.806 78.7948 328.821 85.1382 326.817C86.1025 326.506 87.0854 326.254 88.081 326.065C88.3982 326.01 88.7232 326.018 89.0374 326.089C89.3515 326.16 89.6486 326.292 89.9118 326.477C90.175 326.663 90.399 326.898 90.5711 327.17C90.7433 327.442 90.8601 327.746 90.915 328.063C90.9699 328.38 90.9618 328.705 90.8911 329.02C90.8203 329.334 90.6885 329.631 90.5029 329.894C90.3174 330.157 90.0818 330.381 89.8097 330.553C89.5376 330.725 89.2342 330.842 88.917 330.897C88.917 330.897 88.0141 331.064 86.6012 331.507C81.2546 333.198 76.591 336.558 73.2956 341.095C70.0002 345.631 68.2467 351.106 68.2928 356.713V390.872C68.2929 391.519 68.0374 392.141 67.5818 392.601C67.1263 393.061 66.5076 393.323 65.8601 393.33Z" fill="white" stroke="#263238" stroke-width="0.979159" stroke-miterlimit="10" stroke-linecap="round"/>
<path d="M111.347 393.33C110.696 393.327 110.073 393.067 109.614 392.607C109.155 392.146 108.897 391.522 108.897 390.872V356.713C108.943 351.106 107.19 345.631 103.895 341.095C100.599 336.558 95.9355 333.198 90.5889 331.507C89.1761 331.064 88.2816 330.906 88.2732 330.897C87.6324 330.786 87.0619 330.425 86.6872 329.894C86.3125 329.362 86.1643 328.704 86.2752 328.063C86.386 327.422 86.7469 326.852 87.2784 326.477C87.8099 326.102 88.4684 325.954 89.1092 326.065C90.1048 326.254 91.0876 326.506 92.0519 326.817C98.3954 328.821 103.929 332.806 107.841 338.187C111.754 343.567 113.838 350.061 113.788 356.713V390.872C113.788 391.521 113.531 392.143 113.074 392.604C112.617 393.064 111.996 393.325 111.347 393.33Z" fill="white" stroke="#263238" stroke-width="0.979159" stroke-miterlimit="10" stroke-linecap="round"/>
<path d="M86.1497 304.471H92.6622V357.975C92.6622 358.663 92.3891 359.322 91.9031 359.808C91.4171 360.294 90.7579 360.567 90.0706 360.567H88.733C88.0456 360.567 87.3864 360.294 86.9004 359.808C86.4144 359.322 86.1414 358.663 86.1414 357.975V304.471H86.1497Z" fill="white" stroke="#263238" stroke-width="0.979159" stroke-miterlimit="10" stroke-linecap="round"/>
<path d="M105.729 301.896C95.0601 300.581 84.2701 300.581 73.6014 301.896H57.4666V308.283C57.4666 312.346 71.8876 315.649 89.6693 315.649C107.451 315.649 121.864 312.346 121.864 308.283V301.896H105.729Z" fill="#878787" stroke="#263238" stroke-width="0.979159" stroke-miterlimit="10" stroke-linecap="round"/>
<path d="M89.6695 309.262C107.45 309.262 121.864 305.964 121.864 301.896C121.864 297.829 107.45 294.531 89.6695 294.531C71.889 294.531 57.4751 297.829 57.4751 301.896C57.4751 305.964 71.889 309.262 89.6695 309.262Z" fill="#263238" stroke="#263238" stroke-width="0.979159" stroke-miterlimit="10" stroke-linecap="round"/>
<path d="M76.5693 306.603C76.5693 306.603 83.4162 304.471 86.1499 304.471C88.8836 304.471 95.8893 304.17 99.0828 304.321C102.276 304.471 102.728 304.622 107.142 304.622C111.556 304.622 115.502 302.038 119.464 297.633C123.427 293.227 124.33 284.85 122.808 280.595C121.287 276.34 120.376 272.687 117.634 270.705C114.892 268.724 100.604 267.361 90.1042 267.972C79.604 268.582 70.9431 270.404 65.3168 272.687C59.6905 274.969 58.3195 278.012 58.6288 280.135C58.9381 282.259 61.9728 295.183 63.9541 299.606C65.9354 304.028 69.2794 305.692 70.0402 305.692C70.8009 305.692 76.5693 306.603 76.5693 306.603Z" fill="white" stroke="#263238" stroke-width="0.979159" stroke-miterlimit="10" stroke-linecap="round"/>
<path d="M96.0398 295.651C96.0398 295.651 98.7735 284.399 105.921 280.896" stroke="#263238" stroke-width="0.979159" stroke-miterlimit="10" stroke-linecap="round"/>
<path d="M74.8972 279.224C74.8972 279.224 80.8328 282.267 81.8945 288.963" stroke="#263238" stroke-width="0.979159" stroke-miterlimit="10" stroke-linecap="round"/>
<path d="M86.76 270.404L87.5208 275.88" stroke="#263238" stroke-width="0.979159" stroke-miterlimit="10" stroke-linecap="round"/>
<path d="M91.3246 275.119L90.4133 270.103" stroke="#263238" stroke-width="0.979159" stroke-miterlimit="10" stroke-linecap="round"/>
<path d="M82.5633 179.74C82.5633 179.74 83.8006 185.216 82.4295 186.863C81.0585 188.51 72.0213 192.715 65.7095 196.059C59.3977 199.403 49.558 202.63 46.9581 209.067C44.3581 215.504 45.1774 232.475 45.1774 236.989C45.1774 241.504 48.7387 262.73 50.9291 263.825C53.1194 264.92 58.7289 264.235 58.7289 264.235C58.4869 266.689 58.0281 269.117 57.3579 271.491C56.129 276.281 55.9869 277.652 57.2241 277.928C58.4614 278.204 58.1772 277.652 66.9468 275.186C75.7165 272.72 86.7935 269.334 96.2068 270.538C105.62 271.742 114.415 273.823 116.739 273.823C119.063 273.823 120.852 274.501 120.852 269.852C120.852 265.204 118.662 258.483 119.891 254.804C121.12 251.126 127.833 227.835 127.833 227.835C136.042 217.051 130.7 248.86 133.309 211.817C133.994 202.103 130.023 197.714 123.995 195.39C117.968 193.066 107.618 190.608 104.5 188.526C101.382 186.445 102.443 181.27 102.443 181.27L82.5633 179.74Z" fill="#269D89" stroke="#263238" stroke-width="0.979159" stroke-miterlimit="10" stroke-linecap="round"/>
<path d="M98.8487 266.291C98.2605 266.368 97.6647 266.368 97.0764 266.291" stroke="#263238" stroke-width="0.979159" stroke-miterlimit="10" stroke-linecap="round"/>
<path d="M118.57 244.948C118.57 244.948 112.409 259.871 106.523 263.432C104.808 264.506 102.951 265.333 101.006 265.89" stroke="#263238" stroke-width="0.979159" stroke-miterlimit="10" stroke-linecap="round"/>
<path d="M60.7271 243.276C60.7271 243.276 60.167 221.599 55.8281 210.137" stroke="#263238" stroke-width="0.979159" stroke-miterlimit="10" stroke-linecap="round"/>
<path d="M52.2583 215.212C53.9303 220.47 56.4383 227.267 58.6286 229.708" stroke="#263238" stroke-width="0.979159" stroke-miterlimit="10" stroke-linecap="round"/>
<path d="M50.2354 208.457C50.2354 208.457 50.5697 209.694 51.1382 211.583" stroke="#263238" stroke-width="0.979159" stroke-miterlimit="10" stroke-linecap="round"/>
<path d="M50.2437 229.423C52.8603 232.818 56.6976 236.78 60.2757 236.705" stroke="#263238" stroke-width="0.979159" stroke-miterlimit="10" stroke-linecap="round"/>
<path d="M47.0166 224.675C47.0166 224.675 47.7105 225.879 48.8474 227.517" stroke="#263238" stroke-width="0.979159" stroke-miterlimit="10" stroke-linecap="round"/>
<path d="M75.1313 260.364C76.7449 259.293 78.2839 258.115 79.7377 256.836" stroke="#263238" stroke-width="0.979159" stroke-miterlimit="10" stroke-linecap="round"/>
<path d="M63.536 264.527C63.536 264.527 62.8421 265.932 64.9321 266.065C66.0858 266.149 69.8896 263.909 73.3841 261.568" stroke="#263238" stroke-width="0.979159" stroke-miterlimit="10" stroke-linecap="round"/>
<path d="M108.078 190.165C106.822 189.735 105.614 189.174 104.475 188.493C101.323 186.445 102.418 181.236 102.418 181.236L82.5633 179.74C82.5633 179.74 83.8006 185.216 82.4295 186.863C81.5225 187.684 80.5104 188.381 79.4199 188.936C80.8746 192.623 87.897 209.652 93.5232 209.042C98.464 208.523 105.336 195.624 108.078 190.165Z" fill="#D9D9D9" stroke="#263238" stroke-width="0.979159" stroke-miterlimit="10" stroke-linecap="round"/>
<path d="M102.418 181.27L82.5635 179.74C82.9434 181.454 83.1007 183.21 83.0316 184.965C85.5396 187.866 90.1711 193.007 91.7511 193.735C93.9665 194.763 95.672 193.735 96.0147 193.225C96.2488 192.882 100.537 189.488 103.288 187.373C101.649 184.965 102.418 181.27 102.418 181.27Z" fill="#263238"/>
<path d="M78.4586 161.147C78.4586 161.147 77.2297 159.367 76.2683 161.147C75.3069 162.928 76.2683 166.757 77.5056 169.089C78.108 170.275 78.7924 171.418 79.5538 172.509L79.1441 161.423L78.4586 161.147Z" fill="#D9D9D9" stroke="#263238" stroke-width="0.979159" stroke-miterlimit="10" stroke-linecap="round"/>
<path d="M109.123 161.833C109.123 161.833 109.541 159.325 111.314 160.871C113.086 162.418 110.636 168.128 110.218 169.231C109.738 170.177 109.089 171.026 108.304 171.739V163.522L109.123 161.833Z" fill="#D9D9D9" stroke="#263238" stroke-width="0.979159" stroke-miterlimit="10" stroke-linecap="round"/>
<path d="M78.8683 163.471C78.8683 163.471 79.1442 176.756 79.7043 177.683C80.2644 178.611 87.3704 187.807 89.1427 189.588C90.915 191.369 93.9414 191.26 95.9896 190.683C98.0378 190.106 106.398 180.551 107.083 178.503C107.769 176.455 108.588 162.209 108.588 162.209C108.588 162.209 109.274 149.201 108.588 147.287C107.903 145.372 85.1801 146.191 82.9898 146.743C80.7994 147.295 79.9718 149.753 80.2477 151.801C80.5236 153.849 78.0574 157.553 78.0574 157.553L78.8683 163.471Z" fill="#D9D9D9" stroke="#263238" stroke-width="0.979159" stroke-miterlimit="10" stroke-linecap="round"/>
<path d="M82.9813 149.786C82.9813 149.786 82.8392 155.262 81.8861 157.586C80.9331 159.91 79.2778 159.776 79.2778 159.776L78.8682 164.985L77.1962 158.681C77.1962 158.681 76.9203 145.13 77.472 142.12C78.0238 139.11 83.4913 138.559 83.4913 138.559C83.4913 138.559 78.701 136.051 81.4347 134.454C84.1684 132.857 91.9766 134.864 91.9766 134.864C91.9766 134.864 90.8815 132.121 95.8139 132.121C100.746 132.121 105.537 136.502 107.175 138.559C107.981 139.445 108.629 140.463 109.09 141.568C109.09 141.568 109.775 137.188 111.28 140.473C112.785 143.759 112.793 147.161 112.241 151.291C111.822 153.964 110.976 156.553 109.733 158.957L107.953 166.899L107.075 159.676C105.682 158.819 104.619 157.517 104.057 155.981C103.515 154.196 103.148 152.362 102.962 150.505C102.962 150.505 98.7232 154.886 92.8377 154.2C89.1944 153.714 85.7704 152.18 82.9813 149.786Z" fill="#263238" stroke="#263238" stroke-width="0.979159" stroke-miterlimit="10" stroke-linecap="round"/>
<path d="M96.6668 164.692C96.6668 164.692 97.0764 176.329 95.7137 177.148C94.3511 177.968 92.0103 174.958 92.0103 174.958" stroke="#263238" stroke-width="0.979159" stroke-miterlimit="10" stroke-linecap="round"/>
<path d="M88.616 179.355C90.3033 180.168 92.1521 180.59 94.0249 180.59C95.8977 180.59 97.7465 180.168 99.4338 179.355" stroke="#263238" stroke-width="0.979159" stroke-miterlimit="10" stroke-linecap="round"/>
<path d="M98.0378 168.788C98.0378 168.788 100.094 170.745 104.057 169.14" stroke="#263238" stroke-width="0.979159" stroke-miterlimit="10" stroke-linecap="round"/>
<path d="M97.6282 164.433C97.6282 164.433 100.362 161.557 105.704 163.472" stroke="#263238" stroke-width="1.95832" stroke-miterlimit="10" stroke-linecap="round"/>
<path d="M89.686 168.128C88.8327 168.781 87.806 169.168 86.7339 169.241C85.6619 169.314 84.5922 169.069 83.6584 168.538" stroke="#263238" stroke-width="0.979159" stroke-miterlimit="10" stroke-linecap="round"/>
<path d="M91.3248 164.023C91.3248 164.023 86.6766 160.872 83.249 162.652" stroke="#263238" stroke-width="1.95832" stroke-miterlimit="10" stroke-linecap="round"/>
<path d="M72.5984 218.363L76.2684 243.151C76.3058 243.414 76.4411 243.653 76.6473 243.82C76.8535 243.988 77.1153 244.071 77.3803 244.054L89.2348 243.36C89.3801 243.349 89.5219 243.31 89.6513 243.243C89.7808 243.176 89.8952 243.083 89.9876 242.97C90.0799 242.858 90.1483 242.727 90.1885 242.587C90.2287 242.447 90.2398 242.3 90.2212 242.156L86.6766 217.143C86.6392 216.876 86.5017 216.633 86.2922 216.464C86.0826 216.295 85.8166 216.212 85.548 216.231L73.5681 217.159C73.4238 217.171 73.2832 217.211 73.1551 217.279C73.027 217.346 72.9141 217.439 72.8233 217.552C72.7324 217.665 72.6656 217.795 72.627 217.934C72.5883 218.074 72.5786 218.22 72.5984 218.363Z" fill="#263238" stroke="#263238" stroke-width="0.979159" stroke-miterlimit="10" stroke-linecap="round"/>
<path d="M46.0886 244.756C46.0886 244.756 46.423 259.578 47.3844 264.51C48.3458 269.443 51.8988 271.357 56.4216 267.018C60.9443 262.68 72.4393 247.439 72.4393 247.439C72.4393 247.439 78.5839 245.784 81.2006 244.948C83.8173 244.112 87.3619 239.472 87.3619 239.472C87.3619 239.472 89.8198 238.101 89.9619 237.006C90.104 235.911 88.8667 235.501 88.8667 235.501C88.8667 235.501 90.9149 235.234 90.9149 234.272C90.9149 233.311 86.6764 232.082 85.1716 232.082H80.2559C82.0492 231.539 83.8792 231.125 85.7317 230.845C87.5124 230.711 90.1124 230.987 89.7027 230.009C89.2931 229.031 87.5124 228.638 84.9125 228.094C82.3125 227.551 74.7801 230.009 73.685 230.97C72.5898 231.931 68.3429 241.37 68.3429 241.37L49.1818 246.988" fill="#269D89"/>
<path d="M46.0886 244.756C46.0886 244.756 46.423 259.578 47.3844 264.51C48.3458 269.443 51.8988 271.357 56.4216 267.018C60.9443 262.68 72.4393 247.439 72.4393 247.439C72.4393 247.439 78.5839 245.784 81.2006 244.948C83.8173 244.112 87.3619 239.472 87.3619 239.472C87.3619 239.472 89.8198 238.101 89.9619 237.006C90.104 235.911 88.8667 235.501 88.8667 235.501C88.8667 235.501 90.9149 235.234 90.9149 234.272C90.9149 233.311 86.6764 232.082 85.1716 232.082H80.2559C82.0492 231.539 83.8792 231.125 85.7317 230.845C87.5124 230.711 90.1124 230.987 89.7027 230.009C89.2931 229.031 87.5124 228.638 84.9125 228.094C82.3125 227.551 74.7801 230.009 73.685 230.97C72.5898 231.931 68.3429 241.37 68.3429 241.37L49.1818 246.988" stroke="#263238" stroke-width="0.979159" stroke-miterlimit="10" stroke-linecap="round"/>
<path d="M89.9619 236.989C90.0956 235.894 88.8667 235.484 88.8667 235.484C88.8667 235.484 90.9149 235.217 90.9149 234.256C90.9149 233.294 86.6764 232.065 85.1716 232.065H80.2559C82.0492 231.522 83.8792 231.109 85.7317 230.828C87.5124 230.694 90.1124 230.97 89.7027 229.992C89.2931 229.014 87.5124 228.621 84.9124 228.078C82.3125 227.534 74.7801 229.992 73.685 230.953C72.5898 231.915 68.3429 241.353 68.3429 241.353L56.99 244.697C55.8949 246.896 55.0171 249.931 56.154 253.007C56.6606 254.587 57.6064 255.991 58.8809 257.054C60.1555 258.117 61.7063 258.795 63.352 259.01C67.8664 253.45 72.4477 247.397 72.4477 247.397C72.4477 247.397 78.5839 245.784 81.2006 244.948C83.8173 244.112 87.3619 239.472 87.3619 239.472C87.3619 239.472 89.8198 238.084 89.9619 236.989Z" fill="#D9D9D9" stroke="#263238" stroke-width="0.979159" stroke-miterlimit="10" stroke-linecap="round"/>
<path d="M77.9153 236.446C77.9153 236.446 82.02 234.941 88.8669 235.485" stroke="#263238" stroke-width="0.979159" stroke-miterlimit="10" stroke-linecap="round"/>
<path d="M79.144 240.551C79.144 240.551 79.6958 240.141 87.3619 239.456" stroke="#263238" stroke-width="0.979159" stroke-miterlimit="10" stroke-linecap="round"/>
<path d="M54.6077 377.563C54.6077 377.563 53.0694 383.214 49.5917 386.817C46.1139 390.42 40.5963 395.035 41.1146 399.407C41.6329 403.78 47.8026 405.318 52.8186 404.164C57.8346 403.011 59.632 399.533 61.814 396.063C63.9959 392.594 65.9271 389.509 69.2627 386.558C72.5984 383.607 72.0884 382.445 70.8093 378.976C69.5303 375.506 69.0119 374.227 69.0119 374.227C69.0119 374.227 58.0771 379.494 54.6077 377.563Z" fill="#269D89" stroke="#263238" stroke-width="0.979159" stroke-miterlimit="10" stroke-linecap="round"/>
<path d="M69.2542 386.558C72.1217 384.05 72.1468 382.813 71.2941 380.33C67.833 382.62 65.1578 388.498 62.7083 392.469C60.0081 396.832 57.0486 402.501 49.9844 403.136C48.2878 403.326 46.5711 403.06 45.0118 402.365C43.4525 401.67 42.107 400.571 41.1145 399.182C41.1103 399.257 41.1103 399.332 41.1145 399.407C41.6244 403.771 47.8025 405.318 52.8185 404.164C57.8345 403.011 59.6319 399.533 61.8138 396.063C63.9958 392.594 65.9186 389.509 69.2542 386.558Z" fill="white" stroke="#263238" stroke-width="0.979159" stroke-miterlimit="10" stroke-linecap="round"/>
<path d="M76.912 282.877C76.912 282.877 65.9604 274.659 55.176 277.251C44.3916 279.843 35.5551 295.041 37.0766 300.065C38.5982 305.09 43.6142 333.221 46.6572 340.979C49.7002 348.737 53.504 373.215 53.504 373.215C53.504 373.215 53.0442 373.215 52.8938 374.587C52.7433 375.958 53.3536 378.541 53.805 379.001C54.2564 379.46 57.149 380.213 59.8911 380.213C62.6332 380.213 68.7109 378.541 69.6221 377.479C69.9817 377.091 70.2612 376.636 70.4448 376.139C70.6285 375.643 70.7125 375.115 70.6922 374.587C70.4553 373.015 70.017 371.481 69.388 370.022C68.9366 368.96 68.3263 363.785 68.3263 363.334C68.3263 362.882 67.4151 348.729 67.5656 344.323C67.716 339.918 70.4916 324.368 67.716 318.165C64.9405 311.962 63.1849 302.632 63.1849 302.632C64.3601 303.988 65.8342 305.052 67.491 305.742C69.1477 306.431 70.9419 306.726 72.732 306.603C77.0861 306.294 81.3822 305.426 85.5145 304.02L89.9202 303.861" fill="white"/>
<path d="M76.912 282.877C76.912 282.877 65.9604 274.659 55.176 277.251C44.3916 279.843 35.5551 295.041 37.0766 300.065C38.5982 305.09 43.6142 333.221 46.6572 340.979C49.7002 348.737 53.504 373.215 53.504 373.215C53.504 373.215 53.0442 373.215 52.8938 374.587C52.7433 375.958 53.3536 378.541 53.805 379.001C54.2564 379.46 57.149 380.213 59.8911 380.213C62.6332 380.213 68.7109 378.541 69.6221 377.479C69.9817 377.091 70.2612 376.636 70.4448 376.139C70.6285 375.643 70.7125 375.115 70.6922 374.587C70.4553 373.015 70.017 371.481 69.388 370.022C68.9366 368.96 68.3263 363.785 68.3263 363.334C68.3263 362.883 67.4151 348.729 67.5656 344.323C67.716 339.918 70.4916 324.368 67.716 318.165C64.9405 311.962 63.1849 302.632 63.1849 302.632C64.3601 303.988 65.8342 305.052 67.491 305.742C69.1477 306.431 70.9419 306.726 72.732 306.603C77.0861 306.294 81.3822 305.426 85.5145 304.02L89.9202 303.861" stroke="#263238" stroke-width="0.979159" stroke-miterlimit="10" stroke-linecap="round"/>
<path d="M116.204 374.093C116.204 374.093 117.751 379.745 121.22 383.348C124.689 386.951 130.207 391.566 129.697 395.938C129.187 400.31 123.009 401.849 117.993 400.695C112.977 399.541 111.188 396.063 109.006 392.594C106.824 389.125 104.893 386.048 101.549 383.089C98.205 380.129 98.7233 378.976 100.011 375.506C101.298 372.037 101.808 370.758 101.808 370.758C101.808 370.758 112.735 376.025 116.204 374.093Z" fill="#269D89" stroke="#263238" stroke-width="0.979159" stroke-miterlimit="10" stroke-linecap="round"/>
<path d="M101.557 383.089C98.6982 380.581 98.6647 379.343 99.5258 376.86C102.987 379.151 105.654 385.028 108.112 388.999C110.812 393.371 113.763 399.031 120.835 399.667C122.532 399.856 124.248 399.589 125.807 398.894C127.367 398.199 128.712 397.101 129.705 395.712C129.705 395.788 129.705 395.863 129.705 395.938C129.195 400.302 123.017 401.848 118.001 400.695C112.985 399.541 111.196 396.063 109.014 392.594C106.832 389.125 104.901 386.048 101.557 383.089Z" fill="white" stroke="#263238" stroke-width="0.979159" stroke-miterlimit="10" stroke-linecap="round"/>
<path d="M104.559 284.09C104.559 284.09 118.244 272.386 131.018 277.251C141.393 281.205 153.381 296.563 151.859 301.587C150.338 306.611 139.712 336.44 134.554 342.986C129.396 349.532 118.67 371.861 118.67 371.861C118.67 371.861 119.113 371.995 118.863 373.349C118.612 374.704 117.274 377.003 116.706 377.304C116.137 377.604 113.153 377.504 110.536 376.71C107.919 375.916 102.577 372.53 102.009 371.268C101.545 370.306 101.479 369.201 101.825 368.191C102.489 366.753 103.331 365.405 104.333 364.178C105.077 363.292 107.159 358.519 107.292 358.084C107.426 357.649 110.594 343.111 111.731 338.856C112.868 334.601 112.342 325.162 115.075 318.934C117.809 312.706 122.959 302.632 122.959 302.632C121.779 303.99 120.298 305.054 118.635 305.74C116.973 306.426 115.173 306.716 113.378 306.586C109.027 306.277 104.734 305.409 100.604 304.003L96.1902 303.844" fill="white"/>
<path d="M104.559 284.09C104.559 284.09 118.244 272.386 131.018 277.251C141.393 281.205 153.381 296.563 151.859 301.587C150.338 306.611 139.712 336.44 134.554 342.986C129.396 349.532 118.67 371.861 118.67 371.861C118.67 371.861 119.113 371.995 118.863 373.349C118.612 374.704 117.274 377.003 116.706 377.304C116.137 377.604 113.153 377.504 110.536 376.71C107.919 375.916 102.577 372.53 102.009 371.268C101.545 370.306 101.479 369.201 101.825 368.191C102.489 366.753 103.331 365.405 104.333 364.178C105.077 363.292 107.159 358.519 107.292 358.084C107.426 357.649 110.594 343.111 111.731 338.856C112.868 334.601 112.342 325.162 115.075 318.934C117.809 312.706 122.959 302.632 122.959 302.632C121.779 303.99 120.298 305.054 118.635 305.74C116.973 306.426 115.173 306.716 113.378 306.586C109.027 306.277 104.734 305.409 100.604 304.003L96.1902 303.844" stroke="#263238" stroke-width="0.979159" stroke-miterlimit="10" stroke-linecap="round"/>
<path d="M126.102 225.904C126.102 225.904 136.97 236.588 138.233 237.416C139.495 238.243 137.823 238.778 138.918 239.874C140.013 240.969 141.652 242.482 141.652 242.482C141.499 242.85 141.42 243.245 141.42 243.644C141.42 244.043 141.499 244.438 141.652 244.806C142.204 245.901 144.937 246.311 144.937 246.311L131.988 271.081C131.988 271.081 121.997 271.917 119.665 271.917C117.333 271.917 115.284 276.031 115.284 276.984C115.284 277.937 113.612 283.964 114.189 283.964C114.766 283.964 114.331 285.059 114.875 285.335C115.432 285.466 116.017 285.419 116.547 285.201H118.712C119.02 285.276 119.342 285.278 119.651 285.207C119.96 285.136 120.248 284.994 120.493 284.792C121.17 284.106 124.321 278.764 124.321 278.764C124.321 278.764 131.168 279.726 133.359 279.726C135.549 279.726 137.463 274.517 137.463 274.108C137.463 273.698 157.67 256.167 160.136 251.636C162.602 247.105 163.697 240.684 161.231 236.028C158.765 231.371 149.101 219.199 147.972 217.143C146.843 215.086 139.077 202.095 132.64 198.659C126.202 195.223 121.412 194.964 121.412 194.964" fill="#269D89"/>
<path d="M126.102 225.904C126.102 225.904 136.97 236.588 138.233 237.416C139.495 238.243 137.823 238.778 138.918 239.874C140.013 240.969 141.652 242.482 141.652 242.482C141.499 242.85 141.42 243.245 141.42 243.644C141.42 244.043 141.499 244.438 141.652 244.806C142.204 245.901 144.937 246.311 144.937 246.311L131.988 271.081C131.988 271.081 121.997 271.917 119.665 271.917C117.333 271.917 115.284 276.031 115.284 276.984C115.284 277.937 113.612 283.964 114.189 283.964C114.766 283.964 114.331 285.059 114.875 285.335C115.432 285.466 116.017 285.419 116.547 285.201H118.712C119.02 285.276 119.342 285.278 119.651 285.207C119.96 285.136 120.248 284.994 120.493 284.792C121.17 284.106 124.321 278.764 124.321 278.764C124.321 278.764 131.168 279.726 133.359 279.726C135.549 279.726 137.463 274.517 137.463 274.108C137.463 273.698 157.67 256.167 160.136 251.636C162.602 247.105 163.697 240.684 161.231 236.028C158.765 231.371 149.101 219.199 147.972 217.143C146.843 215.086 139.077 202.095 132.64 198.659C126.202 195.223 121.412 194.964 121.412 194.964" stroke="#263238" stroke-width="0.979159" stroke-miterlimit="10" stroke-linecap="round"/>
<path d="M144.937 245.784C144.937 245.784 147.955 239.623 154.25 238.385" stroke="#263238" stroke-width="0.979159" stroke-miterlimit="10" stroke-linecap="round"/>
<path d="M150.246 236.153C148.034 237.364 146.125 239.058 144.661 241.111" stroke="#263238" stroke-width="0.979159" stroke-miterlimit="10" stroke-linecap="round"/>
<path d="M153.431 234.54C153.431 234.54 152.812 234.782 151.885 235.25" stroke="#263238" stroke-width="0.979159" stroke-miterlimit="10" stroke-linecap="round"/>
<path d="M144.628 236.73C144.628 236.73 142.17 239.33 142.17 241.93" stroke="#263238" stroke-width="0.979159" stroke-miterlimit="10" stroke-linecap="round"/>
<path d="M142.605 250.332L131.988 271.081C131.988 271.081 121.997 271.917 119.665 271.917C117.333 271.917 115.284 276.03 115.284 276.984C115.284 277.937 113.612 283.964 114.189 283.964C114.766 283.964 114.331 285.059 114.875 285.335C115.432 285.466 116.017 285.419 116.547 285.201H118.712C119.02 285.276 119.342 285.278 119.651 285.207C119.96 285.136 120.248 284.994 120.493 284.792C121.17 284.106 124.321 278.764 124.321 278.764C124.321 278.764 131.168 279.726 133.359 279.726C135.549 279.726 137.463 274.517 137.463 274.108C137.463 273.698 153.197 260.732 158.531 253.333C152.729 246.177 145.464 249.044 142.605 250.332Z" fill="#D9D9D9" stroke="#263238" stroke-width="0.979159" stroke-miterlimit="10" stroke-linecap="round"/>
<path d="M114.189 283.947C114.189 283.947 117.065 275.587 118.436 274.233" stroke="#263238" stroke-width="0.979159" stroke-miterlimit="10" stroke-linecap="round"/>
<path d="M116.522 285.185C116.522 285.185 119.122 277.243 120.626 275.153" stroke="#263238" stroke-width="0.979159" stroke-miterlimit="10" stroke-linecap="round"/>
<path d="M118.712 285.185C118.712 285.185 121.446 278.062 122.541 276.691" stroke="#263238" stroke-width="0.979159" stroke-miterlimit="10" stroke-linecap="round"/>
</svg>
