<svg width="406" height="406" viewBox="0 0 406 406" fill="none" xmlns="http://www.w3.org/2000/svg">
<path d="M406 310.509H0V310.712H406V310.509Z" fill="#E6E6E6"/>
<path d="M101.354 322.794H74.4604V322.997H101.354V322.794Z" fill="#E6E6E6"/>
<path d="M65.9507 322.794H50.3684V322.997H65.9507V322.794Z" fill="#E6E6E6"/>
<path d="M170.967 325.783H155.384V325.986H170.967V325.783Z" fill="#E6E6E6"/>
<path d="M252.215 330.313H217.145V330.516H252.215V330.313Z" fill="#E6E6E6"/>
<path d="M209.918 330.313H204.778V330.516H209.918V330.313Z" fill="#E6E6E6"/>
<path d="M368.12 325.783H292.052V325.986H368.12V325.783Z" fill="#E6E6E6"/>
<path d="M192.444 274.294H35.6549C34.4266 274.291 33.2494 273.802 32.3816 272.933C31.5139 272.063 31.0265 270.885 31.0265 269.657V49.256C31.0372 48.0347 31.5293 46.867 32.3959 46.0065C33.2625 45.146 34.4336 44.6621 35.6549 44.66H192.444C193.674 44.66 194.853 45.1485 195.723 46.018C196.592 46.8876 197.081 48.0669 197.081 49.2966V269.657C197.081 270.887 196.592 272.066 195.723 272.936C194.853 273.805 193.674 274.294 192.444 274.294ZM35.6549 44.8224C34.4805 44.8246 33.3549 45.2926 32.5252 46.1238C31.6955 46.9551 31.2295 48.0815 31.2295 49.256V269.657C31.2295 270.832 31.6955 271.958 32.5252 272.789C33.3549 273.62 34.4805 274.088 35.6549 274.091H192.444C193.619 274.088 194.746 273.621 195.577 272.79C196.408 271.959 196.875 270.832 196.878 269.657V49.256C196.875 48.0808 196.408 46.9543 195.577 46.1234C194.746 45.2924 193.619 44.8246 192.444 44.8224H35.6549Z" fill="#E6E6E6"/>
<path d="M368.088 274.294H211.291C210.062 274.291 208.883 273.802 208.014 272.933C207.145 272.064 206.656 270.886 206.654 269.657V49.256C206.667 48.034 207.161 46.8663 208.029 46.006C208.897 45.1457 210.069 44.6621 211.291 44.66H368.088C369.308 44.6643 370.477 45.1491 371.342 46.0094C372.206 46.8697 372.697 48.0361 372.708 49.256V269.657C372.708 270.884 372.222 272.061 371.356 272.93C370.49 273.799 369.315 274.289 368.088 274.294ZM211.291 44.8224C210.115 44.8246 208.989 45.2924 208.158 46.1234C207.327 46.9543 206.859 48.0808 206.857 49.256V269.657C206.859 270.832 207.327 271.959 208.158 272.79C208.989 273.621 210.115 274.088 211.291 274.091H368.088C369.263 274.088 370.389 273.621 371.22 272.79C372.051 271.959 372.519 270.832 372.521 269.657V49.256C372.519 48.0808 372.051 46.9543 371.22 46.1234C370.389 45.2924 369.263 44.8246 368.088 44.8224H211.291Z" fill="#E6E6E6"/>
<path d="M217.129 241.148H199.273V311.979H217.129V241.148Z" fill="#E0E0E0"/>
<path d="M213.735 311.979H217.129V302.332H210.178L213.735 311.979Z" fill="#FAFAFA"/>
<path d="M138.884 241.148H121.029V311.979H138.884V241.148Z" fill="#E0E0E0"/>
<path d="M217.129 241.148H135.929V306.059H217.129V241.148Z" fill="#FAFAFA"/>
<path d="M214.181 244.339V261.513H138.852V244.339H214.157M214.474 244.022H138.56V261.821H214.498V244.022H214.474Z" fill="#E0E0E0"/>
<path d="M139.315 311.979H135.929V302.332H142.871L139.315 311.979Z" fill="#FAFAFA"/>
<path d="M174.734 252.922C174.734 253.277 174.839 253.624 175.037 253.919C175.234 254.214 175.514 254.444 175.842 254.58C176.17 254.715 176.531 254.751 176.879 254.682C177.227 254.613 177.547 254.442 177.798 254.191C178.049 253.94 178.22 253.62 178.289 253.272C178.358 252.924 178.323 252.563 178.187 252.235C178.051 251.907 177.821 251.627 177.526 251.43C177.231 251.232 176.884 251.127 176.529 251.127C176.053 251.127 175.596 251.316 175.26 251.653C174.923 251.989 174.734 252.446 174.734 252.922Z" fill="#E6E6E6"/>
<path d="M214.181 265.012V282.186H138.852V265.012H214.157M214.474 264.704H138.56V282.503H214.498V264.712L214.474 264.704Z" fill="#E0E0E0"/>
<path d="M174.734 273.644C174.734 273.999 174.839 274.346 175.037 274.641C175.234 274.936 175.514 275.166 175.842 275.302C176.17 275.438 176.531 275.473 176.879 275.404C177.227 275.335 177.547 275.164 177.798 274.913C178.049 274.662 178.22 274.342 178.289 273.994C178.358 273.646 178.323 273.285 178.187 272.957C178.051 272.629 177.821 272.349 177.526 272.152C177.231 271.955 176.884 271.849 176.529 271.849C176.053 271.849 175.596 272.039 175.26 272.375C174.923 272.712 174.734 273.168 174.734 273.644Z" fill="#E6E6E6"/>
<path d="M214.181 285.694V302.876H138.852V285.694H214.157M214.474 285.377H138.56V303.185H214.498V285.377H214.474Z" fill="#E0E0E0"/>
<path d="M174.734 294.285C174.736 294.64 174.842 294.986 175.041 295.28C175.239 295.574 175.52 295.803 175.848 295.937C176.176 296.072 176.536 296.106 176.884 296.036C177.231 295.966 177.55 295.794 177.801 295.543C178.051 295.292 178.221 294.972 178.289 294.624C178.358 294.276 178.322 293.916 178.186 293.588C178.05 293.261 177.82 292.981 177.525 292.784C177.23 292.587 176.883 292.482 176.529 292.482C176.292 292.482 176.058 292.529 175.84 292.62C175.622 292.71 175.424 292.843 175.257 293.011C175.09 293.178 174.958 293.377 174.869 293.596C174.779 293.814 174.733 294.049 174.734 294.285Z" fill="#E6E6E6"/>
<path d="M127.979 200.012H110.123V311.987H127.979V200.012Z" fill="#E0E0E0"/>
<path d="M124.585 311.979H127.979V302.332H121.037L124.585 311.979Z" fill="#FAFAFA"/>
<path d="M61.2492 200.012H43.3933V311.987H61.2492V200.012Z" fill="#E0E0E0"/>
<path d="M127.979 200.012H58.2854V306.067H127.979V200.012Z" fill="#FAFAFA"/>
<path d="M124.975 203V227.011H61.2898V203H124.975ZM125.348 202.635H60.9V227.36H125.332V202.643L125.348 202.635Z" fill="#E0E0E0"/>
<path d="M124.975 229.942V293.627H94.6386V229.942H124.975ZM125.348 229.569H94.2732V294.001H125.348V229.569Z" fill="#E0E0E0"/>
<path d="M91.6261 229.942V293.627H61.2898V229.942H91.6261ZM91.9915 229.569H60.9V294.001H91.9753V229.569H91.9915Z" fill="#E0E0E0"/>
<path d="M61.6796 311.979H58.2854V302.332H65.2361L61.6796 311.979Z" fill="#FAFAFA"/>
<path d="M91.3338 215.018C91.3322 215.375 91.4365 215.724 91.6336 216.021C91.8307 216.319 92.1117 216.551 92.4409 216.689C92.7702 216.827 93.1329 216.863 93.4831 216.795C93.8333 216.726 94.1552 216.555 94.4082 216.303C94.6611 216.052 94.8336 215.73 94.9038 215.38C94.974 215.031 94.9388 214.668 94.8026 214.338C94.6664 214.008 94.4353 213.726 94.1387 213.528C93.8421 213.329 93.4933 213.223 93.1364 213.223C92.6597 213.223 92.2024 213.412 91.8646 213.748C91.5268 214.085 91.3359 214.541 91.3338 215.018Z" fill="#E6E6E6"/>
<path d="M97.7648 260.27C97.7648 260.627 97.8707 260.976 98.0692 261.273C98.2676 261.569 98.5496 261.8 98.8795 261.937C99.2093 262.073 99.5722 262.108 99.9221 262.038C100.272 261.968 100.593 261.795 100.845 261.542C101.097 261.289 101.268 260.967 101.336 260.617C101.405 260.267 101.368 259.904 101.231 259.575C101.093 259.246 100.861 258.965 100.563 258.768C100.265 258.571 99.9162 258.466 99.5593 258.468C99.323 258.468 99.0889 258.514 98.8707 258.605C98.6524 258.696 98.4543 258.829 98.2875 258.996C98.1208 259.164 97.9888 259.363 97.899 259.581C97.8093 259.8 97.7637 260.034 97.7648 260.27Z" fill="#E6E6E6"/>
<path d="M84.9108 260.27C84.9124 260.625 85.019 260.971 85.2172 261.265C85.4153 261.559 85.6961 261.788 86.0242 261.923C86.3522 262.057 86.7128 262.091 87.0603 262.021C87.4079 261.951 87.7269 261.78 87.9771 261.528C88.2272 261.277 88.3973 260.957 88.4659 260.609C88.5345 260.262 88.4985 259.901 88.3624 259.574C88.2264 259.246 87.9964 258.966 87.7014 258.77C87.4065 258.573 87.0599 258.468 86.7053 258.468C86.469 258.468 86.2349 258.514 86.0167 258.605C85.7984 258.696 85.6002 258.829 85.4335 258.996C85.2668 259.164 85.1347 259.363 85.045 259.581C84.9553 259.8 84.9097 260.034 84.9108 260.27Z" fill="#E6E6E6"/>
<path d="M82.8808 168.791H75.3536C76.0473 172.442 76.4841 176.137 76.6609 179.85C76.6609 183.91 70.9282 200.012 79.0969 200.012C87.2656 200.012 81.5329 183.951 81.5329 179.85C81.7231 176.137 82.1735 172.441 82.8808 168.791Z" fill="#E0E0E0"/>
<path d="M54.2416 185.258V190.13C54.2501 192.742 55.2915 195.244 57.1383 197.091C58.9851 198.938 61.4875 199.979 64.0993 199.987H68.9713C71.583 199.979 74.0854 198.938 75.9322 197.091C77.779 195.244 78.8204 192.742 78.8289 190.13V185.258H54.2416Z" fill="#F5F5F5"/>
<path d="M158.884 230.819C158.884 236.503 165.242 241.148 173.013 241.148H180.029C187.799 241.148 194.157 236.503 194.157 230.819H158.884Z" fill="#E0E0E0"/>
<path d="M344.783 222.488C340.528 225.963 334.65 232.321 329.274 241.27C325.685 247.23 323.525 253.45 322.575 261.716C322.575 252.378 322.632 242.35 322.664 232.882C323.744 230.446 326.213 224.827 327.983 220.393C333.886 205.59 336.103 201.944 341.405 189.18C348.494 172.128 355.753 151.941 353.675 153.557C349.436 156.846 333.196 187.255 331.442 191.608C326.661 203.223 323.706 215.507 322.681 228.026C322.681 219.094 322.746 210.974 322.778 204.673C322.892 184.121 323.241 177.487 323.411 175.441C324.069 174.401 324.841 173.192 325.295 172.542C329.112 167.02 330.581 162.327 334.17 154.093C339.27 142.441 343.655 121.743 342.372 122.783C337.029 127.135 332.822 136.473 327.285 148.385C321.747 160.297 323.33 167.142 322.234 177.308C322.007 179.306 321.828 186.841 321.698 197.275C320.269 186.151 317.573 178.827 312.661 172.168C306.619 163.975 300.773 158.446 296.486 155.555C292.198 152.664 303.891 172.786 309.478 181.539C314.455 189.367 319.043 196.26 321.658 203.057C321.519 217.21 321.455 235.123 321.455 251.777C320.172 244.193 318.077 236.016 315.283 229.69C311.922 222.09 306.757 210.43 302.64 206.475C301.658 205.525 306.944 228.205 310.338 234.23C313.732 240.255 316.225 245.947 318.361 249.365C318.856 250.177 320.513 253.238 321.455 255.009C321.455 275.365 321.568 293.327 321.747 299.441H322.624C322.567 297.866 322.551 287.505 322.575 273.798C324.694 266.36 329.534 257.867 333.529 250.12C337.881 241.732 349.038 219.037 344.783 222.488Z" fill="#E0E0E0"/>
<path d="M334.901 311.979H309.453L307.529 287.034H336.826L334.901 311.979Z" fill="#F0F0F0"/>
<path d="M338.718 289.941H305.629L304.687 281.521H339.668L338.718 289.941Z" fill="#F5F5F5"/>
<path d="M100.899 61.306H55.3865V111.285H100.899V61.306Z" fill="#E0E0E0"/>
<path d="M105.828 61.306H58.8131V111.285H105.828V61.306Z" fill="#F5F5F5"/>
<path d="M101.89 107.346V65.2443H62.7514V107.346H101.89Z" fill="white"/>
<path d="M92.3975 97.1315V75.443H72.2355V97.1315H92.3975Z" fill="#F5F5F5"/>
<path d="M332.961 67.1281H290.68V113.558H332.961V67.1281Z" fill="#E0E0E0"/>
<path d="M337.54 67.1281H293.871V113.558H337.54V67.1281Z" fill="#F5F5F5"/>
<path d="M333.886 109.896V70.7902H297.533V109.896H333.886Z" fill="white"/>
<path d="M315.706 101.687C321.97 101.687 327.049 96.6081 327.049 90.3432C327.049 84.0782 321.97 78.9995 315.706 78.9995C309.441 78.9995 304.362 84.0782 304.362 90.3432C304.362 96.6081 309.441 101.687 315.706 101.687Z" fill="#F5F5F5"/>
<path d="M148.182 91.1064H114.419V128.182H148.182V91.1064Z" fill="#E0E0E0"/>
<path d="M151.836 91.1064H116.96V128.182H151.836V91.1064Z" fill="#F5F5F5"/>
<path d="M148.913 125.259V94.0297H119.884V125.259H148.913Z" fill="white"/>
<path d="M134.402 101.744L126.461 115.499H142.344L134.402 101.744Z" fill="#F5F5F5"/>
<path d="M203 347.179C289.951 347.179 360.439 343.063 360.439 337.987C360.439 332.91 289.951 328.795 203 328.795C116.049 328.795 45.5613 332.91 45.5613 337.987C45.5613 343.063 116.049 347.179 203 347.179Z" fill="#F5F5F5"/>
<path d="M283.591 132.705L275.536 129.457C275.536 129.457 264.907 148.84 261.862 149.822C257.721 151.154 249.146 154.857 244.063 155.506C243.373 156.318 242.244 158.843 242.349 159.761C249.178 162.043 264.184 159.014 267.4 156.627C274.716 151.211 283.591 132.705 283.591 132.705Z" fill="#E58A7B"/>
<path d="M286.068 128.296C287.57 133.842 279.434 144.999 279.434 144.999L268.772 139.023C268.772 139.023 270.769 134.435 273.205 129.766C277.111 122.222 284.354 121.971 286.068 128.296Z" fill="#269D89"/>
<path opacity="0.2" d="M286.068 128.296C287.57 133.842 279.434 144.999 279.434 144.999L268.772 139.023C268.772 139.023 270.769 134.435 273.205 129.766C277.111 122.222 284.354 121.971 286.068 128.296Z" fill="black"/>
<path opacity="0.2" d="M273.002 141.41L277.2 143.765L277.939 130.878C275.495 132.754 273.774 138.405 273.002 141.41Z" fill="black"/>
<path d="M279.052 124.122C279.052 124.122 270.753 142.587 275.593 176.967H308.292C308.812 171.949 307.09 147.459 313.318 123.814C309.731 123.113 306.102 122.649 302.454 122.425C297.827 122.157 293.188 122.157 288.56 122.425C285.353 122.751 282.174 123.318 279.052 124.122Z" fill="#269D89"/>
<path opacity="0.2" d="M279.052 124.122C279.052 124.122 270.753 142.587 275.593 176.967H308.292C308.812 171.949 307.09 147.459 313.318 123.814C309.731 123.113 306.102 122.649 302.454 122.425C297.827 122.157 293.188 122.157 288.56 122.425C285.353 122.751 282.174 123.318 279.052 124.122Z" fill="black"/>
<g style="mix-blend-mode:multiply">
<path d="M271.468 338.718C271.419 339.595 283.818 340.301 299.157 340.301C314.496 340.301 326.984 339.595 327.033 338.718C327.082 337.841 314.691 337.142 299.344 337.142C283.997 337.142 271.525 337.849 271.468 338.718Z" fill="#E8ECF1"/>
</g>
<path d="M293.295 315.675L287.495 317.92L292.491 330.826L298.291 328.581L293.295 315.675Z" fill="#E58A7B"/>
<path d="M319.156 332.473H313.042L310.801 318.32H316.915L319.156 332.473Z" fill="#E58A7B"/>
<path d="M312.62 331.767H319.49C319.609 331.767 319.724 331.81 319.815 331.887C319.905 331.964 319.966 332.071 319.985 332.189L320.87 337.621C320.889 337.758 320.878 337.896 320.838 338.028C320.798 338.16 320.731 338.281 320.64 338.385C320.549 338.488 320.437 338.57 320.311 338.626C320.186 338.682 320.049 338.711 319.912 338.709C317.516 338.669 316.363 338.523 313.343 338.523C311.483 338.523 307.659 338.718 305.077 338.718C302.494 338.718 302.324 336.184 303.388 335.949C308.162 334.917 310.013 333.513 311.605 332.148C311.886 331.902 312.246 331.766 312.62 331.767Z" fill="#263238"/>
<path d="M292.32 329.672L298.816 327.772C298.932 327.739 299.056 327.747 299.166 327.794C299.277 327.842 299.368 327.925 299.425 328.032L301.861 332.904C301.918 333.027 301.946 333.162 301.946 333.298C301.945 333.434 301.914 333.568 301.856 333.691C301.798 333.814 301.714 333.922 301.61 334.01C301.506 334.097 301.383 334.16 301.252 334.195C298.889 334.844 297.306 335.242 294.35 336.103C292.312 336.696 290.233 337.662 288.219 338.304C286.823 338.75 283.542 338.766 281.845 338.766C279.336 338.766 278.776 336.119 279.856 335.997C282.576 335.697 282.941 335.835 284.444 335.08C286.902 334.005 289.129 332.467 291.005 330.549C291.358 330.146 291.812 329.843 292.32 329.672Z" fill="#263238"/>
<path d="M245.086 155.474L238.363 152.656L235.594 160.11C238.349 160.53 241.153 160.53 243.908 160.11L245.086 155.474Z" fill="#E58A7B"/>
<path d="M233.361 152.461L233.182 157.414L235.594 160.094L238.363 152.64L233.361 152.461Z" fill="#E58A7B"/>
<path d="M294.09 316.771L288.273 319.017L290.849 325.691L296.667 323.445L294.09 316.771Z" fill="#CF6F64"/>
<path d="M316.915 318.32H310.801L311.962 325.62H318.077L316.915 318.32Z" fill="#CF6F64"/>
<path opacity="0.2" d="M274.553 167.67C274.675 169.14 274.813 170.642 274.992 172.185L299.303 164.292C303.1 163.167 306.399 160.781 308.657 157.528C308.755 155.36 308.877 153.078 309.063 150.699C309.145 149.546 309.242 148.36 309.348 147.159C309.453 145.957 309.599 144.625 309.754 143.342L274.553 167.67Z" fill="black"/>
<path d="M282.495 141.036L281.683 140.939C282.162 136.879 285.191 133.679 288.382 133.761V134.573C285.588 134.516 282.925 137.398 282.495 141.036Z" fill="white"/>
<path d="M286.823 148.531H286.685V147.719C289.478 147.824 292.101 144.909 292.531 141.28L293.343 141.377C292.913 145.348 289.981 148.531 286.823 148.531Z" fill="white"/>
<path d="M301.999 106.778C300.854 111.252 299.506 119.445 302.454 122.425C302.454 122.425 300.391 126.964 292.084 126.964C284.492 126.964 288.56 122.425 288.56 122.425C293.611 121.24 293.7 117.553 293.035 114.062L301.999 106.778Z" fill="#E58A7B"/>
<path d="M298.345 109.75L293.043 114.062C293.207 114.864 293.302 115.679 293.327 116.498C294.878 118.04 297.988 114.135 298.304 112.137C298.465 111.351 298.479 110.541 298.345 109.75Z" fill="#CF6F64"/>
<path d="M283.924 106.721C284.293 107.361 284.79 107.917 285.383 108.356C285.977 108.795 286.655 109.106 287.375 109.271C289.324 109.701 290.298 107.907 289.762 106.104C289.283 104.48 287.683 102.296 285.702 102.669C285.278 102.757 284.88 102.945 284.544 103.217C284.207 103.49 283.94 103.839 283.766 104.236C283.592 104.632 283.515 105.065 283.543 105.498C283.57 105.93 283.701 106.35 283.924 106.721Z" fill="#CF6F64"/>
<path d="M287.148 92.4055C284.111 93.794 283.039 105.86 286.855 107.647C290.672 109.433 292.896 89.7665 287.148 92.4055Z" fill="#263238"/>
<path d="M302.925 100.047C302.194 106.104 302.113 109.669 298.865 112.771C297.858 113.8 296.587 114.531 295.191 114.883C293.795 115.236 292.329 115.195 290.955 114.767C289.58 114.338 288.351 113.539 287.403 112.455C286.454 111.372 285.824 110.048 285.58 108.629C284.598 103.189 285.954 94.2001 292.028 91.7885C293.304 91.2256 294.707 91.0143 296.093 91.1765C297.478 91.3386 298.795 91.8684 299.906 92.7108C301.018 93.5532 301.884 94.6777 302.415 95.9675C302.945 97.2574 303.122 98.6657 302.925 100.047Z" fill="#E58A7B"/>
<path d="M292.945 95.5399C297.444 94.3949 300.749 93.6154 299.563 97.3587C297.996 102.361 296.112 107.2 298.637 107.419C300.18 107.557 307.001 104.667 306.132 101.735C305.377 99.1857 308.568 98.4874 309.136 97.1963C311.24 92.5192 305.223 93.1363 306.294 90.2943C307.366 87.4523 301.422 82.8727 298.174 85.1544C292.888 88.8409 283.818 88.784 288.585 82.7184C292.003 78.3904 285.905 79.2755 285.905 79.2755C285.905 79.2755 289.592 81.4598 283.388 84.8377C276.827 88.443 282.844 98.1301 292.945 95.5399Z" fill="#263238"/>
<path d="M305.312 106.721C304.424 108.006 303.09 108.915 301.569 109.271C299.563 109.701 298.792 107.907 299.547 106.104C300.221 104.48 302.072 102.296 303.988 102.669C305.905 103.043 306.343 105.13 305.312 106.721Z" fill="#E58A7B"/>
<path d="M275.593 176.967C275.593 176.967 270.104 226.093 269.673 244.737C269.235 264.127 288.276 324.629 288.276 324.629L298.02 320.569C298.02 320.569 286.652 265.289 288.276 246.247C289.998 225.484 297.111 177 297.111 177L275.593 176.967Z" fill="#269D89"/>
<path opacity="0.2" d="M289.234 190.455C284.858 199.533 287.805 217.486 290.176 228.123C291.078 220.612 292.149 212.46 293.164 204.916C293.067 193.321 292.166 184.365 289.234 190.455Z" fill="black"/>
<path d="M297.59 317.354C297.639 317.354 298.743 320.456 298.743 320.456L287.505 325.182L285.735 321.885L297.59 317.354Z" fill="#269D89"/>
<path d="M287.196 176.967C287.196 176.967 291.394 223.69 294.171 241.188C297.224 260.36 309.193 324.207 309.193 324.207H320.391C320.391 324.207 313.684 261.911 312.417 242.926C311.037 222.334 308.292 176.967 308.292 176.967H287.196Z" fill="#269D89"/>
<path d="M320.561 321.292C320.61 321.292 320.935 324.418 320.935 324.418H308.625L307.748 320.829L320.561 321.292Z" fill="#269D89"/>
<path opacity="0.2" d="M316.274 317.589C316.249 317.59 316.224 317.581 316.205 317.564C316.185 317.548 316.172 317.525 316.168 317.5C316.103 316.932 310.054 260.66 308.917 243.608C307.683 225.111 305.198 184.08 305.174 183.666C305.173 183.653 305.174 183.639 305.179 183.626C305.183 183.614 305.19 183.602 305.199 183.592C305.209 183.582 305.22 183.574 305.232 183.569C305.244 183.563 305.258 183.561 305.271 183.561C305.298 183.561 305.324 183.571 305.343 183.589C305.363 183.607 305.375 183.632 305.377 183.658C305.377 184.072 307.886 225.07 309.12 243.6C310.257 260.652 316.306 316.883 316.363 317.492C316.366 317.505 316.365 317.519 316.362 317.532C316.358 317.546 316.352 317.558 316.344 317.569C316.335 317.579 316.325 317.588 316.313 317.595C316.301 317.601 316.288 317.605 316.274 317.606V317.589Z" fill="black"/>
<path d="M293.635 101.735C293.635 102.231 293.327 102.629 293.002 102.629C292.677 102.629 292.442 102.231 292.474 101.735C292.507 101.24 292.783 100.842 293.108 100.842C293.432 100.842 293.668 101.248 293.635 101.735Z" fill="#263238"/>
<path d="M288.065 101.735C288.065 102.231 287.748 102.629 287.432 102.629C287.115 102.629 286.871 102.231 286.896 101.735C286.92 101.24 287.213 100.842 287.537 100.842C287.862 100.842 288.098 101.248 288.065 101.735Z" fill="#263238"/>
<path d="M289.819 101.987C289.141 103.5 288.268 104.917 287.221 106.201C288.033 107.013 289.551 106.64 289.551 106.64L289.819 101.987Z" fill="#DF5753"/>
<path d="M289.965 108.71C289.946 108.711 289.928 108.707 289.91 108.699C289.893 108.692 289.878 108.681 289.865 108.667C289.852 108.654 289.842 108.637 289.835 108.62C289.829 108.602 289.826 108.583 289.827 108.564C289.829 108.525 289.846 108.488 289.875 108.46C289.904 108.433 289.942 108.418 289.981 108.418C290.602 108.422 291.217 108.288 291.779 108.023C292.341 107.759 292.836 107.372 293.229 106.892C293.258 106.867 293.294 106.854 293.331 106.854C293.368 106.854 293.404 106.867 293.432 106.892C293.459 106.919 293.473 106.955 293.473 106.993C293.473 107.031 293.459 107.067 293.432 107.095C293.012 107.606 292.482 108.016 291.882 108.296C291.282 108.575 290.627 108.717 289.965 108.71Z" fill="#263238"/>
<path d="M294.626 100.241C294.587 100.261 294.544 100.272 294.5 100.272C294.456 100.272 294.413 100.261 294.374 100.241C294.07 100.045 293.725 99.9229 293.365 99.8848C293.005 99.8467 292.642 99.8937 292.304 100.022C292.271 100.039 292.235 100.048 292.198 100.051C292.161 100.053 292.124 100.048 292.089 100.036C292.055 100.024 292.023 100.005 291.995 99.9802C291.968 99.9555 291.946 99.9256 291.93 99.8922C291.9 99.82 291.899 99.7388 291.928 99.666C291.957 99.5932 292.013 99.5345 292.084 99.5025C292.509 99.3291 292.969 99.2607 293.426 99.3031C293.882 99.3455 294.322 99.4975 294.707 99.7461C294.738 99.7672 294.765 99.7944 294.785 99.8259C294.806 99.8574 294.82 99.8927 294.827 99.9297C294.834 99.9667 294.833 100.005 294.825 100.042C294.817 100.078 294.802 100.113 294.78 100.144C294.739 100.191 294.686 100.224 294.626 100.241Z" fill="#263238"/>
<path d="M285.913 98.6174C285.87 98.6069 285.831 98.5844 285.8 98.5524C285.773 98.526 285.751 98.4944 285.737 98.4595C285.722 98.4247 285.714 98.3872 285.714 98.3494C285.714 98.3116 285.722 98.2742 285.737 98.2393C285.751 98.2045 285.773 98.1729 285.8 98.1464C286.111 97.7974 286.498 97.5249 286.932 97.3502C287.366 97.1756 287.834 97.1035 288.301 97.1395C288.338 97.1453 288.374 97.1587 288.406 97.1788C288.438 97.199 288.465 97.2255 288.487 97.2567C288.508 97.2879 288.522 97.3232 288.53 97.3603C288.537 97.3974 288.536 97.4356 288.528 97.4725C288.511 97.5476 288.466 97.6139 288.404 97.6587C288.341 97.7036 288.264 97.724 288.187 97.7161C287.818 97.6928 287.449 97.7538 287.107 97.8945C286.765 98.0352 286.459 98.2519 286.214 98.5281C286.177 98.5692 286.129 98.5992 286.076 98.615C286.023 98.6308 285.967 98.6316 285.913 98.6174Z" fill="#263238"/>
<path d="M316.461 131.804L308.016 129.555C308.016 129.555 299.734 149.944 296.802 151.267C292.823 153.086 282.747 159.387 278.459 162.367C278.224 163.382 278.41 166.07 278.946 166.809C286.254 165.477 300.245 160.094 303.168 157.357C309.835 151.113 316.461 131.804 316.461 131.804Z" fill="#E58A7B"/>
<path d="M310.566 332.839C310.154 332.871 309.743 332.759 309.404 332.522C309.3 332.428 309.222 332.308 309.178 332.174C309.133 332.04 309.125 331.897 309.153 331.759C309.158 331.673 309.186 331.589 309.235 331.518C309.283 331.446 309.35 331.389 309.429 331.353C310.111 331.004 312.019 332.213 312.238 332.352C312.262 332.366 312.281 332.389 312.291 332.415C312.302 332.441 312.303 332.47 312.295 332.498C312.288 332.526 312.274 332.552 312.254 332.573C312.234 332.595 312.209 332.611 312.182 332.62C311.652 332.75 311.111 332.823 310.566 332.839ZM309.754 331.572C309.692 331.558 309.628 331.558 309.567 331.572C309.536 331.588 309.51 331.612 309.493 331.643C309.475 331.673 309.467 331.708 309.469 331.743C309.448 331.837 309.451 331.936 309.48 332.028C309.508 332.121 309.561 332.204 309.632 332.27C309.949 332.555 310.744 332.587 311.792 332.384C311.168 331.973 310.466 331.697 309.729 331.572H309.754Z" fill="#269D89"/>
<path d="M312.141 332.619C312.12 332.626 312.097 332.626 312.076 332.619C311.467 332.278 310.322 330.939 310.492 330.257C310.518 330.148 310.579 330.052 310.666 329.983C310.753 329.914 310.86 329.876 310.972 329.875C311.081 329.86 311.191 329.869 311.296 329.902C311.402 329.934 311.498 329.989 311.581 330.062C312.254 330.638 312.295 332.408 312.295 332.498C312.299 332.524 312.294 332.552 312.281 332.575C312.268 332.599 312.247 332.617 312.222 332.628C312.195 332.633 312.166 332.63 312.141 332.619ZM311.053 330.143H310.996C310.809 330.143 310.785 330.248 310.777 330.289C310.679 330.687 311.402 331.702 312.003 332.181C312 331.495 311.788 330.826 311.394 330.265C311.3 330.182 311.178 330.139 311.053 330.143Z" fill="#269D89"/>
<path d="M289.007 331.824C288.51 331.997 287.969 331.997 287.472 331.824C287.359 331.763 287.264 331.674 287.194 331.566C287.125 331.458 287.084 331.335 287.074 331.207C287.064 331.126 287.074 331.045 287.104 330.97C287.134 330.894 287.182 330.828 287.245 330.776C287.895 330.192 290.55 330.776 290.85 330.89C290.879 330.897 290.904 330.914 290.922 330.938C290.939 330.961 290.949 330.99 290.948 331.02C290.949 331.05 290.941 331.081 290.925 331.107C290.909 331.133 290.886 331.153 290.858 331.166C290.26 331.436 289.641 331.656 289.007 331.824ZM287.683 330.858C287.591 330.876 287.504 330.918 287.432 330.979C287.406 330.999 287.386 331.025 287.374 331.055C287.363 331.085 287.36 331.118 287.367 331.15C287.372 331.235 287.399 331.318 287.444 331.39C287.489 331.462 287.552 331.522 287.627 331.564C288.057 331.791 289.056 331.613 290.347 331.069C289.477 330.849 288.577 330.778 287.683 330.858Z" fill="#269D89"/>
<path d="M290.834 331.166H290.769C289.957 331.02 288.333 330.086 288.284 329.388C288.284 329.225 288.357 328.998 288.747 328.868C288.879 328.821 289.019 328.801 289.158 328.81C289.298 328.818 289.434 328.855 289.559 328.917C290.436 329.347 290.899 330.906 290.923 330.979C290.929 331.004 290.928 331.029 290.921 331.054C290.914 331.078 290.901 331.1 290.883 331.117C290.871 331.137 290.854 331.154 290.834 331.166ZM288.91 329.112H288.828C288.577 329.201 288.577 329.307 288.577 329.339C288.577 329.761 289.754 330.533 290.574 330.793C290.385 330.14 289.985 329.569 289.437 329.169C289.274 329.086 289.086 329.065 288.91 329.112Z" fill="#269D89"/>
<path d="M279.149 161.888L270.68 165.786L269.698 168.222L272.824 170.325C272.824 170.325 278.67 169.692 280.335 165.932L279.149 161.888Z" fill="#E58A7B"/>
<path d="M279.507 166.947C279.317 165.32 278.78 163.752 277.931 162.351L279.271 161.344C280.279 162.959 280.922 164.774 281.155 166.663L279.507 166.947Z" fill="#263238"/>
<path d="M280.952 163.041C281.131 163.323 281.219 163.653 281.204 163.986C281.189 164.32 281.071 164.64 280.868 164.905C280.664 165.169 280.384 165.364 280.065 165.463C279.746 165.562 279.405 165.561 279.087 165.46C278.769 165.358 278.49 165.161 278.288 164.895C278.087 164.63 277.971 164.308 277.959 163.975C277.946 163.641 278.036 163.312 278.217 163.032C278.398 162.751 278.661 162.534 278.971 162.408C279.318 162.231 279.721 162.199 280.092 162.317C280.463 162.436 280.772 162.696 280.952 163.041Z" fill="#263238"/>
<path d="M264.956 168.937L266.084 170.073L273.685 166.825L270.68 165.786L264.956 168.937Z" fill="#E58A7B"/>
<path opacity="0.2" d="M297.59 317.354C297.639 317.354 298.743 320.456 298.743 320.456L287.505 325.182L285.735 321.885L297.59 317.354Z" fill="black"/>
<path opacity="0.2" d="M320.561 321.292C320.61 321.292 320.935 324.418 320.935 324.418H308.625L307.748 320.829L320.561 321.292Z" fill="black"/>
<path d="M318.661 129.465C320.894 136.668 312.165 146.517 312.165 146.517L300.107 141.597C301.536 137.434 303.184 133.349 305.044 129.36C308.747 121.378 316.404 122.198 318.661 129.465Z" fill="#269D89"/>
<path opacity="0.2" d="M318.661 129.465C320.894 136.668 312.165 146.517 312.165 146.517L300.107 141.597C301.536 137.434 303.184 133.349 305.044 129.36C308.747 121.378 316.404 122.198 318.661 129.465Z" fill="black"/>
<path d="M198.843 57.3029H193.654V58.1392H198.843V57.3029Z" fill="#269D89"/>
<path d="M266.01 90.4053L265.382 104.341L266.217 104.379L266.845 90.4429L266.01 90.4053Z" fill="#269D89"/>
<path d="M264.395 61.0543H168.579L159.664 260.579H255.48L264.395 61.0543Z" fill="#269D89"/>
<path opacity="0.56" d="M261.537 63.7988H165.721L156.805 263.323H252.621L261.537 63.7988Z" fill="#FAFAFA"/>
<path opacity="0.07" d="M258.679 66.5353H162.863L153.939 266.06H249.755L258.679 66.5353Z" fill="#269D89"/>
<path d="M247.774 153.557H165.989L165.307 168.823H247.092L247.774 153.557Z" fill="white"/>
<path d="M210.966 142.417H166.484L166.184 149.246H210.665L210.966 142.417Z" fill="#269D89"/>
<path d="M245.93 194.758H164.146L163.464 210.024H245.248L245.93 194.758Z" fill="white"/>
<path opacity="0.47" d="M230.933 230.641H175.936L175.116 248.935H230.113L230.933 230.641Z" fill="#269D89"/>
<path d="M227.254 251.777H172.258C172.234 251.783 172.209 251.783 172.185 251.777C172.177 251.753 172.177 251.727 172.185 251.704L172.997 233.401C172.997 233.389 172.999 233.376 173.004 233.365C173.009 233.354 173.016 233.343 173.026 233.335C173.035 233.327 173.046 233.32 173.057 233.316C173.069 233.312 173.082 233.311 173.094 233.312H228.091C228.101 233.307 228.112 233.304 228.123 233.304C228.135 233.304 228.146 233.307 228.156 233.312C228.161 233.322 228.164 233.333 228.164 233.344C228.164 233.356 228.161 233.367 228.156 233.377L227.36 251.72C227.35 251.739 227.335 251.755 227.316 251.765C227.297 251.775 227.276 251.779 227.254 251.777ZM172.355 251.582H227.157L227.969 233.474H173.167L172.355 251.582Z" fill="white"/>
<path d="M201.36 183.618H164.641L164.341 190.455H201.051L201.36 183.618Z" fill="#269D89"/>
<path d="M229.885 104.245C229.675 108.687 228.095 112.956 225.362 116.465C223.339 119.116 220.736 121.267 217.752 122.755C214.768 124.243 211.482 125.027 208.148 125.048C205.454 125.069 202.783 124.537 200.302 123.487C197.821 122.436 195.581 120.889 193.72 118.94C191.859 116.991 190.417 114.682 189.483 112.154C188.548 109.627 188.141 106.935 188.287 104.245C188.572 98.6613 190.98 93.398 195.017 89.531C199.055 85.6641 204.417 83.4856 210.008 83.4412C212.704 83.416 215.377 83.9441 217.861 84.9927C220.346 86.0414 222.589 87.5884 224.452 89.5381C226.315 91.4877 227.758 93.7987 228.693 96.3282C229.627 98.8577 230.033 101.552 229.885 104.245Z" fill="white"/>
<path d="M231.842 87.7934C231.789 88.9747 231.369 90.1101 230.641 91.0414C230.101 91.7454 229.408 92.3169 228.615 92.7123C227.821 93.1078 226.948 93.3167 226.061 93.3231C225.202 93.3284 224.354 93.1231 223.593 92.7254C222.831 92.3277 222.179 91.7495 221.692 91.0414C221.048 90.0846 220.729 88.9457 220.783 87.7934C220.861 86.311 221.502 84.9144 222.575 83.8884C223.648 82.8624 225.072 82.2842 226.556 82.2718C227.272 82.2653 227.982 82.4055 228.642 82.6837C229.302 82.9619 229.898 83.3724 230.393 83.8897C230.888 84.407 231.272 85.0202 231.522 85.6916C231.771 86.363 231.88 87.0783 231.842 87.7934Z" fill="#269D89"/>
<path d="M174.799 161.19C174.76 161.844 174.475 162.46 174 162.912C173.525 163.364 172.897 163.619 172.241 163.626C171.925 163.63 171.611 163.569 171.319 163.446C171.027 163.324 170.764 163.143 170.544 162.915C170.325 162.686 170.155 162.416 170.045 162.119C169.935 161.822 169.886 161.506 169.903 161.19C169.938 160.534 170.223 159.917 170.698 159.464C171.173 159.011 171.804 158.757 172.461 158.754C172.777 158.752 173.09 158.814 173.381 158.936C173.673 159.059 173.936 159.24 174.155 159.468C174.374 159.696 174.544 159.967 174.655 160.263C174.766 160.559 174.815 160.874 174.799 161.19Z" fill="#263238"/>
<path d="M185.745 161.19C185.708 161.845 185.423 162.461 184.948 162.914C184.473 163.366 183.843 163.621 183.187 163.626C182.871 163.629 182.558 163.567 182.267 163.444C181.977 163.321 181.714 163.14 181.496 162.912C181.277 162.684 181.108 162.413 180.998 162.117C180.888 161.821 180.84 161.505 180.857 161.19C180.892 160.536 181.175 159.92 181.649 159.467C182.123 159.014 182.751 158.759 183.406 158.754C183.723 158.75 184.037 158.811 184.329 158.934C184.621 159.056 184.884 159.237 185.103 159.465C185.323 159.694 185.493 159.965 185.603 160.261C185.713 160.558 185.762 160.874 185.745 161.19Z" fill="#263238"/>
<path d="M196.699 161.19C196.662 161.845 196.377 162.461 195.902 162.914C195.427 163.366 194.797 163.621 194.141 163.626C193.825 163.629 193.512 163.567 193.22 163.444C192.929 163.321 192.666 163.14 192.447 162.912C192.228 162.684 192.058 162.414 191.947 162.118C191.836 161.821 191.787 161.506 191.802 161.19C191.84 160.535 192.125 159.919 192.6 159.466C193.075 159.014 193.704 158.759 194.36 158.754C194.677 158.75 194.991 158.811 195.283 158.934C195.574 159.056 195.838 159.237 196.057 159.465C196.276 159.694 196.446 159.965 196.557 160.261C196.667 160.558 196.716 160.874 196.699 161.19Z" fill="#263238"/>
<path d="M172.956 202.391C172.917 203.045 172.631 203.661 172.157 204.113C171.682 204.565 171.054 204.82 170.398 204.827C170.082 204.83 169.769 204.768 169.477 204.645C169.186 204.522 168.923 204.341 168.704 204.113C168.485 203.885 168.315 203.615 168.204 203.319C168.093 203.022 168.044 202.707 168.06 202.391C168.097 201.736 168.382 201.12 168.857 200.667C169.332 200.215 169.961 199.96 170.617 199.955C170.934 199.952 171.247 200.014 171.538 200.137C171.83 200.26 172.093 200.441 172.312 200.669C172.531 200.897 172.701 201.167 172.812 201.464C172.922 201.76 172.972 202.075 172.956 202.391Z" fill="#263238"/>
<path d="M183.902 202.391C183.865 203.045 183.581 203.66 183.107 204.112C182.634 204.564 182.007 204.82 181.352 204.827C181.036 204.831 180.722 204.77 180.43 204.647C180.138 204.525 179.874 204.344 179.655 204.116C179.436 203.887 179.266 203.616 179.155 203.32C179.045 203.023 178.997 202.707 179.013 202.391C179.051 201.736 179.336 201.12 179.811 200.667C180.286 200.215 180.915 199.96 181.571 199.955C181.887 199.952 182.2 200.014 182.491 200.137C182.782 200.26 183.045 200.441 183.263 200.669C183.481 200.898 183.651 201.168 183.76 201.464C183.87 201.76 183.918 202.076 183.902 202.391Z" fill="#263238"/>
<path d="M194.88 202.391C194.843 203.046 194.558 203.662 194.083 204.115C193.608 204.567 192.978 204.822 192.322 204.827C192.006 204.828 191.694 204.766 191.403 204.642C191.112 204.519 190.849 204.338 190.63 204.11C190.412 203.883 190.242 203.613 190.13 203.317C190.019 203.022 189.969 202.706 189.984 202.391C190.023 201.737 190.308 201.121 190.783 200.669C191.258 200.217 191.886 199.962 192.541 199.955C192.858 199.951 193.172 200.012 193.464 200.135C193.756 200.257 194.019 200.438 194.238 200.666C194.458 200.895 194.628 201.166 194.738 201.462C194.848 201.759 194.897 202.075 194.88 202.391Z" fill="#263238"/>
<path d="M205.81 202.391C205.771 203.045 205.485 203.661 205.01 204.113C204.536 204.565 203.907 204.82 203.252 204.827C202.936 204.828 202.623 204.766 202.332 204.643C202.042 204.519 201.779 204.338 201.56 204.111C201.341 203.883 201.171 203.613 201.06 203.317C200.949 203.022 200.899 202.707 200.913 202.391C200.952 201.737 201.238 201.122 201.712 200.669C202.187 200.217 202.816 199.962 203.471 199.955C203.787 199.952 204.1 200.014 204.392 200.137C204.683 200.26 204.946 200.441 205.165 200.669C205.384 200.897 205.554 201.167 205.665 201.464C205.776 201.76 205.825 202.075 205.81 202.391Z" fill="#263238"/>
<path d="M216.804 202.391C216.765 203.045 216.479 203.661 216.005 204.113C215.53 204.565 214.902 204.82 214.246 204.827C213.93 204.831 213.616 204.77 213.324 204.647C213.032 204.525 212.768 204.344 212.549 204.116C212.33 203.887 212.16 203.616 212.05 203.32C211.939 203.023 211.891 202.707 211.908 202.391C211.945 201.736 212.23 201.12 212.705 200.667C213.18 200.215 213.809 199.96 214.465 199.955C214.782 199.952 215.095 200.014 215.386 200.137C215.678 200.26 215.941 200.441 216.16 200.669C216.379 200.897 216.549 201.167 216.66 201.464C216.77 201.76 216.819 202.075 216.804 202.391Z" fill="#263238"/>
<path d="M215.142 103.161C218.541 99.8375 218.721 94.5102 215.545 91.2623C212.369 88.0143 207.039 88.0756 203.64 91.3992C200.241 94.7227 200.061 100.05 203.237 103.298C206.414 106.546 211.744 106.485 215.142 103.161Z" fill="#269D89"/>
<path d="M225.363 116.465C223.339 119.116 220.736 121.267 217.752 122.755C214.768 124.243 211.482 125.027 208.148 125.048C204.915 125.075 201.724 124.307 198.858 122.81C195.992 121.313 193.538 119.134 191.713 116.465C195.66 112.535 201.904 109.969 208.822 109.969C215.74 109.969 221.765 112.535 225.363 116.465Z" fill="#269D89"/>
<path opacity="0.1" d="M215.142 103.161C218.541 99.8375 218.721 94.5102 215.545 91.2623C212.369 88.0143 207.039 88.0756 203.64 91.3992C200.241 94.7227 200.061 100.05 203.237 103.298C206.414 106.546 211.744 106.485 215.142 103.161Z" fill="white"/>
<path opacity="0.1" d="M225.363 116.465C223.339 119.116 220.736 121.267 217.752 122.755C214.768 124.243 211.482 125.027 208.148 125.048C204.915 125.075 201.724 124.307 198.858 122.81C195.992 121.313 193.538 119.134 191.713 116.465C195.66 112.535 201.904 109.969 208.822 109.969C215.74 109.969 221.765 112.535 225.363 116.465Z" fill="white"/>
<path d="M105.893 172.501C105.122 174.19 104.31 176.05 103.603 177.852C102.897 179.655 102.174 181.514 101.549 183.366C100.272 187.014 99.2998 190.762 98.6418 194.571L98.4631 195.765C98.4461 195.97 98.4654 196.176 98.52 196.374C98.7116 197.047 99.0134 197.684 99.4132 198.258C100.456 199.744 101.666 201.107 103.018 202.318C104.445 203.645 105.941 204.894 107.501 206.061C109.06 207.263 110.7 208.432 112.316 209.537L110.797 212.387C106.939 210.706 103.277 208.606 99.876 206.126C98.0618 204.803 96.4245 203.253 95.004 201.514C94.162 200.479 93.5055 199.306 93.0633 198.047C92.8063 197.26 92.6747 196.438 92.6736 195.611C92.6736 195.416 92.6736 195.132 92.6736 194.994V194.596L92.7548 193.784C93.2203 189.553 94.1098 185.38 95.41 181.328C96.0434 179.33 96.7173 177.341 97.4887 175.4C98.2601 173.459 99.0559 171.559 100.038 169.586L105.893 172.501Z" fill="#E58A7B"/>
<path d="M111.171 209.033L116.912 206.126L115.426 212.427C115.426 212.427 111.488 213.532 109.661 211.615L111.171 209.033Z" fill="#E58A7B"/>
<path d="M122.165 207.157L120.639 212.371L115.426 212.427L116.912 206.126L122.165 207.157Z" fill="#E58A7B"/>
<path d="M130.269 142.1C130.576 143.225 131.004 144.314 131.544 145.348C131.386 145.527 131.183 145.66 130.956 145.733C130.728 145.806 130.485 145.816 130.253 145.762L130.269 142.1Z" fill="#DF5753"/>
<path d="M130.099 142.149C130.435 142.149 130.708 141.731 130.708 141.215C130.708 140.699 130.435 140.281 130.099 140.281C129.762 140.281 129.49 140.699 129.49 141.215C129.49 141.731 129.762 142.149 130.099 142.149Z" fill="#263238"/>
<path d="M129.92 140.314L131.154 139.964C131.154 139.964 130.553 140.923 129.92 140.314Z" fill="#263238"/>
<path d="M114.411 148.06C115.15 151.836 115.889 158.762 113.242 161.288C113.242 161.288 114.281 165.12 121.305 165.12C129.027 165.12 124.991 161.288 124.991 161.288C120.777 160.281 120.882 157.154 121.621 154.215L114.411 148.06Z" fill="#E58A7B"/>
<path d="M112.356 139.453C112.746 145.762 112.779 148.442 115.962 151.682C120.761 156.554 128.426 154.702 129.928 148.434C131.284 142.75 130.423 133.395 124.244 130.886C122.888 130.328 121.411 130.124 119.954 130.295C118.497 130.466 117.108 131.006 115.918 131.864C114.728 132.721 113.776 133.868 113.153 135.196C112.53 136.524 112.255 137.989 112.356 139.453Z" fill="#E58A7B"/>
<path d="M112.982 132.356C109.815 133.509 105.592 132.648 107.249 142.417C109.003 152.762 106.307 156.164 106.307 156.164C106.307 156.164 118.316 158.722 130.578 156.01C130.578 156.01 126.834 149.465 127.882 144.642C129.222 138.552 128.166 136.302 128.166 136.302C128.166 136.302 117.431 130.732 112.982 132.356Z" fill="#263238"/>
<path d="M126.38 142.741C126.383 143.941 126.726 145.115 127.37 146.127C128.231 147.443 129.246 146.939 129.498 145.543C129.725 144.317 129.555 142.149 128.458 141.304C127.362 140.46 126.396 141.288 126.38 142.741Z" fill="#E58A7B"/>
<path d="M110.229 133.42C109.32 130.862 113.656 126.924 122.831 128.548C132.007 130.172 132.405 137.813 132.405 137.813L130.553 135.604L130.635 137.926L121.207 139.737L110.229 133.42Z" fill="#263238"/>
<path d="M111.009 161.718C110.954 161.347 111.047 160.97 111.267 160.667C111.487 160.363 111.817 160.158 112.186 160.094C115.044 159.623 121.54 158.665 124.804 159.12C127.24 159.461 127.874 160.874 127.979 162.035C127.996 162.238 127.969 162.442 127.9 162.634C127.83 162.826 127.721 163.001 127.579 163.147C127.436 163.294 127.265 163.408 127.075 163.482C126.884 163.556 126.681 163.589 126.477 163.577L112.365 162.944C112.032 162.927 111.715 162.796 111.468 162.573C111.221 162.349 111.059 162.047 111.009 161.718Z" fill="#269D89"/>
<path opacity="0.6" d="M111.009 161.718C110.954 161.347 111.047 160.97 111.267 160.667C111.487 160.363 111.817 160.158 112.186 160.094C115.044 159.623 121.54 158.665 124.804 159.12C127.24 159.461 127.874 160.874 127.979 162.035C127.996 162.238 127.969 162.442 127.9 162.634C127.83 162.826 127.721 163.001 127.579 163.147C127.436 163.294 127.265 163.408 127.075 163.482C126.884 163.556 126.681 163.589 126.477 163.577L112.365 162.944C112.032 162.927 111.715 162.796 111.468 162.573C111.221 162.349 111.059 162.047 111.009 161.718Z" fill="black"/>
<path d="M119.169 303.574L124.406 307.212L133.168 295.333L127.931 291.703L119.169 303.574Z" fill="#E58A7B"/>
<path d="M106.957 303.339L112.486 306.489L120.241 293.928L114.711 290.777L106.957 303.339Z" fill="#E58A7B"/>
<path d="M133.16 295.333L128.645 301.455L123.408 297.825L127.922 291.703L133.16 295.333Z" fill="#CF6F64"/>
<path d="M114.703 290.777L120.241 293.936L116.246 300.408L110.708 297.249L114.703 290.777Z" fill="#CF6F64"/>
<path d="M123.586 201.376C123.586 201.376 144.033 227.141 140.192 251.785C137.098 271.687 119.153 298.637 119.153 298.637L110.716 294.447C116.663 282.532 121.738 270.2 125.901 257.55C127.184 253.623 127.559 249.455 126.996 245.362C126.434 241.268 124.948 237.356 122.653 233.921C112.291 218.793 95.6942 227.798 106.859 201.376H123.586Z" fill="#269D89"/>
<path opacity="0.6" d="M123.586 201.376C123.586 201.376 144.033 227.141 140.192 251.785C137.098 271.687 119.153 298.637 119.153 298.637L110.716 294.447C116.663 282.532 121.738 270.2 125.901 257.55C127.184 253.623 127.559 249.455 126.996 245.362C126.434 241.268 124.948 237.356 122.653 233.921C112.291 218.793 95.6942 227.798 106.859 201.376H123.586Z" fill="black"/>
<path opacity="0.4" d="M133.615 217.925L130.643 214.969C130.643 215.204 136.4 250.746 138.016 260.733C138.969 257.816 139.699 254.83 140.2 251.801C142.1 239.711 138.129 227.36 133.615 217.925Z" fill="black"/>
<path d="M132.713 201.376C132.713 201.376 157.333 233.759 158.031 253.173C158.608 269.413 131.235 300.878 131.235 300.878L123.278 295.73C123.278 295.73 139.299 273.384 143.334 255.13C141.775 237.039 108.808 201.376 108.808 201.376H132.713Z" fill="#269D89"/>
<path opacity="0.6" d="M132.713 201.376C132.713 201.376 157.333 233.759 158.031 253.173C158.608 269.413 131.235 300.878 131.235 300.878L123.278 295.73C123.278 295.73 139.299 273.384 143.334 255.13C141.775 237.039 108.808 201.376 108.808 201.376H132.713Z" fill="black"/>
<path d="M102.255 162.733C99.6243 163.358 97.099 172.924 97.099 172.924L107.387 179.793C107.387 179.793 110.814 172.225 109.612 168.912C108.37 165.461 105.56 161.945 102.255 162.733Z" fill="#269D89"/>
<path opacity="0.2" d="M104.269 168.896L103.554 177.235L107.379 179.801C108.435 177.424 109.217 174.934 109.709 172.379L104.269 168.896Z" fill="black"/>
<path d="M135.758 162.92C135.758 162.92 138.795 163.983 132.713 201.368H106.843C107.281 190.812 107.29 184.316 102.255 162.733C105.878 161.986 109.549 161.503 113.241 161.288C117.153 161.007 121.08 161.007 124.991 161.288C130.042 161.75 135.758 162.92 135.758 162.92Z" fill="#269D89"/>
<path d="M138.389 168.896C138.974 170.52 139.591 172.266 140.241 173.947C140.89 175.628 141.507 177.357 142.165 179.062L144.154 184.162L144.658 185.437L144.918 186.07L145.039 186.387C145.039 186.443 145.039 186.443 145.039 186.435C144.891 186.226 144.697 186.054 144.471 185.932C144.15 185.743 143.788 185.634 143.415 185.615C143.106 185.606 142.799 185.664 142.514 185.786C142.141 185.956 142.141 186.029 142.149 186.021C142.216 185.967 142.276 185.904 142.327 185.834C142.777 185.244 143.166 184.61 143.489 183.942C143.87 183.195 144.236 182.4 144.601 181.596C145.316 179.972 145.973 178.291 146.631 176.594C147.289 174.897 147.914 173.183 148.523 171.454L150.374 166.273L153.501 167.085C152.883 170.788 152.088 174.393 151.129 178.064C150.667 179.891 150.123 181.701 149.505 183.528C149.197 184.446 148.856 185.355 148.466 186.289C148.06 187.303 147.56 188.276 146.972 189.196C146.756 189.506 146.517 189.799 146.257 190.073C145.843 190.521 145.34 190.878 144.78 191.121C144.283 191.334 143.745 191.434 143.204 191.413C142.599 191.39 142.01 191.214 141.491 190.901C140.879 190.52 140.372 189.992 140.013 189.367C139.891 189.155 139.786 188.944 139.713 188.79L139.558 188.482L139.25 187.848L138.633 186.59C137.821 184.901 137.009 183.195 136.302 181.482C135.596 179.769 134.849 178.031 134.151 176.285C133.452 174.539 132.827 172.794 132.234 170.91L138.389 168.896Z" fill="#E58A7B"/>
<path d="M135.758 162.92C138.868 163.659 142.368 172.85 142.368 172.85L133.119 180.719C133.119 180.719 127.135 170.699 128.345 167.394C129.603 163.951 131.698 161.953 135.758 162.92Z" fill="#269D89"/>
<path d="M151.844 163.366L155.092 160.654L157.349 164.17L155.685 167.101C155.685 167.101 153.038 169.537 150.699 168.295C150.328 167.461 150.239 166.528 150.446 165.639C150.652 164.749 151.143 163.952 151.844 163.366Z" fill="#E58A7B"/>
<path d="M160.955 160.662L160.711 161.547L155.571 162.408L155.068 160.654L160.955 160.662Z" fill="#E58A7B"/>
<path d="M131.869 301.293L122.596 295.3L124.26 292.409L134.678 298.816L131.869 301.293Z" fill="#269D89"/>
<path d="M116.116 306.067C115.302 305.968 114.521 305.691 113.826 305.255C113.797 305.245 113.773 305.227 113.755 305.202C113.737 305.177 113.728 305.148 113.728 305.117C113.728 305.087 113.737 305.057 113.755 305.033C113.773 305.008 113.797 304.989 113.826 304.979C114.078 304.898 116.262 304.224 116.896 304.744C116.967 304.803 117.021 304.88 117.052 304.967C117.084 305.054 117.091 305.148 117.074 305.239C117.063 305.385 117.014 305.526 116.933 305.648C116.852 305.77 116.742 305.87 116.611 305.937C116.459 306.02 116.289 306.065 116.116 306.067ZM114.289 305.174C115.304 305.694 116.116 305.88 116.506 305.686C116.591 305.639 116.662 305.571 116.713 305.488C116.764 305.406 116.794 305.312 116.798 305.215C116.798 305.085 116.798 305.028 116.725 304.995C116.384 304.719 115.166 304.93 114.273 305.174H114.289Z" fill="#263238"/>
<path d="M113.883 305.312C113.84 305.311 113.799 305.294 113.769 305.263C113.757 305.241 113.751 305.216 113.751 305.19C113.751 305.165 113.757 305.14 113.769 305.117C113.769 305.044 114.297 303.282 115.125 302.884C115.231 302.836 115.346 302.811 115.462 302.811C115.579 302.811 115.693 302.836 115.799 302.884C115.913 302.92 116.012 302.993 116.08 303.092C116.147 303.19 116.18 303.309 116.173 303.428C116.116 304.159 114.63 305.166 113.948 305.336L113.883 305.312ZM115.458 303.095C115.379 303.098 115.302 303.117 115.231 303.152C114.727 303.396 114.313 304.346 114.11 304.922C114.825 304.622 115.807 303.826 115.84 303.379C115.84 303.306 115.84 303.217 115.653 303.136C115.592 303.103 115.526 303.081 115.458 303.071V303.095Z" fill="#263238"/>
<path d="M127.703 309.575C126.786 309.575 125.511 308.398 124.812 307.675C124.795 307.65 124.785 307.62 124.785 307.59C124.785 307.559 124.795 307.529 124.812 307.504C124.829 307.478 124.851 307.457 124.878 307.443C124.906 307.428 124.936 307.422 124.967 307.423C125.292 307.423 128.109 307.845 128.507 308.641C128.549 308.713 128.571 308.794 128.571 308.877C128.571 308.96 128.549 309.041 128.507 309.112C128.447 309.236 128.357 309.343 128.245 309.422C128.133 309.502 128.002 309.552 127.866 309.567L127.703 309.575ZM125.348 307.789C126.372 308.779 127.273 309.331 127.784 309.266C127.874 309.255 127.959 309.221 128.033 309.169C128.107 309.116 128.166 309.047 128.207 308.966C128.225 308.938 128.234 308.906 128.234 308.873C128.234 308.839 128.225 308.807 128.207 308.779C127.996 308.341 126.493 307.967 125.348 307.789Z" fill="#263238"/>
<path d="M125.438 307.748C125.256 307.753 125.073 307.74 124.894 307.707C124.869 307.704 124.845 307.693 124.825 307.678C124.805 307.662 124.79 307.642 124.78 307.618C124.768 307.594 124.762 307.568 124.762 307.541C124.762 307.514 124.768 307.488 124.78 307.464C124.829 307.407 125.925 306.083 126.964 305.994C127.259 305.971 127.55 306.065 127.776 306.254C128.093 306.53 128.077 306.774 127.996 306.928C127.793 307.48 126.388 307.748 125.438 307.748ZM125.227 307.448C126.136 307.496 127.59 307.196 127.776 306.798C127.776 306.798 127.841 306.668 127.63 306.489C127.546 306.416 127.448 306.361 127.342 306.328C127.236 306.294 127.124 306.283 127.013 306.295C126.313 306.49 125.689 306.895 125.227 307.456V307.448Z" fill="#263238"/>
<path d="M114.102 304.435L107.216 302.486C107.098 302.45 106.97 302.459 106.858 302.512C106.745 302.564 106.656 302.656 106.607 302.77L104.285 307.992C104.231 308.125 104.205 308.269 104.21 308.413C104.215 308.558 104.25 308.699 104.314 308.829C104.378 308.959 104.468 309.073 104.579 309.165C104.69 309.258 104.82 309.325 104.959 309.364C107.395 309.997 108.564 310.176 111.593 311.045C113.461 311.564 116.124 312.531 118.698 313.261C121.272 313.992 122.133 311.483 121.134 310.947C116.619 308.56 116.262 306.887 115.028 305.101C114.807 304.777 114.479 304.542 114.102 304.435Z" fill="#269D89"/>
<path d="M124.999 306.725L119.12 302.665C119.021 302.592 118.898 302.559 118.775 302.571C118.652 302.583 118.538 302.639 118.455 302.73L114.557 306.92C114.462 307.028 114.391 307.155 114.349 307.293C114.307 307.431 114.295 307.576 114.313 307.719C114.332 307.862 114.38 307.999 114.456 308.122C114.532 308.244 114.632 308.349 114.752 308.43C116.822 309.819 117.894 310.379 120.485 312.173C122.109 313.278 125.251 315.73 127.443 317.256C129.636 318.783 131.268 316.688 130.488 315.86C126.997 312.133 126.234 309.794 125.657 307.675C125.557 307.29 125.324 306.954 124.999 306.725Z" fill="#269D89"/>
<path d="M120.233 299.173L109.636 293.903L110.732 291.029L122.052 296.583L120.233 299.173Z" fill="#269D89"/>
<path d="M106.453 199.849L105.56 202.188C105.471 202.367 105.682 202.553 105.982 202.553H132.843C133.079 202.553 133.274 202.44 133.29 202.294L133.517 199.971C133.517 199.817 133.33 199.679 133.079 199.679H106.875C106.797 199.672 106.717 199.683 106.644 199.713C106.57 199.742 106.505 199.789 106.453 199.849Z" fill="#269D89"/>
<path opacity="0.4" d="M106.453 199.849L105.56 202.188C105.471 202.367 105.682 202.553 105.982 202.553H132.843C133.079 202.553 133.274 202.44 133.29 202.294L133.517 199.971C133.517 199.817 133.33 199.679 133.079 199.679H106.875C106.797 199.672 106.717 199.683 106.644 199.713C106.57 199.742 106.505 199.789 106.453 199.849Z" fill="white"/>
<path d="M110.684 202.781H109.977C109.839 202.781 109.734 202.708 109.742 202.618L110.075 199.606C110.075 199.525 110.205 199.452 110.343 199.452H111.049C111.187 199.452 111.293 199.525 111.285 199.606L110.952 202.618C110.944 202.708 110.822 202.781 110.684 202.781Z" fill="#269D89"/>
<path d="M127.249 202.781H126.55C126.412 202.781 126.307 202.708 126.315 202.618L126.64 199.606C126.64 199.525 126.778 199.452 126.916 199.452H127.614C127.752 199.452 127.866 199.525 127.849 199.606L127.525 202.618C127.484 202.708 127.395 202.781 127.249 202.781Z" fill="#269D89"/>
<g style="mix-blend-mode:multiply">
<path d="M110.067 340.293C122.081 340.293 131.82 339.588 131.82 338.718C131.82 337.848 122.081 337.142 110.067 337.142C98.0525 337.142 88.3131 337.848 88.3131 338.718C88.3131 339.588 98.0525 340.293 110.067 340.293Z" fill="#F5F5F5"/>
</g>
<path d="M123.318 336.493C119.47 335.372 115.198 333.935 112.616 332.433C112.543 332.384 112.462 332.36 112.389 332.319V314.894H120.176C120.767 314.859 121.323 314.599 121.729 314.168C122.135 313.737 122.361 313.168 122.361 312.575C122.361 311.983 122.135 311.413 121.729 310.983C121.323 310.552 120.767 310.292 120.176 310.257H112.43V230.827H107.752V310.257H100.014C99.6981 310.238 99.3816 310.284 99.0841 310.393C98.7866 310.501 98.5143 310.668 98.284 310.885C98.0536 311.103 97.8701 311.364 97.7446 311.655C97.6192 311.946 97.5545 312.259 97.5545 312.575C97.5545 312.892 97.6192 313.205 97.7446 313.496C97.8701 313.786 98.0536 314.048 98.284 314.265C98.5143 314.482 98.7866 314.65 99.0841 314.758C99.3816 314.866 99.6981 314.912 100.014 314.894H107.752V332.295C107.679 332.295 107.606 332.36 107.533 332.408C104.91 333.935 100.672 335.372 96.8229 336.468C96.5629 336.547 96.3397 336.716 96.1936 336.945C96.0475 337.174 95.9882 337.448 96.0265 337.717C96.0648 337.986 96.1981 338.232 96.4022 338.411C96.6064 338.59 96.868 338.69 97.1396 338.693H123.002C123.261 338.676 123.507 338.57 123.698 338.393C123.888 338.216 124.013 337.979 124.05 337.721C124.087 337.464 124.034 337.201 123.901 336.978C123.768 336.754 123.563 336.583 123.318 336.493Z" fill="#E0E0E0"/>
<path d="M124.512 222.74H95.6373C93.3143 222.74 91.4312 224.623 91.4312 226.946V235.529C91.4312 237.852 93.3143 239.735 95.6373 239.735H124.512C126.835 239.735 128.718 237.852 128.718 235.529V226.946C128.718 224.623 126.835 222.74 124.512 222.74Z" fill="#269D89"/>
<path d="M95.3694 239.743V241.221C95.3694 242.439 96.6929 243.43 98.3169 243.43H121.865C123.489 243.43 124.813 242.439 124.813 241.221V239.743H95.3694Z" fill="#269D89"/>
<path opacity="0.3" d="M95.3694 239.743V241.221C95.3694 242.439 96.6929 243.43 98.3169 243.43H121.865C123.489 243.43 124.813 242.439 124.813 241.221V239.743H95.3694Z" fill="white"/>
</svg>
