<svg width="460" height="518" viewBox="0 0 460 518" fill="none" xmlns="http://www.w3.org/2000/svg">
<g opacity="0.5">
<path d="M460 396.166H-58V396.425H460V396.166Z" fill="#EBEBEB"/>
<path d="M408.096 412.836H373.784V413.095H408.096V412.836Z" fill="#EBEBEB"/>
<path d="M285.144 415.654H244.512V415.913H285.144V415.654Z" fill="#EBEBEB"/>
<path d="M372.748 403.221H313.675V403.48H372.748V403.221Z" fill="#EBEBEB"/>
<path d="M193.862 404.962H122.761V405.221H193.862V404.962Z" fill="#EBEBEB"/>
<path d="M209.64 404.962H203.082V405.221H209.64V404.962Z" fill="#EBEBEB"/>
<path d="M175.245 409.334H43.8699V409.593H175.245V409.334Z" fill="#EBEBEB"/>
<path d="M187.532 349.961H-12.5092C-14.0763 349.958 -15.5783 349.334 -16.6855 348.224C-17.7926 347.115 -18.4144 345.612 -18.4144 344.045V62.8437C-18.4008 61.2856 -17.7729 59.7958 -16.6673 58.6979C-15.5616 57.6 -14.0674 56.9826 -12.5092 56.98H187.532C189.101 56.98 190.606 57.6032 191.715 58.7126C192.824 59.822 193.448 61.3266 193.448 62.8955V344.045C193.448 345.614 192.824 347.119 191.715 348.228C190.606 349.338 189.101 349.961 187.532 349.961ZM-12.5092 57.1872C-14.0076 57.1899 -15.4438 57.7871 -16.5023 58.8476C-17.5609 59.9081 -18.1554 61.3453 -18.1554 62.8437V344.045C-18.1554 345.544 -17.5609 346.981 -16.5023 348.041C-15.4438 349.102 -14.0076 349.699 -12.5092 349.702H187.532C189.031 349.699 190.469 349.102 191.529 348.042C192.589 346.982 193.186 345.545 193.189 344.045V62.8437C193.186 61.3444 192.589 59.9072 191.529 58.847C190.469 57.7868 189.031 57.1899 187.532 57.1872H-12.5092Z" fill="#EBEBEB"/>
<path d="M411.629 349.961H211.578C210.009 349.958 208.506 349.334 207.398 348.225C206.289 347.116 205.665 345.613 205.662 344.045V62.8437C205.678 61.2847 206.308 59.7949 207.416 58.6972C208.523 57.5996 210.018 56.9826 211.578 56.98H411.629C413.186 56.9854 414.677 57.6039 415.781 58.7015C416.884 59.7992 417.51 61.2874 417.524 62.8437V344.045C417.524 345.611 416.904 347.112 415.799 348.221C414.694 349.33 413.194 349.955 411.629 349.961ZM211.578 57.1872C210.078 57.1899 208.641 57.7868 207.581 58.847C206.521 59.9072 205.924 61.3444 205.921 62.8437V344.045C205.924 345.545 206.521 346.982 207.581 348.042C208.641 349.102 210.078 349.699 211.578 349.702H411.629C413.129 349.699 414.566 349.102 415.626 348.042C416.686 346.982 417.283 345.545 417.286 344.045V62.8437C417.283 61.3444 416.686 59.9072 415.626 58.847C414.566 57.7868 413.129 57.1899 411.629 57.1872H211.578Z" fill="#EBEBEB"/>
<path d="M23.1602 396.166H59.4513L59.4513 274.25H23.1602L23.1602 396.166Z" fill="#F5F5F5"/>
<path d="M23.1499 396.166H29.1379L29.1379 274.25H23.1499L23.1499 396.166Z" fill="#F0F0F0"/>
<path d="M191.666 278.28H53.8569V308.78H191.666V278.28Z" fill="#E6E6E6"/>
<path d="M191.666 317.917H53.8569V324.962H191.666V317.917Z" fill="#E6E6E6"/>
<path d="M183.606 274.25H23.1499V284.838H183.606V274.25Z" fill="#F0F0F0"/>
<path d="M183.606 396.166H219.897L219.897 274.25H183.606V396.166Z" fill="#F5F5F5"/>
<path d="M183.606 396.166H189.594L189.594 274.25H183.606L183.606 396.166Z" fill="#F0F0F0"/>
<path d="M298.653 396.166V207.78H236.359V396.166H298.653Z" fill="#F0F0F0"/>
<path d="M295.235 267.951V212.494H239.778V267.951H295.235Z" fill="#E6E6E6"/>
<path d="M295.235 328.391V272.934H239.778V328.391H295.235Z" fill="#E6E6E6"/>
<path d="M295.235 388.821V333.364H239.778V388.821H295.235Z" fill="#E6E6E6"/>
<path d="M261.596 267.961V212.504H239.788V267.961H261.596Z" fill="#E0E0E0"/>
<path d="M261.585 328.391V272.934H239.778V328.391H261.585Z" fill="#E0E0E0"/>
<path d="M261.596 388.832V333.375H239.788V388.832H261.596Z" fill="#E0E0E0"/>
<path d="M315.571 396.156V207.77H298.653V396.156H315.571Z" fill="#F5F5F5"/>
<path d="M365.258 396.166V207.78H302.963V396.166H365.258Z" fill="#F0F0F0"/>
<path d="M361.829 267.961V212.504H306.372V267.961H361.829Z" fill="#E6E6E6"/>
<path d="M361.839 328.391V272.934H306.382V328.391H361.839Z" fill="#E6E6E6"/>
<path d="M361.839 388.832V333.375H306.382V388.832H361.839Z" fill="#E6E6E6"/>
<path d="M328.2 267.961V212.504H306.392V267.961H328.2Z" fill="#E0E0E0"/>
<path d="M328.19 328.391V272.934H306.382V328.391H328.19Z" fill="#E0E0E0"/>
<path d="M328.19 388.821V333.364H306.382V388.821H328.19Z" fill="#E0E0E0"/>
<path d="M382.176 396.167V207.78H365.258V396.167H382.176Z" fill="#F5F5F5"/>
<path d="M344.229 263.756C349.82 258.164 349.82 249.099 344.229 243.508C338.638 237.916 329.572 237.916 323.981 243.508C318.39 249.099 318.39 258.164 323.981 263.756C329.572 269.347 338.638 269.347 344.229 263.756Z" fill="#F5F5F5"/>
<path d="M285.258 314.074C285.158 317.806 283.605 321.351 280.929 323.955C278.254 326.559 274.669 328.016 270.935 328.016C267.202 328.016 263.616 326.559 260.941 323.955C258.266 321.351 256.713 317.806 256.613 314.074H285.258Z" fill="#F0F0F0"/>
<path d="M285.258 303.362C285.309 305.275 284.977 307.179 284.28 308.962C283.584 310.744 282.537 312.37 281.202 313.741C279.867 315.112 278.27 316.203 276.507 316.947C274.744 317.691 272.849 318.075 270.935 318.075C269.021 318.075 267.127 317.691 265.363 316.947C263.6 316.203 262.004 315.112 260.669 313.741C259.333 312.37 258.287 310.744 257.59 308.962C256.893 307.179 256.561 305.275 256.612 303.362H285.258Z" fill="#F0F0F0"/>
<path d="M310.143 388.821H355.167V341.362H310.143V388.821Z" fill="#F0F0F0"/>
<path d="M361.829 341.362H355.167V388.821H361.829V341.362Z" fill="#E0E0E0"/>
<path d="M321.86 207.78H339.762V138.409H321.86V207.78Z" fill="#E6E6E6"/>
<path d="M273.323 207.78H332.738L341.709 126.578H282.295L273.323 207.78Z" fill="#F0F0F0"/>
<path d="M266.89 207.78H328.252L337.234 126.578H275.861L266.89 207.78Z" fill="#F5F5F5"/>
<path d="M310.567 207.78H322.481L308.754 126.578H296.851L310.567 207.78Z" fill="#FAFAFA"/>
<path d="M299.959 207.78H304.579L290.852 126.578H286.232L299.959 207.78Z" fill="#FAFAFA"/>
<path d="M155.354 246.578V90.4841L15.4939 90.4841V246.578H155.354Z" fill="#EBEBEB"/>
<path d="M156.618 246.568V90.4739H155.354V246.568H156.618Z" fill="#E0E0E0"/>
<path d="M25.8539 236.208L144.994 236.208L144.994 100.834L25.8539 100.834L25.8539 236.208Z" fill="#F5F5F5"/>
<path d="M94.8203 243.46H128.376V196.498H94.8203V243.46Z" fill="white"/>
<path d="M45.6104 226.925H79.156L81.5699 179.964H48.0242L45.6104 226.925Z" fill="white"/>
<path d="M113.551 143.362H147.097L149.511 96.3894H115.965L113.551 143.362Z" fill="white"/>
<path d="M69.4731 170.241L102.987 171.71L105.043 124.793L71.5297 123.324L69.4731 170.241Z" fill="white"/>
<path d="M21.4373 157.197L54.9689 156.225L53.6085 109.283L20.0769 110.255L21.4373 157.197Z" fill="white"/>
<path d="M201 442.952C311.938 442.952 401.87 437.701 401.87 431.225C401.87 424.748 311.938 419.497 201 419.497C90.0626 419.497 0.130005 424.748 0.130005 431.225C0.130005 437.701 90.0626 442.952 201 442.952Z" fill="#F5F5F5"/>
<path d="M102.497 423.051H110.505L113.707 404.517H105.698L102.497 423.051Z" fill="#FFC3BD"/>
<path d="M55.4316 423.051H63.4399L70.7541 404.517H62.7458L55.4316 423.051Z" fill="#FFC3BD"/>
<path d="M64.5589 422.128H54.7997C54.6401 422.131 54.4855 422.185 54.3587 422.282C54.2319 422.379 54.1396 422.514 54.0952 422.667L52.0958 429.784C52.0459 429.948 52.0347 430.12 52.063 430.288C52.0913 430.456 52.1584 430.615 52.2589 430.753C52.3594 430.891 52.4906 431.003 52.6421 431.082C52.7936 431.16 52.9613 431.202 53.1318 431.204C56.2398 431.152 58.5811 430.965 62.5283 430.965C64.9629 430.965 69.9564 431.224 73.3234 431.224C76.6904 431.224 77.312 427.899 75.9549 427.598C69.8632 426.252 67.6669 424.387 65.7813 422.615C65.4476 422.308 65.0124 422.135 64.5589 422.128Z" fill="#263238"/>
<path d="M110.495 422.128H101.762C101.601 422.13 101.444 422.184 101.316 422.281C101.187 422.378 101.093 422.513 101.047 422.667L99.0576 429.784C99.0054 429.948 98.9925 430.121 99.0198 430.29C99.0472 430.459 99.1141 430.619 99.215 430.757C99.316 430.896 99.4482 431.008 99.6009 431.086C99.7535 431.163 99.9224 431.204 100.094 431.204C103.202 431.152 107.812 430.965 111.769 430.965C116.411 430.965 120.389 431.224 125.828 431.224C129.112 431.224 130.21 427.899 128.853 427.598C122.637 426.231 117.571 426.086 112.36 422.75C111.81 422.371 111.163 422.155 110.495 422.128Z" fill="#263238"/>
<path d="M110.081 193.825C114.308 196.477 118.752 199.15 123.134 201.688C127.517 204.227 131.971 206.692 136.426 208.826C137.535 209.376 138.643 209.862 139.752 210.36C140.301 210.608 140.85 210.805 141.399 211.033L142.228 211.375L142.901 211.624C144.324 212.244 145.896 212.442 147.429 212.193C149.102 211.772 150.604 210.842 151.728 209.531C152.461 208.743 153.13 207.898 153.727 207.003C154.038 206.537 154.339 206.05 154.618 205.553L155.416 204.092L161.28 205.439C161.194 206.219 161.066 206.993 160.897 207.759C160.731 208.485 160.544 209.21 160.316 209.935C159.865 211.421 159.25 212.853 158.483 214.203C157.638 215.678 156.592 217.027 155.375 218.213C154.051 219.519 152.499 220.573 150.796 221.321C149.042 222.081 147.163 222.509 145.253 222.585C143.465 222.666 141.675 222.488 139.938 222.056C139.545 221.963 139.068 221.859 138.736 221.745L137.7 221.424C137.027 221.207 136.333 220.999 135.68 220.761C134.375 220.274 133.028 219.818 131.775 219.28C126.775 217.209 121.894 214.861 117.157 212.245C114.805 210.961 112.484 209.645 110.205 208.257C107.926 206.868 105.678 205.501 103.388 203.957L110.081 193.825Z" fill="#FFC3BD"/>
<path d="M98.032 201.212C99.6171 208.858 118.856 219.86 118.856 219.86L125.869 201.43C125.869 201.43 120.389 198 112.204 192.53C104.02 187.06 96.2811 192.82 98.032 201.212Z" fill="#263238"/>
<path d="M153.189 207.045L158.752 198.311L162.896 207.822C162.896 207.822 159.602 212.815 154.515 210.246L153.189 207.045Z" fill="#FFC3BD"/>
<path d="M165.849 195.006L168.573 202.134L162.906 207.811L158.752 198.311L165.849 195.006Z" fill="#FFC3BD"/>
<path opacity="0.2" d="M113.707 404.527L112.049 414.079H104.051L105.698 404.527H113.707Z" fill="black"/>
<path opacity="0.2" d="M62.7459 404.527H70.7542L66.9728 414.079H58.9749L62.7459 404.527Z" fill="black"/>
<path d="M107.315 190.624C107.315 190.624 118.431 213.54 112.795 259.663L70.319 265.237C69.5523 258.71 71.355 226.148 62.7872 196.053C67.3981 194.531 72.1006 193.303 76.8665 192.375C82.828 191.239 88.8504 190.451 94.9032 190.013C99.05 189.886 103.2 190.09 107.315 190.624Z" fill="#263238"/>
<path opacity="0.2" d="M62.8287 196.073L63.0152 196.011C67.1592 194.851 71.9352 199.223 74.4837 205.604C78.203 214.928 82.5853 227.226 82.5853 227.226L68.8583 230.51C67.9153 218.869 65.8968 207.341 62.8287 196.073Z" fill="black"/>
<path d="M77.2084 171.696C78.7728 177.394 80.679 187.961 76.908 192.416C81.7948 196.492 87.7862 199.017 94.1159 199.668C98.0838 195.452 94.9447 190.065 94.9447 190.065C88.3558 189.35 88.1796 184.491 88.9774 179.798L77.2084 171.696Z" fill="#FFC3BD"/>
<path d="M110.267 242.859L100.746 190.023C98.9946 190.338 97.3221 190.994 95.8242 191.956C94.3263 192.917 93.0325 194.164 92.0165 195.625C91.0006 197.087 90.2825 198.734 89.9033 200.473C89.524 202.212 89.491 204.008 89.8062 205.76L94.52 231.95C95.1653 235.483 97.1857 238.615 100.138 240.661C103.09 242.706 106.733 243.496 110.267 242.859Z" fill="#269D89"/>
<path opacity="0.3" d="M110.267 242.859L100.746 190.023C98.9946 190.338 97.3221 190.994 95.8242 191.956C94.3263 192.917 93.0325 194.164 92.0165 195.625C91.0006 197.087 90.2825 198.734 89.9033 200.473C89.524 202.212 89.491 204.008 89.8062 205.76L94.52 231.95C95.1653 235.483 97.1857 238.615 100.138 240.661C103.09 242.706 106.733 243.496 110.267 242.859Z" fill="black"/>
<path d="M146.745 295.156L140.073 296.358C138.926 296.564 137.748 296.524 136.618 296.239C135.487 295.955 134.431 295.433 133.517 294.709C132.604 293.985 131.855 293.075 131.321 292.039C130.786 291.004 130.478 289.866 130.417 288.702L127.672 235.866C127.565 233.87 128.192 231.903 129.434 230.337C130.676 228.77 132.448 227.712 134.416 227.361L146.755 225.133C148.08 224.897 149.443 224.99 150.723 225.404C152.004 225.817 153.163 226.539 154.099 227.506C155.036 228.473 155.72 229.655 156.092 230.949C156.465 232.242 156.513 233.607 156.235 234.923L151.272 258.151C151.104 258.95 151.055 259.771 151.127 260.585L153.427 286.35C153.611 288.387 153.027 290.419 151.791 292.048C150.555 293.677 148.756 294.785 146.745 295.156Z" fill="#269D89"/>
<path opacity="0.2" d="M146.755 225.112L134.416 227.33C132.45 227.685 130.681 228.744 129.439 230.31C128.198 231.875 127.57 233.84 127.672 235.835L128.573 253.375C136.709 251.993 144.866 250.843 153.044 249.925L156.234 234.882C156.512 233.566 156.462 232.203 156.089 230.911C155.716 229.62 155.031 228.439 154.095 227.474C153.158 226.51 151.999 225.79 150.72 225.378C149.44 224.966 148.078 224.875 146.755 225.112Z" fill="black"/>
<path d="M156.949 274.395L145.729 276.405L145.823 256.949L157.043 254.928L156.949 274.395Z" fill="#269D89"/>
<path d="M158.648 264.356C158.648 269.733 157.861 274.229 156.949 274.385C156.038 274.54 155.312 270.334 155.333 264.957C155.354 259.58 156.121 255.094 157.043 254.929C157.965 254.763 158.679 259 158.648 264.356Z" fill="#269D89"/>
<path opacity="0.2" d="M158.648 264.356C158.648 269.733 157.861 274.229 156.949 274.385C156.038 274.54 155.312 270.334 155.333 264.957C155.354 259.58 156.121 255.094 157.043 254.929C157.965 254.763 158.679 259 158.648 264.356Z" fill="black"/>
<path d="M111.075 176.855C107.388 177.529 104.118 179.636 101.982 182.716C99.8459 185.796 99.0178 189.597 99.6792 193.286L108.112 240.145C108.783 243.833 110.89 247.105 113.97 249.241C117.051 251.378 120.854 252.205 124.543 251.541C152.08 246.59 180.042 244.401 208.014 245.003L236.783 245.635L218.363 143.248L191.614 153.867C165.601 164.195 138.621 171.897 111.075 176.855Z" fill="#269D89"/>
<path opacity="0.3" d="M184.942 156.436L200.855 244.921C202.254 244.921 203.663 244.921 205.061 244.921L188.858 154.892C187.532 155.472 186.247 155.97 184.942 156.436Z" fill="black"/>
<path d="M231.894 193.732C236.98 222.004 239.146 245.273 236.763 245.708C234.38 246.143 228.299 223.569 223.212 195.296C218.125 167.024 215.96 143.755 218.343 143.32C220.725 142.885 226.807 165.408 231.894 193.732Z" fill="#269D89"/>
<path opacity="0.2" d="M231.894 193.732C236.98 222.004 239.146 245.273 236.763 245.708C234.38 246.143 228.299 223.569 223.212 195.296C218.125 167.024 215.96 143.755 218.343 143.32C220.725 142.885 226.807 165.408 231.894 193.732Z" fill="black"/>
<path opacity="0.2" d="M82.0051 174.991L88.967 179.767C88.7646 180.853 88.6571 181.956 88.6458 183.061C86.1491 183.061 82.5541 180.741 82.0983 178.171C81.8757 177.125 81.8441 176.048 82.0051 174.991Z" fill="black"/>
<path d="M87.8792 148.438C92.0853 148.821 98.4257 160.124 94.2091 164.102C89.9926 168.08 79.9123 147.702 87.8792 148.438Z" fill="#263238"/>
<path d="M73.1162 164.558C75.5716 172.017 76.6179 176.524 81.4871 179.197C88.8013 183.217 97.3172 176.731 97.1618 168.557C97.0271 161.202 93.0178 150.241 84.792 149.598C82.9273 149.484 81.0629 149.826 79.3598 150.594C77.6567 151.362 76.1661 152.533 75.0167 154.005C73.8673 155.478 73.0937 157.208 72.7626 159.047C72.4314 160.885 72.5528 162.777 73.1162 164.558Z" fill="#FFC3BD"/>
<path d="M93.256 147.226C91.2119 146.809 89.1241 146.645 87.04 146.739C88.2512 145.622 89.3511 144.391 90.3241 143.061C88.376 144.396 86.2142 145.387 83.932 145.993C84.3135 145.039 84.5509 144.033 84.6365 143.009C83.0514 144.916 80.3578 146.211 77.4466 147.298C78.6878 145.752 79.6453 143.998 80.2749 142.118C78.4619 145.465 71.6554 148.334 67.3664 151.183H67.3042C67.0029 151.362 66.7155 151.563 66.4443 151.784C66.0938 152.031 65.7917 152.34 65.5534 152.696C65.1477 153.144 64.8423 153.674 64.6573 154.25C64.4724 154.826 64.4123 155.434 64.4809 156.035C64.5495 156.636 64.7453 157.215 65.0553 157.735C65.3652 158.254 65.7822 158.701 66.2786 159.047C65.494 159.603 64.9329 160.42 64.6957 161.352C64.4584 162.284 64.5605 163.27 64.9836 164.133C64.9214 162.683 65.2633 161.098 66.3096 160.456C64.5484 165.553 70.4536 170.36 75.7165 171.717C78.8245 172.504 80.7308 160.611 77.7885 155.908C81.7771 155.4 85.1856 154.405 87.2265 152.996C85.69 153.495 84.0594 153.633 82.4609 153.4C86.2941 151.888 90.4174 149.754 93.6704 150.292C92.1038 149.722 90.4475 149.438 88.7805 149.453C89.8828 149.001 91.0598 148.759 92.2511 148.738C95.7424 148.884 98.0423 151.846 97.1514 153.836C98.4878 151.691 98.0009 148.231 93.256 147.226Z" fill="#263238"/>
<path d="M71.8523 174.048C72.5805 174.69 73.432 175.176 74.3548 175.477C75.2776 175.778 76.2522 175.888 77.2188 175.799C79.8399 175.55 80.3268 172.939 78.9593 170.93C77.6953 169.127 74.8153 167.076 72.4946 168.329C71.9949 168.596 71.5676 168.98 71.2495 169.449C70.9315 169.918 70.7323 170.457 70.669 171.02C70.6058 171.582 70.6805 172.152 70.8866 172.68C71.0928 173.207 71.4242 173.677 71.8523 174.048Z" fill="#FFC3BD"/>
<path d="M112.795 259.684C112.795 259.684 134.551 319.492 132.241 343.89C129.868 369.282 115.167 412.266 115.167 412.266H101.606C101.606 412.266 109.563 370.826 110.412 345.868C111.334 318.694 86.4288 284.33 84.9059 263.392L112.795 259.684Z" fill="#269D89"/>
<path opacity="0.2" d="M90.6039 280.3C90.1165 279.987 89.586 279.746 89.0292 279.585C93.7948 292.421 101.513 307.391 106.258 321.999C106.776 297.85 101.544 287.096 90.6039 280.3Z" fill="black"/>
<path d="M97.742 261.662C97.742 261.662 103.958 320.818 97.6487 343.724C90.7386 368.816 70.8474 412.224 70.8474 412.224H56.188C56.188 412.224 68.9515 370.888 73.5099 346.024C78.462 319.088 71.8212 285.304 70.4019 265.278L97.742 261.662Z" fill="#269D89"/>
<path d="M73.427 412.545H54.8101L56.0636 407.055H75.9963L73.427 412.545Z" fill="#269D89"/>
<path opacity="0.4" d="M73.427 412.545H54.8101L56.0636 407.055H75.9963L73.427 412.545Z" fill="black"/>
<path d="M118.172 412.545H99.7518L100.052 407.324L119.198 407.055L118.172 412.545Z" fill="#269D89"/>
<path opacity="0.4" d="M118.172 412.545H99.7518L100.052 407.324L119.198 407.055L118.172 412.545Z" fill="black"/>
<path d="M85.2478 162.994C85.4032 163.605 85.8694 164.03 86.2838 163.875C86.6982 163.719 86.8847 163.139 86.7293 162.517C86.5739 161.896 86.1077 161.481 85.6933 161.637C85.2789 161.792 85.082 162.372 85.2478 162.994Z" fill="#263238"/>
<path d="M92.2201 160.746C92.3859 161.367 92.8417 161.782 93.2561 161.637C93.6705 161.492 93.8673 160.891 93.7016 160.28C93.5358 159.668 93.08 159.244 92.6656 159.389C92.2512 159.534 92.1062 160.124 92.2201 160.746Z" fill="#263238"/>
<path d="M90.1481 161.771C91.3769 163.421 92.8392 164.883 94.4889 166.112C94.1513 166.549 93.7245 166.909 93.2368 167.168C92.7491 167.427 92.2117 167.579 91.6606 167.614L90.1481 161.771Z" fill="#ED847E"/>
<path d="M90.2724 169.904C89.4674 170.197 88.6022 170.287 87.7542 170.164C86.9063 170.041 86.102 169.709 85.4136 169.199C85.3954 169.182 85.3809 169.161 85.3711 169.138C85.3612 169.115 85.3561 169.09 85.3561 169.065C85.3561 169.039 85.3612 169.015 85.3711 168.991C85.3809 168.968 85.3954 168.947 85.4136 168.93C85.4483 168.896 85.4948 168.878 85.5431 168.878C85.5914 168.878 85.6378 168.896 85.6726 168.93C86.3182 169.393 87.0665 169.692 87.8532 169.802C88.64 169.912 89.4417 169.83 90.1895 169.562C90.2126 169.554 90.2371 169.551 90.2615 169.553C90.2858 169.555 90.3094 169.562 90.3308 169.574C90.3523 169.586 90.371 169.602 90.3859 169.621C90.4009 169.64 90.4116 169.663 90.4175 169.686C90.422 169.734 90.41 169.781 90.3836 169.821C90.3572 169.86 90.3179 169.89 90.2724 169.904Z" fill="#263238"/>
<path d="M82.5438 161.409C82.4658 161.429 82.3836 161.429 82.3056 161.409C82.259 161.392 82.2164 161.365 82.1804 161.331C82.1444 161.297 82.1159 161.256 82.0965 161.21C82.077 161.164 82.0672 161.115 82.0675 161.066C82.0678 161.016 82.0783 160.967 82.0984 160.922C82.3129 160.343 82.6568 159.821 83.1039 159.395C83.551 158.97 84.0894 158.652 84.678 158.466C84.7257 158.454 84.7753 158.452 84.824 158.459C84.8726 158.467 84.9191 158.484 84.9608 158.511C85.0025 158.537 85.0384 158.571 85.0664 158.612C85.0943 158.652 85.1138 158.698 85.1235 158.746C85.1376 158.847 85.115 158.949 85.0598 159.035C85.0047 159.121 84.9207 159.184 84.823 159.212C84.351 159.359 83.9187 159.611 83.5595 159.951C83.2003 160.29 82.9237 160.707 82.751 161.17C82.7142 161.273 82.6403 161.358 82.5438 161.409Z" fill="#263238"/>
<path d="M94.7168 157.358C94.6506 157.38 94.5796 157.383 94.5118 157.366C94.4441 157.35 94.3823 157.315 94.3335 157.265C94.0379 156.899 93.6557 156.613 93.2216 156.432C92.7874 156.251 92.315 156.181 91.8471 156.229C91.7999 156.239 91.751 156.24 91.7036 156.23C91.6562 156.22 91.6115 156.2 91.5723 156.172C91.5331 156.143 91.5004 156.107 91.4764 156.065C91.4523 156.023 91.4374 155.976 91.4327 155.928C91.4227 155.828 91.4497 155.727 91.5089 155.645C91.5681 155.563 91.6552 155.505 91.7539 155.483C92.3319 155.409 92.9191 155.482 93.462 155.694C94.0049 155.905 94.4861 156.25 94.8619 156.695C94.9303 156.768 94.9685 156.864 94.9685 156.964C94.9685 157.064 94.9303 157.161 94.8619 157.234C94.8283 157.29 94.7774 157.333 94.7168 157.358Z" fill="#263238"/>
<path d="M71.355 202.538C72.246 206.008 73.1784 209.655 74.1833 213.188C75.1882 216.721 76.1931 220.274 77.2913 223.755C78.3894 227.236 79.6119 230.676 80.9069 234.012C82.1192 237.23 83.5846 240.348 85.2892 243.336C85.4964 243.657 85.6932 244.03 85.9004 244.32L86.2216 244.786L86.377 245.014C86.6732 245.372 87.0226 245.683 87.413 245.936C88.7303 246.849 90.1157 247.659 91.557 248.36C94.665 249.904 98.0527 251.323 101.472 252.66C108.33 255.332 115.437 257.84 122.482 260.243L121.114 266.096C113.514 264.996 105.987 263.447 98.5707 261.455C94.7602 260.441 91.0106 259.209 87.3405 257.767C85.317 256.977 83.3626 256.021 81.4974 254.908C80.2762 254.175 79.1608 253.28 78.1822 252.245L77.716 251.748L77.457 251.416L76.9287 250.733C76.5661 250.277 76.2864 249.831 75.9652 249.375C73.698 245.945 71.7491 242.314 70.1429 238.528C68.5267 234.913 67.1592 231.276 65.8849 227.578C63.3421 220.274 61.208 212.835 59.4928 205.294L71.355 202.538Z" fill="#FFC3BD"/>
<path d="M58.0838 200.476C54.147 209.655 60.5495 230.593 60.5495 230.593L79.7155 225.672C78.5313 218.284 76.8245 210.99 74.608 203.843C71.2928 194.032 61.14 193.411 58.0838 200.476Z" fill="#263238"/>
<path d="M67.1282 423.527C66.4287 423.51 65.7335 423.413 65.0562 423.237C65.021 423.227 64.9894 423.207 64.9655 423.18C64.9415 423.152 64.9262 423.118 64.9215 423.082C64.9202 423.044 64.9292 423.007 64.9475 422.974C64.9657 422.941 64.9925 422.914 65.0251 422.895C65.3255 422.709 67.9984 421.124 68.8583 421.58C68.9537 421.631 69.032 421.71 69.0835 421.806C69.135 421.901 69.1576 422.01 69.1484 422.118C69.1636 422.314 69.1311 422.511 69.0535 422.691C68.9759 422.872 68.8556 423.031 68.7029 423.154C68.2337 423.449 67.6799 423.58 67.1282 423.527ZM65.6156 422.968C66.5496 423.28 67.5672 423.229 68.4646 422.823C68.5654 422.741 68.6451 422.636 68.6974 422.517C68.7496 422.398 68.7728 422.269 68.7651 422.139C68.7684 422.094 68.7596 422.049 68.7395 422.009C68.7194 421.969 68.6889 421.935 68.6511 421.911C68.2056 421.652 66.6931 422.367 65.6156 422.968Z" fill="#269D89"/>
<path d="M65.0872 423.237H64.994C64.9661 423.22 64.9436 423.195 64.929 423.166C64.9144 423.137 64.9082 423.104 64.9111 423.071C64.9111 422.968 65.253 420.657 66.2268 419.901C66.3386 419.806 66.4693 419.735 66.6104 419.694C66.7515 419.653 66.8998 419.642 67.0453 419.663C67.1848 419.659 67.321 419.706 67.428 419.796C67.5349 419.886 67.6052 420.012 67.6254 420.15C67.7394 421.051 66.0404 422.802 65.1805 423.258C65.1479 423.262 65.1147 423.255 65.0872 423.237ZM66.9002 419.994C66.7376 420 66.5812 420.058 66.4548 420.16C65.8565 420.874 65.4754 421.744 65.3566 422.667C66.2165 422.046 67.3146 420.72 67.2421 420.191C67.2421 420.191 67.2421 420.036 66.9831 420.005L66.9002 419.994Z" fill="#269D89"/>
<path d="M113.748 423.527C112.909 423.51 112.072 423.413 111.251 423.237C111.213 423.232 111.177 423.214 111.151 423.186C111.124 423.157 111.108 423.121 111.106 423.082C111.103 423.041 111.112 423 111.132 422.965C111.152 422.93 111.183 422.902 111.22 422.885C111.593 422.698 114.898 421.062 115.841 421.611C115.929 421.66 116.002 421.733 116.053 421.82C116.104 421.907 116.131 422.007 116.131 422.108C116.138 422.283 116.105 422.458 116.033 422.618C115.961 422.778 115.852 422.919 115.716 423.03C115.135 423.411 114.441 423.586 113.748 423.527ZM111.894 422.968C113.644 423.258 115.002 423.185 115.478 422.75C115.568 422.677 115.639 422.583 115.686 422.477C115.733 422.371 115.754 422.255 115.748 422.139C115.751 422.1 115.743 422.06 115.724 422.025C115.706 421.991 115.678 421.962 115.644 421.942C115.126 421.652 113.251 422.336 111.904 422.968H111.894Z" fill="#269D89"/>
<path d="M111.282 423.237C111.249 423.247 111.213 423.247 111.179 423.237C111.152 423.217 111.131 423.19 111.118 423.159C111.106 423.128 111.101 423.094 111.106 423.061C111.252 421.904 111.747 420.82 112.526 419.953C112.816 419.715 113.187 419.597 113.562 419.621C114.08 419.684 114.214 419.943 114.245 420.16C114.339 421.061 112.318 422.792 111.334 423.268L111.282 423.237ZM113.427 419.994C113.18 419.994 112.941 420.083 112.754 420.243C112.117 420.927 111.699 421.786 111.552 422.709C112.588 422.118 113.955 420.761 113.893 420.212C113.893 420.212 113.893 420.036 113.541 420.005L113.427 419.994Z" fill="#269D89"/>
<path d="M120.959 260.108L128.967 258.793L125.745 268.749C125.745 268.749 118.762 268.345 118.773 264.532L120.959 260.108Z" fill="#FFC3BD"/>
<path d="M136.55 262.491L133.484 270.531L125.745 268.749L128.967 258.793L136.55 262.491Z" fill="#FFC3BD"/>
<path d="M348.454 148.697L336.716 105.081C336.488 104.231 336.094 103.434 335.558 102.736C335.021 102.037 334.352 101.452 333.589 101.012C332.826 100.572 331.984 100.287 331.111 100.173C330.238 100.059 329.351 100.118 328.501 100.347L243.549 123.139C241.83 123.602 240.366 124.729 239.478 126.272C238.591 127.814 238.352 129.646 238.814 131.365L250.542 174.98C251.003 176.698 252.127 178.163 253.668 179.053C255.208 179.942 257.038 180.184 258.757 179.725L270.744 176.503L287.247 186.003L283.735 173.012L343.719 156.892C345.431 156.428 346.889 155.306 347.776 153.771C348.663 152.235 348.907 150.411 348.454 148.697Z" fill="#269D89"/>
<path opacity="0.2" d="M348.454 148.697L336.716 105.081C336.488 104.231 336.094 103.434 335.558 102.736C335.021 102.037 334.352 101.452 333.589 101.012C332.826 100.572 331.984 100.287 331.111 100.173C330.238 100.059 329.351 100.118 328.501 100.347L243.549 123.139C241.83 123.602 240.366 124.729 239.478 126.272C238.591 127.814 238.352 129.646 238.814 131.365L250.542 174.98C251.003 176.698 252.127 178.163 253.668 179.053C255.208 179.942 257.038 180.184 258.757 179.725L270.744 176.503L287.247 186.003L283.735 173.012L343.719 156.892C345.431 156.428 346.889 155.306 347.776 153.771C348.663 152.235 348.907 150.411 348.454 148.697Z" fill="black"/>
<path d="M383.067 240.021L387.604 210.495C387.783 209.332 387.492 208.147 386.797 207.199C386.101 206.251 385.058 205.618 383.895 205.439L326.356 196.591C325.78 196.502 325.193 196.526 324.627 196.664C324.061 196.802 323.527 197.051 323.058 197.395C322.588 197.74 322.191 198.174 321.889 198.673C321.588 199.171 321.388 199.724 321.3 200.3L316.752 229.826C316.574 230.989 316.864 232.174 317.56 233.122C318.255 234.07 319.299 234.703 320.461 234.882L328.573 236.136L336.022 246.288L337.379 237.482L377.97 243.698C378.546 243.793 379.135 243.773 379.704 243.639C380.272 243.505 380.809 243.26 381.282 242.919C381.756 242.577 382.157 242.145 382.464 241.648C382.77 241.15 382.975 240.597 383.067 240.021Z" fill="#269D89"/>
<path opacity="0.3" d="M383.067 240.021L387.604 210.495C387.783 209.332 387.492 208.147 386.797 207.199C386.101 206.251 385.058 205.618 383.895 205.439L326.356 196.591C325.78 196.502 325.193 196.526 324.627 196.664C324.061 196.802 323.527 197.051 323.058 197.395C322.588 197.74 322.191 198.174 321.889 198.673C321.588 199.171 321.388 199.724 321.3 200.3L316.752 229.826C316.574 230.989 316.864 232.174 317.56 233.122C318.255 234.07 319.299 234.703 320.461 234.882L328.573 236.136L336.022 246.288L337.379 237.482L377.97 243.698C378.546 243.793 379.135 243.773 379.704 243.639C380.272 243.505 380.809 243.26 381.282 242.919C381.756 242.577 382.157 242.145 382.464 241.648C382.77 241.15 382.975 240.597 383.067 240.021Z" fill="white"/>
<path d="M381.026 192.157L373.629 139.321C373.336 137.237 372.227 135.355 370.547 134.088C368.866 132.821 366.751 132.274 364.667 132.567L261.679 146.967C259.595 147.26 257.712 148.368 256.445 150.049C255.179 151.729 254.631 153.844 254.924 155.928L262.321 208.764C262.463 209.796 262.808 210.79 263.335 211.689C263.863 212.587 264.562 213.373 265.394 214C266.225 214.628 267.173 215.085 268.181 215.346C269.19 215.606 270.24 215.665 271.272 215.519L285.776 213.447L303.751 227.008L301.544 211.24L374.24 201.077C376.32 200.789 378.202 199.689 379.473 198.017C380.745 196.346 381.303 194.239 381.026 192.157Z" fill="#269D89"/>
<path d="M271.894 170.173L277.726 169.355L286.895 179.466L285.33 168.288L291.215 167.469L294.043 187.671L288.159 188.5L279.042 178.461L280.596 189.557L274.722 190.375L271.894 170.173Z" fill="white"/>
<path d="M295.349 166.889L312.09 164.548L312.691 168.868L302.217 170.329L302.663 173.54L312.38 172.183L312.961 176.327L303.243 177.684L303.792 181.663L314.577 180.16L315.219 184.729L298.177 187.112L295.349 166.889Z" fill="white"/>
<path d="M313.675 164.33L319.601 163.502L323.321 174.514L324.864 162.766L330.769 161.937L335.483 172.794L336.043 161.202L341.937 160.373L340.311 181.207L334.188 182.056L328.863 169.831L327.112 183.051L320.99 183.9L313.675 164.33Z" fill="white"/>
<path d="M344.776 173.758L350.671 172.556C350.832 173.325 351.189 174.038 351.707 174.628C352.095 174.989 352.563 175.253 353.072 175.399C353.582 175.545 354.119 175.568 354.639 175.467C355.386 175.413 356.087 175.084 356.607 174.545C356.806 174.342 356.956 174.097 357.047 173.828C357.139 173.559 357.169 173.273 357.136 172.991C357.09 172.722 356.987 172.466 356.834 172.241C356.68 172.015 356.479 171.826 356.245 171.686C355.191 171.205 354.046 170.957 352.888 170.961C350.716 170.913 348.586 170.352 346.672 169.324C346.039 168.928 345.502 168.394 345.102 167.763C344.703 167.132 344.45 166.419 344.362 165.677C344.212 164.615 344.385 163.532 344.859 162.569C345.391 161.499 346.227 160.608 347.263 160.01C348.767 159.198 350.419 158.694 352.121 158.529C354.174 158.11 356.305 158.323 358.234 159.14C359.019 159.587 359.698 160.197 360.226 160.93C360.753 161.663 361.116 162.502 361.29 163.388L355.457 164.558C355.272 163.809 354.823 163.151 354.193 162.704C353.531 162.348 352.767 162.231 352.028 162.372C351.438 162.411 350.88 162.657 350.453 163.067C350.301 163.224 350.186 163.414 350.118 163.622C350.049 163.83 350.03 164.051 350.06 164.268C350.089 164.438 350.157 164.599 350.257 164.739C350.358 164.879 350.488 164.994 350.64 165.076C351.331 165.382 352.081 165.534 352.836 165.522C354.904 165.604 356.956 165.928 358.949 166.485C360.069 166.832 361.07 167.485 361.839 168.371C362.506 169.199 362.929 170.196 363.062 171.251C363.248 172.523 363.05 173.822 362.492 174.981C361.913 176.191 360.991 177.203 359.84 177.892C358.376 178.721 356.757 179.239 355.084 179.415C351.631 179.898 349.158 179.553 347.667 178.379C346.19 177.226 345.166 175.59 344.776 173.758Z" fill="white"/>
</g>
</svg>
