<svg width="419" height="427" viewBox="0 0 419 427" fill="none" xmlns="http://www.w3.org/2000/svg">
<g opacity="0.5">
<path d="M368.9 398.49H335.78V398.74H368.9V398.49Z" fill="#EBEBEB"/>
<path d="M250.22 401.21H241.53V401.46H250.22V401.21Z" fill="#EBEBEB"/>
<path d="M334.78 389.21H315.59V389.46H334.78V389.21Z" fill="#EBEBEB"/>
<path d="M14.65 390.89H-28.54V391.14H14.65V390.89Z" fill="#EBEBEB"/>
<path d="M29.8901 390.89H23.5601V391.14H29.8901V390.89Z" fill="#EBEBEB"/>
<path d="M144.15 395.11H50.47V395.36H144.15V395.11Z" fill="#EBEBEB"/>
<path d="M157.4 337.8H-35.6999C-37.2143 337.8 -38.6667 337.198 -39.7375 336.128C-40.8083 335.057 -41.4099 333.604 -41.4099 332.09V60.66C-41.3967 59.1543 -40.7893 57.7147 -39.7199 56.6547C-38.6505 55.5947 -37.2057 54.9999 -35.6999 55H157.4C158.15 55 158.892 55.1477 159.585 55.4346C160.278 55.7216 160.907 56.1422 161.438 56.6724C161.968 57.2026 162.388 57.8321 162.675 58.5249C162.962 59.2176 163.11 59.9602 163.11 60.71V332.09C163.11 332.84 162.962 333.582 162.675 334.275C162.388 334.968 161.968 335.597 161.438 336.128C160.907 336.658 160.278 337.078 159.585 337.365C158.892 337.652 158.15 337.8 157.4 337.8ZM-35.6999 55.2C-37.1472 55.2026 -38.5344 55.7787 -39.5578 56.8021C-40.5812 57.8255 -41.1573 59.2127 -41.1599 60.66V332.09C-41.1573 333.537 -40.5812 334.924 -39.5578 335.948C-38.5344 336.971 -37.1472 337.547 -35.6999 337.55H157.4C158.847 337.547 160.235 336.971 161.258 335.948C162.281 334.924 162.857 333.537 162.86 332.09V60.66C162.857 59.2127 162.281 57.8255 161.258 56.8021C160.235 55.7787 158.847 55.2026 157.4 55.2H-35.6999Z" fill="#EBEBEB"/>
<path d="M373.7 337.8H180.6C179.086 337.8 177.633 337.198 176.562 336.128C175.491 335.057 174.89 333.604 174.89 332.09V60.66C174.903 59.1543 175.51 57.7147 176.58 56.6547C177.649 55.5947 179.094 54.9999 180.6 55H373.7C375.214 55 376.667 55.6016 377.737 56.6724C378.808 57.7433 379.41 59.1956 379.41 60.71V332.09C379.41 333.604 378.808 335.057 377.737 336.128C376.667 337.198 375.214 337.8 373.7 337.8ZM180.6 55.2C179.153 55.2026 177.765 55.7787 176.742 56.8021C175.719 57.8255 175.143 59.2127 175.14 60.66V332.09C175.143 333.537 175.719 334.924 176.742 335.948C177.765 336.971 179.153 337.547 180.6 337.55H373.7C375.147 337.547 376.534 336.971 377.558 335.948C378.581 334.924 379.157 333.537 379.16 332.09V60.66C379.157 59.2127 378.581 57.8255 377.558 56.8021C376.534 55.7787 375.147 55.2026 373.7 55.2H180.6Z" fill="#EBEBEB"/>
<path d="M419 382.4H-81V382.65H419V382.4Z" fill="#EBEBEB"/>
<path d="M323.41 91.3301H296.52C287.993 91.3301 281.08 98.2428 281.08 106.77V133.66C281.08 142.187 287.993 149.1 296.52 149.1H323.41C331.937 149.1 338.85 142.187 338.85 133.66V106.77C338.85 98.2428 331.937 91.3301 323.41 91.3301Z" fill="#F0F0F0"/>
<path d="M317.15 112.05C317.15 116.97 314.65 120.95 309.73 120.95C304.81 120.95 302.31 116.95 302.31 112.05C302.31 107.15 304.81 103.14 309.73 103.14C314.65 103.14 317.15 107.13 317.15 112.05Z" fill="#FAFAFA"/>
<path d="M309.73 137.28H323.46V129.12C323.46 124.61 317.31 120.95 309.73 120.95C302.15 120.95 296 124.61 296 129.12V137.28H309.73Z" fill="#FAFAFA"/>
<path d="M70.4899 110.7H51.7099C45.7563 110.7 40.9299 115.526 40.9299 121.48V140.26C40.9299 146.214 45.7563 151.04 51.7099 151.04H70.4899C76.4436 151.04 81.2699 146.214 81.2699 140.26V121.48C81.2699 115.526 76.4436 110.7 70.4899 110.7Z" fill="#E6E6E6"/>
<path d="M60.2799 133.05C60.8858 132.208 61.5871 131.44 62.3699 130.76C62.9042 130.288 63.3992 129.773 63.8499 129.22C64.1584 128.811 64.3236 128.312 64.3199 127.8C64.3309 127.45 64.2543 127.103 64.0971 126.791C63.94 126.478 63.7072 126.21 63.4199 126.01C62.7121 125.546 61.8753 125.318 61.0299 125.36C60.1438 125.339 59.2668 125.542 58.4799 125.95C57.7342 126.352 57.0909 126.92 56.5999 127.61L52.9099 125.45C53.7686 124.154 54.965 123.116 56.3699 122.45C57.9908 121.698 59.7638 121.332 61.5499 121.38C63.5351 121.286 65.5009 121.806 67.1799 122.87C67.853 123.324 68.4005 123.94 68.7711 124.662C69.1418 125.384 69.3237 126.189 69.2999 127C69.3164 127.755 69.1733 128.504 68.8799 129.2C68.6371 129.785 68.2992 130.325 67.8799 130.8C67.4799 131.24 66.9699 131.74 66.3399 132.31C65.7369 132.823 65.1844 133.392 64.6899 134.01C64.3347 134.489 64.1515 135.074 64.1699 135.67H59.5599C59.5229 134.743 59.7745 133.828 60.2799 133.05ZM59.7899 142.52C59.5152 142.266 59.2981 141.956 59.1532 141.611C59.0083 141.266 58.939 140.894 58.9499 140.52C58.9419 140.158 59.0119 139.798 59.1551 139.465C59.2983 139.132 59.5114 138.833 59.7799 138.59C60.3657 138.087 61.1125 137.81 61.8849 137.81C62.6573 137.81 63.4041 138.087 63.9899 138.59C64.2566 138.834 64.4678 139.133 64.6093 139.466C64.7507 139.799 64.8191 140.158 64.8099 140.52C64.8208 140.894 64.7515 141.266 64.6066 141.611C64.4617 141.956 64.2446 142.266 63.9699 142.52C63.3987 143.041 62.6533 143.33 61.8799 143.33C61.1065 143.33 60.3611 143.041 59.7899 142.52Z" fill="#FAFAFA"/>
<path d="M320.64 248.79H335.17C337.384 248.79 339.508 249.67 341.074 251.236C342.64 252.802 343.52 254.926 343.52 257.14V271.67C343.52 273.882 342.641 276.003 341.077 277.567C339.513 279.131 337.392 280.01 335.18 280.01H320.64C318.428 280.01 316.307 279.131 314.743 277.567C313.179 276.003 312.3 273.882 312.3 271.67V257.14C312.3 254.928 313.179 252.807 314.743 251.243C316.307 249.679 318.428 248.8 320.64 248.8V248.79Z" fill="#EBEBEB"/>
<path d="M327.26 266.09C327.73 265.439 328.274 264.846 328.88 264.32C329.296 263.953 329.681 263.551 330.03 263.12C330.269 262.807 330.395 262.423 330.39 262.03C330.401 261.759 330.342 261.491 330.219 261.249C330.097 261.008 329.915 260.801 329.69 260.65C329.144 260.285 328.496 260.106 327.84 260.14C327.17 260.12 326.505 260.269 325.908 260.573C325.31 260.877 324.799 261.327 324.42 261.88L321.56 260.21C322.221 259.198 323.148 258.388 324.24 257.87C325.492 257.29 326.861 257.006 328.24 257.04C329.778 256.965 331.302 257.371 332.6 258.2C333.123 258.552 333.548 259.032 333.835 259.593C334.122 260.155 334.261 260.78 334.24 261.41C334.252 261.993 334.143 262.571 333.92 263.11C333.732 263.564 333.468 263.983 333.14 264.35C332.766 264.762 332.368 265.153 331.95 265.52C331.487 265.919 331.058 266.357 330.67 266.83C330.402 267.206 330.261 267.658 330.27 268.12H326.71C326.679 267.403 326.871 266.693 327.26 266.09ZM326.88 273.42C326.671 273.227 326.506 272.991 326.396 272.729C326.286 272.467 326.233 272.184 326.24 271.9C326.234 271.62 326.287 271.341 326.396 271.083C326.504 270.825 326.666 270.592 326.87 270.4C327.324 270.012 327.902 269.799 328.5 269.799C329.098 269.799 329.676 270.012 330.13 270.4C330.336 270.591 330.5 270.823 330.61 271.082C330.72 271.34 330.775 271.619 330.77 271.9C330.776 272.185 330.722 272.468 330.609 272.73C330.497 272.992 330.33 273.228 330.12 273.42C329.906 273.629 329.653 273.792 329.374 273.9C329.096 274.008 328.799 274.059 328.5 274.05C328.202 274.057 327.905 274.005 327.627 273.897C327.349 273.789 327.095 273.627 326.88 273.42Z" fill="#FAFAFA"/>
<path d="M36.11 171.2H17.33C11.3764 171.2 6.55005 176.026 6.55005 181.98V200.76C6.55005 206.714 11.3764 211.54 17.33 211.54H36.11C42.0637 211.54 46.89 206.714 46.89 200.76V181.98C46.89 176.026 42.0637 171.2 36.11 171.2Z" fill="#EBEBEB"/>
<path d="M26.7201 180C25.5216 180 24.3349 180.236 23.2277 180.695C22.1206 181.154 21.1148 181.827 20.2678 182.675C19.4208 183.523 18.7492 184.529 18.2914 185.637C17.8337 186.745 17.5988 187.932 17.6001 189.13C17.6001 194.13 21.6801 206.25 26.7201 206.25C31.7601 206.25 35.8401 194.16 35.8401 189.13C35.8414 187.932 35.6065 186.745 35.1488 185.637C34.691 184.529 34.0195 183.523 33.1725 182.675C32.3255 181.827 31.3196 181.154 30.2125 180.695C29.1054 180.236 27.9186 180 26.7201 180ZM26.7201 191.88C26.1762 191.88 25.6445 191.719 25.1923 191.417C24.7401 191.114 24.3876 190.685 24.1794 190.182C23.9713 189.68 23.9168 189.127 24.0229 188.594C24.1291 188.06 24.391 187.57 24.7756 187.185C25.1602 186.801 25.6502 186.539 26.1836 186.433C26.7171 186.327 27.27 186.381 27.7725 186.589C28.275 186.797 28.7045 187.15 29.0066 187.602C29.3088 188.054 29.4701 188.586 29.4701 189.13C29.4596 189.852 29.1652 190.542 28.6506 191.049C28.1361 191.556 27.4426 191.84 26.7201 191.84V191.88Z" fill="#FAFAFA"/>
<path d="M30.75 246.44C31.0434 244.588 31.0434 242.702 30.75 240.85L27.94 240.48C27.7133 239.448 27.3781 238.442 26.94 237.48L29 235.53C28.1435 233.862 27.0337 232.338 25.71 231.01L23.21 232.37C22.4372 231.67 21.5925 231.053 20.69 230.53L21.21 227.74C19.5491 226.885 17.7639 226.298 15.92 226L14.71 228.55C14.2 228.5 13.71 228.47 13.15 228.47C12.59 228.47 12.09 228.47 11.58 228.55L10.37 226C8.51642 226.292 6.72082 226.876 5.05001 227.73L5.57001 230.52C4.66752 231.043 3.82283 231.66 3.05001 232.36L0.550014 231C-0.773629 232.328 -1.88347 233.852 -2.73999 235.52L-0.67999 237.47C-1.1181 238.432 -1.45329 239.438 -1.67999 240.47L-4.47999 240.84C-4.78662 242.691 -4.78662 244.579 -4.47999 246.43L-1.67999 246.8C-1.45329 247.832 -1.1181 248.838 -0.67999 249.8L-2.73999 251.75C-1.88542 253.419 -0.775364 254.944 0.550014 256.27L3.05001 254.91C3.82283 255.61 4.66752 256.227 5.57001 256.75L5.05001 259.54C6.72082 260.394 8.51642 260.978 10.37 261.27L11.58 258.72C12.09 258.77 12.58 258.8 13.15 258.8C13.72 258.8 14.15 258.8 14.71 258.72L15.92 261.27C17.7736 260.978 19.5692 260.394 21.24 259.54L20.72 256.75C21.6225 256.227 22.4672 255.61 23.24 254.91L25.74 256.27C27.0637 254.942 28.1735 253.418 29.03 251.75L27 249.78C27.4369 248.818 27.772 247.812 28 246.78L30.75 246.44ZM13.15 249.87C11.917 249.872 10.7111 249.508 9.68505 248.824C8.659 248.14 7.85894 247.168 7.38616 246.029C6.91339 244.89 6.78917 243.636 7.02924 242.427C7.26931 241.218 7.86286 240.107 8.73474 239.235C9.60663 238.363 10.7176 237.769 11.9271 237.529C13.1365 237.289 14.39 237.413 15.5288 237.886C16.6675 238.359 17.6404 239.159 18.3242 240.185C19.008 241.211 19.372 242.417 19.37 243.65C19.3674 245.299 18.7112 246.879 17.5453 248.045C16.3794 249.211 14.7988 249.867 13.15 249.87Z" fill="#EBEBEB"/>
<path d="M39.7701 266.56C39.8419 266.097 39.8787 265.629 39.8801 265.16C39.8794 264.691 39.8427 264.223 39.7701 263.76L38.3601 263.58C38.2532 263.068 38.0923 262.568 37.8801 262.09L38.8801 261.09C38.4522 260.252 37.8954 259.486 37.2301 258.82L35.9801 259.5C35.5918 259.152 35.1697 258.844 34.7201 258.58L34.9801 257.19C34.1453 256.761 33.2474 256.467 32.3201 256.32L31.7201 257.6C31.4601 257.6 31.2001 257.6 30.9401 257.6C30.6801 257.6 30.4101 257.6 30.1501 257.6L29.5501 256.32C28.6229 256.467 27.725 256.761 26.8901 257.19L27.1501 258.58C26.7006 258.844 26.2785 259.152 25.8901 259.5L24.6401 258.82C23.9748 259.486 23.418 260.252 22.9901 261.09L23.9901 262.09C23.778 262.568 23.6171 263.068 23.5101 263.58L22.1101 263.76C22.0325 264.223 21.9957 264.691 22.0001 265.16C21.9966 265.629 22.0334 266.097 22.1101 266.56L23.5101 266.74C23.6171 267.249 23.778 267.745 23.9901 268.22L22.9901 269.22C23.4189 270.055 23.9757 270.817 24.6401 271.48L25.8901 270.8C26.2734 271.154 26.6962 271.463 27.1501 271.72L26.8901 273.11C27.725 273.539 28.6229 273.833 29.5501 273.98L30.1501 272.7C30.6721 272.753 31.1981 272.753 31.7201 272.7L32.3201 273.98C33.2474 273.833 34.1453 273.539 34.9801 273.11L34.7201 271.72C35.1741 271.463 35.5969 271.154 35.9801 270.8L37.2301 271.48C37.8946 270.817 38.4513 270.055 38.8801 269.22L37.8801 268.22C38.0922 267.745 38.2531 267.249 38.3601 266.74L39.7701 266.56ZM30.9701 268.27C30.355 268.27 29.7537 268.088 29.2423 267.746C28.7309 267.404 28.3322 266.918 28.0968 266.35C27.8615 265.782 27.7999 265.157 27.9199 264.553C28.0399 263.95 28.3361 263.396 28.771 262.961C29.206 262.526 29.7601 262.23 30.3634 262.11C30.9667 261.99 31.592 262.051 32.1603 262.287C32.7285 262.522 33.2143 262.921 33.556 263.432C33.8977 263.944 34.0801 264.545 34.0801 265.16C34.0776 265.979 33.7532 266.764 33.177 267.346C32.6008 267.928 31.8189 268.26 31.0001 268.27H30.9701Z" fill="#E0E0E0"/>
<path d="M348.74 246.38C349.117 246.102 349.475 245.798 349.81 245.47C350.14 245.137 350.445 244.78 350.72 244.4L349.86 243.28C350.144 242.844 350.379 242.378 350.56 241.89H351.98C352.271 240.999 352.419 240.067 352.42 239.13L351.05 238.73C351.029 238.209 350.949 237.692 350.81 237.19L351.98 236.39C351.697 235.496 351.268 234.654 350.71 233.9L349.38 234.37C349.217 234.167 349.043 233.974 348.86 233.79C348.67 233.6 348.48 233.43 348.28 233.26L348.75 231.93C347.99 231.382 347.15 230.953 346.26 230.66L345.46 231.83C344.952 231.701 344.433 231.62 343.91 231.59L343.51 230.23C342.572 230.227 341.64 230.376 340.75 230.67V232.08C340.263 232.268 339.797 232.506 339.36 232.79L338.23 231.93C337.464 232.49 336.789 233.164 336.23 233.93L337.09 235.05C336.808 235.492 336.57 235.961 336.38 236.45H334.97C334.68 237.341 334.532 238.273 334.53 239.21L335.89 239.61C335.919 240.13 336 240.646 336.13 241.15L334.96 241.96C335.253 242.85 335.682 243.69 336.23 244.45L337.56 243.97C337.73 244.17 337.9 244.37 338.09 244.56C338.28 244.75 338.47 244.92 338.67 245.08L338.2 246.41C338.954 246.968 339.795 247.397 340.69 247.68L341.49 246.51C341.992 246.649 342.509 246.73 343.03 246.75L343.43 248.12C344.37 248.119 345.305 247.971 346.2 247.68V246.26C346.686 246.075 347.152 245.841 347.59 245.56L348.74 246.38ZM341.31 241.38C340.875 240.945 340.579 240.391 340.459 239.788C340.34 239.184 340.401 238.559 340.637 237.991C340.872 237.423 341.271 236.937 341.782 236.596C342.294 236.254 342.895 236.072 343.51 236.072C344.125 236.072 344.726 236.254 345.237 236.596C345.749 236.937 346.147 237.423 346.383 237.991C346.618 238.559 346.68 239.184 346.56 239.788C346.44 240.391 346.144 240.945 345.71 241.38C345.421 241.67 345.078 241.899 344.7 242.056C344.322 242.212 343.917 242.292 343.508 242.291C343.099 242.29 342.694 242.208 342.317 242.05C341.939 241.892 341.597 241.661 341.31 241.37V241.38Z" fill="#F0F0F0"/>
<path d="M169 423.71C276.083 423.71 362.89 418.642 362.89 412.39C362.89 406.138 276.083 401.07 169 401.07C61.9176 401.07 -24.8899 406.138 -24.8899 412.39C-24.8899 418.642 61.9176 423.71 169 423.71Z" fill="#F5F5F5"/>
<path d="M204.56 113.76V98.1799L212.22 97.0999V112.68L204.56 113.76Z" fill="#263238"/>
<path d="M179.09 122.44L173.35 113.3L178.24 109.8L183.97 118.93L179.09 122.44Z" fill="#263238"/>
<path d="M232.8 112.06L238.54 101.32L243.42 103.45L237.69 114.2L232.8 112.06Z" fill="#263238"/>
<g opacity="0.5">
<path d="M204.56 113.76V98.1799L212.22 97.0999V112.68L204.56 113.76Z" fill="white"/>
<path d="M179.09 122.44L173.35 113.3L178.24 109.8L183.97 118.93L179.09 122.44Z" fill="white"/>
<path d="M232.8 112.06L238.54 101.32L243.42 103.45L237.69 114.2L232.8 112.06Z" fill="white"/>
</g>
<path d="M213.31 99.61L203.47 101C203.113 101.066 202.745 101.051 202.395 100.956C202.044 100.861 201.719 100.689 201.444 100.452C201.168 100.215 200.949 99.9195 200.803 99.5869C200.657 99.2542 200.588 98.893 200.6 98.53C200.623 97.736 200.922 96.9748 201.446 96.3778C201.97 95.7808 202.686 95.3854 203.47 95.26L213.31 93.88C213.666 93.8142 214.033 93.829 214.383 93.9232C214.733 94.0174 215.057 94.1888 215.332 94.4246C215.608 94.6605 215.826 94.9549 215.973 95.2863C216.12 95.6177 216.19 95.9777 216.18 96.34C216.155 97.1334 215.856 97.8936 215.332 98.4902C214.808 99.0868 214.093 99.4827 213.31 99.61Z" fill="#263238"/>
<path d="M179.83 109.55L172.54 114.79C172.389 114.917 172.213 115.011 172.023 115.067C171.834 115.122 171.635 115.139 171.439 115.114C171.243 115.09 171.054 115.025 170.884 114.925C170.713 114.824 170.566 114.69 170.45 114.53C170.258 114.163 170.209 113.738 170.312 113.337C170.415 112.936 170.664 112.588 171.01 112.36L178.31 107.13C178.46 107.002 178.635 106.907 178.824 106.85C179.013 106.794 179.212 106.777 179.407 106.801C179.603 106.826 179.791 106.891 179.961 106.992C180.13 107.093 180.276 107.229 180.39 107.39C180.582 107.755 180.631 108.179 180.527 108.578C180.424 108.977 180.175 109.324 179.83 109.55Z" fill="#263238"/>
<path d="M244.24 104.71L236.94 101.53C236.766 101.442 236.612 101.318 236.488 101.167C236.364 101.016 236.273 100.841 236.221 100.653C236.168 100.465 236.155 100.268 236.182 100.075C236.21 99.8814 236.277 99.6959 236.38 99.5299C236.562 99.1557 236.877 98.8619 237.262 98.7051C237.648 98.5482 238.078 98.5393 238.47 98.6799L245.76 101.87C245.936 101.956 246.092 102.078 246.218 102.229C246.344 102.38 246.436 102.555 246.489 102.744C246.542 102.933 246.554 103.131 246.525 103.325C246.496 103.519 246.426 103.705 246.32 103.87C246.138 104.242 245.825 104.533 245.441 104.688C245.057 104.843 244.629 104.851 244.24 104.71Z" fill="#263238"/>
<path opacity="0.7" d="M213.31 99.61L203.47 101C203.113 101.066 202.745 101.051 202.395 100.956C202.044 100.861 201.719 100.689 201.444 100.452C201.168 100.215 200.949 99.9195 200.803 99.5869C200.657 99.2542 200.588 98.893 200.6 98.53C200.623 97.736 200.922 96.9748 201.446 96.3778C201.97 95.7808 202.686 95.3854 203.47 95.26L213.31 93.88C213.666 93.8142 214.033 93.829 214.383 93.9232C214.733 94.0174 215.057 94.1888 215.332 94.4246C215.608 94.6605 215.826 94.9549 215.973 95.2863C216.12 95.6177 216.19 95.9777 216.18 96.34C216.155 97.1334 215.856 97.8936 215.332 98.4902C214.808 99.0868 214.093 99.4827 213.31 99.61Z" fill="white"/>
<path opacity="0.7" d="M179.83 109.55L172.54 114.79C172.389 114.917 172.213 115.011 172.023 115.067C171.834 115.122 171.635 115.139 171.439 115.114C171.243 115.09 171.054 115.025 170.884 114.925C170.713 114.824 170.566 114.69 170.45 114.53C170.258 114.163 170.209 113.738 170.312 113.337C170.415 112.936 170.664 112.588 171.01 112.36L178.31 107.13C178.46 107.002 178.635 106.907 178.824 106.85C179.013 106.794 179.212 106.777 179.407 106.801C179.603 106.826 179.791 106.891 179.961 106.992C180.13 107.093 180.276 107.229 180.39 107.39C180.582 107.755 180.631 108.179 180.527 108.578C180.424 108.977 180.175 109.324 179.83 109.55Z" fill="white"/>
<path opacity="0.7" d="M244.24 104.71L236.94 101.53C236.766 101.442 236.612 101.318 236.488 101.167C236.364 101.016 236.273 100.841 236.221 100.653C236.168 100.465 236.155 100.268 236.182 100.075C236.21 99.8814 236.277 99.6959 236.38 99.5299C236.562 99.1557 236.877 98.8619 237.262 98.7051C237.648 98.5482 238.078 98.5393 238.47 98.6799L245.76 101.87C245.936 101.956 246.092 102.078 246.218 102.229C246.344 102.38 246.436 102.555 246.489 102.744C246.542 102.933 246.554 103.131 246.525 103.325C246.496 103.519 246.426 103.705 246.32 103.87C246.138 104.242 245.825 104.533 245.441 104.688C245.057 104.843 244.629 104.851 244.24 104.71Z" fill="white"/>
<path d="M208.39 211.3C181.76 215.04 160.17 196.49 160.17 169.86C160.17 143.23 181.76 118.6 208.39 114.86C235.02 111.12 256.61 129.67 256.61 156.3L263.19 155.38C263.19 125.11 238.65 104.03 208.39 108.28C178.13 112.53 153.59 140.52 153.59 170.78C153.59 201.04 178.12 222.13 208.39 217.88V211.3Z" fill="#269D89"/>
<path d="M189.23 197.236L185.632 203.976L187.043 204.729L190.642 197.99L189.23 197.236Z" fill="#263238"/>
<path d="M229.718 121.422L226.119 128.161L227.531 128.915L231.129 122.175L229.718 121.422Z" fill="#263238"/>
<path d="M170.517 145.652L169.876 147.118L176.108 149.839L176.748 148.373L170.517 145.652Z" fill="#263238"/>
<path d="M187.643 128.54L186.283 129.388L189.872 135.142L191.232 134.294L187.643 128.54Z" fill="#263238"/>
<path d="M175.979 185.385L169.74 189.862L170.672 191.162L176.912 186.685L175.979 185.385Z" fill="#263238"/>
<path d="M246.104 135.026L239.864 139.503L240.797 140.803L247.037 136.326L246.104 135.026Z" fill="#263238"/>
<path d="M173.681 166.343L164.085 167.691L164.531 170.86L174.126 169.511L173.681 166.343Z" fill="#263238"/>
<path d="M209.99 119H206.79V128.6H209.99V119Z" fill="#263238"/>
<path d="M209.99 197.56H206.79V207.16H209.99V197.56Z" fill="#263238"/>
<path d="M196 152.68C195.628 153.055 195.418 153.562 195.418 154.09C195.418 154.618 195.628 155.125 196 155.5L206.74 164.72L209.55 161.51L198.82 152.28C198.609 152.119 198.369 152.002 198.112 151.935C197.856 151.868 197.589 151.853 197.326 151.89C197.064 151.927 196.812 152.016 196.584 152.152C196.356 152.288 196.158 152.467 196 152.68Z" fill="#269D89"/>
<path opacity="0.4" d="M196 152.68C195.628 153.055 195.418 153.562 195.418 154.09C195.418 154.618 195.628 155.125 196 155.5L206.74 164.72L209.55 161.51L198.82 152.28C198.609 152.119 198.369 152.002 198.112 151.935C197.856 151.868 197.589 151.853 197.326 151.89C197.064 151.927 196.812 152.016 196.584 152.152C196.356 152.288 196.158 152.467 196 152.68Z" fill="white"/>
<path d="M267.88 153.92L259.87 164.65L251.87 156.17L267.88 153.92Z" fill="#269D89"/>
<path d="M226.66 141.94C226.449 141.779 226.209 141.662 225.952 141.595C225.696 141.528 225.429 141.513 225.166 141.55C224.904 141.587 224.652 141.676 224.424 141.812C224.196 141.947 223.998 142.127 223.84 142.34L209.3 158.92C208.521 158.822 207.73 158.919 206.999 159.204C206.267 159.489 205.618 159.951 205.11 160.55C203.47 162.43 203.47 165.1 205.11 166.55C206.75 168 209.43 167.55 211.11 165.71C211.628 165.133 211.992 164.434 212.166 163.679C212.341 162.923 212.322 162.136 212.11 161.39L226.65 144.8C226.841 144.614 226.993 144.392 227.098 144.147C227.202 143.902 227.256 143.638 227.257 143.372C227.258 143.106 227.206 142.842 227.103 142.596C227.001 142.35 226.85 142.127 226.66 141.94Z" fill="#269D89"/>
<path d="M229.29 202.26L241.79 200.5L240.68 206.27L218.15 209.44L219.05 204.85L232.61 192.32C233.885 191.167 235.032 189.88 236.03 188.48C236.651 187.6 236.999 186.557 237.03 185.48C237.056 185.044 236.966 184.609 236.77 184.219C236.573 183.829 236.276 183.498 235.91 183.26C234.913 182.733 233.76 182.581 232.66 182.83C231.43 183.005 230.253 183.445 229.21 184.12C228.085 184.83 227.105 185.746 226.32 186.82L221.69 184.11C222.985 182.195 224.694 180.596 226.69 179.43C228.832 178.148 231.215 177.317 233.69 176.99C235.507 176.686 237.368 176.771 239.15 177.24C240.582 177.611 241.86 178.427 242.8 179.57C243.678 180.696 244.138 182.093 244.1 183.52C244.082 185.425 243.554 187.289 242.57 188.92C241.102 191.198 239.314 193.252 237.26 195.02L229.29 202.26Z" fill="#263238"/>
<path d="M271.58 195.68L266.7 196.37L265.46 202.79L258.75 203.73L260 197.3L244 199.56L244.89 194.8L262.4 173.46L269.93 172.41L253.6 192.6L261.43 191.5L262.53 185.77L268.95 184.87L267.84 190.59L272.73 189.91L271.58 195.68Z" fill="#263238"/>
<path d="M291.22 163.38L297.43 162.5L275.58 205.62L269.42 206.48L291.22 163.38Z" fill="#263238"/>
<path d="M319.57 165.43L318.68 170.02L302.78 197.54L295.13 198.62L310.39 172.33L300.74 173.69L299.74 178.69L293.62 179.55L295.7 168.8L319.57 165.43Z" fill="#263238"/>
<path d="M221.57 239C220.622 238.895 219.704 238.602 218.87 238.14L220.33 235.14C221.07 235.572 221.884 235.864 222.73 236C223.634 236.145 224.556 236.145 225.46 236C226.297 235.916 227.102 235.635 227.81 235.18C228.063 235.03 228.275 234.818 228.425 234.565C228.575 234.311 228.659 234.024 228.67 233.73C228.681 233.511 228.619 233.294 228.494 233.113C228.369 232.932 228.189 232.798 227.98 232.73C227.269 232.491 226.535 232.33 225.79 232.25C224.961 232.128 224.139 231.958 223.33 231.74C222.699 231.556 222.127 231.212 221.67 230.74C221.175 230.165 220.927 229.417 220.98 228.66C220.975 227.631 221.278 226.625 221.85 225.77C222.486 224.845 223.341 224.092 224.34 223.58C225.503 222.97 226.767 222.574 228.07 222.41C229.063 222.261 230.071 222.237 231.07 222.34C231.903 222.408 232.716 222.629 233.47 222.99L232.12 225.93C231.514 225.602 230.853 225.388 230.17 225.3C229.417 225.2 228.653 225.2 227.9 225.3C227.036 225.39 226.208 225.692 225.49 226.18C225.229 226.335 225.011 226.552 224.856 226.812C224.7 227.072 224.612 227.367 224.6 227.67C224.592 227.824 224.622 227.978 224.689 228.118C224.755 228.258 224.855 228.379 224.98 228.47C225.26 228.684 225.585 228.831 225.93 228.9C226.31 228.98 226.85 229.07 227.55 229.17C228.374 229.262 229.189 229.415 229.99 229.63C230.61 229.817 231.172 230.162 231.62 230.63C231.86 230.902 232.042 231.219 232.157 231.562C232.273 231.906 232.318 232.269 232.29 232.63C232.3 233.667 231.993 234.682 231.41 235.54C230.762 236.461 229.901 237.213 228.9 237.73C227.72 238.378 226.433 238.808 225.1 239C223.929 239.17 222.74 239.17 221.57 239Z" fill="#263238"/>
<path d="M239.94 224L239.27 227.47L246.48 226.47L245.93 229.35L238.7 230.35L237.99 234.05L246.46 232.86L245.86 235.86L233.86 237.55L236.96 221.55L248.7 219.9L248.1 222.9L239.94 224Z" fill="#263238"/>
<path d="M263.05 226.45C262.234 227.622 261.104 228.541 259.79 229.1L262.49 233.51L258.7 234.05L256.26 230.05L253.2 230.48L252.33 234.95L248.72 235.46L251.82 219.46L258.15 218.57C259.668 218.233 261.257 218.461 262.62 219.21C263.156 219.572 263.587 220.071 263.868 220.654C264.149 221.237 264.271 221.884 264.22 222.53C264.246 223.926 263.837 225.296 263.05 226.45ZM259.6 225.89C259.93 225.567 260.189 225.178 260.361 224.75C260.533 224.321 260.614 223.862 260.6 223.4C260.63 223.098 260.575 222.793 260.443 222.519C260.311 222.246 260.105 222.014 259.85 221.85C259.183 221.524 258.425 221.432 257.7 221.59L254.86 221.99L253.77 227.54L256.83 227.11C257.859 227.008 258.829 226.58 259.6 225.89Z" fill="#263238"/>
<path d="M283.05 215.1L273.23 232L269.7 232.49L266.08 217.49L269.79 216.97L272.29 227.68L279.29 215.62L283.05 215.1Z" fill="#263238"/>
<path d="M284.33 214.92L287.95 214.41L284.85 230.41L281.23 230.92L284.33 214.92Z" fill="#263238"/>
<path d="M292.6 228.71C291.509 228.359 290.566 227.656 289.92 226.71C289.276 225.695 288.952 224.511 288.99 223.31C288.982 221.595 289.397 219.905 290.2 218.39C291.009 216.859 292.18 215.547 293.61 214.57C295.101 213.541 296.814 212.88 298.61 212.64C299.836 212.437 301.092 212.505 302.29 212.84C303.272 213.102 304.13 213.704 304.71 214.54L302.11 217.03C301.676 216.478 301.093 216.063 300.43 215.834C299.766 215.606 299.051 215.573 298.37 215.74C297.282 215.886 296.25 216.306 295.37 216.96C294.519 217.612 293.834 218.454 293.37 219.42C292.89 220.404 292.643 221.485 292.65 222.58C292.613 223.087 292.697 223.595 292.895 224.063C293.093 224.53 293.4 224.944 293.79 225.27C294.255 225.586 294.78 225.802 295.332 225.905C295.884 226.008 296.452 225.996 297 225.87C298.629 225.645 300.106 224.795 301.12 223.5L303.25 225.37C302.455 226.382 301.465 227.223 300.337 227.843C299.21 228.463 297.97 228.85 296.69 228.98C295.324 229.218 293.922 229.125 292.6 228.71Z" fill="#263238"/>
<path d="M310.86 214.08L310.19 217.54L317.4 216.54L316.85 219.41L309.62 220.41L308.91 224.1L317.38 222.91L316.78 225.91L304.78 227.6L307.89 211.6L319.6 210L319 213L310.86 214.08Z" fill="#263238"/>
<path d="M115.47 144.47C104.78 144.47 96.1201 150.78 96.1201 158.56C96.1201 164.21 100.71 169.08 107.32 171.32C106.612 174.565 105.393 177.677 103.71 180.54C106.109 180.183 108.395 179.286 110.396 177.915C112.397 176.545 114.06 174.738 115.26 172.63H115.47C126.16 172.63 134.82 166.33 134.82 158.55C134.82 150.77 126.16 144.47 115.47 144.47Z" fill="#269D89"/>
<path opacity="0.7" d="M115.47 144.47C104.78 144.47 96.1201 150.78 96.1201 158.56C96.1201 164.21 100.71 169.08 107.32 171.32C106.612 174.565 105.393 177.677 103.71 180.54C106.109 180.183 108.395 179.286 110.396 177.915C112.397 176.545 114.06 174.738 115.26 172.63H115.47C126.16 172.63 134.82 166.33 134.82 158.55C134.82 150.77 126.16 144.47 115.47 144.47Z" fill="white"/>
<path d="M106.94 161.27C108.028 161.27 108.91 160.388 108.91 159.3C108.91 158.212 108.028 157.33 106.94 157.33C105.852 157.33 104.97 158.212 104.97 159.3C104.97 160.388 105.852 161.27 106.94 161.27Z" fill="#263238"/>
<path d="M117.31 159.3C117.31 159.696 117.193 160.082 116.973 160.411C116.753 160.74 116.441 160.996 116.075 161.148C115.71 161.299 115.308 161.339 114.92 161.262C114.532 161.184 114.176 160.994 113.896 160.714C113.616 160.435 113.426 160.078 113.348 159.69C113.271 159.302 113.311 158.9 113.462 158.535C113.614 158.169 113.87 157.857 114.199 157.637C114.528 157.417 114.914 157.3 115.31 157.3C115.84 157.3 116.349 157.511 116.724 157.886C117.099 158.261 117.31 158.77 117.31 159.3Z" fill="#263238"/>
<path d="M123.74 161.27C124.828 161.27 125.71 160.388 125.71 159.3C125.71 158.212 124.828 157.33 123.74 157.33C122.652 157.33 121.77 158.212 121.77 159.3C121.77 160.388 122.652 161.27 123.74 161.27Z" fill="#263238"/>
<path d="M291 360.05C291 360.05 291.13 346.7 286.27 348.46C281.41 350.22 291 360.05 291 360.05Z" fill="#269D89"/>
<path d="M296.22 347.69C296.22 347.69 302.66 337.01 296.84 335.48C291.02 333.95 296.22 347.69 296.22 347.69Z" fill="#269D89"/>
<path d="M321.67 340.15C321.67 340.15 335.04 339.46 332.02 334.45C329 329.44 321.67 340.15 321.67 340.15Z" fill="#269D89"/>
<path d="M300.52 343.7C300.52 343.7 314.52 340.54 311.9 348.4C309.28 356.26 300.52 343.7 300.52 343.7Z" fill="#269D89"/>
<path d="M290.35 372.12C290.35 372.12 285 360 282 364.31C279 368.62 290.35 372.12 290.35 372.12Z" fill="#269D89"/>
<path d="M305.61 341.18C305.61 341.18 319.87 337.44 315.43 332.18C310.99 326.92 305.61 341.18 305.61 341.18Z" fill="#269D89"/>
<path d="M316.39 339.71C316.39 339.71 327.67 345.25 322.47 348.87C317.27 352.49 316.39 339.71 316.39 339.71Z" fill="#269D89"/>
<path d="M292.41 354.68C292.41 354.68 300.22 345.28 302.63 352.11C305.04 358.94 292.41 354.68 292.41 354.68Z" fill="#269D89"/>
<g opacity="0.4">
<path d="M290.35 372.12C290.35 372.12 285 360 282 364.31C279 368.62 290.35 372.12 290.35 372.12Z" fill="white"/>
<path d="M305.61 341.18C305.61 341.18 319.87 337.44 315.43 332.18C310.99 326.92 305.61 341.18 305.61 341.18Z" fill="white"/>
<path d="M316.39 339.71C316.39 339.71 327.67 345.25 322.47 348.87C317.27 352.49 316.39 339.71 316.39 339.71Z" fill="white"/>
<path d="M292.41 354.68C292.41 354.68 300.22 345.28 302.63 352.11C305.04 358.94 292.41 354.68 292.41 354.68Z" fill="white"/>
</g>
<path d="M290.27 366.88C290.27 366.88 295.87 354.88 300.38 360.93C304.89 366.98 290.27 366.88 290.27 366.88Z" fill="#269D89"/>
<path d="M290.36 379.5C288.663 371.68 288.907 363.564 291.07 355.86C295.65 340.86 309.7 337.33 323.9 339.6C325.03 339.78 324.53 341.48 323.41 341.3C315.87 340.1 307.41 339.98 300.84 344.54C296.14 347.83 293.48 353.06 292.2 358.54C290.699 365.297 290.662 372.297 292.09 379.07C292.32 380.19 290.6 380.63 290.36 379.51V379.5Z" fill="#269D89"/>
<g opacity="0.3">
<path d="M290.36 379.5C288.663 371.68 288.907 363.564 291.07 355.86C295.65 340.86 309.7 337.33 323.9 339.6C325.03 339.78 324.53 341.48 323.41 341.3C315.87 340.1 307.41 339.98 300.84 344.54C296.14 347.83 293.48 353.06 292.2 358.54C290.699 365.297 290.662 372.297 292.09 379.07C292.32 380.19 290.6 380.63 290.36 379.51V379.5Z" fill="black"/>
</g>
<path d="M279.23 356C279.23 356 272.23 339.68 267.69 343.94C263.15 348.2 279.23 356 279.23 356Z" fill="#269D89"/>
<path d="M278.63 338.64C278.63 338.64 280.29 322.83 272.85 323.51C265.41 324.19 278.63 338.64 278.63 338.64Z" fill="#269D89"/>
<path d="M303.62 318.36C303.62 318.36 318.47 311.69 312.37 306.91C306.27 302.13 303.62 318.36 303.62 318.36Z" fill="#269D89"/>
<path d="M281.41 331.91C281.41 331.91 295.7 321.91 296.87 332.67C298.04 343.43 281.41 331.91 281.41 331.91Z" fill="#269D89"/>
<path d="M284.93 370.94C284.93 370.94 272.34 358.56 271.21 365.1C270.08 371.64 284.93 370.94 284.93 370.94Z" fill="#269D89"/>
<path d="M285.86 326.62C285.86 326.62 300.12 315.84 292.26 311.37C284.4 306.9 285.86 326.62 285.86 326.62Z" fill="#269D89"/>
<path d="M297.37 320.13C297.37 320.13 313.16 321.96 309.15 328.63C305.14 335.3 297.37 320.13 297.37 320.13Z" fill="#269D89"/>
<path d="M278 348.81C278 348.81 281.9 333.96 288.28 341.23C294.66 348.5 278 348.81 278 348.81Z" fill="#269D89"/>
<g opacity="0.4">
<path d="M284.93 370.94C284.93 370.94 272.34 358.56 271.21 365.1C270.08 371.64 284.93 370.94 284.93 370.94Z" fill="white"/>
<path d="M285.86 326.62C285.86 326.62 300.12 315.84 292.26 311.37C284.4 306.9 285.86 326.62 285.86 326.62Z" fill="white"/>
<path d="M297.37 320.13C297.37 320.13 313.16 321.96 309.15 328.63C305.14 335.3 297.37 320.13 297.37 320.13Z" fill="white"/>
<path d="M278 348.81C278 348.81 281.9 333.96 288.28 341.23C294.66 348.5 278 348.81 278 348.81Z" fill="white"/>
</g>
<path d="M282.06 364.6C282.06 364.6 282.06 347.53 290.4 352.94C298.74 358.35 282.06 364.6 282.06 364.6Z" fill="#269D89"/>
<path d="M288.85 379.92C282.99 371.35 278.47 360.92 277.11 350.84C274.37 330.6 288.47 320.15 305.86 316.71C307.24 316.44 307.57 318.71 306.21 319.01C296.98 320.83 287.21 324.4 282.21 332.8C278.6 338.85 278.34 346.38 279.79 353.6C281.719 362.556 285.381 371.049 290.57 378.6C290.654 378.714 290.715 378.844 290.749 378.982C290.783 379.119 290.789 379.262 290.768 379.403C290.746 379.543 290.698 379.677 290.624 379.799C290.551 379.92 290.454 380.026 290.34 380.11C290.226 380.194 290.096 380.255 289.958 380.289C289.821 380.323 289.678 380.329 289.537 380.308C289.397 380.286 289.263 380.238 289.141 380.164C289.02 380.091 288.914 379.994 288.83 379.88L288.85 379.92Z" fill="#269D89"/>
<g opacity="0.3">
<path d="M288.85 379.92C282.99 371.35 278.47 360.92 277.11 350.84C274.37 330.6 288.47 320.15 305.86 316.71C307.24 316.44 307.57 318.71 306.21 319.01C296.98 320.83 287.21 324.4 282.21 332.8C278.6 338.85 278.34 346.38 279.79 353.6C281.719 362.556 285.381 371.049 290.57 378.6C290.654 378.714 290.715 378.844 290.749 378.982C290.783 379.119 290.789 379.262 290.768 379.403C290.746 379.543 290.698 379.677 290.624 379.799C290.551 379.92 290.454 380.026 290.34 380.11C290.226 380.194 290.096 380.255 289.958 380.289C289.821 380.323 289.678 380.329 289.537 380.308C289.397 380.286 289.263 380.238 289.141 380.164C289.02 380.091 288.914 379.994 288.83 379.88L288.85 379.92Z" fill="black"/>
</g>
<path d="M277.57 360.29C277.57 360.29 280.89 349.22 284.45 351.92C288.01 354.62 277.57 360.29 277.57 360.29Z" fill="#269D89"/>
<path d="M276.41 348.73C276.41 348.73 273.84 338.24 279.04 338.48C284.24 338.72 276.41 348.73 276.41 348.73Z" fill="#269D89"/>
<path d="M257.32 336C257.32 336 246.45 332 250.24 328.63C254.03 325.26 257.32 336 257.32 336Z" fill="#269D89"/>
<path d="M273.89 344.32C273.89 344.32 263.11 338.11 263.28 345.32C263.45 352.53 273.89 344.32 273.89 344.32Z" fill="#269D89"/>
<path d="M275 370.42C275 370.42 282.58 361.81 283.95 366.13C285.32 370.45 275 370.42 275 370.42Z" fill="#269D89"/>
<path d="M270.33 340.93C270.33 340.93 259.51 334.17 264.53 330.93C269.55 327.69 270.33 340.93 270.33 340.93Z" fill="#269D89"/>
<path d="M261.79 337C261.79 337 251.05 338.68 254.42 343C257.79 347.32 261.79 337 261.79 337Z" fill="#269D89"/>
<path d="M277.77 355.48C277.77 355.48 273.77 345.7 269.98 350.73C266.19 355.76 277.77 355.48 277.77 355.48Z" fill="#269D89"/>
<g opacity="0.4">
<path d="M275 370.42C275 370.42 282.58 361.81 283.95 366.13C285.32 370.45 275 370.42 275 370.42Z" fill="white"/>
<path d="M270.33 340.93C270.33 340.93 259.51 334.17 264.53 330.93C269.55 327.69 270.33 340.93 270.33 340.93Z" fill="white"/>
<path d="M261.79 337C261.79 337 251.05 338.68 254.42 343C257.79 347.32 261.79 337 261.79 337Z" fill="white"/>
<path d="M277.77 355.48C277.77 355.48 273.77 345.7 269.98 350.73C266.19 355.76 277.77 355.48 277.77 355.48Z" fill="white"/>
</g>
<path d="M276.39 366.11C276.39 366.11 274.86 354.74 269.57 358.59C264.28 362.44 276.39 366.11 276.39 366.11Z" fill="#269D89"/>
<path d="M273.08 376.51C276.494 370.488 278.376 363.72 278.56 356.8C278.63 343.24 267.94 336.7 255.62 334.92C254.62 334.78 254.62 336.32 255.62 336.46C262.16 337.4 269.21 339.46 273.43 344.94C276.43 348.86 277.33 353.87 276.98 358.72C276.483 364.692 274.713 370.489 271.79 375.72C271.31 376.58 272.62 377.39 273.11 376.52L273.08 376.51Z" fill="#269D89"/>
<g opacity="0.3">
<path d="M273.08 376.51C276.494 370.488 278.376 363.72 278.56 356.8C278.63 343.24 267.94 336.7 255.62 334.92C254.62 334.78 254.62 336.32 255.62 336.46C262.16 337.4 269.21 339.46 273.43 344.94C276.43 348.86 277.33 353.87 276.98 358.72C276.483 364.692 274.713 370.489 271.79 375.72C271.31 376.58 272.62 377.39 273.11 376.52L273.08 376.51Z" fill="black"/>
</g>
<path d="M304.2 373.7L300.33 402.89C300.088 404.705 299.195 406.371 297.818 407.577C296.44 408.784 294.671 409.449 292.84 409.45H268.77C266.939 409.449 265.17 408.784 263.793 407.577C262.415 406.371 261.522 404.705 261.28 402.89L257.41 373.7H304.2Z" fill="#269D89"/>
<path opacity="0.3" d="M304.2 373.7L300.33 402.89C300.088 404.705 299.195 406.371 297.818 407.577C296.44 408.784 294.671 409.449 292.84 409.45H268.77C266.939 409.449 265.17 408.784 263.793 407.577C262.415 406.371 261.522 404.705 261.28 402.89L257.41 373.7H304.2Z" fill="white"/>
<path d="M86.87 317.63H80.3V360.81H86.87V317.63Z" fill="#263238"/>
<path opacity="0.5" d="M86.87 317.63H80.3V360.81H86.87V317.63Z" fill="white"/>
<path d="M103.55 393.15L88.16 390.37V359.47C88.1613 359.242 88.1175 359.017 88.031 358.806C87.9446 358.596 87.8172 358.404 87.6563 358.244C87.4954 358.083 87.3041 357.955 87.0936 357.869C86.8831 357.782 86.6576 357.738 86.43 357.74H80.74C80.512 357.738 80.286 357.782 80.0749 357.869C79.8639 357.955 79.672 358.082 79.5103 358.243C79.3485 358.404 79.2202 358.595 79.1327 358.805C79.0451 359.016 79 359.242 79 359.47V390.37L63.62 393.15C62.5403 393.342 61.5628 393.909 60.8588 394.75C60.1549 395.591 59.7694 396.653 59.77 397.75L83.58 395.6L107.4 397.75C107.399 396.654 107.012 395.593 106.309 394.752C105.605 393.911 104.629 393.344 103.55 393.15Z" fill="#263238"/>
<path d="M64.77 402.42C64.77 403.409 64.4768 404.376 63.9274 405.198C63.378 406.02 62.5971 406.661 61.6834 407.039C60.7698 407.418 59.7645 407.517 58.7946 407.324C57.8247 407.131 56.9338 406.655 56.2345 405.955C55.5352 405.256 55.059 404.365 54.8661 403.395C54.6732 402.425 54.7722 401.42 55.1506 400.507C55.5291 399.593 56.1699 398.812 56.9922 398.263C57.8144 397.713 58.7811 397.42 59.77 397.42C61.0961 397.42 62.3679 397.947 63.3055 398.884C64.2432 399.822 64.77 401.094 64.77 402.42Z" fill="#269D89"/>
<path d="M112.4 402.42C112.4 403.409 112.107 404.376 111.557 405.198C111.008 406.02 110.227 406.661 109.314 407.039C108.4 407.418 107.395 407.517 106.425 407.324C105.455 407.131 104.564 406.655 103.865 405.955C103.165 405.256 102.689 404.365 102.496 403.395C102.303 402.425 102.402 401.42 102.781 400.507C103.159 399.593 103.8 398.812 104.622 398.263C105.445 397.713 106.411 397.42 107.4 397.42C108.057 397.42 108.707 397.549 109.314 397.801C109.92 398.052 110.471 398.42 110.936 398.884C111.4 399.349 111.768 399.9 112.02 400.507C112.271 401.113 112.4 401.763 112.4 402.42Z" fill="#269D89"/>
<path d="M87.4902 402.42C87.4902 405.18 86.3502 407.42 83.5802 407.42C80.8102 407.42 79.6802 405.18 79.6802 402.42C79.6802 399.66 80.8202 397.42 83.5802 397.42C86.3402 397.42 87.4902 399.66 87.4902 402.42Z" fill="#269D89"/>
<g opacity="0.5">
<path d="M88.3101 390.39V396.03L90.1701 396.2V390.73L88.3101 390.39Z" fill="black"/>
<path d="M77.04 390.72V396.19L78.9 396.03V390.39L77.04 390.72Z" fill="black"/>
</g>
<path d="M40.6901 278.3C40.2756 278.3 39.8662 278.392 39.491 278.568C39.1158 278.744 38.7838 279.001 38.5186 279.319C38.2534 279.638 38.0615 280.011 37.9563 280.412C37.8512 280.813 37.8354 281.232 37.9101 281.64L44.0101 314.51C44.2858 316.003 45.0759 317.353 46.2432 318.325C47.4105 319.297 48.8812 319.829 50.4001 319.83H146.53C147.097 319.83 147.658 319.718 148.182 319.501C148.705 319.284 149.181 318.965 149.581 318.564C149.982 318.163 150.299 317.686 150.515 317.162C150.731 316.638 150.841 316.077 150.84 315.51C150.84 313.884 150.194 312.325 149.045 311.175C147.895 310.026 146.336 309.38 144.71 309.38H89.8601C88.4063 309.38 86.9942 308.894 85.8488 307.999C84.7035 307.104 83.8907 305.851 83.5401 304.44L78.6301 284.62C78.1836 282.817 77.1464 281.215 75.6839 280.069C74.2214 278.924 72.4177 278.301 70.5601 278.3H40.6901Z" fill="#263238"/>
<path d="M53.6701 304.44L48.7601 284.62C48.3136 282.817 47.2764 281.215 45.8139 280.069C44.3514 278.924 42.5477 278.301 40.6901 278.3C40.2756 278.3 39.8662 278.392 39.491 278.568C39.1158 278.744 38.7838 279.001 38.5186 279.319C38.2534 279.638 38.0615 280.011 37.9563 280.412C37.8512 280.813 37.8354 281.232 37.9101 281.64L44.0101 314.51C44.2858 316.003 45.0759 317.353 46.2432 318.325C47.4105 319.297 48.8812 319.829 50.4001 319.83H116.65C117.218 319.831 117.78 319.72 118.305 319.504C118.83 319.287 119.306 318.969 119.708 318.567C120.109 318.166 120.427 317.689 120.644 317.165C120.861 316.64 120.971 316.078 120.97 315.51C120.967 313.885 120.321 312.327 119.172 311.178C118.023 310.029 116.465 309.382 114.84 309.38H60.0001C58.5442 309.384 57.1289 308.9 55.9811 308.004C54.8333 307.108 54.0195 305.853 53.6701 304.44Z" fill="#263238"/>
<path opacity="0.2" d="M53.6701 304.44L48.7601 284.62C48.3136 282.817 47.2764 281.215 45.8139 280.069C44.3514 278.924 42.5477 278.301 40.6901 278.3C40.2756 278.3 39.8662 278.392 39.491 278.568C39.1158 278.744 38.7838 279.001 38.5186 279.319C38.2534 279.638 38.0615 280.011 37.9563 280.412C37.8512 280.813 37.8354 281.232 37.9101 281.64L44.0101 314.51C44.2858 316.003 45.0759 317.353 46.2432 318.325C47.4105 319.297 48.8812 319.829 50.4001 319.83H116.65C117.218 319.831 117.78 319.72 118.305 319.504C118.83 319.287 119.306 318.969 119.708 318.567C120.109 318.166 120.427 317.689 120.644 317.165C120.861 316.64 120.971 316.078 120.97 315.51C120.967 313.885 120.321 312.327 119.172 311.178C118.023 310.029 116.465 309.382 114.84 309.38H60.0001C58.5442 309.384 57.1289 308.9 55.9811 308.004C54.8333 307.108 54.0195 305.853 53.6701 304.44Z" fill="white"/>
<path d="M94.28 184.25C94.28 184.25 105.22 187.51 100.11 195.6L95.36 188.68L94.28 184.25Z" fill="#263238"/>
<path d="M133.69 225.95L138.46 218.95L143.18 220.45L144.04 222.35L138.16 230.76L133.69 225.95Z" fill="#DBB178"/>
<path d="M140.76 227.78C135.98 235.28 128.44 246.22 125.56 245.57C117.1 243.68 105.47 235.67 99.5002 226.87C98.599 225.542 98.2294 223.925 98.4647 222.337C98.6999 220.75 99.5227 219.309 100.77 218.3V218.24C101.421 217.708 102.171 217.311 102.975 217.069C103.78 216.828 104.625 216.747 105.461 216.833C106.297 216.918 107.108 217.168 107.847 217.567C108.587 217.966 109.24 218.508 109.77 219.16C109.88 219.29 109.98 219.43 110.08 219.57C115.37 227.16 122.08 234.36 123.18 234.97C124.47 235.71 127.82 232.54 134.91 223.58L140.76 227.78Z" fill="#269D89"/>
<path opacity="0.6" d="M140.76 227.78C135.98 235.28 128.44 246.22 125.56 245.57C117.1 243.68 105.47 235.67 99.5002 226.87C98.599 225.542 98.2294 223.925 98.4647 222.337C98.6999 220.75 99.5227 219.309 100.77 218.3V218.24C101.421 217.708 102.171 217.311 102.975 217.069C103.78 216.828 104.625 216.747 105.461 216.833C106.297 216.918 107.108 217.168 107.847 217.567C108.587 217.966 109.24 218.508 109.77 219.16C109.88 219.29 109.98 219.43 110.08 219.57C115.37 227.16 122.08 234.36 123.18 234.97C124.47 235.71 127.82 232.54 134.91 223.58L140.76 227.78Z" fill="white"/>
<path d="M140.87 221.73L150.32 223.58L145.92 215.66C145.92 215.66 140.2 215.66 138.46 218.95L140.87 221.73Z" fill="#DBB178"/>
<path opacity="0.2" d="M113.5 240.1C106.65 235.42 105.74 224.44 105.74 224.44L101.86 222.67L100 227.61C103.717 232.547 108.289 236.778 113.5 240.1Z" fill="black"/>
<path d="M157 220.19L152.96 213.75L145.93 215.66L150.32 223.58L157 220.19Z" fill="#DBB178"/>
<path d="M104.52 264.14L71.0002 266.34C71.0002 266.34 70.7602 257.34 69.5902 249.05C69.2272 246.165 68.6523 243.311 67.8702 240.51C67.0002 237.65 65.8702 234.44 64.5702 230.71C64.4002 230.25 64.2302 229.79 64.0402 229.31C63.6002 228.15 63.1502 226.94 62.6402 225.68V225.62C62.1873 224.389 62.2364 223.029 62.777 221.833C63.3177 220.638 64.3065 219.703 65.5302 219.23C65.7606 219.14 65.9981 219.07 66.2402 219.02C68.3702 218.57 70.5202 218.16 72.7002 217.82L74.5802 217.54C79.5994 216.792 84.658 216.338 89.7302 216.18C92.3602 216.18 95.1702 216.26 97.5702 216.37L99.5702 216.47C102.11 216.62 103.87 216.78 103.87 216.78C103.87 216.78 104.97 217 105.62 222.89C105.635 223.225 105.668 223.559 105.72 223.89C105.8 225.11 105.87 226.65 105.9 228.5C106 236.06 105.55 248.75 104.52 264.14Z" fill="#269D89"/>
<path opacity="0.6" d="M104.52 264.14L71.0002 266.34C71.0002 266.34 70.7602 257.34 69.5902 249.05C69.2272 246.165 68.6523 243.311 67.8702 240.51C67.0002 237.65 65.8702 234.44 64.5702 230.71C64.4002 230.25 64.2302 229.79 64.0402 229.31C63.6002 228.15 63.1502 226.94 62.6402 225.68V225.62C62.1873 224.389 62.2364 223.029 62.777 221.833C63.3177 220.638 64.3065 219.703 65.5302 219.23C65.7606 219.14 65.9981 219.07 66.2402 219.02C68.3702 218.57 70.5202 218.16 72.7002 217.82L74.5802 217.54C79.5994 216.792 84.658 216.338 89.7302 216.18C92.3602 216.18 95.1702 216.26 97.5702 216.37L99.5702 216.47C102.11 216.62 103.87 216.78 103.87 216.78C103.87 216.78 104.97 217 105.62 222.89C105.635 223.225 105.668 223.559 105.72 223.89C105.8 225.11 105.87 226.65 105.9 228.5C106 236.06 105.55 248.75 104.52 264.14Z" fill="white"/>
<path d="M75.75 217.38L84.11 228.52L90.11 223.38L97.91 227.14L93.69 216.23C92.39 216.23 91.05 216.23 89.76 216.23C85.0725 216.357 80.3954 216.741 75.75 217.38Z" fill="#269D89"/>
<path opacity="0.9" d="M75.75 217.38L84.11 228.52L90.11 223.38L97.91 227.14L93.69 216.23C92.39 216.23 91.05 216.23 89.76 216.23C85.0725 216.357 80.3954 216.741 75.75 217.38Z" fill="white"/>
<path d="M149.74 398.57H142.61L145.86 344.75H159.2L149.74 398.57Z" fill="#DBB178"/>
<path d="M141.82 397.89C141.74 397.21 150.25 396.57 150.25 396.57C150.25 396.57 156.17 401.13 161.37 401.57C166.57 402.01 164.18 405.46 158.55 406.24L144.62 408.24C140.62 408.83 142.64 405 141.82 397.89Z" fill="#263238"/>
<path d="M154.52 398.18C153.435 398.116 152.362 397.911 151.33 397.57C151.289 397.56 151.251 397.539 151.22 397.51C151.2 397.441 151.2 397.368 151.22 397.3C151.22 397.21 151.69 395.1 152.78 394.48C152.943 394.38 153.126 394.317 153.316 394.295C153.506 394.272 153.698 394.291 153.88 394.35C154.41 394.51 154.55 394.81 154.56 395.02C154.56 395.45 154.15 395.93 153.56 396.37C154.129 396.21 154.731 396.21 155.3 396.37C155.424 396.417 155.537 396.488 155.633 396.579C155.729 396.67 155.806 396.779 155.86 396.9C155.944 397.057 155.979 397.236 155.963 397.413C155.948 397.591 155.88 397.76 155.77 397.9C155.406 398.154 154.957 398.254 154.52 398.18ZM152.23 397.28C153.51 397.61 155.01 397.83 155.34 397.47C155.42 397.4 155.4 397.25 155.34 397.07C155.316 397.011 155.279 396.958 155.232 396.915C155.186 396.872 155.13 396.84 155.07 396.82C154.099 396.705 153.115 396.864 152.23 397.28ZM153.39 394.78C153.242 394.78 153.096 394.821 152.97 394.9C152.4 395.396 151.999 396.056 151.82 396.79C152.92 396.16 154.02 395.37 154.02 395.03C154.02 394.97 153.9 394.89 153.71 394.82C153.606 394.791 153.498 394.778 153.39 394.78Z" fill="#269D89"/>
<path opacity="0.2" d="M145.29 354.16L157.48 354.53L159.2 344.75H145.86L145.29 354.16Z" fill="black"/>
<path d="M115.52 399.48L108.69 398.57L119.5 338.98L132.98 342.83L115.52 399.48Z" fill="#DBB178"/>
<path d="M107.8 397.62C107.8 396.92 116.32 397.62 116.32 397.62C116.32 397.62 121.49 403.01 126.56 404.22C131.63 405.43 128.76 408.5 123.08 408.42L109 408.25C104.93 408.21 107.53 404.8 107.8 397.62Z" fill="#263238"/>
<path d="M120.8 399.84C119.555 399.686 118.346 399.314 117.23 398.74L117.16 398.68C117.155 398.669 117.153 398.657 117.153 398.645C117.153 398.633 117.155 398.621 117.16 398.61C117.145 398.579 117.137 398.544 117.137 398.51C117.137 398.475 117.145 398.441 117.16 398.41C117.16 398.33 117.94 396.33 119.16 395.86C119.333 395.781 119.52 395.74 119.71 395.74C119.9 395.74 120.088 395.781 120.26 395.86C120.76 396.11 120.85 396.41 120.83 396.62C120.83 397.05 120.29 397.46 119.66 397.8C120.247 397.728 120.843 397.822 121.38 398.07C121.495 398.131 121.596 398.216 121.675 398.32C121.755 398.423 121.811 398.543 121.84 398.67C121.904 398.833 121.916 399.011 121.875 399.181C121.834 399.351 121.742 399.504 121.61 399.62C121.375 399.788 121.088 399.866 120.8 399.84ZM118.13 398.56C119.35 399.08 120.8 399.56 121.13 399.22C121.21 399.16 121.23 399.02 121.13 398.82C121.115 398.76 121.088 398.705 121.05 398.657C121.012 398.608 120.964 398.569 120.91 398.54C119.998 398.303 119.039 398.31 118.13 398.56ZM119.53 396.26C119.42 396.264 119.312 396.287 119.21 396.33C118.58 396.729 118.088 397.312 117.8 398C119.02 397.55 120.17 396.9 120.19 396.58C120.19 396.52 120.09 396.42 119.92 396.34C119.814 396.286 119.698 396.253 119.58 396.24L119.53 396.26Z" fill="#269D89"/>
<path opacity="0.2" d="M132.98 342.83L119.5 338.98L117.37 350.73L129.85 352.98L132.98 342.83Z" fill="black"/>
<path d="M142.33 349.37L159.48 350.27C163.87 330.05 168.25 307.76 167.38 302.87C165.73 293.5 153 283.96 103.58 275.87L80.5801 310.43C80.5801 310.43 114.22 308.86 144.88 308.86C144.87 308.88 143.16 328.12 142.33 349.37Z" fill="#269D89"/>
<path opacity="0.1" d="M142.33 349.37L159.48 350.27C163.87 330.05 168.25 307.76 167.38 302.87C165.73 293.5 153 283.96 103.58 275.87L80.5801 310.43C80.5801 310.43 114.22 308.86 144.88 308.86C144.87 308.88 143.16 328.12 142.33 349.37Z" fill="black"/>
<path d="M141.18 346.68L141.69 351.17L160.48 351.81L161.4 347.68L141.18 346.68Z" fill="#269D89"/>
<path d="M92.6301 216.21H89.73C85.57 216.34 81.42 216.68 77.29 217.21C79.09 219.36 84.7001 222.71 88.4601 222.71C93.7101 222.67 92.5401 218.77 92.6301 216.21Z" fill="#DBB178"/>
<path d="M115.67 345.89L133.2 348.74C140.32 328.81 147.44 307.6 147.32 302.82C147.08 293.3 144.99 288.36 110.56 280.68C110.56 280.68 108.73 278.01 104.56 264.18L71.0001 266.38C71.0001 266.38 55.6901 294.58 67.5401 306.62C70.1601 309.3 75.3101 310.5 80.5401 310.45C80.5401 310.45 92.6401 310.51 122.54 309.11C122.55 309.11 119 326.17 115.67 345.89Z" fill="#269D89"/>
<path d="M114.97 342.83L135.28 346.26L133.35 350.53L114.88 347.5L114.97 342.83Z" fill="#269D89"/>
<path opacity="0.1" d="M141.18 346.68L141.69 351.17L160.48 351.81L161.4 347.68L141.18 346.68Z" fill="black"/>
<path d="M90.0901 213.32C89.7042 215.789 89.8061 218.31 90.3901 220.74L81.2001 219.39C81.0021 219.361 80.8136 219.286 80.6491 219.172C80.4846 219.058 80.3487 218.908 80.252 218.732C80.1552 218.557 80.1002 218.362 80.0912 218.162C80.0822 217.962 80.1194 217.763 80.2001 217.58C81.4601 214.72 81.9601 208.96 82.2701 206.31C82.4401 204.71 82.5101 203.25 82.5201 202.23C82.5301 201.21 82.5201 200.83 82.5201 200.83L86.6301 202.71L93.3401 205.78C91.7932 208.067 90.6907 210.625 90.0901 213.32Z" fill="#DBB178"/>
<path opacity="0.2" d="M93.36 205.78C91.7982 208.065 90.6788 210.622 90.06 213.32C86.7068 211.99 83.9376 209.508 82.25 206.32C82.43 204.72 82.5 203.26 82.51 202.24C83.97 202.39 85.33 202.54 86.63 202.72L93.36 205.78Z" fill="black"/>
<path d="M93.85 199.22C93.58 202.29 95.15 204.77 97.35 204.77C99.55 204.77 101.56 202.29 101.83 199.22C102.1 196.15 100.53 193.66 98.33 193.66C96.13 193.66 94.12 196.15 93.85 199.22Z" fill="#269D89"/>
<path opacity="0.5" d="M93.4601 199.22C93.1901 202.29 94.7601 204.77 96.9601 204.77C99.1601 204.77 101.16 202.29 101.43 199.22C101.7 196.15 100.13 193.66 97.9301 193.66C95.7301 193.66 93.7201 196.15 93.4601 199.22Z" fill="black"/>
<path d="M78.0701 193.82C79.7101 201.34 80.2801 205.82 84.7201 209.25C86.1515 210.387 87.8671 211.109 89.6804 211.34C91.4938 211.57 93.3355 211.298 95.0055 210.555C96.6754 209.812 98.1098 208.625 99.1525 207.124C100.195 205.623 100.807 203.864 100.92 202.04C101.51 195.04 98.7301 183.91 90.8101 181.78C89.1078 181.272 87.3017 181.221 85.5733 181.632C83.845 182.043 82.2553 182.902 80.9642 184.122C79.673 185.342 78.7258 186.881 78.2177 188.583C77.7097 190.285 77.6588 192.092 78.0701 193.82Z" fill="#DBB178"/>
<path d="M76.3301 201.67C77.548 203.14 79.2368 204.143 81.1101 204.51C83.4801 204.91 84.0201 202.72 82.8101 200.59C81.7301 198.68 79.1801 196.17 77.0601 196.73C74.9401 197.29 74.8001 199.82 76.3301 201.67Z" fill="#DBB178"/>
<path d="M89.9402 194.56C90.0402 195.18 90.4402 195.64 90.8502 195.56C91.2602 195.48 91.5002 194.97 91.4102 194.36C91.3202 193.75 90.9102 193.28 90.5002 193.36C90.0902 193.44 89.8502 193.94 89.9402 194.56Z" fill="#263238"/>
<path d="M97.0001 193.73C97.0901 194.35 97.5001 194.81 97.9001 194.73C98.3001 194.65 98.5601 194.14 98.4701 193.52C98.3801 192.9 97.9601 192.45 97.5601 192.52C97.1601 192.59 96.8501 193.11 97.0001 193.73Z" fill="#263238"/>
<path d="M94.77 194.3C95.8048 196.102 97.0723 197.759 98.54 199.23C98.1574 199.582 97.7018 199.845 97.2057 200.001C96.7095 200.156 96.1852 200.2 95.67 200.13L94.77 194.3Z" fill="#C0854B"/>
<path d="M87.4301 192.57C87.3709 192.583 87.3094 192.583 87.2501 192.57C87.2074 192.547 87.1698 192.516 87.1394 192.478C87.1091 192.44 87.0867 192.396 87.0736 192.35C87.0606 192.303 87.0571 192.254 87.0633 192.206C87.0696 192.158 87.0855 192.112 87.1101 192.07C87.3791 191.56 87.7699 191.124 88.2479 190.801C88.726 190.478 89.2764 190.279 89.8501 190.22C89.8977 190.216 89.9457 190.221 89.991 190.236C90.0363 190.252 90.078 190.276 90.1136 190.308C90.1492 190.34 90.1779 190.378 90.198 190.422C90.218 190.465 90.2289 190.512 90.2301 190.56C90.2342 190.608 90.2286 190.656 90.2136 190.702C90.1986 190.748 90.1745 190.79 90.1428 190.827C90.1111 190.863 90.0724 190.893 90.0289 190.914C89.9855 190.935 89.9383 190.947 89.8901 190.95C89.439 191.001 89.0074 191.162 88.634 191.421C88.2606 191.679 87.957 192.026 87.7501 192.43C87.7125 192.478 87.6635 192.516 87.6077 192.54C87.5519 192.564 87.4909 192.575 87.4301 192.57Z" fill="#263238"/>
<path d="M99.59 191C99.5304 191.002 99.4712 190.988 99.4186 190.96C99.3659 190.932 99.3216 190.891 99.29 190.84C99.0362 190.445 98.695 190.113 98.2928 189.87C97.8906 189.627 97.4381 189.48 96.97 189.44C96.8836 189.426 96.805 189.381 96.7484 189.314C96.6917 189.247 96.6606 189.163 96.6606 189.075C96.6606 188.987 96.6917 188.903 96.7484 188.836C96.805 188.769 96.8836 188.724 96.97 188.71C97.5572 188.749 98.1271 188.925 98.6342 189.223C99.1412 189.522 99.5713 189.935 99.89 190.43C99.9447 190.51 99.9659 190.608 99.9491 190.703C99.9323 190.799 99.8788 190.884 99.8 190.94C99.7365 190.978 99.6641 190.999 99.59 191Z" fill="#263238"/>
<path d="M79.5402 203.71C79.5402 203.71 84.3202 198.82 81.9802 186.82C81.9802 186.82 85.8302 190.09 94.7702 187.67C94.7702 187.67 89.4802 188.19 87.0602 185.67C87.0602 185.67 91.9902 187.96 99.9602 185.67C99.9602 185.67 98.5402 177.6 89.9602 177.19C89.9602 177.19 92.7302 174.86 95.4002 175.31C95.4002 175.31 92.6702 172.96 85.7402 177.53L83.0002 178.65C83.0002 178.65 75.2802 175.87 71.0002 182.41C67.5902 187.58 69.3002 203.86 79.5402 203.71Z" fill="#263238"/>
<path d="M97.0701 201.5C97.0701 201.5 94.6501 200.89 87.8301 200.74C88.5901 202.81 90.0401 204.52 93.5401 204.56C93.9762 204.608 94.4176 204.566 94.8366 204.436C95.2556 204.305 95.643 204.09 95.9746 203.802C96.3062 203.515 96.5747 203.162 96.7632 202.766C96.9517 202.37 97.0562 201.939 97.0701 201.5Z" fill="#263238"/>
<path d="M92.0001 202.91C93.3443 202.861 94.67 203.235 95.7901 203.98C95.1358 204.398 94.3653 204.598 93.5901 204.55C92.2513 204.606 90.9298 204.231 89.8201 203.48C90.4687 203.065 91.2315 202.866 92.0001 202.91Z" fill="#A02724"/>
<path d="M96.7601 201.44C96.6889 201.691 96.5493 201.918 96.3568 202.094C96.1643 202.271 95.9266 202.39 95.6702 202.44C93.6559 202.393 91.6489 202.179 89.6702 201.8C89.3539 201.772 89.0494 201.666 88.7842 201.491C88.5189 201.317 88.3011 201.079 88.1501 200.8C91.0324 200.791 93.911 201.004 96.7601 201.44Z" fill="white"/>
<path d="M75.8301 196.41V188.34C75.8295 185.952 76.6 183.627 78.027 181.711C79.4541 179.796 81.4613 178.393 83.7501 177.71L86.4501 177.23C84.1032 177.93 82.0451 179.369 80.582 181.333C79.119 183.297 78.3291 185.681 78.3301 188.13V196.41H75.8301Z" fill="#269D89"/>
<path d="M82.1001 200.32C82.3701 203.39 80.8001 205.87 78.6001 205.87C76.4001 205.87 74.3901 203.39 74.1301 200.32C73.8701 197.25 75.4301 194.76 77.6301 194.76C79.8301 194.76 81.8301 197.25 82.1001 200.32Z" fill="#269D89"/>
<path opacity="0.5" d="M82.1001 200.32C82.3701 203.39 80.8001 205.87 78.6001 205.87C76.4001 205.87 74.3901 203.39 74.1301 200.32C73.8701 197.25 75.4301 194.76 77.6301 194.76C79.8301 194.76 81.8301 197.25 82.1001 200.32Z" fill="black"/>
<path d="M80.77 200.32C81.03 203.39 79.47 205.87 77.26 205.87C75.05 205.87 73.06 203.39 72.79 200.32C72.52 197.25 74.09 194.76 76.29 194.76C78.49 194.76 80.5 197.25 80.77 200.32Z" fill="#269D89"/>
<path opacity="0.3" d="M78.0001 201.13L77.8201 199.51H78.1301C77.7301 197.92 76.6101 196.73 75.3801 196.73C74.1501 196.73 73.2501 197.92 73.1201 199.51H73.3301L73.5101 201.13H73.2701C73.6701 202.72 74.7901 203.9 76.0101 203.9C77.2301 203.9 78.1501 202.72 78.2701 201.13H78.0001Z" fill="white"/>
<path d="M63.6301 201L68.0001 192.4L71.5301 200.74C71.5301 200.74 67.9901 205.24 64.3401 204.59L63.6301 201Z" fill="#DBB178"/>
<path d="M74.79 189.23L77.36 196.38L71.52 200.74L68 192.4L74.79 189.23Z" fill="#DBB178"/>
<path d="M64.7801 210.26L68.9801 203.19L68.5401 200.31L64.8401 199L59.5701 207.2L64.7801 210.26Z" fill="#DBB178"/>
<path d="M67.81 205.86L60.14 222.74C60.14 222.74 63.87 219.39 65.93 218.91C69.21 218.14 79.11 221.13 69.08 232.02C69.08 232.02 49.22 244.43 45.17 239.62C42.02 235.88 55.4 213.15 61.53 203.19L67.81 205.86Z" fill="#269D89"/>
<path opacity="0.6" d="M67.81 205.86L60.14 222.74C60.14 222.74 63.87 219.39 65.93 218.91C69.21 218.14 79.11 221.13 69.08 232.02C69.08 232.02 49.22 244.43 45.17 239.62C42.02 235.88 55.4 213.15 61.53 203.19L67.81 205.86Z" fill="white"/>
<path opacity="0.2" d="M60.14 222.74L58 229.33L64.28 219.67C62.8153 220.574 61.4303 221.601 60.14 222.74Z" fill="black"/>
<path d="M88.8702 207.77C88.0304 207.791 87.1904 207.738 86.3602 207.61C84.2201 206.84 82.1493 205.89 80.1702 204.77L80.5702 204.05C82.4921 205.128 84.4987 206.048 86.5702 206.8C88.6999 206.976 90.8405 206.976 92.9702 206.8L93.0302 207.63C92.8702 207.63 90.7702 207.77 88.8702 207.77Z" fill="#269D89"/>
<path d="M89.77 207.94L93.77 207.64C93.77 207.64 93.66 206.4 91.77 206.45C89.88 206.5 89.77 207.94 89.77 207.94Z" fill="#269D89"/>
<g opacity="0.5">
<path d="M88.8702 207.77C88.0304 207.791 87.1904 207.738 86.3602 207.61C84.2201 206.84 82.1493 205.89 80.1702 204.77L80.5702 204.05C82.4921 205.128 84.4987 206.048 86.5702 206.8C88.6999 206.976 90.8405 206.976 92.9702 206.8L93.0302 207.63C92.8702 207.63 90.7702 207.77 88.8702 207.77Z" fill="black"/>
<path d="M89.7703 207.94L93.7703 207.64C93.7703 207.64 93.6603 206.4 91.7703 206.45C89.8803 206.5 89.7703 207.94 89.7703 207.94Z" fill="black"/>
</g>
<path d="M249.06 408.54C248.85 408.548 248.64 408.515 248.443 408.441C248.246 408.368 248.065 408.257 247.911 408.114C247.757 407.971 247.632 407.799 247.545 407.608C247.457 407.417 247.408 407.21 247.4 407L237.4 291.22C237.383 290.221 236.992 289.265 236.306 288.54C235.619 287.815 234.686 287.372 233.69 287.3H186.45C185.454 287.372 184.521 287.815 183.834 288.54C183.148 289.265 182.757 290.221 182.74 291.22L172.74 407C172.739 407.214 172.695 407.426 172.61 407.623C172.525 407.82 172.402 407.998 172.247 408.147C172.092 408.295 171.909 408.411 171.708 408.487C171.508 408.563 171.294 408.598 171.08 408.59C170.648 408.503 170.266 408.253 170.013 407.891C169.76 407.53 169.655 407.086 169.72 406.65L179.72 290.86C180.07 286.81 182.96 283.76 186.45 283.76H233.69C237.18 283.76 240.07 286.81 240.42 290.86L250.42 406.65C250.485 407.086 250.38 407.53 250.127 407.891C249.874 408.253 249.492 408.503 249.06 408.59V408.54Z" fill="#269D89"/>
<g opacity="0.4">
<path d="M249.06 408.54C248.85 408.548 248.64 408.515 248.443 408.441C248.246 408.368 248.065 408.257 247.911 408.114C247.757 407.971 247.632 407.799 247.545 407.608C247.457 407.417 247.408 407.21 247.4 407L237.4 291.22C237.383 290.221 236.992 289.265 236.306 288.54C235.619 287.815 234.686 287.372 233.69 287.3H186.45C185.454 287.372 184.521 287.815 183.834 288.54C183.148 289.265 182.757 290.221 182.74 291.22L172.74 407C172.739 407.214 172.695 407.426 172.61 407.623C172.525 407.82 172.402 407.998 172.247 408.147C172.092 408.295 171.909 408.411 171.708 408.487C171.508 408.563 171.294 408.598 171.08 408.59C170.648 408.503 170.266 408.253 170.013 407.891C169.76 407.53 169.655 407.086 169.72 406.65L179.72 290.86C180.07 286.81 182.96 283.76 186.45 283.76H233.69C237.18 283.76 240.07 286.81 240.42 290.86L250.42 406.65C250.485 407.086 250.38 407.53 250.127 407.891C249.874 408.253 249.492 408.503 249.06 408.59V408.54Z" fill="black"/>
</g>
<path d="M248.4 278.75H119.99C118.869 278.75 117.96 279.659 117.96 280.78V287.36C117.96 288.481 118.869 289.39 119.99 289.39H248.4C249.521 289.39 250.43 288.481 250.43 287.36V280.78C250.43 279.659 249.521 278.75 248.4 278.75Z" fill="#263238"/>
<path opacity="0.2" d="M192.3 278.75H248.4C248.93 278.75 249.439 278.961 249.814 279.336C250.189 279.711 250.4 280.22 250.4 280.75V287.33C250.4 287.86 250.189 288.369 249.814 288.744C249.439 289.119 248.93 289.33 248.4 289.33H192.3V278.75Z" fill="white"/>
<path d="M197.32 408.54C197.105 408.549 196.89 408.515 196.688 408.44C196.487 408.364 196.303 408.249 196.147 408.1C195.991 407.952 195.866 407.773 195.781 407.576C195.696 407.378 195.651 407.165 195.65 406.95L185.65 291.17C185.633 290.171 185.242 289.215 184.556 288.49C183.869 287.765 182.936 287.322 181.94 287.25H134.7C133.706 287.325 132.775 287.768 132.09 288.493C131.406 289.218 131.017 290.173 131 291.17L121 407C120.999 407.214 120.954 407.426 120.87 407.623C120.785 407.82 120.662 407.998 120.507 408.147C120.352 408.295 120.169 408.411 119.968 408.487C119.768 408.563 119.554 408.598 119.34 408.59C118.901 408.498 118.516 408.239 118.266 407.867C118.015 407.495 117.92 407.041 118 406.6L128 290.81C128.35 286.76 131.25 283.71 134.73 283.71H181.97C185.46 283.71 188.35 286.76 188.7 290.81L198.7 406.6C198.765 407.035 198.662 407.478 198.411 407.839C198.16 408.199 197.78 408.45 197.35 408.54H197.32Z" fill="#269D89"/>
<g opacity="0.4">
<path d="M197.32 408.54C197.105 408.549 196.89 408.515 196.688 408.44C196.487 408.364 196.303 408.249 196.147 408.1C195.991 407.952 195.866 407.773 195.781 407.576C195.696 407.378 195.651 407.165 195.65 406.95L185.65 291.17C185.633 290.171 185.242 289.215 184.556 288.49C183.869 287.765 182.936 287.322 181.94 287.25H134.7C133.706 287.325 132.775 287.768 132.09 288.493C131.406 289.218 131.017 290.173 131 291.17L121 407C120.999 407.214 120.954 407.426 120.87 407.623C120.785 407.82 120.662 407.998 120.507 408.147C120.352 408.295 120.169 408.411 119.968 408.487C119.768 408.563 119.554 408.598 119.34 408.59C118.901 408.498 118.516 408.239 118.266 407.867C118.015 407.495 117.92 407.041 118 406.6L128 290.81C128.35 286.76 131.25 283.71 134.73 283.71H181.97C185.46 283.71 188.35 286.76 188.7 290.81L198.7 406.6C198.765 407.035 198.662 407.478 198.411 407.839C198.16 408.199 197.78 408.45 197.35 408.54H197.32Z" fill="black"/>
</g>
<path d="M160.33 273.51H197.39V277C197.39 277.464 197.206 277.909 196.878 278.237C196.549 278.566 196.104 278.75 195.64 278.75H162.08C161.616 278.75 161.171 278.566 160.843 278.237C160.514 277.909 160.33 277.464 160.33 277V273.53V273.51Z" fill="#263238"/>
<path opacity="0.2" d="M160.33 273.51H197.39V277C197.39 277.464 197.206 277.909 196.878 278.237C196.549 278.566 196.104 278.75 195.64 278.75H162.08C161.616 278.75 161.171 278.566 160.843 278.237C160.514 277.909 160.33 277.464 160.33 277V273.53V273.51Z" fill="white"/>
<path d="M134.12 273.51H171.18V277C171.18 277.464 170.996 277.909 170.667 278.237C170.339 278.566 169.894 278.75 169.43 278.75H135.87C135.406 278.75 134.961 278.566 134.632 278.237C134.304 277.909 134.12 277.464 134.12 277V273.53V273.51Z" fill="#263238"/>
<path opacity="0.6" d="M134.12 273.51H171.18V277C171.18 277.464 170.996 277.909 170.667 278.237C170.339 278.566 169.894 278.75 169.43 278.75H135.87C135.406 278.75 134.961 278.566 134.632 278.237C134.304 277.909 134.12 277.464 134.12 277V273.53V273.51Z" fill="white"/>
<path d="M166.89 275.5H163.45V276.74H166.89V275.5Z" fill="#263238"/>
<path d="M161.38 275.5H157.94V276.74H161.38V275.5Z" fill="#263238"/>
<path d="M200 278.75H201.77C202.254 278.74 202.72 278.56 203.085 278.242C203.45 277.924 203.693 277.488 203.77 277.01L209.77 240.12C209.817 239.827 209.801 239.528 209.723 239.241C209.645 238.955 209.506 238.689 209.317 238.461C209.128 238.233 208.892 238.048 208.625 237.918C208.358 237.789 208.066 237.718 207.77 237.71L179 237.66L171.22 278.66H172.99L200 278.75Z" fill="#263238"/>
<path opacity="0.6" d="M200 278.75H201.77C202.254 278.74 202.72 278.56 203.085 278.242C203.45 277.924 203.693 277.488 203.77 277.01L209.77 240.12C209.817 239.827 209.801 239.528 209.723 239.241C209.645 238.955 209.506 238.689 209.317 238.461C209.128 238.233 208.892 238.048 208.625 237.918C208.358 237.789 208.066 237.718 207.77 237.71L179 237.66L171.22 278.66H172.99L200 278.75Z" fill="white"/>
<path opacity="0.2" d="M171.67 276.08L171.17 278.7H172.94L199.94 278.75H201.71C202.194 278.74 202.66 278.56 203.025 278.242C203.39 277.924 203.633 277.488 203.71 277.01L203.85 276.14L171.67 276.08Z" fill="black"/>
<path d="M171.21 278.73H173C173.484 278.72 173.95 278.54 174.315 278.222C174.68 277.904 174.923 277.468 175 276.99L181 240.08C181.047 239.788 181.031 239.489 180.953 239.203C180.875 238.917 180.736 238.652 180.547 238.424C180.357 238.197 180.121 238.013 179.854 237.884C179.587 237.756 179.296 237.686 179 237.68L171.21 278.73Z" fill="#263238"/>
<path opacity="0.3" d="M171.21 278.73H173C173.484 278.72 173.95 278.54 174.315 278.222C174.68 277.904 174.923 277.468 175 276.99L181 240.08C181.047 239.788 181.031 239.489 180.953 239.203C180.875 238.917 180.736 238.652 180.547 238.424C180.357 238.197 180.121 238.013 179.854 237.884C179.587 237.756 179.296 237.686 179 237.68L171.21 278.73Z" fill="white"/>
</g>
</svg>
